
// this file contains the already-parsed midi data for the Bach's Goldberg Variations: Aria
define([], function(){
return [[{"ticksToEvent":0,"beatsToEvent":0,"event":{"deltaTime":0,"type":"meta","subtype":"smpteOffset","frameRate":30,"hour":0,"min":0,"sec":0,"frame":0,"subframe":0},"track":0},0],[{"ticksToEvent":0,"beatsToEvent":0,"event":{"deltaTime":0,"type":"meta","subtype":"setTempo","microsecondsPerBeat":1200000},"track":0},0],[{"ticksToEvent":0,"beatsToEvent":0,"event":{"deltaTime":0,"type":"meta","subtype":"timeSignature","numerator":3,"denominator":4,"metronome":24,"thirtyseconds":8},"track":0},0],[{"ticksToEvent":0,"beatsToEvent":0,"event":{"deltaTime":0,"type":"meta","subtype":"trackName","text":"goldberg.mid"},"track":1},0],[{"ticksToEvent":0,"beatsToEvent":0,"event":{"deltaTime":0,"channel":0,"type":"channel","subtype":"programChange","programNumber":0},"track":1},0],[{"ticksToEvent":0,"beatsToEvent":0,"event":{"deltaTime":0,"channel":0,"type":"channel","noteNumber":79,"velocity":93,"subtype":"noteOn"},"track":1},0],[{"ticksToEvent":0,"beatsToEvent":0,"event":{"deltaTime":0,"type":"meta","subtype":"trackName","text":"goldberg.mid"},"track":2},0],[{"ticksToEvent":0,"beatsToEvent":0,"event":{"deltaTime":0,"channel":1,"type":"channel","subtype":"programChange","programNumber":0},"track":2},0],[{"ticksToEvent":0,"beatsToEvent":0,"event":{"deltaTime":0,"type":"meta","subtype":"trackName","text":"goldberg.mid"},"track":3},0],[{"ticksToEvent":0,"beatsToEvent":0,"event":{"deltaTime":0,"channel":2,"type":"channel","subtype":"programChange","programNumber":0},"track":3},0],[{"ticksToEvent":0,"beatsToEvent":0,"event":{"deltaTime":0,"type":"meta","subtype":"trackName","text":"goldberg.mid"},"track":4},0],[{"ticksToEvent":0,"beatsToEvent":0,"event":{"deltaTime":0,"channel":3,"type":"channel","subtype":"programChange","programNumber":0},"track":4},0],[{"ticksToEvent":0,"beatsToEvent":0,"event":{"deltaTime":0,"channel":3,"type":"channel","noteNumber":55,"velocity":78,"subtype":"noteOn"},"track":4},0],[{"ticksToEvent":32,"beatsToEvent":0.06666666666666667,"event":{"deltaTime":32,"channel":0,"type":"channel","subtype":"controller","controllerType":7,"value":110},"track":1},0],[{"ticksToEvent":0,"beatsToEvent":0,"event":{"deltaTime":32,"channel":2,"type":"channel","subtype":"controller","controllerType":7,"value":115},"track":3},0],[{"ticksToEvent":32,"beatsToEvent":0.06666666666666667,"event":{"deltaTime":64,"channel":3,"type":"channel","subtype":"controller","controllerType":7,"value":115},"track":4},0],[{"ticksToEvent":32,"beatsToEvent":0.06666666666666667,"event":{"deltaTime":96,"channel":1,"type":"channel","subtype":"controller","controllerType":7,"value":112},"track":2},0],[{"ticksToEvent":380,"beatsToEvent":0.7916666666666666,"event":{"deltaTime":444,"channel":0,"type":"channel","noteNumber":79,"velocity":0,"subtype":"noteOff"},"track":1},0],[{"ticksToEvent":4,"beatsToEvent":0.008333333333333333,"event":{"deltaTime":4,"channel":0,"type":"channel","noteNumber":79,"velocity":85,"subtype":"noteOn"},"track":1},0],[{"ticksToEvent":0,"beatsToEvent":0,"event":{"deltaTime":448,"channel":2,"type":"channel","noteNumber":59,"velocity":86,"subtype":"noteOn"},"track":3},0],[{"ticksToEvent":476,"beatsToEvent":0.9916666666666667,"event":{"deltaTime":476,"channel":0,"type":"channel","noteNumber":79,"velocity":0,"subtype":"noteOff"},"track":1},0],[{"ticksToEvent":4,"beatsToEvent":0.008333333333333333,"event":{"deltaTime":4,"channel":0,"type":"channel","noteNumber":81,"velocity":82,"subtype":"noteOn"},"track":1},0],[{"ticksToEvent":0,"beatsToEvent":0,"event":{"deltaTime":864,"channel":1,"type":"channel","noteNumber":62,"velocity":106,"subtype":"noteOn"},"track":2},0],[{"ticksToEvent":56,"beatsToEvent":0.11666666666666667,"event":{"deltaTime":56,"channel":0,"type":"channel","noteNumber":81,"velocity":0,"subtype":"noteOff"},"track":1},0],[{"ticksToEvent":4,"beatsToEvent":0.008333333333333333,"event":{"deltaTime":4,"channel":0,"type":"channel","noteNumber":79,"velocity":85,"subtype":"noteOn"},"track":1},0],[{"ticksToEvent":56,"beatsToEvent":0.11666666666666667,"event":{"deltaTime":56,"channel":0,"type":"channel","noteNumber":79,"velocity":0,"subtype":"noteOff"},"track":1},0],[{"ticksToEvent":4,"beatsToEvent":0.008333333333333333,"event":{"deltaTime":4,"channel":0,"type":"channel","noteNumber":81,"velocity":80,"subtype":"noteOn"},"track":1},0],[{"ticksToEvent":236,"beatsToEvent":0.49166666666666664,"event":{"deltaTime":236,"channel":0,"type":"channel","noteNumber":81,"velocity":0,"subtype":"noteOff"},"track":1},0],[{"ticksToEvent":4,"beatsToEvent":0.008333333333333333,"event":{"deltaTime":4,"channel":0,"type":"channel","noteNumber":83,"velocity":92,"subtype":"noteOn"},"track":1},0],[{"ticksToEvent":116,"beatsToEvent":0.24166666666666667,"event":{"deltaTime":116,"channel":0,"type":"channel","noteNumber":83,"velocity":0,"subtype":"noteOff"},"track":1},0],[{"ticksToEvent":0,"beatsToEvent":0,"event":{"deltaTime":476,"channel":1,"type":"channel","noteNumber":62,"velocity":0,"subtype":"noteOff"},"track":2},0],[{"ticksToEvent":0,"beatsToEvent":0,"event":{"deltaTime":956,"channel":2,"type":"channel","noteNumber":59,"velocity":0,"subtype":"noteOff"},"track":3},0],[{"ticksToEvent":0,"beatsToEvent":0,"event":{"deltaTime":1372,"channel":3,"type":"channel","noteNumber":55,"velocity":0,"subtype":"noteOff"},"track":4},0],[{"ticksToEvent":4,"beatsToEvent":0.008333333333333333,"event":{"deltaTime":4,"channel":0,"type":"channel","noteNumber":81,"velocity":88,"subtype":"noteOn"},"track":1},0],[{"ticksToEvent":0,"beatsToEvent":0,"event":{"deltaTime":4,"channel":3,"type":"channel","noteNumber":54,"velocity":80,"subtype":"noteOn"},"track":4},0],[{"ticksToEvent":236,"beatsToEvent":0.49166666666666664,"event":{"deltaTime":236,"channel":0,"type":"channel","noteNumber":81,"velocity":0,"subtype":"noteOff"},"track":1},0],[{"ticksToEvent":4,"beatsToEvent":0.008333333333333333,"event":{"deltaTime":4,"channel":0,"type":"channel","noteNumber":79,"velocity":86,"subtype":"noteOn"},"track":1},0],[{"ticksToEvent":116,"beatsToEvent":0.24166666666666667,"event":{"deltaTime":116,"channel":0,"type":"channel","noteNumber":79,"velocity":0,"subtype":"noteOff"},"track":1},0],[{"ticksToEvent":4,"beatsToEvent":0.008333333333333333,"event":{"deltaTime":4,"channel":0,"type":"channel","noteNumber":78,"velocity":76,"subtype":"noteOn"},"track":1},0],[{"ticksToEvent":116,"beatsToEvent":0.24166666666666667,"event":{"deltaTime":116,"channel":0,"type":"channel","noteNumber":78,"velocity":0,"subtype":"noteOff"},"track":1},0],[{"ticksToEvent":4,"beatsToEvent":0.008333333333333333,"event":{"deltaTime":4,"channel":0,"type":"channel","noteNumber":76,"velocity":82,"subtype":"noteOn"},"track":1},0],[{"ticksToEvent":0,"beatsToEvent":0,"event":{"deltaTime":484,"channel":2,"type":"channel","noteNumber":57,"velocity":81,"subtype":"noteOn"},"track":3},0],[{"ticksToEvent":236,"beatsToEvent":0.49166666666666664,"event":{"deltaTime":236,"channel":0,"type":"channel","noteNumber":76,"velocity":0,"subtype":"noteOff"},"track":1},0],[{"ticksToEvent":4,"beatsToEvent":0.008333333333333333,"event":{"deltaTime":4,"channel":0,"type":"channel","noteNumber":74,"velocity":75,"subtype":"noteOn"},"track":1},0],[{"ticksToEvent":240,"beatsToEvent":0.5,"event":{"deltaTime":964,"channel":1,"type":"channel","noteNumber":62,"velocity":97,"subtype":"noteOn"},"track":2},0],[{"ticksToEvent":476,"beatsToEvent":0.9916666666666667,"event":{"deltaTime":476,"channel":1,"type":"channel","noteNumber":62,"velocity":0,"subtype":"noteOff"},"track":2},0],[{"ticksToEvent":0,"beatsToEvent":0,"event":{"deltaTime":956,"channel":2,"type":"channel","noteNumber":57,"velocity":0,"subtype":"noteOff"},"track":3},0],[{"ticksToEvent":0,"beatsToEvent":0,"event":{"deltaTime":1436,"channel":3,"type":"channel","noteNumber":54,"velocity":0,"subtype":"noteOff"},"track":4},0],[{"ticksToEvent":4,"beatsToEvent":0.008333333333333333,"event":{"deltaTime":720,"channel":0,"type":"channel","noteNumber":74,"velocity":0,"subtype":"noteOff"},"track":1},0],[{"ticksToEvent":0,"beatsToEvent":0,"event":{"deltaTime":0,"channel":0,"type":"channel","noteNumber":67,"velocity":88,"subtype":"noteOn"},"track":1},0],[{"ticksToEvent":0,"beatsToEvent":0,"event":{"deltaTime":4,"channel":3,"type":"channel","noteNumber":52,"velocity":85,"subtype":"noteOn"},"track":4},0],[{"ticksToEvent":60,"beatsToEvent":0.125,"event":{"deltaTime":60,"channel":0,"type":"channel","noteNumber":67,"velocity":0,"subtype":"noteOff"},"track":1},0],[{"ticksToEvent":0,"beatsToEvent":0,"event":{"deltaTime":0,"channel":0,"type":"channel","noteNumber":66,"velocity":88,"subtype":"noteOn"},"track":1},0],[{"ticksToEvent":60,"beatsToEvent":0.125,"event":{"deltaTime":60,"channel":0,"type":"channel","noteNumber":66,"velocity":0,"subtype":"noteOff"},"track":1},0],[{"ticksToEvent":0,"beatsToEvent":0,"event":{"deltaTime":0,"channel":0,"type":"channel","noteNumber":67,"velocity":88,"subtype":"noteOn"},"track":1},0],[{"ticksToEvent":360,"beatsToEvent":0.75,"event":{"deltaTime":360,"channel":0,"type":"channel","noteNumber":67,"velocity":0,"subtype":"noteOff"},"track":1},0],[{"ticksToEvent":0,"beatsToEvent":0,"event":{"deltaTime":0,"channel":0,"type":"channel","noteNumber":69,"velocity":88,"subtype":"noteOn"},"track":1},0],[{"ticksToEvent":0,"beatsToEvent":0,"event":{"deltaTime":484,"channel":2,"type":"channel","noteNumber":55,"velocity":78,"subtype":"noteOn"},"track":3},0],[{"ticksToEvent":60,"beatsToEvent":0.125,"event":{"deltaTime":60,"channel":0,"type":"channel","noteNumber":69,"velocity":0,"subtype":"noteOff"},"track":1},0],[{"ticksToEvent":0,"beatsToEvent":0,"event":{"deltaTime":0,"channel":0,"type":"channel","noteNumber":67,"velocity":88,"subtype":"noteOn"},"track":1},0],[{"ticksToEvent":60,"beatsToEvent":0.125,"event":{"deltaTime":60,"channel":0,"type":"channel","noteNumber":67,"velocity":0,"subtype":"noteOff"},"track":1},0],[{"ticksToEvent":0,"beatsToEvent":0,"event":{"deltaTime":0,"channel":0,"type":"channel","noteNumber":66,"velocity":88,"subtype":"noteOn"},"track":1},0],[{"ticksToEvent":60,"beatsToEvent":0.125,"event":{"deltaTime":60,"channel":0,"type":"channel","noteNumber":66,"velocity":0,"subtype":"noteOff"},"track":1},0],[{"ticksToEvent":0,"beatsToEvent":0,"event":{"deltaTime":0,"channel":0,"type":"channel","noteNumber":67,"velocity":88,"subtype":"noteOn"},"track":1},0],[{"ticksToEvent":60,"beatsToEvent":0.125,"event":{"deltaTime":60,"channel":0,"type":"channel","noteNumber":67,"velocity":0,"subtype":"noteOff"},"track":1},0],[{"ticksToEvent":0,"beatsToEvent":0,"event":{"deltaTime":0,"channel":0,"type":"channel","noteNumber":69,"velocity":88,"subtype":"noteOn"},"track":1},0],[{"ticksToEvent":60,"beatsToEvent":0.125,"event":{"deltaTime":60,"channel":0,"type":"channel","noteNumber":69,"velocity":0,"subtype":"noteOff"},"track":1},0],[{"ticksToEvent":0,"beatsToEvent":0,"event":{"deltaTime":0,"channel":0,"type":"channel","noteNumber":67,"velocity":88,"subtype":"noteOn"},"track":1},0],[{"ticksToEvent":60,"beatsToEvent":0.125,"event":{"deltaTime":60,"channel":0,"type":"channel","noteNumber":67,"velocity":0,"subtype":"noteOff"},"track":1},0],[{"ticksToEvent":0,"beatsToEvent":0,"event":{"deltaTime":0,"channel":0,"type":"channel","noteNumber":69,"velocity":88,"subtype":"noteOn"},"track":1},0],[{"ticksToEvent":60,"beatsToEvent":0.125,"event":{"deltaTime":60,"channel":0,"type":"channel","noteNumber":69,"velocity":0,"subtype":"noteOff"},"track":1},0],[{"ticksToEvent":0,"beatsToEvent":0,"event":{"deltaTime":0,"channel":0,"type":"channel","noteNumber":67,"velocity":88,"subtype":"noteOn"},"track":1},0],[{"ticksToEvent":60,"beatsToEvent":0.125,"event":{"deltaTime":60,"channel":0,"type":"channel","noteNumber":67,"velocity":0,"subtype":"noteOff"},"track":1},0],[{"ticksToEvent":0,"beatsToEvent":0,"event":{"deltaTime":0,"channel":0,"type":"channel","noteNumber":69,"velocity":88,"subtype":"noteOn"},"track":1},0],[{"ticksToEvent":0,"beatsToEvent":0,"event":{"deltaTime":964,"channel":1,"type":"channel","noteNumber":61,"velocity":92,"subtype":"noteOn"},"track":2},0],[{"ticksToEvent":60,"beatsToEvent":0.125,"event":{"deltaTime":60,"channel":0,"type":"channel","noteNumber":69,"velocity":0,"subtype":"noteOff"},"track":1},0],[{"ticksToEvent":0,"beatsToEvent":0,"event":{"deltaTime":0,"channel":0,"type":"channel","noteNumber":67,"velocity":88,"subtype":"noteOn"},"track":1},0],[{"ticksToEvent":60,"beatsToEvent":0.125,"event":{"deltaTime":60,"channel":0,"type":"channel","noteNumber":67,"velocity":0,"subtype":"noteOff"},"track":1},0],[{"ticksToEvent":0,"beatsToEvent":0,"event":{"deltaTime":0,"channel":0,"type":"channel","noteNumber":69,"velocity":88,"subtype":"noteOn"},"track":1},0],[{"ticksToEvent":60,"beatsToEvent":0.125,"event":{"deltaTime":60,"channel":0,"type":"channel","noteNumber":69,"velocity":0,"subtype":"noteOff"},"track":1},0],[{"ticksToEvent":0,"beatsToEvent":0,"event":{"deltaTime":0,"channel":0,"type":"channel","noteNumber":67,"velocity":88,"subtype":"noteOn"},"track":1},0],[{"ticksToEvent":60,"beatsToEvent":0.125,"event":{"deltaTime":60,"channel":0,"type":"channel","noteNumber":67,"velocity":0,"subtype":"noteOff"},"track":1},0],[{"ticksToEvent":0,"beatsToEvent":0,"event":{"deltaTime":0,"channel":0,"type":"channel","noteNumber":66,"velocity":88,"subtype":"noteOn"},"track":1},0],[{"ticksToEvent":120,"beatsToEvent":0.25,"event":{"deltaTime":120,"channel":0,"type":"channel","noteNumber":66,"velocity":0,"subtype":"noteOff"},"track":1},0],[{"ticksToEvent":0,"beatsToEvent":0,"event":{"deltaTime":0,"channel":0,"type":"channel","noteNumber":67,"velocity":88,"subtype":"noteOn"},"track":1},0],[{"ticksToEvent":116,"beatsToEvent":0.24166666666666667,"event":{"deltaTime":476,"channel":1,"type":"channel","noteNumber":61,"velocity":0,"subtype":"noteOff"},"track":2},0],[{"ticksToEvent":0,"beatsToEvent":0,"event":{"deltaTime":956,"channel":2,"type":"channel","noteNumber":55,"velocity":0,"subtype":"noteOff"},"track":3},0],[{"ticksToEvent":0,"beatsToEvent":0,"event":{"deltaTime":1436,"channel":3,"type":"channel","noteNumber":52,"velocity":0,"subtype":"noteOff"},"track":4},0],[{"ticksToEvent":4,"beatsToEvent":0.008333333333333333,"event":{"deltaTime":120,"channel":0,"type":"channel","noteNumber":67,"velocity":0,"subtype":"noteOff"},"track":1},0],[{"ticksToEvent":0,"beatsToEvent":0,"event":{"deltaTime":0,"channel":0,"type":"channel","noteNumber":69,"velocity":69,"subtype":"noteOn"},"track":1},0],[{"ticksToEvent":0,"beatsToEvent":0,"event":{"deltaTime":4,"channel":3,"type":"channel","noteNumber":50,"velocity":82,"subtype":"noteOn"},"track":4},0],[{"ticksToEvent":56,"beatsToEvent":0.11666666666666667,"event":{"deltaTime":56,"channel":0,"type":"channel","noteNumber":69,"velocity":0,"subtype":"noteOff"},"track":1},0],[{"ticksToEvent":4,"beatsToEvent":0.008333333333333333,"event":{"deltaTime":4,"channel":0,"type":"channel","noteNumber":67,"velocity":71,"subtype":"noteOn"},"track":1},0],[{"ticksToEvent":56,"beatsToEvent":0.11666666666666667,"event":{"deltaTime":56,"channel":0,"type":"channel","noteNumber":67,"velocity":0,"subtype":"noteOff"},"track":1},0],[{"ticksToEvent":4,"beatsToEvent":0.008333333333333333,"event":{"deltaTime":4,"channel":0,"type":"channel","noteNumber":66,"velocity":62,"subtype":"noteOn"},"track":1},0],[{"ticksToEvent":116,"beatsToEvent":0.24166666666666667,"event":{"deltaTime":116,"channel":0,"type":"channel","noteNumber":66,"velocity":0,"subtype":"noteOff"},"track":1},0],[{"ticksToEvent":4,"beatsToEvent":0.008333333333333333,"event":{"deltaTime":4,"channel":0,"type":"channel","noteNumber":67,"velocity":80,"subtype":"noteOn"},"track":1},0],[{"ticksToEvent":56,"beatsToEvent":0.11666666666666667,"event":{"deltaTime":56,"channel":0,"type":"channel","noteNumber":67,"velocity":0,"subtype":"noteOff"},"track":1},0],[{"ticksToEvent":4,"beatsToEvent":0.008333333333333333,"event":{"deltaTime":4,"channel":0,"type":"channel","noteNumber":66,"velocity":81,"subtype":"noteOn"},"track":1},0],[{"ticksToEvent":60,"beatsToEvent":0.125,"event":{"deltaTime":60,"channel":0,"type":"channel","noteNumber":66,"velocity":0,"subtype":"noteOff"},"track":1},0],[{"ticksToEvent":0,"beatsToEvent":0,"event":{"deltaTime":0,"channel":0,"type":"channel","noteNumber":64,"velocity":72,"subtype":"noteOn"},"track":1},0],[{"ticksToEvent":120,"beatsToEvent":0.25,"event":{"deltaTime":120,"channel":0,"type":"channel","noteNumber":64,"velocity":0,"subtype":"noteOff"},"track":1},0],[{"ticksToEvent":0,"beatsToEvent":0,"event":{"deltaTime":0,"channel":0,"type":"channel","noteNumber":64,"velocity":84,"subtype":"noteOn"},"track":1},0],[{"ticksToEvent":0,"beatsToEvent":0,"event":{"deltaTime":484,"channel":2,"type":"channel","noteNumber":54,"velocity":93,"subtype":"noteOn"},"track":3},0],[{"ticksToEvent":236,"beatsToEvent":0.49166666666666664,"event":{"deltaTime":236,"channel":0,"type":"channel","noteNumber":64,"velocity":0,"subtype":"noteOff"},"track":1},0],[{"ticksToEvent":4,"beatsToEvent":0.008333333333333333,"event":{"deltaTime":4,"channel":0,"type":"channel","noteNumber":62,"velocity":75,"subtype":"noteOn"},"track":1},0],[{"ticksToEvent":236,"beatsToEvent":0.49166666666666664,"event":{"deltaTime":956,"channel":3,"type":"channel","noteNumber":50,"velocity":0,"subtype":"noteOff"},"track":4},0],[{"ticksToEvent":4,"beatsToEvent":0.008333333333333333,"event":{"deltaTime":964,"channel":1,"type":"channel","noteNumber":57,"velocity":97,"subtype":"noteOn"},"track":2},0],[{"ticksToEvent":240,"beatsToEvent":0.5,"event":{"deltaTime":244,"channel":3,"type":"channel","noteNumber":48,"velocity":80,"subtype":"noteOn"},"track":4},0],[{"ticksToEvent":236,"beatsToEvent":0.49166666666666664,"event":{"deltaTime":716,"channel":0,"type":"channel","noteNumber":62,"velocity":0,"subtype":"noteOff"},"track":1},0],[{"ticksToEvent":0,"beatsToEvent":0,"event":{"deltaTime":476,"channel":1,"type":"channel","noteNumber":57,"velocity":0,"subtype":"noteOff"},"track":2},0],[{"ticksToEvent":0,"beatsToEvent":0,"event":{"deltaTime":956,"channel":2,"type":"channel","noteNumber":54,"velocity":0,"subtype":"noteOff"},"track":3},0],[{"ticksToEvent":0,"beatsToEvent":0,"event":{"deltaTime":236,"channel":3,"type":"channel","noteNumber":48,"velocity":0,"subtype":"noteOff"},"track":4},0],[{"ticksToEvent":4,"beatsToEvent":0.008333333333333333,"event":{"deltaTime":4,"channel":0,"type":"channel","noteNumber":74,"velocity":92,"subtype":"noteOn"},"track":1},0],[{"ticksToEvent":0,"beatsToEvent":0,"event":{"deltaTime":4,"channel":3,"type":"channel","noteNumber":47,"velocity":85,"subtype":"noteOn"},"track":4},0],[{"ticksToEvent":476,"beatsToEvent":0.9916666666666667,"event":{"deltaTime":476,"channel":0,"type":"channel","noteNumber":74,"velocity":0,"subtype":"noteOff"},"track":1},0],[{"ticksToEvent":4,"beatsToEvent":0.008333333333333333,"event":{"deltaTime":4,"channel":0,"type":"channel","noteNumber":74,"velocity":88,"subtype":"noteOn"},"track":1},0],[{"ticksToEvent":0,"beatsToEvent":0,"event":{"deltaTime":484,"channel":2,"type":"channel","noteNumber":50,"velocity":81,"subtype":"noteOn"},"track":3},0],[{"ticksToEvent":476,"beatsToEvent":0.9916666666666667,"event":{"deltaTime":476,"channel":0,"type":"channel","noteNumber":74,"velocity":0,"subtype":"noteOff"},"track":1},0],[{"ticksToEvent":4,"beatsToEvent":0.008333333333333333,"event":{"deltaTime":4,"channel":0,"type":"channel","noteNumber":76,"velocity":83,"subtype":"noteOn"},"track":1},0],[{"ticksToEvent":0,"beatsToEvent":0,"event":{"deltaTime":964,"channel":1,"type":"channel","noteNumber":55,"velocity":98,"subtype":"noteOn"},"track":2},0],[{"ticksToEvent":56,"beatsToEvent":0.11666666666666667,"event":{"deltaTime":56,"channel":0,"type":"channel","noteNumber":76,"velocity":0,"subtype":"noteOff"},"track":1},0],[{"ticksToEvent":4,"beatsToEvent":0.008333333333333333,"event":{"deltaTime":4,"channel":0,"type":"channel","noteNumber":74,"velocity":73,"subtype":"noteOn"},"track":1},0],[{"ticksToEvent":56,"beatsToEvent":0.11666666666666667,"event":{"deltaTime":56,"channel":0,"type":"channel","noteNumber":74,"velocity":0,"subtype":"noteOff"},"track":1},0],[{"ticksToEvent":4,"beatsToEvent":0.008333333333333333,"event":{"deltaTime":4,"channel":0,"type":"channel","noteNumber":76,"velocity":74,"subtype":"noteOn"},"track":1},0],[{"ticksToEvent":236,"beatsToEvent":0.49166666666666664,"event":{"deltaTime":236,"channel":0,"type":"channel","noteNumber":76,"velocity":0,"subtype":"noteOff"},"track":1},0],[{"ticksToEvent":4,"beatsToEvent":0.008333333333333333,"event":{"deltaTime":4,"channel":0,"type":"channel","noteNumber":77,"velocity":85,"subtype":"noteOn"},"track":1},0],[{"ticksToEvent":116,"beatsToEvent":0.24166666666666667,"event":{"deltaTime":116,"channel":0,"type":"channel","noteNumber":77,"velocity":0,"subtype":"noteOff"},"track":1},0],[{"ticksToEvent":0,"beatsToEvent":0,"event":{"deltaTime":476,"channel":1,"type":"channel","noteNumber":55,"velocity":0,"subtype":"noteOff"},"track":2},0],[{"ticksToEvent":0,"beatsToEvent":0,"event":{"deltaTime":956,"channel":2,"type":"channel","noteNumber":50,"velocity":0,"subtype":"noteOff"},"track":3},0],[{"ticksToEvent":0,"beatsToEvent":0,"event":{"deltaTime":1436,"channel":3,"type":"channel","noteNumber":47,"velocity":0,"subtype":"noteOff"},"track":4},0],[{"ticksToEvent":4,"beatsToEvent":0.008333333333333333,"event":{"deltaTime":4,"channel":0,"type":"channel","noteNumber":76,"velocity":69,"subtype":"noteOn"},"track":1},0],[{"ticksToEvent":0,"beatsToEvent":0,"event":{"deltaTime":4,"channel":3,"type":"channel","noteNumber":48,"velocity":96,"subtype":"noteOn"},"track":4},0],[{"ticksToEvent":236,"beatsToEvent":0.49166666666666664,"event":{"deltaTime":236,"channel":0,"type":"channel","noteNumber":76,"velocity":0,"subtype":"noteOff"},"track":1},0],[{"ticksToEvent":4,"beatsToEvent":0.008333333333333333,"event":{"deltaTime":4,"channel":0,"type":"channel","noteNumber":74,"velocity":74,"subtype":"noteOn"},"track":1},0],[{"ticksToEvent":116,"beatsToEvent":0.24166666666666667,"event":{"deltaTime":116,"channel":0,"type":"channel","noteNumber":74,"velocity":0,"subtype":"noteOff"},"track":1},0],[{"ticksToEvent":4,"beatsToEvent":0.008333333333333333,"event":{"deltaTime":4,"channel":0,"type":"channel","noteNumber":72,"velocity":81,"subtype":"noteOn"},"track":1},0],[{"ticksToEvent":116,"beatsToEvent":0.24166666666666667,"event":{"deltaTime":116,"channel":0,"type":"channel","noteNumber":72,"velocity":0,"subtype":"noteOff"},"track":1},0],[{"ticksToEvent":4,"beatsToEvent":0.008333333333333333,"event":{"deltaTime":4,"channel":0,"type":"channel","noteNumber":71,"velocity":73,"subtype":"noteOn"},"track":1},0],[{"ticksToEvent":0,"beatsToEvent":0,"event":{"deltaTime":484,"channel":2,"type":"channel","noteNumber":52,"velocity":86,"subtype":"noteOn"},"track":3},0],[{"ticksToEvent":236,"beatsToEvent":0.49166666666666664,"event":{"deltaTime":236,"channel":0,"type":"channel","noteNumber":71,"velocity":0,"subtype":"noteOff"},"track":1},0],[{"ticksToEvent":4,"beatsToEvent":0.008333333333333333,"event":{"deltaTime":4,"channel":0,"type":"channel","noteNumber":69,"velocity":64,"subtype":"noteOn"},"track":1},0],[{"ticksToEvent":240,"beatsToEvent":0.5,"event":{"deltaTime":964,"channel":1,"type":"channel","noteNumber":57,"velocity":102,"subtype":"noteOn"},"track":2},0],[{"ticksToEvent":236,"beatsToEvent":0.49166666666666664,"event":{"deltaTime":1196,"channel":3,"type":"channel","noteNumber":48,"velocity":0,"subtype":"noteOff"},"track":4},0],[{"ticksToEvent":4,"beatsToEvent":0.008333333333333333,"event":{"deltaTime":480,"channel":0,"type":"channel","noteNumber":69,"velocity":0,"subtype":"noteOff"},"track":1},0],[{"ticksToEvent":0,"beatsToEvent":0,"event":{"deltaTime":0,"channel":0,"type":"channel","noteNumber":79,"velocity":98,"subtype":"noteOn"},"track":1},0],[{"ticksToEvent":0,"beatsToEvent":0,"event":{"deltaTime":720,"channel":2,"type":"channel","noteNumber":52,"velocity":0,"subtype":"noteOff"},"track":3},0],[{"ticksToEvent":0,"beatsToEvent":0,"event":{"deltaTime":4,"channel":3,"type":"channel","noteNumber":50,"velocity":89,"subtype":"noteOn"},"track":4},0],[{"ticksToEvent":56,"beatsToEvent":0.11666666666666667,"event":{"deltaTime":56,"channel":0,"type":"channel","noteNumber":79,"velocity":0,"subtype":"noteOff"},"track":1},0],[{"ticksToEvent":4,"beatsToEvent":0.008333333333333333,"event":{"deltaTime":4,"channel":0,"type":"channel","noteNumber":78,"velocity":90,"subtype":"noteOn"},"track":1},0],[{"ticksToEvent":56,"beatsToEvent":0.11666666666666667,"event":{"deltaTime":56,"channel":0,"type":"channel","noteNumber":78,"velocity":0,"subtype":"noteOff"},"track":1},0],[{"ticksToEvent":4,"beatsToEvent":0.008333333333333333,"event":{"deltaTime":4,"channel":0,"type":"channel","noteNumber":76,"velocity":85,"subtype":"noteOn"},"track":1},0],[{"ticksToEvent":56,"beatsToEvent":0.11666666666666667,"event":{"deltaTime":56,"channel":0,"type":"channel","noteNumber":76,"velocity":0,"subtype":"noteOff"},"track":1},0],[{"ticksToEvent":4,"beatsToEvent":0.008333333333333333,"event":{"deltaTime":4,"channel":0,"type":"channel","noteNumber":78,"velocity":81,"subtype":"noteOn"},"track":1},0],[{"ticksToEvent":56,"beatsToEvent":0.11666666666666667,"event":{"deltaTime":56,"channel":0,"type":"channel","noteNumber":78,"velocity":0,"subtype":"noteOff"},"track":1},0],[{"ticksToEvent":0,"beatsToEvent":0,"event":{"deltaTime":476,"channel":1,"type":"channel","noteNumber":57,"velocity":0,"subtype":"noteOff"},"track":2},0],[{"ticksToEvent":0,"beatsToEvent":0,"event":{"deltaTime":236,"channel":3,"type":"channel","noteNumber":50,"velocity":0,"subtype":"noteOff"},"track":4},0],[{"ticksToEvent":4,"beatsToEvent":0.008333333333333333,"event":{"deltaTime":4,"channel":0,"type":"channel","noteNumber":79,"velocity":97,"subtype":"noteOn"},"track":1},0],[{"ticksToEvent":0,"beatsToEvent":0,"event":{"deltaTime":4,"channel":3,"type":"channel","noteNumber":52,"velocity":82,"subtype":"noteOn"},"track":4},0],[{"ticksToEvent":56,"beatsToEvent":0.11666666666666667,"event":{"deltaTime":56,"channel":0,"type":"channel","noteNumber":79,"velocity":0,"subtype":"noteOff"},"track":1},0],[{"ticksToEvent":4,"beatsToEvent":0.008333333333333333,"event":{"deltaTime":4,"channel":0,"type":"channel","noteNumber":78,"velocity":102,"subtype":"noteOn"},"track":1},0],[{"ticksToEvent":176,"beatsToEvent":0.36666666666666664,"event":{"deltaTime":176,"channel":0,"type":"channel","noteNumber":78,"velocity":0,"subtype":"noteOff"},"track":1},0],[{"ticksToEvent":0,"beatsToEvent":0,"event":{"deltaTime":236,"channel":3,"type":"channel","noteNumber":52,"velocity":0,"subtype":"noteOff"},"track":4},0],[{"ticksToEvent":4,"beatsToEvent":0.008333333333333333,"event":{"deltaTime":4,"channel":0,"type":"channel","noteNumber":81,"velocity":96,"subtype":"noteOn"},"track":1},0],[{"ticksToEvent":0,"beatsToEvent":0,"event":{"deltaTime":480,"channel":2,"type":"channel","noteNumber":60,"velocity":97,"subtype":"noteOn"},"track":3},0],[{"ticksToEvent":0,"beatsToEvent":0,"event":{"deltaTime":4,"channel":3,"type":"channel","noteNumber":48,"velocity":77,"subtype":"noteOn"},"track":4},0],[{"ticksToEvent":56,"beatsToEvent":0.11666666666666667,"event":{"deltaTime":56,"channel":0,"type":"channel","noteNumber":81,"velocity":0,"subtype":"noteOff"},"track":1},0],[{"ticksToEvent":4,"beatsToEvent":0.008333333333333333,"event":{"deltaTime":4,"channel":0,"type":"channel","noteNumber":79,"velocity":96,"subtype":"noteOn"},"track":1},0],[{"ticksToEvent":176,"beatsToEvent":0.36666666666666664,"event":{"deltaTime":176,"channel":0,"type":"channel","noteNumber":79,"velocity":0,"subtype":"noteOff"},"track":1},0],[{"ticksToEvent":0,"beatsToEvent":0,"event":{"deltaTime":236,"channel":3,"type":"channel","noteNumber":48,"velocity":0,"subtype":"noteOff"},"track":4},0],[{"ticksToEvent":4,"beatsToEvent":0.008333333333333333,"event":{"deltaTime":4,"channel":0,"type":"channel","noteNumber":78,"velocity":101,"subtype":"noteOn"},"track":1},0],[{"ticksToEvent":0,"beatsToEvent":0,"event":{"deltaTime":4,"channel":3,"type":"channel","noteNumber":50,"velocity":92,"subtype":"noteOn"},"track":4},0],[{"ticksToEvent":56,"beatsToEvent":0.11666666666666667,"event":{"deltaTime":56,"channel":0,"type":"channel","noteNumber":78,"velocity":0,"subtype":"noteOff"},"track":1},0],[{"ticksToEvent":4,"beatsToEvent":0.008333333333333333,"event":{"deltaTime":4,"channel":0,"type":"channel","noteNumber":76,"velocity":82,"subtype":"noteOn"},"track":1},0],[{"ticksToEvent":180,"beatsToEvent":0.375,"event":{"deltaTime":180,"channel":0,"type":"channel","noteNumber":76,"velocity":0,"subtype":"noteOff"},"track":1},0],[{"ticksToEvent":0,"beatsToEvent":0,"event":{"deltaTime":0,"channel":0,"type":"channel","noteNumber":74,"velocity":72,"subtype":"noteOn"},"track":1},0],[{"ticksToEvent":0,"beatsToEvent":0,"event":{"deltaTime":480,"channel":2,"type":"channel","noteNumber":60,"velocity":0,"subtype":"noteOff"},"track":3},0],[{"ticksToEvent":0,"beatsToEvent":0,"event":{"deltaTime":0,"channel":2,"type":"channel","noteNumber":59,"velocity":74,"subtype":"noteOn"},"track":3},0],[{"ticksToEvent":56,"beatsToEvent":0.11666666666666667,"event":{"deltaTime":56,"channel":0,"type":"channel","noteNumber":74,"velocity":0,"subtype":"noteOff"},"track":1},0],[{"ticksToEvent":4,"beatsToEvent":0.008333333333333333,"event":{"deltaTime":4,"channel":0,"type":"channel","noteNumber":72,"velocity":92,"subtype":"noteOn"},"track":1},0],[{"ticksToEvent":56,"beatsToEvent":0.11666666666666667,"event":{"deltaTime":116,"channel":2,"type":"channel","noteNumber":59,"velocity":0,"subtype":"noteOff"},"track":3},0],[{"ticksToEvent":4,"beatsToEvent":0.008333333333333333,"event":{"deltaTime":4,"channel":2,"type":"channel","noteNumber":57,"velocity":74,"subtype":"noteOn"},"track":3},0],[{"ticksToEvent":116,"beatsToEvent":0.24166666666666667,"event":{"deltaTime":116,"channel":2,"type":"channel","noteNumber":57,"velocity":0,"subtype":"noteOff"},"track":3},0],[{"ticksToEvent":4,"beatsToEvent":0.008333333333333333,"event":{"deltaTime":180,"channel":0,"type":"channel","noteNumber":72,"velocity":0,"subtype":"noteOff"},"track":1},0],[{"ticksToEvent":0,"beatsToEvent":0,"event":{"deltaTime":0,"channel":0,"type":"channel","noteNumber":72,"velocity":86,"subtype":"noteOn"},"track":1},0],[{"ticksToEvent":0,"beatsToEvent":0,"event":{"deltaTime":4,"channel":2,"type":"channel","noteNumber":55,"velocity":70,"subtype":"noteOn"},"track":3},0],[{"ticksToEvent":116,"beatsToEvent":0.24166666666666667,"event":{"deltaTime":116,"channel":2,"type":"channel","noteNumber":55,"velocity":0,"subtype":"noteOff"},"track":3},0],[{"ticksToEvent":4,"beatsToEvent":0.008333333333333333,"event":{"deltaTime":120,"channel":0,"type":"channel","noteNumber":72,"velocity":0,"subtype":"noteOff"},"track":1},0],[{"ticksToEvent":0,"beatsToEvent":0,"event":{"deltaTime":0,"channel":0,"type":"channel","noteNumber":81,"velocity":90,"subtype":"noteOn"},"track":1},0],[{"ticksToEvent":0,"beatsToEvent":0,"event":{"deltaTime":4,"channel":2,"type":"channel","noteNumber":54,"velocity":86,"subtype":"noteOn"},"track":3},0],[{"ticksToEvent":116,"beatsToEvent":0.24166666666666667,"event":{"deltaTime":116,"channel":2,"type":"channel","noteNumber":54,"velocity":0,"subtype":"noteOff"},"track":3},0],[{"ticksToEvent":4,"beatsToEvent":0.008333333333333333,"event":{"deltaTime":4,"channel":2,"type":"channel","noteNumber":52,"velocity":78,"subtype":"noteOn"},"track":3},0],[{"ticksToEvent":116,"beatsToEvent":0.24166666666666667,"event":{"deltaTime":236,"channel":0,"type":"channel","noteNumber":81,"velocity":0,"subtype":"noteOff"},"track":1},0],[{"ticksToEvent":0,"beatsToEvent":0,"event":{"deltaTime":116,"channel":2,"type":"channel","noteNumber":52,"velocity":0,"subtype":"noteOff"},"track":3},0],[{"ticksToEvent":4,"beatsToEvent":0.008333333333333333,"event":{"deltaTime":4,"channel":0,"type":"channel","noteNumber":72,"velocity":83,"subtype":"noteOn"},"track":1},0],[{"ticksToEvent":0,"beatsToEvent":0,"event":{"deltaTime":4,"channel":2,"type":"channel","noteNumber":54,"velocity":89,"subtype":"noteOn"},"track":3},0],[{"ticksToEvent":116,"beatsToEvent":0.24166666666666667,"event":{"deltaTime":116,"channel":0,"type":"channel","noteNumber":72,"velocity":0,"subtype":"noteOff"},"track":1},0],[{"ticksToEvent":0,"beatsToEvent":0,"event":{"deltaTime":116,"channel":2,"type":"channel","noteNumber":54,"velocity":0,"subtype":"noteOff"},"track":3},0],[{"ticksToEvent":0,"beatsToEvent":0,"event":{"deltaTime":956,"channel":3,"type":"channel","noteNumber":50,"velocity":0,"subtype":"noteOff"},"track":4},0],[{"ticksToEvent":4,"beatsToEvent":0.008333333333333333,"event":{"deltaTime":4,"channel":0,"type":"channel","noteNumber":71,"velocity":68,"subtype":"noteOn"},"track":1},0],[{"ticksToEvent":0,"beatsToEvent":0,"event":{"deltaTime":4,"channel":2,"type":"channel","noteNumber":55,"velocity":75,"subtype":"noteOn"},"track":3},0],[{"ticksToEvent":0,"beatsToEvent":0,"event":{"deltaTime":4,"channel":3,"type":"channel","noteNumber":43,"velocity":82,"subtype":"noteOn"},"track":4},0],[{"ticksToEvent":56,"beatsToEvent":0.11666666666666667,"event":{"deltaTime":56,"channel":0,"type":"channel","noteNumber":71,"velocity":0,"subtype":"noteOff"},"track":1},0],[{"ticksToEvent":4,"beatsToEvent":0.008333333333333333,"event":{"deltaTime":4,"channel":0,"type":"channel","noteNumber":67,"velocity":71,"subtype":"noteOn"},"track":1},0],[{"ticksToEvent":176,"beatsToEvent":0.36666666666666664,"event":{"deltaTime":236,"channel":2,"type":"channel","noteNumber":55,"velocity":0,"subtype":"noteOff"},"track":3},0],[{"ticksToEvent":4,"beatsToEvent":0.008333333333333333,"event":{"deltaTime":180,"channel":0,"type":"channel","noteNumber":67,"velocity":0,"subtype":"noteOff"},"track":1},0],[{"ticksToEvent":0,"beatsToEvent":0,"event":{"deltaTime":0,"channel":0,"type":"channel","noteNumber":66,"velocity":84,"subtype":"noteOn"},"track":1},0],[{"ticksToEvent":0,"beatsToEvent":0,"event":{"deltaTime":4,"channel":2,"type":"channel","noteNumber":57,"velocity":92,"subtype":"noteOn"},"track":3},0],[{"ticksToEvent":236,"beatsToEvent":0.49166666666666664,"event":{"deltaTime":236,"channel":2,"type":"channel","noteNumber":57,"velocity":0,"subtype":"noteOff"},"track":3},0],[{"ticksToEvent":4,"beatsToEvent":0.008333333333333333,"event":{"deltaTime":240,"channel":0,"type":"channel","noteNumber":66,"velocity":0,"subtype":"noteOff"},"track":1},0],[{"ticksToEvent":0,"beatsToEvent":0,"event":{"deltaTime":0,"channel":0,"type":"channel","noteNumber":66,"velocity":90,"subtype":"noteOn"},"track":1},0],[{"ticksToEvent":0,"beatsToEvent":0,"event":{"deltaTime":4,"channel":2,"type":"channel","noteNumber":59,"velocity":91,"subtype":"noteOn"},"track":3},0],[{"ticksToEvent":236,"beatsToEvent":0.49166666666666664,"event":{"deltaTime":716,"channel":3,"type":"channel","noteNumber":43,"velocity":0,"subtype":"noteOff"},"track":4},0],[{"ticksToEvent":4,"beatsToEvent":0.008333333333333333,"event":{"deltaTime":240,"channel":0,"type":"channel","noteNumber":66,"velocity":0,"subtype":"noteOff"},"track":1},0],[{"ticksToEvent":0,"beatsToEvent":0,"event":{"deltaTime":0,"channel":0,"type":"channel","noteNumber":67,"velocity":73,"subtype":"noteOn"},"track":1},0],[{"ticksToEvent":0,"beatsToEvent":0,"event":{"deltaTime":4,"channel":3,"type":"channel","noteNumber":50,"velocity":85,"subtype":"noteOn"},"track":4},0],[{"ticksToEvent":236,"beatsToEvent":0.49166666666666664,"event":{"deltaTime":236,"channel":3,"type":"channel","noteNumber":50,"velocity":0,"subtype":"noteOff"},"track":4},0],[{"ticksToEvent":4,"beatsToEvent":0.008333333333333333,"event":{"deltaTime":4,"channel":3,"type":"channel","noteNumber":52,"velocity":86,"subtype":"noteOn"},"track":4},0],[{"ticksToEvent":60,"beatsToEvent":0.125,"event":{"deltaTime":60,"channel":3,"type":"channel","noteNumber":52,"velocity":0,"subtype":"noteOff"},"track":4},0],[{"ticksToEvent":0,"beatsToEvent":0,"event":{"deltaTime":0,"channel":3,"type":"channel","noteNumber":50,"velocity":86,"subtype":"noteOn"},"track":4},0],[{"ticksToEvent":60,"beatsToEvent":0.125,"event":{"deltaTime":60,"channel":3,"type":"channel","noteNumber":50,"velocity":0,"subtype":"noteOff"},"track":4},0],[{"ticksToEvent":0,"beatsToEvent":0,"event":{"deltaTime":0,"channel":3,"type":"channel","noteNumber":52,"velocity":86,"subtype":"noteOn"},"track":4},0],[{"ticksToEvent":240,"beatsToEvent":0.5,"event":{"deltaTime":240,"channel":3,"type":"channel","noteNumber":52,"velocity":0,"subtype":"noteOff"},"track":4},0],[{"ticksToEvent":0,"beatsToEvent":0,"event":{"deltaTime":0,"channel":3,"type":"channel","noteNumber":54,"velocity":80,"subtype":"noteOn"},"track":4},0],[{"ticksToEvent":116,"beatsToEvent":0.24166666666666667,"event":{"deltaTime":716,"channel":0,"type":"channel","noteNumber":67,"velocity":0,"subtype":"noteOff"},"track":1},0],[{"ticksToEvent":4,"beatsToEvent":0.008333333333333333,"event":{"deltaTime":4,"channel":0,"type":"channel","noteNumber":71,"velocity":82,"subtype":"noteOn"},"track":1},0],[{"ticksToEvent":0,"beatsToEvent":0,"event":{"deltaTime":960,"channel":2,"type":"channel","noteNumber":59,"velocity":0,"subtype":"noteOff"},"track":3},0],[{"ticksToEvent":0,"beatsToEvent":0,"event":{"deltaTime":120,"channel":3,"type":"channel","noteNumber":54,"velocity":0,"subtype":"noteOff"},"track":4},0],[{"ticksToEvent":0,"beatsToEvent":0,"event":{"deltaTime":0,"channel":3,"type":"channel","noteNumber":55,"velocity":90,"subtype":"noteOn"},"track":4},0],[{"ticksToEvent":476,"beatsToEvent":0.9916666666666667,"event":{"deltaTime":476,"channel":0,"type":"channel","noteNumber":71,"velocity":0,"subtype":"noteOff"},"track":1},0],[{"ticksToEvent":4,"beatsToEvent":0.008333333333333333,"event":{"deltaTime":4,"channel":0,"type":"channel","noteNumber":71,"velocity":88,"subtype":"noteOn"},"track":1},0],[{"ticksToEvent":0,"beatsToEvent":0,"event":{"deltaTime":480,"channel":2,"type":"channel","noteNumber":59,"velocity":96,"subtype":"noteOn"},"track":3},0],[{"ticksToEvent":476,"beatsToEvent":0.9916666666666667,"event":{"deltaTime":476,"channel":0,"type":"channel","noteNumber":71,"velocity":0,"subtype":"noteOff"},"track":1},0],[{"ticksToEvent":4,"beatsToEvent":0.008333333333333333,"event":{"deltaTime":4,"channel":0,"type":"channel","noteNumber":73,"velocity":77,"subtype":"noteOn"},"track":1},0],[{"ticksToEvent":0,"beatsToEvent":0,"event":{"deltaTime":3844,"channel":1,"type":"channel","noteNumber":64,"velocity":101,"subtype":"noteOn"},"track":2},0],[{"ticksToEvent":56,"beatsToEvent":0.11666666666666667,"event":{"deltaTime":56,"channel":0,"type":"channel","noteNumber":73,"velocity":0,"subtype":"noteOff"},"track":1},0],[{"ticksToEvent":4,"beatsToEvent":0.008333333333333333,"event":{"deltaTime":4,"channel":0,"type":"channel","noteNumber":71,"velocity":74,"subtype":"noteOn"},"track":1},0],[{"ticksToEvent":56,"beatsToEvent":0.11666666666666667,"event":{"deltaTime":56,"channel":0,"type":"channel","noteNumber":71,"velocity":0,"subtype":"noteOff"},"track":1},0],[{"ticksToEvent":4,"beatsToEvent":0.008333333333333333,"event":{"deltaTime":4,"channel":0,"type":"channel","noteNumber":73,"velocity":82,"subtype":"noteOn"},"track":1},0],[{"ticksToEvent":236,"beatsToEvent":0.49166666666666664,"event":{"deltaTime":236,"channel":0,"type":"channel","noteNumber":73,"velocity":0,"subtype":"noteOff"},"track":1},0],[{"ticksToEvent":4,"beatsToEvent":0.008333333333333333,"event":{"deltaTime":4,"channel":0,"type":"channel","noteNumber":74,"velocity":89,"subtype":"noteOn"},"track":1},0],[{"ticksToEvent":116,"beatsToEvent":0.24166666666666667,"event":{"deltaTime":116,"channel":0,"type":"channel","noteNumber":74,"velocity":0,"subtype":"noteOff"},"track":1},0],[{"ticksToEvent":0,"beatsToEvent":0,"event":{"deltaTime":476,"channel":1,"type":"channel","noteNumber":64,"velocity":0,"subtype":"noteOff"},"track":2},0],[{"ticksToEvent":0,"beatsToEvent":0,"event":{"deltaTime":956,"channel":2,"type":"channel","noteNumber":59,"velocity":0,"subtype":"noteOff"},"track":3},0],[{"ticksToEvent":4,"beatsToEvent":0.008333333333333333,"event":{"deltaTime":4,"channel":0,"type":"channel","noteNumber":74,"velocity":95,"subtype":"noteOn"},"track":1},0],[{"ticksToEvent":0,"beatsToEvent":0,"event":{"deltaTime":4,"channel":2,"type":"channel","noteNumber":57,"velocity":97,"subtype":"noteOn"},"track":3},0],[{"ticksToEvent":116,"beatsToEvent":0.24166666666666667,"event":{"deltaTime":116,"channel":0,"type":"channel","noteNumber":74,"velocity":0,"subtype":"noteOff"},"track":1},0],[{"ticksToEvent":4,"beatsToEvent":0.008333333333333333,"event":{"deltaTime":4,"channel":0,"type":"channel","noteNumber":73,"velocity":92,"subtype":"noteOn"},"track":1},0],[{"ticksToEvent":116,"beatsToEvent":0.24166666666666667,"event":{"deltaTime":116,"channel":0,"type":"channel","noteNumber":73,"velocity":0,"subtype":"noteOff"},"track":1},0],[{"ticksToEvent":4,"beatsToEvent":0.008333333333333333,"event":{"deltaTime":4,"channel":0,"type":"channel","noteNumber":71,"velocity":91,"subtype":"noteOn"},"track":1},0],[{"ticksToEvent":116,"beatsToEvent":0.24166666666666667,"event":{"deltaTime":116,"channel":0,"type":"channel","noteNumber":71,"velocity":0,"subtype":"noteOff"},"track":1},0],[{"ticksToEvent":4,"beatsToEvent":0.008333333333333333,"event":{"deltaTime":4,"channel":0,"type":"channel","noteNumber":69,"velocity":75,"subtype":"noteOn"},"track":1},0],[{"ticksToEvent":120,"beatsToEvent":0.25,"event":{"deltaTime":484,"channel":1,"type":"channel","noteNumber":74,"velocity":101,"subtype":"noteOn"},"track":2},0],[{"ticksToEvent":0,"beatsToEvent":0,"event":{"deltaTime":480,"channel":2,"type":"channel","noteNumber":57,"velocity":0,"subtype":"noteOff"},"track":3},0],[{"ticksToEvent":0,"beatsToEvent":0,"event":{"deltaTime":1920,"channel":3,"type":"channel","noteNumber":55,"velocity":0,"subtype":"noteOff"},"track":4},0],[{"ticksToEvent":0,"beatsToEvent":0,"event":{"deltaTime":0,"channel":3,"type":"channel","noteNumber":55,"velocity":77,"subtype":"noteOn"},"track":4},0],[{"ticksToEvent":60,"beatsToEvent":0.125,"event":{"deltaTime":60,"channel":3,"type":"channel","noteNumber":55,"velocity":0,"subtype":"noteOff"},"track":4},0],[{"ticksToEvent":0,"beatsToEvent":0,"event":{"deltaTime":0,"channel":3,"type":"channel","noteNumber":54,"velocity":77,"subtype":"noteOn"},"track":4},0],[{"ticksToEvent":60,"beatsToEvent":0.125,"event":{"deltaTime":60,"channel":3,"type":"channel","noteNumber":54,"velocity":0,"subtype":"noteOff"},"track":4},0],[{"ticksToEvent":0,"beatsToEvent":0,"event":{"deltaTime":0,"channel":3,"type":"channel","noteNumber":55,"velocity":77,"subtype":"noteOn"},"track":4},0],[{"ticksToEvent":60,"beatsToEvent":0.125,"event":{"deltaTime":60,"channel":3,"type":"channel","noteNumber":55,"velocity":0,"subtype":"noteOff"},"track":4},0],[{"ticksToEvent":0,"beatsToEvent":0,"event":{"deltaTime":0,"channel":3,"type":"channel","noteNumber":54,"velocity":77,"subtype":"noteOn"},"track":4},0],[{"ticksToEvent":60,"beatsToEvent":0.125,"event":{"deltaTime":60,"channel":3,"type":"channel","noteNumber":54,"velocity":0,"subtype":"noteOff"},"track":4},0],[{"ticksToEvent":0,"beatsToEvent":0,"event":{"deltaTime":0,"channel":3,"type":"channel","noteNumber":52,"velocity":71,"subtype":"noteOn"},"track":4},0],[{"ticksToEvent":236,"beatsToEvent":0.49166666666666664,"event":{"deltaTime":236,"channel":3,"type":"channel","noteNumber":52,"velocity":0,"subtype":"noteOff"},"track":4},0],[{"ticksToEvent":4,"beatsToEvent":0.008333333333333333,"event":{"deltaTime":4,"channel":3,"type":"channel","noteNumber":54,"velocity":96,"subtype":"noteOn"},"track":4},0],[{"ticksToEvent":240,"beatsToEvent":0.5,"event":{"deltaTime":240,"channel":3,"type":"channel","noteNumber":54,"velocity":0,"subtype":"noteOff"},"track":4},0],[{"ticksToEvent":0,"beatsToEvent":0,"event":{"deltaTime":0,"channel":3,"type":"channel","noteNumber":59,"velocity":92,"subtype":"noteOn"},"track":4},0],[{"ticksToEvent":120,"beatsToEvent":0.25,"event":{"deltaTime":960,"channel":0,"type":"channel","noteNumber":69,"velocity":0,"subtype":"noteOff"},"track":1},0],[{"ticksToEvent":120,"beatsToEvent":0.25,"event":{"deltaTime":120,"channel":0,"type":"channel","noteNumber":67,"velocity":93,"subtype":"noteOn"},"track":1},0],[{"ticksToEvent":0,"beatsToEvent":0,"event":{"deltaTime":960,"channel":1,"type":"channel","noteNumber":74,"velocity":0,"subtype":"noteOff"},"track":2},0],[{"ticksToEvent":0,"beatsToEvent":0,"event":{"deltaTime":240,"channel":3,"type":"channel","noteNumber":59,"velocity":0,"subtype":"noteOff"},"track":4},0],[{"ticksToEvent":0,"beatsToEvent":0,"event":{"deltaTime":0,"channel":3,"type":"channel","noteNumber":52,"velocity":88,"subtype":"noteOn"},"track":4},0],[{"ticksToEvent":60,"beatsToEvent":0.125,"event":{"deltaTime":60,"channel":0,"type":"channel","noteNumber":71,"velocity":93,"subtype":"noteOn"},"track":1},0],[{"ticksToEvent":60,"beatsToEvent":0.125,"event":{"deltaTime":60,"channel":0,"type":"channel","noteNumber":76,"velocity":93,"subtype":"noteOn"},"track":1},0],[{"ticksToEvent":60,"beatsToEvent":0.125,"event":{"deltaTime":60,"channel":0,"type":"channel","noteNumber":79,"velocity":93,"subtype":"noteOn"},"track":1},0],[{"ticksToEvent":60,"beatsToEvent":0.125,"event":{"deltaTime":1200,"channel":2,"type":"channel","noteNumber":59,"velocity":90,"subtype":"noteOn"},"track":3},0],[{"ticksToEvent":60,"beatsToEvent":0.125,"event":{"deltaTime":120,"channel":0,"type":"channel","noteNumber":71,"velocity":0,"subtype":"noteOff"},"track":1},0],[{"ticksToEvent":60,"beatsToEvent":0.125,"event":{"deltaTime":60,"channel":0,"type":"channel","noteNumber":76,"velocity":0,"subtype":"noteOff"},"track":1},0],[{"ticksToEvent":60,"beatsToEvent":0.125,"event":{"deltaTime":60,"channel":0,"type":"channel","noteNumber":79,"velocity":0,"subtype":"noteOff"},"track":1},0],[{"ticksToEvent":60,"beatsToEvent":0.125,"event":{"deltaTime":60,"channel":0,"type":"channel","noteNumber":67,"velocity":0,"subtype":"noteOff"},"track":1},0],[{"ticksToEvent":0,"beatsToEvent":0,"event":{"deltaTime":0,"channel":0,"type":"channel","noteNumber":81,"velocity":117,"subtype":"noteOn"},"track":1},0],[{"ticksToEvent":0,"beatsToEvent":0,"event":{"deltaTime":240,"channel":2,"type":"channel","noteNumber":59,"velocity":0,"subtype":"noteOff"},"track":3},0],[{"ticksToEvent":0,"beatsToEvent":0,"event":{"deltaTime":0,"channel":2,"type":"channel","noteNumber":64,"velocity":92,"subtype":"noteOn"},"track":3},0],[{"ticksToEvent":60,"beatsToEvent":0.125,"event":{"deltaTime":60,"channel":0,"type":"channel","noteNumber":81,"velocity":0,"subtype":"noteOff"},"track":1},0],[{"ticksToEvent":0,"beatsToEvent":0,"event":{"deltaTime":0,"channel":0,"type":"channel","noteNumber":79,"velocity":90,"subtype":"noteOn"},"track":1},0],[{"ticksToEvent":56,"beatsToEvent":0.11666666666666667,"event":{"deltaTime":56,"channel":0,"type":"channel","noteNumber":79,"velocity":0,"subtype":"noteOff"},"track":1},0],[{"ticksToEvent":4,"beatsToEvent":0.008333333333333333,"event":{"deltaTime":4,"channel":0,"type":"channel","noteNumber":78,"velocity":70,"subtype":"noteOn"},"track":1},0],[{"ticksToEvent":60,"beatsToEvent":0.125,"event":{"deltaTime":60,"channel":0,"type":"channel","noteNumber":78,"velocity":0,"subtype":"noteOff"},"track":1},0],[{"ticksToEvent":0,"beatsToEvent":0,"event":{"deltaTime":0,"channel":0,"type":"channel","noteNumber":79,"velocity":86,"subtype":"noteOn"},"track":1},0],[{"ticksToEvent":56,"beatsToEvent":0.11666666666666667,"event":{"deltaTime":56,"channel":0,"type":"channel","noteNumber":79,"velocity":0,"subtype":"noteOff"},"track":1},0],[{"ticksToEvent":0,"beatsToEvent":0,"event":{"deltaTime":716,"channel":3,"type":"channel","noteNumber":52,"velocity":0,"subtype":"noteOff"},"track":4},0],[{"ticksToEvent":4,"beatsToEvent":0.008333333333333333,"event":{"deltaTime":4,"channel":0,"type":"channel","noteNumber":81,"velocity":83,"subtype":"noteOn"},"track":1},0],[{"ticksToEvent":0,"beatsToEvent":0,"event":{"deltaTime":4,"channel":3,"type":"channel","noteNumber":52,"velocity":109,"subtype":"noteOn"},"track":4},0],[{"ticksToEvent":56,"beatsToEvent":0.11666666666666667,"event":{"deltaTime":56,"channel":0,"type":"channel","noteNumber":81,"velocity":0,"subtype":"noteOff"},"track":1},0],[{"ticksToEvent":4,"beatsToEvent":0.008333333333333333,"event":{"deltaTime":4,"channel":0,"type":"channel","noteNumber":79,"velocity":81,"subtype":"noteOn"},"track":1},0],[{"ticksToEvent":56,"beatsToEvent":0.11666666666666667,"event":{"deltaTime":56,"channel":0,"type":"channel","noteNumber":79,"velocity":0,"subtype":"noteOff"},"track":1},0],[{"ticksToEvent":4,"beatsToEvent":0.008333333333333333,"event":{"deltaTime":4,"channel":0,"type":"channel","noteNumber":81,"velocity":77,"subtype":"noteOn"},"track":1},0],[{"ticksToEvent":56,"beatsToEvent":0.11666666666666667,"event":{"deltaTime":56,"channel":0,"type":"channel","noteNumber":81,"velocity":0,"subtype":"noteOff"},"track":1},0],[{"ticksToEvent":4,"beatsToEvent":0.008333333333333333,"event":{"deltaTime":4,"channel":0,"type":"channel","noteNumber":79,"velocity":85,"subtype":"noteOn"},"track":1},0],[{"ticksToEvent":56,"beatsToEvent":0.11666666666666667,"event":{"deltaTime":56,"channel":0,"type":"channel","noteNumber":79,"velocity":0,"subtype":"noteOff"},"track":1},0],[{"ticksToEvent":0,"beatsToEvent":0,"event":{"deltaTime":236,"channel":3,"type":"channel","noteNumber":52,"velocity":0,"subtype":"noteOff"},"track":4},0],[{"ticksToEvent":4,"beatsToEvent":0.008333333333333333,"event":{"deltaTime":4,"channel":0,"type":"channel","noteNumber":81,"velocity":81,"subtype":"noteOn"},"track":1},0],[{"ticksToEvent":0,"beatsToEvent":0,"event":{"deltaTime":4,"channel":3,"type":"channel","noteNumber":54,"velocity":96,"subtype":"noteOn"},"track":4},0],[{"ticksToEvent":56,"beatsToEvent":0.11666666666666667,"event":{"deltaTime":56,"channel":0,"type":"channel","noteNumber":81,"velocity":0,"subtype":"noteOff"},"track":1},0],[{"ticksToEvent":4,"beatsToEvent":0.008333333333333333,"event":{"deltaTime":4,"channel":0,"type":"channel","noteNumber":79,"velocity":90,"subtype":"noteOn"},"track":1},0],[{"ticksToEvent":56,"beatsToEvent":0.11666666666666667,"event":{"deltaTime":56,"channel":0,"type":"channel","noteNumber":79,"velocity":0,"subtype":"noteOff"},"track":1},0],[{"ticksToEvent":4,"beatsToEvent":0.008333333333333333,"event":{"deltaTime":4,"channel":0,"type":"channel","noteNumber":81,"velocity":80,"subtype":"noteOn"},"track":1},0],[{"ticksToEvent":56,"beatsToEvent":0.11666666666666667,"event":{"deltaTime":56,"channel":0,"type":"channel","noteNumber":81,"velocity":0,"subtype":"noteOff"},"track":1},0],[{"ticksToEvent":4,"beatsToEvent":0.008333333333333333,"event":{"deltaTime":4,"channel":0,"type":"channel","noteNumber":79,"velocity":79,"subtype":"noteOn"},"track":1},0],[{"ticksToEvent":56,"beatsToEvent":0.11666666666666667,"event":{"deltaTime":236,"channel":3,"type":"channel","noteNumber":54,"velocity":0,"subtype":"noteOff"},"track":4},0],[{"ticksToEvent":4,"beatsToEvent":0.008333333333333333,"event":{"deltaTime":60,"channel":0,"type":"channel","noteNumber":79,"velocity":0,"subtype":"noteOff"},"track":1},0],[{"ticksToEvent":0,"beatsToEvent":0,"event":{"deltaTime":0,"channel":0,"type":"channel","noteNumber":78,"velocity":85,"subtype":"noteOn"},"track":1},0],[{"ticksToEvent":0,"beatsToEvent":0,"event":{"deltaTime":720,"channel":2,"type":"channel","noteNumber":64,"velocity":0,"subtype":"noteOff"},"track":3},0],[{"ticksToEvent":0,"beatsToEvent":0,"event":{"deltaTime":0,"channel":2,"type":"channel","noteNumber":62,"velocity":85,"subtype":"noteOn"},"track":3},0],[{"ticksToEvent":0,"beatsToEvent":0,"event":{"deltaTime":4,"channel":3,"type":"channel","noteNumber":55,"velocity":81,"subtype":"noteOn"},"track":4},0],[{"ticksToEvent":120,"beatsToEvent":0.25,"event":{"deltaTime":120,"channel":0,"type":"channel","noteNumber":78,"velocity":0,"subtype":"noteOff"},"track":1},0],[{"ticksToEvent":0,"beatsToEvent":0,"event":{"deltaTime":0,"channel":0,"type":"channel","noteNumber":79,"velocity":85,"subtype":"noteOn"},"track":1},0],[{"ticksToEvent":116,"beatsToEvent":0.24166666666666667,"event":{"deltaTime":236,"channel":3,"type":"channel","noteNumber":55,"velocity":0,"subtype":"noteOff"},"track":4},0],[{"ticksToEvent":4,"beatsToEvent":0.008333333333333333,"event":{"deltaTime":120,"channel":0,"type":"channel","noteNumber":79,"velocity":0,"subtype":"noteOff"},"track":1},0],[{"ticksToEvent":0,"beatsToEvent":0,"event":{"deltaTime":0,"channel":0,"type":"channel","noteNumber":79,"velocity":93,"subtype":"noteOn"},"track":1},0],[{"ticksToEvent":0,"beatsToEvent":0,"event":{"deltaTime":240,"channel":2,"type":"channel","noteNumber":62,"velocity":0,"subtype":"noteOff"},"track":3},0],[{"ticksToEvent":0,"beatsToEvent":0,"event":{"deltaTime":0,"channel":2,"type":"channel","noteNumber":61,"velocity":88,"subtype":"noteOn"},"track":3},0],[{"ticksToEvent":0,"beatsToEvent":0,"event":{"deltaTime":4,"channel":3,"type":"channel","noteNumber":57,"velocity":80,"subtype":"noteOn"},"track":4},0],[{"ticksToEvent":236,"beatsToEvent":0.49166666666666664,"event":{"deltaTime":236,"channel":0,"type":"channel","noteNumber":79,"velocity":0,"subtype":"noteOff"},"track":1},0],[{"ticksToEvent":0,"beatsToEvent":0,"event":{"deltaTime":236,"channel":2,"type":"channel","noteNumber":61,"velocity":0,"subtype":"noteOff"},"track":3},0],[{"ticksToEvent":4,"beatsToEvent":0.008333333333333333,"event":{"deltaTime":4,"channel":0,"type":"channel","noteNumber":78,"velocity":80,"subtype":"noteOn"},"track":1},0],[{"ticksToEvent":0,"beatsToEvent":0,"event":{"deltaTime":4,"channel":2,"type":"channel","noteNumber":62,"velocity":85,"subtype":"noteOn"},"track":3},0],[{"ticksToEvent":116,"beatsToEvent":0.24166666666666667,"event":{"deltaTime":116,"channel":0,"type":"channel","noteNumber":78,"velocity":0,"subtype":"noteOff"},"track":1},0],[{"ticksToEvent":4,"beatsToEvent":0.008333333333333333,"event":{"deltaTime":4,"channel":0,"type":"channel","noteNumber":76,"velocity":73,"subtype":"noteOn"},"track":1},0],[{"ticksToEvent":116,"beatsToEvent":0.24166666666666667,"event":{"deltaTime":236,"channel":2,"type":"channel","noteNumber":62,"velocity":0,"subtype":"noteOff"},"track":3},0],[{"ticksToEvent":4,"beatsToEvent":0.008333333333333333,"event":{"deltaTime":120,"channel":0,"type":"channel","noteNumber":76,"velocity":0,"subtype":"noteOff"},"track":1},0],[{"ticksToEvent":0,"beatsToEvent":0,"event":{"deltaTime":0,"channel":0,"type":"channel","noteNumber":74,"velocity":80,"subtype":"noteOn"},"track":1},0],[{"ticksToEvent":0,"beatsToEvent":0,"event":{"deltaTime":4,"channel":2,"type":"channel","noteNumber":64,"velocity":93,"subtype":"noteOn"},"track":3},0],[{"ticksToEvent":236,"beatsToEvent":0.49166666666666664,"event":{"deltaTime":236,"channel":0,"type":"channel","noteNumber":74,"velocity":0,"subtype":"noteOff"},"track":1},0],[{"ticksToEvent":4,"beatsToEvent":0.008333333333333333,"event":{"deltaTime":4,"channel":0,"type":"channel","noteNumber":73,"velocity":85,"subtype":"noteOn"},"track":1},0],[{"ticksToEvent":0,"beatsToEvent":0,"event":{"deltaTime":720,"channel":3,"type":"channel","noteNumber":57,"velocity":0,"subtype":"noteOff"},"track":4},0],[{"ticksToEvent":0,"beatsToEvent":0,"event":{"deltaTime":0,"channel":3,"type":"channel","noteNumber":59,"velocity":100,"subtype":"noteOn"},"track":4},0],[{"ticksToEvent":236,"beatsToEvent":0.49166666666666664,"event":{"deltaTime":236,"channel":3,"type":"channel","noteNumber":59,"velocity":0,"subtype":"noteOff"},"track":4},0],[{"ticksToEvent":4,"beatsToEvent":0.008333333333333333,"event":{"deltaTime":4,"channel":3,"type":"channel","noteNumber":57,"velocity":66,"subtype":"noteOn"},"track":4},0],[{"ticksToEvent":236,"beatsToEvent":0.49166666666666664,"event":{"deltaTime":476,"channel":0,"type":"channel","noteNumber":73,"velocity":0,"subtype":"noteOff"},"track":1},0],[{"ticksToEvent":0,"beatsToEvent":0,"event":{"deltaTime":236,"channel":3,"type":"channel","noteNumber":57,"velocity":0,"subtype":"noteOff"},"track":4},0],[{"ticksToEvent":4,"beatsToEvent":0.008333333333333333,"event":{"deltaTime":4,"channel":0,"type":"channel","noteNumber":76,"velocity":90,"subtype":"noteOn"},"track":1},0],[{"ticksToEvent":0,"beatsToEvent":0,"event":{"deltaTime":4,"channel":3,"type":"channel","noteNumber":55,"velocity":73,"subtype":"noteOn"},"track":4},0],[{"ticksToEvent":236,"beatsToEvent":0.49166666666666664,"event":{"deltaTime":956,"channel":2,"type":"channel","noteNumber":64,"velocity":0,"subtype":"noteOff"},"track":3},0],[{"ticksToEvent":0,"beatsToEvent":0,"event":{"deltaTime":236,"channel":3,"type":"channel","noteNumber":55,"velocity":0,"subtype":"noteOff"},"track":4},0],[{"ticksToEvent":4,"beatsToEvent":0.008333333333333333,"event":{"deltaTime":240,"channel":0,"type":"channel","noteNumber":76,"velocity":0,"subtype":"noteOff"},"track":1},0],[{"ticksToEvent":0,"beatsToEvent":0,"event":{"deltaTime":0,"channel":0,"type":"channel","noteNumber":81,"velocity":93,"subtype":"noteOn"},"track":1},0],[{"ticksToEvent":0,"beatsToEvent":0,"event":{"deltaTime":4,"channel":3,"type":"channel","noteNumber":54,"velocity":70,"subtype":"noteOn"},"track":4},0],[{"ticksToEvent":116,"beatsToEvent":0.24166666666666667,"event":{"deltaTime":116,"channel":0,"type":"channel","noteNumber":81,"velocity":0,"subtype":"noteOff"},"track":1},0],[{"ticksToEvent":4,"beatsToEvent":0.008333333333333333,"event":{"deltaTime":4,"channel":0,"type":"channel","noteNumber":79,"velocity":88,"subtype":"noteOn"},"track":1},0],[{"ticksToEvent":120,"beatsToEvent":0.25,"event":{"deltaTime":120,"channel":0,"type":"channel","noteNumber":79,"velocity":0,"subtype":"noteOff"},"track":1},0],[{"ticksToEvent":0,"beatsToEvent":0,"event":{"deltaTime":0,"channel":0,"type":"channel","noteNumber":78,"velocity":88,"subtype":"noteOn"},"track":1},0],[{"ticksToEvent":116,"beatsToEvent":0.24166666666666667,"event":{"deltaTime":116,"channel":0,"type":"channel","noteNumber":78,"velocity":0,"subtype":"noteOff"},"track":1},0],[{"ticksToEvent":4,"beatsToEvent":0.008333333333333333,"event":{"deltaTime":4,"channel":0,"type":"channel","noteNumber":76,"velocity":86,"subtype":"noteOn"},"track":1},0],[{"ticksToEvent":116,"beatsToEvent":0.24166666666666667,"event":{"deltaTime":116,"channel":0,"type":"channel","noteNumber":76,"velocity":0,"subtype":"noteOff"},"track":1},0],[{"ticksToEvent":4,"beatsToEvent":0.008333333333333333,"event":{"deltaTime":4,"channel":0,"type":"channel","noteNumber":74,"velocity":80,"subtype":"noteOn"},"track":1},0],[{"ticksToEvent":0,"beatsToEvent":0,"event":{"deltaTime":484,"channel":2,"type":"channel","noteNumber":57,"velocity":86,"subtype":"noteOn"},"track":3},0],[{"ticksToEvent":236,"beatsToEvent":0.49166666666666664,"event":{"deltaTime":236,"channel":0,"type":"channel","noteNumber":74,"velocity":0,"subtype":"noteOff"},"track":1},0],[{"ticksToEvent":4,"beatsToEvent":0.008333333333333333,"event":{"deltaTime":4,"channel":0,"type":"channel","noteNumber":69,"velocity":81,"subtype":"noteOn"},"track":1},0],[{"ticksToEvent":240,"beatsToEvent":0.5,"event":{"deltaTime":3840,"channel":1,"type":"channel","noteNumber":62,"velocity":98,"subtype":"noteOn"},"track":2},0],[{"ticksToEvent":296,"beatsToEvent":0.6166666666666667,"event":{"deltaTime":536,"channel":0,"type":"channel","noteNumber":69,"velocity":0,"subtype":"noteOff"},"track":1},0],[{"ticksToEvent":4,"beatsToEvent":0.008333333333333333,"event":{"deltaTime":4,"channel":0,"type":"channel","noteNumber":71,"velocity":78,"subtype":"noteOn"},"track":1},0],[{"ticksToEvent":56,"beatsToEvent":0.11666666666666667,"event":{"deltaTime":56,"channel":0,"type":"channel","noteNumber":71,"velocity":0,"subtype":"noteOff"},"track":1},0],[{"ticksToEvent":4,"beatsToEvent":0.008333333333333333,"event":{"deltaTime":4,"channel":0,"type":"channel","noteNumber":72,"velocity":90,"subtype":"noteOn"},"track":1},0],[{"ticksToEvent":116,"beatsToEvent":0.24166666666666667,"event":{"deltaTime":476,"channel":1,"type":"channel","noteNumber":62,"velocity":0,"subtype":"noteOff"},"track":2},0],[{"ticksToEvent":0,"beatsToEvent":0,"event":{"deltaTime":956,"channel":2,"type":"channel","noteNumber":57,"velocity":0,"subtype":"noteOff"},"track":3},0],[{"ticksToEvent":4,"beatsToEvent":0.008333333333333333,"event":{"deltaTime":120,"channel":0,"type":"channel","noteNumber":72,"velocity":0,"subtype":"noteOff"},"track":1},0],[{"ticksToEvent":0,"beatsToEvent":0,"event":{"deltaTime":0,"channel":0,"type":"channel","noteNumber":71,"velocity":86,"subtype":"noteOn"},"track":1},0],[{"ticksToEvent":0,"beatsToEvent":0,"event":{"deltaTime":1440,"channel":3,"type":"channel","noteNumber":54,"velocity":0,"subtype":"noteOff"},"track":4},0],[{"ticksToEvent":0,"beatsToEvent":0,"event":{"deltaTime":0,"channel":3,"type":"channel","noteNumber":55,"velocity":83,"subtype":"noteOn"},"track":4},0],[{"ticksToEvent":116,"beatsToEvent":0.24166666666666667,"event":{"deltaTime":116,"channel":0,"type":"channel","noteNumber":71,"velocity":0,"subtype":"noteOff"},"track":1},0],[{"ticksToEvent":4,"beatsToEvent":0.008333333333333333,"event":{"deltaTime":4,"channel":0,"type":"channel","noteNumber":69,"velocity":65,"subtype":"noteOn"},"track":1},0],[{"ticksToEvent":116,"beatsToEvent":0.24166666666666667,"event":{"deltaTime":116,"channel":0,"type":"channel","noteNumber":69,"velocity":0,"subtype":"noteOff"},"track":1},0],[{"ticksToEvent":4,"beatsToEvent":0.008333333333333333,"event":{"deltaTime":4,"channel":0,"type":"channel","noteNumber":67,"velocity":70,"subtype":"noteOn"},"track":1},0],[{"ticksToEvent":116,"beatsToEvent":0.24166666666666667,"event":{"deltaTime":116,"channel":0,"type":"channel","noteNumber":67,"velocity":0,"subtype":"noteOff"},"track":1},0],[{"ticksToEvent":4,"beatsToEvent":0.008333333333333333,"event":{"deltaTime":4,"channel":0,"type":"channel","noteNumber":66,"velocity":80,"subtype":"noteOn"},"track":1},0],[{"ticksToEvent":116,"beatsToEvent":0.24166666666666667,"event":{"deltaTime":116,"channel":0,"type":"channel","noteNumber":66,"velocity":0,"subtype":"noteOff"},"track":1},0],[{"ticksToEvent":4,"beatsToEvent":0.008333333333333333,"event":{"deltaTime":4,"channel":0,"type":"channel","noteNumber":64,"velocity":89,"subtype":"noteOn"},"track":1},0],[{"ticksToEvent":0,"beatsToEvent":0,"event":{"deltaTime":484,"channel":2,"type":"channel","noteNumber":59,"velocity":96,"subtype":"noteOn"},"track":3},0],[{"ticksToEvent":240,"beatsToEvent":0.5,"event":{"deltaTime":240,"channel":0,"type":"channel","noteNumber":64,"velocity":0,"subtype":"noteOff"},"track":1},0],[{"ticksToEvent":0,"beatsToEvent":0,"event":{"deltaTime":0,"channel":0,"type":"channel","noteNumber":74,"velocity":85,"subtype":"noteOn"},"track":1},0],[{"ticksToEvent":116,"beatsToEvent":0.24166666666666667,"event":{"deltaTime":116,"channel":0,"type":"channel","noteNumber":74,"velocity":0,"subtype":"noteOff"},"track":1},0],[{"ticksToEvent":4,"beatsToEvent":0.008333333333333333,"event":{"deltaTime":4,"channel":0,"type":"channel","noteNumber":73,"velocity":80,"subtype":"noteOn"},"track":1},0],[{"ticksToEvent":120,"beatsToEvent":0.25,"event":{"deltaTime":964,"channel":1,"type":"channel","noteNumber":64,"velocity":101,"subtype":"noteOn"},"track":2},0],[{"ticksToEvent":0,"beatsToEvent":0,"event":{"deltaTime":480,"channel":2,"type":"channel","noteNumber":59,"velocity":0,"subtype":"noteOff"},"track":3},0],[{"ticksToEvent":296,"beatsToEvent":0.6166666666666667,"event":{"deltaTime":416,"channel":0,"type":"channel","noteNumber":73,"velocity":0,"subtype":"noteOff"},"track":1},0],[{"ticksToEvent":4,"beatsToEvent":0.008333333333333333,"event":{"deltaTime":4,"channel":0,"type":"channel","noteNumber":74,"velocity":78,"subtype":"noteOn"},"track":1},0],[{"ticksToEvent":56,"beatsToEvent":0.11666666666666667,"event":{"deltaTime":56,"channel":0,"type":"channel","noteNumber":74,"velocity":0,"subtype":"noteOff"},"track":1},0],[{"ticksToEvent":4,"beatsToEvent":0.008333333333333333,"event":{"deltaTime":4,"channel":0,"type":"channel","noteNumber":76,"velocity":77,"subtype":"noteOn"},"track":1},0],[{"ticksToEvent":116,"beatsToEvent":0.24166666666666667,"event":{"deltaTime":116,"channel":0,"type":"channel","noteNumber":76,"velocity":0,"subtype":"noteOff"},"track":1},0],[{"ticksToEvent":0,"beatsToEvent":0,"event":{"deltaTime":476,"channel":1,"type":"channel","noteNumber":64,"velocity":0,"subtype":"noteOff"},"track":2},0],[{"ticksToEvent":0,"beatsToEvent":0,"event":{"deltaTime":1436,"channel":3,"type":"channel","noteNumber":55,"velocity":0,"subtype":"noteOff"},"track":4},0],[{"ticksToEvent":4,"beatsToEvent":0.008333333333333333,"event":{"deltaTime":4,"channel":0,"type":"channel","noteNumber":74,"velocity":83,"subtype":"noteOn"},"track":1},0],[{"ticksToEvent":0,"beatsToEvent":0,"event":{"deltaTime":4,"channel":1,"type":"channel","noteNumber":66,"velocity":104,"subtype":"noteOn"},"track":2},0],[{"ticksToEvent":0,"beatsToEvent":0,"event":{"deltaTime":4,"channel":3,"type":"channel","noteNumber":57,"velocity":89,"subtype":"noteOn"},"track":4},0],[{"ticksToEvent":116,"beatsToEvent":0.24166666666666667,"event":{"deltaTime":116,"channel":0,"type":"channel","noteNumber":74,"velocity":0,"subtype":"noteOff"},"track":1},0],[{"ticksToEvent":4,"beatsToEvent":0.008333333333333333,"event":{"deltaTime":4,"channel":0,"type":"channel","noteNumber":73,"velocity":89,"subtype":"noteOn"},"track":1},0],[{"ticksToEvent":116,"beatsToEvent":0.24166666666666667,"event":{"deltaTime":116,"channel":0,"type":"channel","noteNumber":73,"velocity":0,"subtype":"noteOff"},"track":1},0],[{"ticksToEvent":4,"beatsToEvent":0.008333333333333333,"event":{"deltaTime":4,"channel":0,"type":"channel","noteNumber":71,"velocity":84,"subtype":"noteOn"},"track":1},0],[{"ticksToEvent":116,"beatsToEvent":0.24166666666666667,"event":{"deltaTime":116,"channel":0,"type":"channel","noteNumber":71,"velocity":0,"subtype":"noteOff"},"track":1},0],[{"ticksToEvent":4,"beatsToEvent":0.008333333333333333,"event":{"deltaTime":4,"channel":0,"type":"channel","noteNumber":69,"velocity":80,"subtype":"noteOn"},"track":1},0],[{"ticksToEvent":116,"beatsToEvent":0.24166666666666667,"event":{"deltaTime":116,"channel":0,"type":"channel","noteNumber":69,"velocity":0,"subtype":"noteOff"},"track":1},0],[{"ticksToEvent":0,"beatsToEvent":0,"event":{"deltaTime":476,"channel":1,"type":"channel","noteNumber":66,"velocity":0,"subtype":"noteOff"},"track":2},0],[{"ticksToEvent":4,"beatsToEvent":0.008333333333333333,"event":{"deltaTime":4,"channel":0,"type":"channel","noteNumber":79,"velocity":97,"subtype":"noteOn"},"track":1},0],[{"ticksToEvent":0,"beatsToEvent":0,"event":{"deltaTime":4,"channel":1,"type":"channel","noteNumber":64,"velocity":107,"subtype":"noteOn"},"track":2},0],[{"ticksToEvent":236,"beatsToEvent":0.49166666666666664,"event":{"deltaTime":236,"channel":0,"type":"channel","noteNumber":79,"velocity":0,"subtype":"noteOff"},"track":1},0],[{"ticksToEvent":4,"beatsToEvent":0.008333333333333333,"event":{"deltaTime":4,"channel":0,"type":"channel","noteNumber":71,"velocity":86,"subtype":"noteOn"},"track":1},0],[{"ticksToEvent":120,"beatsToEvent":0.25,"event":{"deltaTime":360,"channel":1,"type":"channel","noteNumber":64,"velocity":0,"subtype":"noteOff"},"track":2},0],[{"ticksToEvent":0,"beatsToEvent":0,"event":{"deltaTime":0,"channel":1,"type":"channel","noteNumber":66,"velocity":104,"subtype":"noteOn"},"track":2},0],[{"ticksToEvent":120,"beatsToEvent":0.25,"event":{"deltaTime":120,"channel":1,"type":"channel","noteNumber":66,"velocity":0,"subtype":"noteOff"},"track":2},0],[{"ticksToEvent":0,"beatsToEvent":0,"event":{"deltaTime":0,"channel":1,"type":"channel","noteNumber":67,"velocity":104,"subtype":"noteOn"},"track":2},0],[{"ticksToEvent":240,"beatsToEvent":0.5,"event":{"deltaTime":480,"channel":0,"type":"channel","noteNumber":71,"velocity":0,"subtype":"noteOff"},"track":1},0],[{"ticksToEvent":0,"beatsToEvent":0,"event":{"deltaTime":0,"channel":0,"type":"channel","noteNumber":73,"velocity":85,"subtype":"noteOn"},"track":1},0],[{"ticksToEvent":236,"beatsToEvent":0.49166666666666664,"event":{"deltaTime":236,"channel":0,"type":"channel","noteNumber":73,"velocity":0,"subtype":"noteOff"},"track":1},0],[{"ticksToEvent":0,"beatsToEvent":0,"event":{"deltaTime":1436,"channel":3,"type":"channel","noteNumber":57,"velocity":0,"subtype":"noteOff"},"track":4},0],[{"ticksToEvent":4,"beatsToEvent":0.008333333333333333,"event":{"deltaTime":4,"channel":0,"type":"channel","noteNumber":73,"velocity":88,"subtype":"noteOn"},"track":1},0],[{"ticksToEvent":0,"beatsToEvent":0,"event":{"deltaTime":4,"channel":3,"type":"channel","noteNumber":50,"velocity":96,"subtype":"noteOn"},"track":4},0],[{"ticksToEvent":120,"beatsToEvent":0.25,"event":{"deltaTime":120,"channel":0,"type":"channel","noteNumber":73,"velocity":0,"subtype":"noteOff"},"track":1},0],[{"ticksToEvent":0,"beatsToEvent":0,"event":{"deltaTime":0,"channel":0,"type":"channel","noteNumber":74,"velocity":85,"subtype":"noteOn"},"track":1},0],[{"ticksToEvent":180,"beatsToEvent":0.375,"event":{"deltaTime":180,"channel":0,"type":"channel","noteNumber":74,"velocity":0,"subtype":"noteOff"},"track":1},0],[{"ticksToEvent":0,"beatsToEvent":0,"event":{"deltaTime":0,"channel":0,"type":"channel","noteNumber":76,"velocity":78,"subtype":"noteOn"},"track":1},0],[{"ticksToEvent":56,"beatsToEvent":0.11666666666666667,"event":{"deltaTime":56,"channel":0,"type":"channel","noteNumber":76,"velocity":0,"subtype":"noteOff"},"track":1},0],[{"ticksToEvent":4,"beatsToEvent":0.008333333333333333,"event":{"deltaTime":4,"channel":0,"type":"channel","noteNumber":74,"velocity":83,"subtype":"noteOn"},"track":1},0],[{"ticksToEvent":56,"beatsToEvent":0.11666666666666667,"event":{"deltaTime":56,"channel":0,"type":"channel","noteNumber":74,"velocity":0,"subtype":"noteOff"},"track":1},0],[{"ticksToEvent":4,"beatsToEvent":0.008333333333333333,"event":{"deltaTime":4,"channel":0,"type":"channel","noteNumber":73,"velocity":80,"subtype":"noteOn"},"track":1},0],[{"ticksToEvent":56,"beatsToEvent":0.11666666666666667,"event":{"deltaTime":956,"channel":1,"type":"channel","noteNumber":67,"velocity":0,"subtype":"noteOff"},"track":2},0],[{"ticksToEvent":4,"beatsToEvent":0.008333333333333333,"event":{"deltaTime":60,"channel":0,"type":"channel","noteNumber":73,"velocity":0,"subtype":"noteOff"},"track":1},0],[{"ticksToEvent":0,"beatsToEvent":0,"event":{"deltaTime":0,"channel":0,"type":"channel","noteNumber":73,"velocity":84,"subtype":"noteOn"},"track":1},0],[{"ticksToEvent":0,"beatsToEvent":0,"event":{"deltaTime":4,"channel":1,"type":"channel","noteNumber":66,"velocity":94,"subtype":"noteOn"},"track":2},0],[{"ticksToEvent":236,"beatsToEvent":0.49166666666666664,"event":{"deltaTime":236,"channel":0,"type":"channel","noteNumber":73,"velocity":0,"subtype":"noteOff"},"track":1},0],[{"ticksToEvent":4,"beatsToEvent":0.008333333333333333,"event":{"deltaTime":4,"channel":0,"type":"channel","noteNumber":74,"velocity":75,"subtype":"noteOn"},"track":1},0],[{"ticksToEvent":0,"beatsToEvent":0,"event":{"deltaTime":2640,"channel":2,"type":"channel","noteNumber":57,"velocity":96,"subtype":"noteOn"},"track":3},0],[{"ticksToEvent":240,"beatsToEvent":0.5,"event":{"deltaTime":240,"channel":2,"type":"channel","noteNumber":57,"velocity":0,"subtype":"noteOff"},"track":3},0],[{"ticksToEvent":0,"beatsToEvent":0,"event":{"deltaTime":0,"channel":2,"type":"channel","noteNumber":62,"velocity":96,"subtype":"noteOn"},"track":3},0],[{"ticksToEvent":268,"beatsToEvent":0.5583333333333333,"event":{"deltaTime":22828,"type":"meta","subtype":"setTempo","microsecondsPerBeat":1224489},"track":0},0],[{"ticksToEvent":4,"beatsToEvent":0.008333333333333333,"event":{"deltaTime":4,"type":"meta","subtype":"setTempo","microsecondsPerBeat":1250000},"track":0},0],[{"ticksToEvent":24,"beatsToEvent":0.05,"event":{"deltaTime":24,"type":"meta","subtype":"setTempo","microsecondsPerBeat":1276595},"track":0},0],[{"ticksToEvent":36,"beatsToEvent":0.075,"event":{"deltaTime":36,"type":"meta","subtype":"setTempo","microsecondsPerBeat":1304347},"track":0},0],[{"ticksToEvent":36,"beatsToEvent":0.075,"event":{"deltaTime":36,"type":"meta","subtype":"setTempo","microsecondsPerBeat":1333333},"track":0},0],[{"ticksToEvent":8,"beatsToEvent":0.016666666666666666,"event":{"deltaTime":8,"type":"meta","subtype":"setTempo","microsecondsPerBeat":1363636},"track":0},0],[{"ticksToEvent":52,"beatsToEvent":0.10833333333333334,"event":{"deltaTime":52,"type":"meta","subtype":"setTempo","microsecondsPerBeat":1395348},"track":0},0],[{"ticksToEvent":48,"beatsToEvent":0.1,"event":{"deltaTime":48,"type":"meta","subtype":"setTempo","microsecondsPerBeat":1153846},"track":0},0],[{"ticksToEvent":0,"beatsToEvent":0,"event":{"deltaTime":956,"channel":1,"type":"channel","noteNumber":66,"velocity":0,"subtype":"noteOff"},"track":2},0],[{"ticksToEvent":0,"beatsToEvent":0,"event":{"deltaTime":1436,"channel":3,"type":"channel","noteNumber":50,"velocity":0,"subtype":"noteOff"},"track":4},0],[{"ticksToEvent":4,"beatsToEvent":0.008333333333333333,"event":{"deltaTime":720,"channel":0,"type":"channel","noteNumber":74,"velocity":0,"subtype":"noteOff"},"track":1},0],[{"ticksToEvent":0,"beatsToEvent":0,"event":{"deltaTime":0,"channel":0,"type":"channel","noteNumber":69,"velocity":113,"subtype":"noteOn"},"track":1},0],[{"ticksToEvent":0,"beatsToEvent":0,"event":{"deltaTime":480,"channel":2,"type":"channel","noteNumber":62,"velocity":0,"subtype":"noteOff"},"track":3},0],[{"ticksToEvent":0,"beatsToEvent":0,"event":{"deltaTime":4,"channel":3,"type":"channel","noteNumber":62,"velocity":98,"subtype":"noteOn"},"track":4},0],[{"ticksToEvent":4,"beatsToEvent":0.008333333333333333,"event":{"deltaTime":8,"type":"meta","subtype":"setTempo","microsecondsPerBeat":1200000},"track":0},0],[{"ticksToEvent":56,"beatsToEvent":0.11666666666666667,"event":{"deltaTime":60,"channel":0,"type":"channel","noteNumber":69,"velocity":0,"subtype":"noteOff"},"track":1},0],[{"ticksToEvent":0,"beatsToEvent":0,"event":{"deltaTime":0,"channel":0,"type":"channel","noteNumber":67,"velocity":113,"subtype":"noteOn"},"track":1},0],[{"ticksToEvent":60,"beatsToEvent":0.125,"event":{"deltaTime":60,"channel":0,"type":"channel","noteNumber":67,"velocity":0,"subtype":"noteOff"},"track":1},0],[{"ticksToEvent":0,"beatsToEvent":0,"event":{"deltaTime":0,"channel":0,"type":"channel","noteNumber":69,"velocity":113,"subtype":"noteOn"},"track":1},0],[{"ticksToEvent":120,"beatsToEvent":0.25,"event":{"deltaTime":240,"channel":2,"type":"channel","noteNumber":64,"velocity":98,"subtype":"noteOn"},"track":3},0],[{"ticksToEvent":240,"beatsToEvent":0.5,"event":{"deltaTime":360,"channel":0,"type":"channel","noteNumber":69,"velocity":0,"subtype":"noteOff"},"track":1},0],[{"ticksToEvent":0,"beatsToEvent":0,"event":{"deltaTime":0,"channel":0,"type":"channel","noteNumber":71,"velocity":75,"subtype":"noteOn"},"track":1},0],[{"ticksToEvent":0,"beatsToEvent":0,"event":{"deltaTime":240,"channel":2,"type":"channel","noteNumber":64,"velocity":0,"subtype":"noteOff"},"track":3},0],[{"ticksToEvent":0,"beatsToEvent":0,"event":{"deltaTime":0,"channel":2,"type":"channel","noteNumber":66,"velocity":92,"subtype":"noteOn"},"track":3},0],[{"ticksToEvent":60,"beatsToEvent":0.125,"event":{"deltaTime":60,"channel":0,"type":"channel","noteNumber":71,"velocity":0,"subtype":"noteOff"},"track":1},0],[{"ticksToEvent":0,"beatsToEvent":0,"event":{"deltaTime":0,"channel":0,"type":"channel","noteNumber":69,"velocity":75,"subtype":"noteOn"},"track":1},0],[{"ticksToEvent":0,"beatsToEvent":0,"event":{"deltaTime":60,"channel":2,"type":"channel","noteNumber":66,"velocity":0,"subtype":"noteOff"},"track":3},0],[{"ticksToEvent":0,"beatsToEvent":0,"event":{"deltaTime":0,"channel":2,"type":"channel","noteNumber":64,"velocity":92,"subtype":"noteOn"},"track":3},0],[{"ticksToEvent":60,"beatsToEvent":0.125,"event":{"deltaTime":60,"channel":0,"type":"channel","noteNumber":69,"velocity":0,"subtype":"noteOff"},"track":1},0],[{"ticksToEvent":0,"beatsToEvent":0,"event":{"deltaTime":0,"channel":0,"type":"channel","noteNumber":67,"velocity":75,"subtype":"noteOn"},"track":1},0],[{"ticksToEvent":0,"beatsToEvent":0,"event":{"deltaTime":60,"channel":2,"type":"channel","noteNumber":64,"velocity":0,"subtype":"noteOff"},"track":3},0],[{"ticksToEvent":0,"beatsToEvent":0,"event":{"deltaTime":0,"channel":2,"type":"channel","noteNumber":66,"velocity":92,"subtype":"noteOn"},"track":3},0],[{"ticksToEvent":60,"beatsToEvent":0.125,"event":{"deltaTime":60,"channel":0,"type":"channel","noteNumber":67,"velocity":0,"subtype":"noteOff"},"track":1},0],[{"ticksToEvent":0,"beatsToEvent":0,"event":{"deltaTime":0,"channel":0,"type":"channel","noteNumber":69,"velocity":75,"subtype":"noteOn"},"track":1},0],[{"ticksToEvent":60,"beatsToEvent":0.125,"event":{"deltaTime":60,"channel":0,"type":"channel","noteNumber":69,"velocity":0,"subtype":"noteOff"},"track":1},0],[{"ticksToEvent":0,"beatsToEvent":0,"event":{"deltaTime":0,"channel":0,"type":"channel","noteNumber":71,"velocity":75,"subtype":"noteOn"},"track":1},0],[{"ticksToEvent":60,"beatsToEvent":0.125,"event":{"deltaTime":60,"channel":0,"type":"channel","noteNumber":71,"velocity":0,"subtype":"noteOff"},"track":1},0],[{"ticksToEvent":0,"beatsToEvent":0,"event":{"deltaTime":0,"channel":0,"type":"channel","noteNumber":69,"velocity":75,"subtype":"noteOn"},"track":1},0],[{"ticksToEvent":60,"beatsToEvent":0.125,"event":{"deltaTime":60,"channel":0,"type":"channel","noteNumber":69,"velocity":0,"subtype":"noteOff"},"track":1},0],[{"ticksToEvent":0,"beatsToEvent":0,"event":{"deltaTime":0,"channel":0,"type":"channel","noteNumber":71,"velocity":75,"subtype":"noteOn"},"track":1},0],[{"ticksToEvent":60,"beatsToEvent":0.125,"event":{"deltaTime":60,"channel":0,"type":"channel","noteNumber":71,"velocity":0,"subtype":"noteOff"},"track":1},0],[{"ticksToEvent":0,"beatsToEvent":0,"event":{"deltaTime":0,"channel":0,"type":"channel","noteNumber":69,"velocity":75,"subtype":"noteOn"},"track":1},0],[{"ticksToEvent":60,"beatsToEvent":0.125,"event":{"deltaTime":60,"channel":0,"type":"channel","noteNumber":69,"velocity":0,"subtype":"noteOff"},"track":1},0],[{"ticksToEvent":0,"beatsToEvent":0,"event":{"deltaTime":0,"channel":0,"type":"channel","noteNumber":71,"velocity":75,"subtype":"noteOn"},"track":1},0],[{"ticksToEvent":0,"beatsToEvent":0,"event":{"deltaTime":960,"channel":3,"type":"channel","noteNumber":62,"velocity":0,"subtype":"noteOff"},"track":4},0],[{"ticksToEvent":0,"beatsToEvent":0,"event":{"deltaTime":0,"channel":3,"type":"channel","noteNumber":60,"velocity":86,"subtype":"noteOn"},"track":4},0],[{"ticksToEvent":60,"beatsToEvent":0.125,"event":{"deltaTime":60,"channel":0,"type":"channel","noteNumber":71,"velocity":0,"subtype":"noteOff"},"track":1},0],[{"ticksToEvent":0,"beatsToEvent":0,"event":{"deltaTime":0,"channel":0,"type":"channel","noteNumber":69,"velocity":75,"subtype":"noteOn"},"track":1},0],[{"ticksToEvent":120,"beatsToEvent":0.25,"event":{"deltaTime":120,"channel":0,"type":"channel","noteNumber":69,"velocity":0,"subtype":"noteOff"},"track":1},0],[{"ticksToEvent":0,"beatsToEvent":0,"event":{"deltaTime":0,"channel":0,"type":"channel","noteNumber":71,"velocity":75,"subtype":"noteOn"},"track":1},0],[{"ticksToEvent":60,"beatsToEvent":0.125,"event":{"deltaTime":60,"channel":0,"type":"channel","noteNumber":71,"velocity":0,"subtype":"noteOff"},"track":1},0],[{"ticksToEvent":0,"beatsToEvent":0,"event":{"deltaTime":0,"channel":0,"type":"channel","noteNumber":72,"velocity":75,"subtype":"noteOn"},"track":1},0],[{"ticksToEvent":60,"beatsToEvent":0.125,"event":{"deltaTime":60,"channel":0,"type":"channel","noteNumber":72,"velocity":0,"subtype":"noteOff"},"track":1},0],[{"ticksToEvent":0,"beatsToEvent":0,"event":{"deltaTime":0,"channel":0,"type":"channel","noteNumber":74,"velocity":75,"subtype":"noteOn"},"track":1},0],[{"ticksToEvent":60,"beatsToEvent":0.125,"event":{"deltaTime":60,"channel":0,"type":"channel","noteNumber":74,"velocity":0,"subtype":"noteOff"},"track":1},0],[{"ticksToEvent":0,"beatsToEvent":0,"event":{"deltaTime":0,"channel":0,"type":"channel","noteNumber":76,"velocity":75,"subtype":"noteOn"},"track":1},0],[{"ticksToEvent":0,"beatsToEvent":0,"event":{"deltaTime":720,"channel":2,"type":"channel","noteNumber":66,"velocity":0,"subtype":"noteOff"},"track":3},0],[{"ticksToEvent":116,"beatsToEvent":0.24166666666666667,"event":{"deltaTime":476,"channel":3,"type":"channel","noteNumber":60,"velocity":0,"subtype":"noteOff"},"track":4},0],[{"ticksToEvent":4,"beatsToEvent":0.008333333333333333,"event":{"deltaTime":120,"channel":0,"type":"channel","noteNumber":76,"velocity":0,"subtype":"noteOff"},"track":1},0],[{"ticksToEvent":0,"beatsToEvent":0,"event":{"deltaTime":0,"channel":0,"type":"channel","noteNumber":76,"velocity":113,"subtype":"noteOn"},"track":1},0],[{"ticksToEvent":0,"beatsToEvent":0,"event":{"deltaTime":4,"channel":3,"type":"channel","noteNumber":59,"velocity":82,"subtype":"noteOn"},"track":4},0],[{"ticksToEvent":116,"beatsToEvent":0.24166666666666667,"event":{"deltaTime":116,"channel":0,"type":"channel","noteNumber":76,"velocity":0,"subtype":"noteOff"},"track":1},0],[{"ticksToEvent":4,"beatsToEvent":0.008333333333333333,"event":{"deltaTime":4,"channel":0,"type":"channel","noteNumber":74,"velocity":85,"subtype":"noteOn"},"track":1},0],[{"ticksToEvent":116,"beatsToEvent":0.24166666666666667,"event":{"deltaTime":116,"channel":0,"type":"channel","noteNumber":74,"velocity":0,"subtype":"noteOff"},"track":1},0],[{"ticksToEvent":4,"beatsToEvent":0.008333333333333333,"event":{"deltaTime":4,"channel":0,"type":"channel","noteNumber":72,"velocity":96,"subtype":"noteOn"},"track":1},0],[{"ticksToEvent":0,"beatsToEvent":0,"event":{"deltaTime":360,"channel":2,"type":"channel","noteNumber":60,"velocity":100,"subtype":"noteOn"},"track":3},0],[{"ticksToEvent":116,"beatsToEvent":0.24166666666666667,"event":{"deltaTime":116,"channel":0,"type":"channel","noteNumber":72,"velocity":0,"subtype":"noteOff"},"track":1},0],[{"ticksToEvent":4,"beatsToEvent":0.008333333333333333,"event":{"deltaTime":4,"channel":0,"type":"channel","noteNumber":71,"velocity":75,"subtype":"noteOn"},"track":1},0],[{"ticksToEvent":116,"beatsToEvent":0.24166666666666667,"event":{"deltaTime":116,"channel":0,"type":"channel","noteNumber":71,"velocity":0,"subtype":"noteOff"},"track":1},0],[{"ticksToEvent":0,"beatsToEvent":0,"event":{"deltaTime":236,"channel":2,"type":"channel","noteNumber":60,"velocity":0,"subtype":"noteOff"},"track":3},0],[{"ticksToEvent":4,"beatsToEvent":0.008333333333333333,"event":{"deltaTime":4,"channel":0,"type":"channel","noteNumber":69,"velocity":73,"subtype":"noteOn"},"track":1},0],[{"ticksToEvent":0,"beatsToEvent":0,"event":{"deltaTime":4,"channel":2,"type":"channel","noteNumber":62,"velocity":83,"subtype":"noteOn"},"track":3},0],[{"ticksToEvent":236,"beatsToEvent":0.49166666666666664,"event":{"deltaTime":236,"channel":0,"type":"channel","noteNumber":69,"velocity":0,"subtype":"noteOff"},"track":1},0],[{"ticksToEvent":0,"beatsToEvent":0,"event":{"deltaTime":716,"channel":3,"type":"channel","noteNumber":59,"velocity":0,"subtype":"noteOff"},"track":4},0],[{"ticksToEvent":4,"beatsToEvent":0.008333333333333333,"event":{"deltaTime":4,"channel":0,"type":"channel","noteNumber":67,"velocity":85,"subtype":"noteOn"},"track":1},0],[{"ticksToEvent":0,"beatsToEvent":0,"event":{"deltaTime":4,"channel":3,"type":"channel","noteNumber":57,"velocity":90,"subtype":"noteOn"},"track":4},0],[{"ticksToEvent":236,"beatsToEvent":0.49166666666666664,"event":{"deltaTime":236,"channel":3,"type":"channel","noteNumber":57,"velocity":0,"subtype":"noteOff"},"track":4},0],[{"ticksToEvent":4,"beatsToEvent":0.008333333333333333,"event":{"deltaTime":4,"channel":3,"type":"channel","noteNumber":59,"velocity":89,"subtype":"noteOn"},"track":4},0],[{"ticksToEvent":240,"beatsToEvent":0.5,"event":{"deltaTime":480,"channel":0,"type":"channel","noteNumber":67,"velocity":0,"subtype":"noteOff"},"track":1},0],[{"ticksToEvent":0,"beatsToEvent":0,"event":{"deltaTime":0,"channel":0,"type":"channel","noteNumber":79,"velocity":102,"subtype":"noteOn"},"track":1},0],[{"ticksToEvent":236,"beatsToEvent":0.49166666666666664,"event":{"deltaTime":236,"channel":0,"type":"channel","noteNumber":79,"velocity":0,"subtype":"noteOff"},"track":1},0],[{"ticksToEvent":0,"beatsToEvent":0,"event":{"deltaTime":956,"channel":2,"type":"channel","noteNumber":62,"velocity":0,"subtype":"noteOff"},"track":3},0],[{"ticksToEvent":0,"beatsToEvent":0,"event":{"deltaTime":476,"channel":3,"type":"channel","noteNumber":59,"velocity":0,"subtype":"noteOff"},"track":4},0],[{"ticksToEvent":4,"beatsToEvent":0.008333333333333333,"event":{"deltaTime":4,"channel":0,"type":"channel","noteNumber":78,"velocity":101,"subtype":"noteOn"},"track":1},0],[{"ticksToEvent":0,"beatsToEvent":0,"event":{"deltaTime":4,"channel":3,"type":"channel","noteNumber":60,"velocity":96,"subtype":"noteOn"},"track":4},0],[{"ticksToEvent":116,"beatsToEvent":0.24166666666666667,"event":{"deltaTime":116,"channel":0,"type":"channel","noteNumber":78,"velocity":0,"subtype":"noteOff"},"track":1},0],[{"ticksToEvent":4,"beatsToEvent":0.008333333333333333,"event":{"deltaTime":4,"channel":0,"type":"channel","noteNumber":76,"velocity":102,"subtype":"noteOn"},"track":1},0],[{"ticksToEvent":120,"beatsToEvent":0.25,"event":{"deltaTime":244,"channel":2,"type":"channel","noteNumber":64,"velocity":98,"subtype":"noteOn"},"track":3},0],[{"ticksToEvent":120,"beatsToEvent":0.25,"event":{"deltaTime":240,"channel":0,"type":"channel","noteNumber":76,"velocity":0,"subtype":"noteOff"},"track":1},0],[{"ticksToEvent":0,"beatsToEvent":0,"event":{"deltaTime":0,"channel":0,"type":"channel","noteNumber":78,"velocity":86,"subtype":"noteOn"},"track":1},0],[{"ticksToEvent":60,"beatsToEvent":0.125,"event":{"deltaTime":60,"channel":0,"type":"channel","noteNumber":78,"velocity":0,"subtype":"noteOff"},"track":1},0],[{"ticksToEvent":0,"beatsToEvent":0,"event":{"deltaTime":0,"channel":0,"type":"channel","noteNumber":75,"velocity":92,"subtype":"noteOn"},"track":1},0],[{"ticksToEvent":56,"beatsToEvent":0.11666666666666667,"event":{"deltaTime":236,"channel":2,"type":"channel","noteNumber":64,"velocity":0,"subtype":"noteOff"},"track":3},0],[{"ticksToEvent":4,"beatsToEvent":0.008333333333333333,"event":{"deltaTime":60,"channel":0,"type":"channel","noteNumber":75,"velocity":0,"subtype":"noteOff"},"track":1},0],[{"ticksToEvent":0,"beatsToEvent":0,"event":{"deltaTime":0,"channel":0,"type":"channel","noteNumber":75,"velocity":93,"subtype":"noteOn"},"track":1},0],[{"ticksToEvent":0,"beatsToEvent":0,"event":{"deltaTime":4,"channel":2,"type":"channel","noteNumber":67,"velocity":111,"subtype":"noteOn"},"track":3},0],[{"ticksToEvent":236,"beatsToEvent":0.49166666666666664,"event":{"deltaTime":236,"channel":0,"type":"channel","noteNumber":75,"velocity":0,"subtype":"noteOff"},"track":1},0],[{"ticksToEvent":0,"beatsToEvent":0,"event":{"deltaTime":716,"channel":3,"type":"channel","noteNumber":60,"velocity":0,"subtype":"noteOff"},"track":4},0],[{"ticksToEvent":4,"beatsToEvent":0.008333333333333333,"event":{"deltaTime":4,"channel":0,"type":"channel","noteNumber":76,"velocity":92,"subtype":"noteOn"},"track":1},0],[{"ticksToEvent":0,"beatsToEvent":0,"event":{"deltaTime":4,"channel":3,"type":"channel","noteNumber":59,"velocity":88,"subtype":"noteOn"},"track":4},0],[{"ticksToEvent":236,"beatsToEvent":0.49166666666666664,"event":{"deltaTime":236,"channel":3,"type":"channel","noteNumber":59,"velocity":0,"subtype":"noteOff"},"track":4},0],[{"ticksToEvent":4,"beatsToEvent":0.008333333333333333,"event":{"deltaTime":480,"channel":2,"type":"channel","noteNumber":67,"velocity":0,"subtype":"noteOff"},"track":3},0],[{"ticksToEvent":0,"beatsToEvent":0,"event":{"deltaTime":0,"channel":2,"type":"channel","noteNumber":66,"velocity":88,"subtype":"noteOn"},"track":3},0],[{"ticksToEvent":0,"beatsToEvent":0,"event":{"deltaTime":4,"channel":3,"type":"channel","noteNumber":57,"velocity":82,"subtype":"noteOn"},"track":4},0],[{"ticksToEvent":60,"beatsToEvent":0.125,"event":{"deltaTime":60,"channel":2,"type":"channel","noteNumber":66,"velocity":0,"subtype":"noteOff"},"track":3},0],[{"ticksToEvent":0,"beatsToEvent":0,"event":{"deltaTime":0,"channel":2,"type":"channel","noteNumber":67,"velocity":88,"subtype":"noteOn"},"track":3},0],[{"ticksToEvent":60,"beatsToEvent":0.125,"event":{"deltaTime":60,"channel":2,"type":"channel","noteNumber":67,"velocity":0,"subtype":"noteOff"},"track":3},0],[{"ticksToEvent":0,"beatsToEvent":0,"event":{"deltaTime":0,"channel":2,"type":"channel","noteNumber":66,"velocity":88,"subtype":"noteOn"},"track":3},0],[{"ticksToEvent":116,"beatsToEvent":0.24166666666666667,"event":{"deltaTime":476,"channel":0,"type":"channel","noteNumber":76,"velocity":0,"subtype":"noteOff"},"track":1},0],[{"ticksToEvent":4,"beatsToEvent":0.008333333333333333,"event":{"deltaTime":4,"channel":0,"type":"channel","noteNumber":81,"velocity":101,"subtype":"noteOn"},"track":1},0],[{"ticksToEvent":0,"beatsToEvent":0,"event":{"deltaTime":120,"channel":2,"type":"channel","noteNumber":66,"velocity":0,"subtype":"noteOff"},"track":3},0],[{"ticksToEvent":0,"beatsToEvent":0,"event":{"deltaTime":0,"channel":2,"type":"channel","noteNumber":64,"velocity":88,"subtype":"noteOn"},"track":3},0],[{"ticksToEvent":56,"beatsToEvent":0.11666666666666667,"event":{"deltaTime":56,"channel":0,"type":"channel","noteNumber":81,"velocity":0,"subtype":"noteOff"},"track":1},0],[{"ticksToEvent":4,"beatsToEvent":0.008333333333333333,"event":{"deltaTime":4,"channel":0,"type":"channel","noteNumber":83,"velocity":109,"subtype":"noteOn"},"track":1},0],[{"ticksToEvent":56,"beatsToEvent":0.11666666666666667,"event":{"deltaTime":56,"channel":0,"type":"channel","noteNumber":83,"velocity":0,"subtype":"noteOff"},"track":1},0],[{"ticksToEvent":4,"beatsToEvent":0.008333333333333333,"event":{"deltaTime":4,"channel":0,"type":"channel","noteNumber":81,"velocity":97,"subtype":"noteOn"},"track":1},0],[{"ticksToEvent":56,"beatsToEvent":0.11666666666666667,"event":{"deltaTime":56,"channel":0,"type":"channel","noteNumber":81,"velocity":0,"subtype":"noteOff"},"track":1},0],[{"ticksToEvent":4,"beatsToEvent":0.008333333333333333,"event":{"deltaTime":4,"channel":0,"type":"channel","noteNumber":79,"velocity":92,"subtype":"noteOn"},"track":1},0],[{"ticksToEvent":56,"beatsToEvent":0.11666666666666667,"event":{"deltaTime":56,"channel":0,"type":"channel","noteNumber":79,"velocity":0,"subtype":"noteOff"},"track":1},0],[{"ticksToEvent":0,"beatsToEvent":0,"event":{"deltaTime":236,"channel":2,"type":"channel","noteNumber":64,"velocity":0,"subtype":"noteOff"},"track":3},0],[{"ticksToEvent":0,"beatsToEvent":0,"event":{"deltaTime":476,"channel":3,"type":"channel","noteNumber":57,"velocity":0,"subtype":"noteOff"},"track":4},0],[{"ticksToEvent":4,"beatsToEvent":0.008333333333333333,"event":{"deltaTime":4,"channel":0,"type":"channel","noteNumber":81,"velocity":111,"subtype":"noteOn"},"track":1},0],[{"ticksToEvent":0,"beatsToEvent":0,"event":{"deltaTime":4,"channel":2,"type":"channel","noteNumber":63,"velocity":102,"subtype":"noteOn"},"track":3},0],[{"ticksToEvent":0,"beatsToEvent":0,"event":{"deltaTime":4,"channel":3,"type":"channel","noteNumber":59,"velocity":89,"subtype":"noteOn"},"track":4},0],[{"ticksToEvent":236,"beatsToEvent":0.49166666666666664,"event":{"deltaTime":236,"channel":2,"type":"channel","noteNumber":63,"velocity":0,"subtype":"noteOff"},"track":3},0],[{"ticksToEvent":4,"beatsToEvent":0.008333333333333333,"event":{"deltaTime":4,"channel":2,"type":"channel","noteNumber":64,"velocity":100,"subtype":"noteOn"},"track":3},0],[{"ticksToEvent":116,"beatsToEvent":0.24166666666666667,"event":{"deltaTime":356,"channel":0,"type":"channel","noteNumber":81,"velocity":0,"subtype":"noteOff"},"track":1},0],[{"ticksToEvent":4,"beatsToEvent":0.008333333333333333,"event":{"deltaTime":4,"channel":0,"type":"channel","noteNumber":78,"velocity":96,"subtype":"noteOn"},"track":1},0],[{"ticksToEvent":116,"beatsToEvent":0.24166666666666667,"event":{"deltaTime":116,"channel":0,"type":"channel","noteNumber":78,"velocity":0,"subtype":"noteOff"},"track":1},0],[{"ticksToEvent":0,"beatsToEvent":0,"event":{"deltaTime":236,"channel":2,"type":"channel","noteNumber":64,"velocity":0,"subtype":"noteOff"},"track":3},0],[{"ticksToEvent":4,"beatsToEvent":0.008333333333333333,"event":{"deltaTime":4,"channel":0,"type":"channel","noteNumber":76,"velocity":93,"subtype":"noteOn"},"track":1},0],[{"ticksToEvent":0,"beatsToEvent":0,"event":{"deltaTime":4,"channel":2,"type":"channel","noteNumber":66,"velocity":86,"subtype":"noteOn"},"track":3},0],[{"ticksToEvent":236,"beatsToEvent":0.49166666666666664,"event":{"deltaTime":236,"channel":0,"type":"channel","noteNumber":76,"velocity":0,"subtype":"noteOff"},"track":1},0],[{"ticksToEvent":0,"beatsToEvent":0,"event":{"deltaTime":716,"channel":3,"type":"channel","noteNumber":59,"velocity":0,"subtype":"noteOff"},"track":4},0],[{"ticksToEvent":4,"beatsToEvent":0.008333333333333333,"event":{"deltaTime":4,"channel":0,"type":"channel","noteNumber":75,"velocity":101,"subtype":"noteOn"},"track":1},0],[{"ticksToEvent":0,"beatsToEvent":0,"event":{"deltaTime":4,"channel":3,"type":"channel","noteNumber":57,"velocity":80,"subtype":"noteOn"},"track":4},0],[{"ticksToEvent":236,"beatsToEvent":0.49166666666666664,"event":{"deltaTime":236,"channel":3,"type":"channel","noteNumber":57,"velocity":0,"subtype":"noteOff"},"track":4},0],[{"ticksToEvent":4,"beatsToEvent":0.008333333333333333,"event":{"deltaTime":4,"channel":3,"type":"channel","noteNumber":55,"velocity":79,"subtype":"noteOn"},"track":4},0],[{"ticksToEvent":236,"beatsToEvent":0.49166666666666664,"event":{"deltaTime":476,"channel":0,"type":"channel","noteNumber":75,"velocity":0,"subtype":"noteOff"},"track":1},0],[{"ticksToEvent":0,"beatsToEvent":0,"event":{"deltaTime":236,"channel":3,"type":"channel","noteNumber":55,"velocity":0,"subtype":"noteOff"},"track":4},0],[{"ticksToEvent":4,"beatsToEvent":0.008333333333333333,"event":{"deltaTime":4,"channel":0,"type":"channel","noteNumber":71,"velocity":101,"subtype":"noteOn"},"track":1},0],[{"ticksToEvent":0,"beatsToEvent":0,"event":{"deltaTime":4,"channel":3,"type":"channel","noteNumber":54,"velocity":93,"subtype":"noteOn"},"track":4},0],[{"ticksToEvent":236,"beatsToEvent":0.49166666666666664,"event":{"deltaTime":956,"channel":2,"type":"channel","noteNumber":66,"velocity":0,"subtype":"noteOff"},"track":3},0],[{"ticksToEvent":0,"beatsToEvent":0,"event":{"deltaTime":236,"channel":3,"type":"channel","noteNumber":54,"velocity":0,"subtype":"noteOff"},"track":4},0],[{"ticksToEvent":4,"beatsToEvent":0.008333333333333333,"event":{"deltaTime":240,"channel":0,"type":"channel","noteNumber":71,"velocity":0,"subtype":"noteOff"},"track":1},0],[{"ticksToEvent":0,"beatsToEvent":0,"event":{"deltaTime":0,"channel":0,"type":"channel","noteNumber":76,"velocity":90,"subtype":"noteOn"},"track":1},0],[{"ticksToEvent":0,"beatsToEvent":0,"event":{"deltaTime":4,"channel":3,"type":"channel","noteNumber":52,"velocity":89,"subtype":"noteOn"},"track":4},0],[{"ticksToEvent":60,"beatsToEvent":0.125,"event":{"deltaTime":60,"channel":0,"type":"channel","noteNumber":76,"velocity":0,"subtype":"noteOff"},"track":1},0],[{"ticksToEvent":0,"beatsToEvent":0,"event":{"deltaTime":0,"channel":0,"type":"channel","noteNumber":78,"velocity":90,"subtype":"noteOn"},"track":1},0],[{"ticksToEvent":60,"beatsToEvent":0.125,"event":{"deltaTime":60,"channel":0,"type":"channel","noteNumber":78,"velocity":0,"subtype":"noteOff"},"track":1},0],[{"ticksToEvent":0,"beatsToEvent":0,"event":{"deltaTime":0,"channel":0,"type":"channel","noteNumber":79,"velocity":101,"subtype":"noteOn"},"track":1},0],[{"ticksToEvent":120,"beatsToEvent":0.25,"event":{"deltaTime":244,"channel":2,"type":"channel","noteNumber":57,"velocity":106,"subtype":"noteOn"},"track":3},0],[{"ticksToEvent":120,"beatsToEvent":0.25,"event":{"deltaTime":240,"channel":0,"type":"channel","noteNumber":79,"velocity":0,"subtype":"noteOff"},"track":1},0],[{"ticksToEvent":0,"beatsToEvent":0,"event":{"deltaTime":0,"channel":0,"type":"channel","noteNumber":78,"velocity":102,"subtype":"noteOn"},"track":1},0],[{"ticksToEvent":116,"beatsToEvent":0.24166666666666667,"event":{"deltaTime":116,"channel":0,"type":"channel","noteNumber":78,"velocity":0,"subtype":"noteOff"},"track":1},0],[{"ticksToEvent":4,"beatsToEvent":0.008333333333333333,"event":{"deltaTime":4,"channel":0,"type":"channel","noteNumber":78,"velocity":106,"subtype":"noteOn"},"track":1},0],[{"ticksToEvent":0,"beatsToEvent":0,"event":{"deltaTime":240,"channel":2,"type":"channel","noteNumber":57,"velocity":0,"subtype":"noteOff"},"track":3},0],[{"ticksToEvent":0,"beatsToEvent":0,"event":{"deltaTime":0,"channel":2,"type":"channel","noteNumber":55,"velocity":92,"subtype":"noteOn"},"track":3},0],[{"ticksToEvent":60,"beatsToEvent":0.125,"event":{"deltaTime":60,"channel":2,"type":"channel","noteNumber":55,"velocity":0,"subtype":"noteOff"},"track":3},0],[{"ticksToEvent":0,"beatsToEvent":0,"event":{"deltaTime":0,"channel":2,"type":"channel","noteNumber":57,"velocity":92,"subtype":"noteOn"},"track":3},0],[{"ticksToEvent":60,"beatsToEvent":0.125,"event":{"deltaTime":60,"channel":2,"type":"channel","noteNumber":57,"velocity":0,"subtype":"noteOff"},"track":3},0],[{"ticksToEvent":0,"beatsToEvent":0,"event":{"deltaTime":0,"channel":2,"type":"channel","noteNumber":55,"velocity":92,"subtype":"noteOn"},"track":3},0],[{"ticksToEvent":116,"beatsToEvent":0.24166666666666667,"event":{"deltaTime":236,"channel":0,"type":"channel","noteNumber":78,"velocity":0,"subtype":"noteOff"},"track":1},0],[{"ticksToEvent":4,"beatsToEvent":0.008333333333333333,"event":{"deltaTime":4,"channel":0,"type":"channel","noteNumber":76,"velocity":97,"subtype":"noteOn"},"track":1},0],[{"ticksToEvent":0,"beatsToEvent":0,"event":{"deltaTime":120,"channel":2,"type":"channel","noteNumber":55,"velocity":0,"subtype":"noteOff"},"track":3},0],[{"ticksToEvent":0,"beatsToEvent":0,"event":{"deltaTime":0,"channel":2,"type":"channel","noteNumber":54,"velocity":92,"subtype":"noteOn"},"track":3},0],[{"ticksToEvent":236,"beatsToEvent":0.49166666666666664,"event":{"deltaTime":236,"channel":2,"type":"channel","noteNumber":54,"velocity":0,"subtype":"noteOff"},"track":3},0],[{"ticksToEvent":4,"beatsToEvent":0.008333333333333333,"event":{"deltaTime":4,"channel":2,"type":"channel","noteNumber":55,"velocity":84,"subtype":"noteOn"},"track":3},0],[{"ticksToEvent":0,"beatsToEvent":0,"event":{"deltaTime":960,"channel":3,"type":"channel","noteNumber":52,"velocity":0,"subtype":"noteOff"},"track":4},0],[{"ticksToEvent":0,"beatsToEvent":0,"event":{"deltaTime":0,"channel":3,"type":"channel","noteNumber":50,"velocity":90,"subtype":"noteOn"},"track":4},0],[{"ticksToEvent":116,"beatsToEvent":0.24166666666666667,"event":{"deltaTime":356,"channel":0,"type":"channel","noteNumber":76,"velocity":0,"subtype":"noteOff"},"track":1},0],[{"ticksToEvent":4,"beatsToEvent":0.008333333333333333,"event":{"deltaTime":4,"channel":0,"type":"channel","noteNumber":71,"velocity":85,"subtype":"noteOn"},"track":1},0],[{"ticksToEvent":116,"beatsToEvent":0.24166666666666667,"event":{"deltaTime":116,"channel":0,"type":"channel","noteNumber":71,"velocity":0,"subtype":"noteOff"},"track":1},0],[{"ticksToEvent":4,"beatsToEvent":0.008333333333333333,"event":{"deltaTime":4,"channel":0,"type":"channel","noteNumber":72,"velocity":95,"subtype":"noteOn"},"track":1},0],[{"ticksToEvent":56,"beatsToEvent":0.11666666666666667,"event":{"deltaTime":56,"channel":0,"type":"channel","noteNumber":72,"velocity":0,"subtype":"noteOff"},"track":1},0],[{"ticksToEvent":4,"beatsToEvent":0.008333333333333333,"event":{"deltaTime":4,"channel":0,"type":"channel","noteNumber":71,"velocity":88,"subtype":"noteOn"},"track":1},0],[{"ticksToEvent":56,"beatsToEvent":0.11666666666666667,"event":{"deltaTime":56,"channel":0,"type":"channel","noteNumber":71,"velocity":0,"subtype":"noteOff"},"track":1},0],[{"ticksToEvent":4,"beatsToEvent":0.008333333333333333,"event":{"deltaTime":4,"channel":0,"type":"channel","noteNumber":69,"velocity":84,"subtype":"noteOn"},"track":1},0],[{"ticksToEvent":56,"beatsToEvent":0.11666666666666667,"event":{"deltaTime":56,"channel":0,"type":"channel","noteNumber":69,"velocity":0,"subtype":"noteOff"},"track":1},0],[{"ticksToEvent":4,"beatsToEvent":0.008333333333333333,"event":{"deltaTime":4,"channel":0,"type":"channel","noteNumber":71,"velocity":80,"subtype":"noteOn"},"track":1},0],[{"ticksToEvent":56,"beatsToEvent":0.11666666666666667,"event":{"deltaTime":56,"channel":0,"type":"channel","noteNumber":71,"velocity":0,"subtype":"noteOff"},"track":1},0],[{"ticksToEvent":0,"beatsToEvent":0,"event":{"deltaTime":476,"channel":3,"type":"channel","noteNumber":50,"velocity":0,"subtype":"noteOff"},"track":4},0],[{"ticksToEvent":4,"beatsToEvent":0.008333333333333333,"event":{"deltaTime":4,"channel":0,"type":"channel","noteNumber":79,"velocity":109,"subtype":"noteOn"},"track":1},0],[{"ticksToEvent":0,"beatsToEvent":0,"event":{"deltaTime":480,"channel":2,"type":"channel","noteNumber":55,"velocity":0,"subtype":"noteOff"},"track":3},0],[{"ticksToEvent":0,"beatsToEvent":0,"event":{"deltaTime":4,"channel":3,"type":"channel","noteNumber":48,"velocity":97,"subtype":"noteOn"},"track":4},0],[{"ticksToEvent":56,"beatsToEvent":0.11666666666666667,"event":{"deltaTime":56,"channel":0,"type":"channel","noteNumber":79,"velocity":0,"subtype":"noteOff"},"track":1},0],[{"ticksToEvent":4,"beatsToEvent":0.008333333333333333,"event":{"deltaTime":4,"channel":0,"type":"channel","noteNumber":76,"velocity":90,"subtype":"noteOn"},"track":1},0],[{"ticksToEvent":176,"beatsToEvent":0.36666666666666664,"event":{"deltaTime":176,"channel":0,"type":"channel","noteNumber":76,"velocity":0,"subtype":"noteOff"},"track":1},0],[{"ticksToEvent":4,"beatsToEvent":0.008333333333333333,"event":{"deltaTime":4,"channel":0,"type":"channel","noteNumber":78,"velocity":99,"subtype":"noteOn"},"track":1},0],[{"ticksToEvent":0,"beatsToEvent":0,"event":{"deltaTime":240,"channel":2,"type":"channel","noteNumber":57,"velocity":97,"subtype":"noteOn"},"track":3},0],[{"ticksToEvent":56,"beatsToEvent":0.11666666666666667,"event":{"deltaTime":56,"channel":0,"type":"channel","noteNumber":78,"velocity":0,"subtype":"noteOff"},"track":1},0],[{"ticksToEvent":4,"beatsToEvent":0.008333333333333333,"event":{"deltaTime":4,"channel":0,"type":"channel","noteNumber":75,"velocity":101,"subtype":"noteOn"},"track":1},0],[{"ticksToEvent":116,"beatsToEvent":0.24166666666666667,"event":{"deltaTime":116,"channel":0,"type":"channel","noteNumber":75,"velocity":0,"subtype":"noteOff"},"track":1},0],[{"ticksToEvent":64,"beatsToEvent":0.13333333333333333,"event":{"deltaTime":64,"channel":0,"type":"channel","noteNumber":75,"velocity":117,"subtype":"noteOn"},"track":1},0],[{"ticksToEvent":0,"beatsToEvent":0,"event":{"deltaTime":240,"channel":2,"type":"channel","noteNumber":57,"velocity":0,"subtype":"noteOff"},"track":3},0],[{"ticksToEvent":0,"beatsToEvent":0,"event":{"deltaTime":0,"channel":2,"type":"channel","noteNumber":55,"velocity":85,"subtype":"noteOn"},"track":3},0],[{"ticksToEvent":60,"beatsToEvent":0.125,"event":{"deltaTime":60,"channel":2,"type":"channel","noteNumber":55,"velocity":0,"subtype":"noteOff"},"track":3},0],[{"ticksToEvent":0,"beatsToEvent":0,"event":{"deltaTime":0,"channel":2,"type":"channel","noteNumber":57,"velocity":85,"subtype":"noteOn"},"track":3},0],[{"ticksToEvent":60,"beatsToEvent":0.125,"event":{"deltaTime":60,"channel":2,"type":"channel","noteNumber":57,"velocity":0,"subtype":"noteOff"},"track":3},0],[{"ticksToEvent":0,"beatsToEvent":0,"event":{"deltaTime":0,"channel":2,"type":"channel","noteNumber":55,"velocity":85,"subtype":"noteOn"},"track":3},0],[{"ticksToEvent":116,"beatsToEvent":0.24166666666666667,"event":{"deltaTime":236,"channel":0,"type":"channel","noteNumber":75,"velocity":0,"subtype":"noteOff"},"track":1},0],[{"ticksToEvent":4,"beatsToEvent":0.008333333333333333,"event":{"deltaTime":4,"channel":0,"type":"channel","noteNumber":76,"velocity":102,"subtype":"noteOn"},"track":1},0],[{"ticksToEvent":0,"beatsToEvent":0,"event":{"deltaTime":120,"channel":2,"type":"channel","noteNumber":55,"velocity":0,"subtype":"noteOff"},"track":3},0],[{"ticksToEvent":0,"beatsToEvent":0,"event":{"deltaTime":0,"channel":2,"type":"channel","noteNumber":54,"velocity":80,"subtype":"noteOn"},"track":3},0],[{"ticksToEvent":236,"beatsToEvent":0.49166666666666664,"event":{"deltaTime":236,"channel":2,"type":"channel","noteNumber":54,"velocity":0,"subtype":"noteOff"},"track":3},0],[{"ticksToEvent":0,"beatsToEvent":0,"event":{"deltaTime":956,"channel":3,"type":"channel","noteNumber":48,"velocity":0,"subtype":"noteOff"},"track":4},0],[{"ticksToEvent":4,"beatsToEvent":0.008333333333333333,"event":{"deltaTime":4,"channel":2,"type":"channel","noteNumber":55,"velocity":86,"subtype":"noteOn"},"track":3},0],[{"ticksToEvent":0,"beatsToEvent":0,"event":{"deltaTime":4,"channel":3,"type":"channel","noteNumber":47,"velocity":100,"subtype":"noteOn"},"track":4},0],[{"ticksToEvent":116,"beatsToEvent":0.24166666666666667,"event":{"deltaTime":356,"channel":0,"type":"channel","noteNumber":76,"velocity":0,"subtype":"noteOff"},"track":1},0],[{"ticksToEvent":4,"beatsToEvent":0.008333333333333333,"event":{"deltaTime":4,"channel":0,"type":"channel","noteNumber":67,"velocity":92,"subtype":"noteOn"},"track":1},0],[{"ticksToEvent":116,"beatsToEvent":0.24166666666666667,"event":{"deltaTime":116,"channel":0,"type":"channel","noteNumber":67,"velocity":0,"subtype":"noteOff"},"track":1},0],[{"ticksToEvent":0,"beatsToEvent":0,"event":{"deltaTime":236,"channel":2,"type":"channel","noteNumber":55,"velocity":0,"subtype":"noteOff"},"track":3},0],[{"ticksToEvent":4,"beatsToEvent":0.008333333333333333,"event":{"deltaTime":4,"channel":0,"type":"channel","noteNumber":66,"velocity":86,"subtype":"noteOn"},"track":1},0],[{"ticksToEvent":0,"beatsToEvent":0,"event":{"deltaTime":4,"channel":2,"type":"channel","noteNumber":59,"velocity":97,"subtype":"noteOn"},"track":3},0],[{"ticksToEvent":116,"beatsToEvent":0.24166666666666667,"event":{"deltaTime":116,"channel":0,"type":"channel","noteNumber":66,"velocity":0,"subtype":"noteOff"},"track":1},0],[{"ticksToEvent":4,"beatsToEvent":0.008333333333333333,"event":{"deltaTime":4,"channel":0,"type":"channel","noteNumber":64,"velocity":80,"subtype":"noteOn"},"track":1},0],[{"ticksToEvent":116,"beatsToEvent":0.24166666666666667,"event":{"deltaTime":116,"channel":0,"type":"channel","noteNumber":64,"velocity":0,"subtype":"noteOff"},"track":1},0],[{"ticksToEvent":0,"beatsToEvent":0,"event":{"deltaTime":476,"channel":3,"type":"channel","noteNumber":47,"velocity":0,"subtype":"noteOff"},"track":4},0],[{"ticksToEvent":4,"beatsToEvent":0.008333333333333333,"event":{"deltaTime":4,"channel":0,"type":"channel","noteNumber":66,"velocity":97,"subtype":"noteOn"},"track":1},0],[{"ticksToEvent":0,"beatsToEvent":0,"event":{"deltaTime":8644,"channel":1,"type":"channel","noteNumber":66,"velocity":83,"subtype":"noteOn"},"track":2},0],[{"ticksToEvent":0,"beatsToEvent":0,"event":{"deltaTime":240,"channel":2,"type":"channel","noteNumber":59,"velocity":0,"subtype":"noteOff"},"track":3},0],[{"ticksToEvent":0,"beatsToEvent":0,"event":{"deltaTime":4,"channel":3,"type":"channel","noteNumber":45,"velocity":96,"subtype":"noteOn"},"track":4},0],[{"ticksToEvent":236,"beatsToEvent":0.49166666666666664,"event":{"deltaTime":236,"channel":3,"type":"channel","noteNumber":45,"velocity":0,"subtype":"noteOff"},"track":4},0],[{"ticksToEvent":4,"beatsToEvent":0.008333333333333333,"event":{"deltaTime":4,"channel":3,"type":"channel","noteNumber":48,"velocity":91,"subtype":"noteOn"},"track":4},0],[{"ticksToEvent":120,"beatsToEvent":0.25,"event":{"deltaTime":360,"channel":0,"type":"channel","noteNumber":66,"velocity":0,"subtype":"noteOff"},"track":1},0],[{"ticksToEvent":0,"beatsToEvent":0,"event":{"deltaTime":0,"channel":0,"type":"channel","noteNumber":76,"velocity":121,"subtype":"noteOn"},"track":1},0],[{"ticksToEvent":116,"beatsToEvent":0.24166666666666667,"event":{"deltaTime":236,"channel":3,"type":"channel","noteNumber":48,"velocity":0,"subtype":"noteOff"},"track":4},0],[{"ticksToEvent":4,"beatsToEvent":0.008333333333333333,"event":{"deltaTime":120,"channel":0,"type":"channel","noteNumber":76,"velocity":0,"subtype":"noteOff"},"track":1},0],[{"ticksToEvent":0,"beatsToEvent":0,"event":{"deltaTime":0,"channel":0,"type":"channel","noteNumber":75,"velocity":117,"subtype":"noteOn"},"track":1},0],[{"ticksToEvent":0,"beatsToEvent":0,"event":{"deltaTime":480,"channel":1,"type":"channel","noteNumber":66,"velocity":0,"subtype":"noteOff"},"track":2},0],[{"ticksToEvent":0,"beatsToEvent":0,"event":{"deltaTime":4,"channel":3,"type":"channel","noteNumber":47,"velocity":102,"subtype":"noteOn"},"track":4},0],[{"ticksToEvent":60,"beatsToEvent":0.125,"event":{"deltaTime":60,"channel":0,"type":"channel","noteNumber":75,"velocity":0,"subtype":"noteOff"},"track":1},0],[{"ticksToEvent":0,"beatsToEvent":0,"event":{"deltaTime":0,"channel":0,"type":"channel","noteNumber":76,"velocity":75,"subtype":"noteOn"},"track":1},0],[{"ticksToEvent":60,"beatsToEvent":0.125,"event":{"deltaTime":60,"channel":0,"type":"channel","noteNumber":76,"velocity":0,"subtype":"noteOff"},"track":1},0],[{"ticksToEvent":0,"beatsToEvent":0,"event":{"deltaTime":0,"channel":0,"type":"channel","noteNumber":78,"velocity":75,"subtype":"noteOn"},"track":1},0],[{"ticksToEvent":60,"beatsToEvent":0.125,"event":{"deltaTime":60,"channel":0,"type":"channel","noteNumber":78,"velocity":0,"subtype":"noteOff"},"track":1},0],[{"ticksToEvent":0,"beatsToEvent":0,"event":{"deltaTime":0,"channel":0,"type":"channel","noteNumber":79,"velocity":85,"subtype":"noteOn"},"track":1},0],[{"ticksToEvent":56,"beatsToEvent":0.11666666666666667,"event":{"deltaTime":56,"channel":0,"type":"channel","noteNumber":79,"velocity":0,"subtype":"noteOff"},"track":1},0],[{"ticksToEvent":0,"beatsToEvent":0,"event":{"deltaTime":236,"channel":3,"type":"channel","noteNumber":47,"velocity":0,"subtype":"noteOff"},"track":4},0],[{"ticksToEvent":4,"beatsToEvent":0.008333333333333333,"event":{"deltaTime":4,"channel":0,"type":"channel","noteNumber":81,"velocity":117,"subtype":"noteOn"},"track":1},0],[{"ticksToEvent":0,"beatsToEvent":0,"event":{"deltaTime":240,"channel":1,"type":"channel","noteNumber":72,"velocity":83,"subtype":"noteOn"},"track":2},0],[{"ticksToEvent":0,"beatsToEvent":0,"event":{"deltaTime":4,"channel":3,"type":"channel","noteNumber":45,"velocity":88,"subtype":"noteOn"},"track":4},0],[{"ticksToEvent":236,"beatsToEvent":0.49166666666666664,"event":{"deltaTime":236,"channel":0,"type":"channel","noteNumber":81,"velocity":0,"subtype":"noteOff"},"track":1},0],[{"ticksToEvent":0,"beatsToEvent":0,"event":{"deltaTime":236,"channel":3,"type":"channel","noteNumber":45,"velocity":0,"subtype":"noteOff"},"track":4},0],[{"ticksToEvent":4,"beatsToEvent":0.008333333333333333,"event":{"deltaTime":4,"channel":0,"type":"channel","noteNumber":79,"velocity":109,"subtype":"noteOn"},"track":1},0],[{"ticksToEvent":0,"beatsToEvent":0,"event":{"deltaTime":240,"channel":1,"type":"channel","noteNumber":72,"velocity":0,"subtype":"noteOff"},"track":2},0],[{"ticksToEvent":0,"beatsToEvent":0,"event":{"deltaTime":0,"channel":1,"type":"channel","noteNumber":71,"velocity":83,"subtype":"noteOn"},"track":2},0],[{"ticksToEvent":0,"beatsToEvent":0,"event":{"deltaTime":4,"channel":3,"type":"channel","noteNumber":47,"velocity":107,"subtype":"noteOn"},"track":4},0],[{"ticksToEvent":236,"beatsToEvent":0.49166666666666664,"event":{"deltaTime":236,"channel":0,"type":"channel","noteNumber":79,"velocity":0,"subtype":"noteOff"},"track":1},0],[{"ticksToEvent":4,"beatsToEvent":0.008333333333333333,"event":{"deltaTime":4,"channel":0,"type":"channel","noteNumber":78,"velocity":117,"subtype":"noteOn"},"track":1},0],[{"ticksToEvent":0,"beatsToEvent":0,"event":{"deltaTime":240,"channel":1,"type":"channel","noteNumber":71,"velocity":0,"subtype":"noteOff"},"track":2},0],[{"ticksToEvent":0,"beatsToEvent":0,"event":{"deltaTime":0,"channel":1,"type":"channel","noteNumber":69,"velocity":83,"subtype":"noteOn"},"track":2},0],[{"ticksToEvent":0,"beatsToEvent":0,"event":{"deltaTime":1200,"channel":2,"type":"channel","noteNumber":51,"velocity":107,"subtype":"noteOn"},"track":3},0],[{"ticksToEvent":236,"beatsToEvent":0.49166666666666664,"event":{"deltaTime":236,"channel":0,"type":"channel","noteNumber":78,"velocity":0,"subtype":"noteOff"},"track":1},0],[{"ticksToEvent":0,"beatsToEvent":0,"event":{"deltaTime":476,"channel":3,"type":"channel","noteNumber":47,"velocity":0,"subtype":"noteOff"},"track":4},0],[{"ticksToEvent":4,"beatsToEvent":0.008333333333333333,"event":{"deltaTime":4,"channel":0,"type":"channel","noteNumber":78,"velocity":102,"subtype":"noteOn"},"track":1},0],[{"ticksToEvent":0,"beatsToEvent":0,"event":{"deltaTime":240,"channel":2,"type":"channel","noteNumber":51,"velocity":0,"subtype":"noteOff"},"track":3},0],[{"ticksToEvent":0,"beatsToEvent":0,"event":{"deltaTime":0,"channel":2,"type":"channel","noteNumber":52,"velocity":107,"subtype":"noteOn"},"track":3},0],[{"ticksToEvent":0,"beatsToEvent":0,"event":{"deltaTime":4,"channel":3,"type":"channel","noteNumber":52,"velocity":117,"subtype":"noteOn"},"track":4},0],[{"ticksToEvent":116,"beatsToEvent":0.24166666666666667,"event":{"deltaTime":116,"channel":0,"type":"channel","noteNumber":78,"velocity":0,"subtype":"noteOff"},"track":1},0],[{"ticksToEvent":4,"beatsToEvent":0.008333333333333333,"event":{"deltaTime":4,"channel":0,"type":"channel","noteNumber":76,"velocity":117,"subtype":"noteOn"},"track":1},0],[{"ticksToEvent":116,"beatsToEvent":0.24166666666666667,"event":{"deltaTime":236,"channel":3,"type":"channel","noteNumber":52,"velocity":0,"subtype":"noteOff"},"track":4},0],[{"ticksToEvent":4,"beatsToEvent":0.008333333333333333,"event":{"deltaTime":4,"channel":3,"type":"channel","noteNumber":47,"velocity":117,"subtype":"noteOn"},"track":4},0],[{"ticksToEvent":120,"beatsToEvent":0.25,"event":{"deltaTime":240,"channel":0,"type":"channel","noteNumber":76,"velocity":0,"subtype":"noteOff"},"track":1},0],[{"ticksToEvent":0,"beatsToEvent":0,"event":{"deltaTime":0,"channel":0,"type":"channel","noteNumber":78,"velocity":89,"subtype":"noteOn"},"track":1},0],[{"ticksToEvent":56,"beatsToEvent":0.11666666666666667,"event":{"deltaTime":56,"channel":0,"type":"channel","noteNumber":78,"velocity":0,"subtype":"noteOff"},"track":1},0],[{"ticksToEvent":4,"beatsToEvent":0.008333333333333333,"event":{"deltaTime":4,"channel":0,"type":"channel","noteNumber":75,"velocity":99,"subtype":"noteOn"},"track":1},0],[{"ticksToEvent":56,"beatsToEvent":0.11666666666666667,"event":{"deltaTime":56,"channel":0,"type":"channel","noteNumber":75,"velocity":0,"subtype":"noteOff"},"track":1},0],[{"ticksToEvent":0,"beatsToEvent":0,"event":{"deltaTime":236,"channel":3,"type":"channel","noteNumber":47,"velocity":0,"subtype":"noteOff"},"track":4},0],[{"ticksToEvent":4,"beatsToEvent":0.008333333333333333,"event":{"deltaTime":4,"channel":0,"type":"channel","noteNumber":75,"velocity":88,"subtype":"noteOn"},"track":1},0],[{"ticksToEvent":0,"beatsToEvent":0,"event":{"deltaTime":720,"channel":1,"type":"channel","noteNumber":69,"velocity":0,"subtype":"noteOff"},"track":2},0],[{"ticksToEvent":0,"beatsToEvent":0,"event":{"deltaTime":0,"channel":1,"type":"channel","noteNumber":67,"velocity":83,"subtype":"noteOn"},"track":2},0],[{"ticksToEvent":0,"beatsToEvent":0,"event":{"deltaTime":480,"channel":2,"type":"channel","noteNumber":52,"velocity":0,"subtype":"noteOff"},"track":3},0],[{"ticksToEvent":0,"beatsToEvent":0,"event":{"deltaTime":4,"channel":3,"type":"channel","noteNumber":40,"velocity":100,"subtype":"noteOn"},"track":4},0],[{"ticksToEvent":40,"beatsToEvent":0.08333333333333333,"event":{"deltaTime":10596,"type":"meta","subtype":"setTempo","microsecondsPerBeat":1200000},"track":0},0],[{"ticksToEvent":32,"beatsToEvent":0.06666666666666667,"event":{"deltaTime":32,"type":"meta","subtype":"setTempo","microsecondsPerBeat":1224489},"track":0},0],[{"ticksToEvent":4,"beatsToEvent":0.008333333333333333,"event":{"deltaTime":4,"type":"meta","subtype":"setTempo","microsecondsPerBeat":1250000},"track":0},0],[{"ticksToEvent":12,"beatsToEvent":0.025,"event":{"deltaTime":12,"type":"meta","subtype":"setTempo","microsecondsPerBeat":1276595},"track":0},0],[{"ticksToEvent":8,"beatsToEvent":0.016666666666666666,"event":{"deltaTime":8,"type":"meta","subtype":"setTempo","microsecondsPerBeat":1304347},"track":0},0],[{"ticksToEvent":24,"beatsToEvent":0.05,"event":{"deltaTime":24,"type":"meta","subtype":"setTempo","microsecondsPerBeat":1363636},"track":0},0],[{"ticksToEvent":20,"beatsToEvent":0.041666666666666664,"event":{"deltaTime":20,"type":"meta","subtype":"setTempo","microsecondsPerBeat":1395348},"track":0},0],[{"ticksToEvent":28,"beatsToEvent":0.058333333333333334,"event":{"deltaTime":28,"type":"meta","subtype":"setTempo","microsecondsPerBeat":1428571},"track":0},0],[{"ticksToEvent":68,"beatsToEvent":0.14166666666666666,"event":{"deltaTime":68,"type":"meta","subtype":"setTempo","microsecondsPerBeat":1463414},"track":0},0],[{"ticksToEvent":0,"beatsToEvent":0,"event":{"deltaTime":236,"channel":0,"type":"channel","noteNumber":75,"velocity":0,"subtype":"noteOff"},"track":1},0],[{"ticksToEvent":0,"beatsToEvent":0,"event":{"deltaTime":236,"channel":3,"type":"channel","noteNumber":40,"velocity":0,"subtype":"noteOff"},"track":4},0],[{"ticksToEvent":4,"beatsToEvent":0.008333333333333333,"event":{"deltaTime":4,"channel":0,"type":"channel","noteNumber":76,"velocity":91,"subtype":"noteOn"},"track":1},0],[{"ticksToEvent":0,"beatsToEvent":0,"event":{"deltaTime":4,"channel":3,"type":"channel","noteNumber":47,"velocity":96,"subtype":"noteOn"},"track":4},0],[{"ticksToEvent":8,"beatsToEvent":0.016666666666666666,"event":{"deltaTime":12,"type":"meta","subtype":"setTempo","microsecondsPerBeat":1500000},"track":0},0],[{"ticksToEvent":68,"beatsToEvent":0.14166666666666666,"event":{"deltaTime":68,"type":"meta","subtype":"setTempo","microsecondsPerBeat":1463414},"track":0},0],[{"ticksToEvent":8,"beatsToEvent":0.016666666666666666,"event":{"deltaTime":8,"type":"meta","subtype":"setTempo","microsecondsPerBeat":1428571},"track":0},0],[{"ticksToEvent":8,"beatsToEvent":0.016666666666666666,"event":{"deltaTime":8,"type":"meta","subtype":"setTempo","microsecondsPerBeat":1395348},"track":0},0],[{"ticksToEvent":12,"beatsToEvent":0.025,"event":{"deltaTime":12,"type":"meta","subtype":"setTempo","microsecondsPerBeat":1363636},"track":0},0],[{"ticksToEvent":16,"beatsToEvent":0.03333333333333333,"event":{"deltaTime":16,"type":"meta","subtype":"setTempo","microsecondsPerBeat":1304347},"track":0},0],[{"ticksToEvent":16,"beatsToEvent":0.03333333333333333,"event":{"deltaTime":16,"type":"meta","subtype":"setTempo","microsecondsPerBeat":1276595},"track":0},0],[{"ticksToEvent":16,"beatsToEvent":0.03333333333333333,"event":{"deltaTime":16,"type":"meta","subtype":"setTempo","microsecondsPerBeat":1250000},"track":0},0],[{"ticksToEvent":20,"beatsToEvent":0.041666666666666664,"event":{"deltaTime":20,"type":"meta","subtype":"setTempo","microsecondsPerBeat":1224489},"track":0},0],[{"ticksToEvent":12,"beatsToEvent":0.025,"event":{"deltaTime":12,"type":"meta","subtype":"setTempo","microsecondsPerBeat":1200000},"track":0},0],[{"ticksToEvent":52,"beatsToEvent":0.10833333333333334,"event":{"deltaTime":236,"channel":3,"type":"channel","noteNumber":47,"velocity":0,"subtype":"noteOff"},"track":4},0],[{"ticksToEvent":4,"beatsToEvent":0.008333333333333333,"event":{"deltaTime":4,"channel":3,"type":"channel","noteNumber":52,"velocity":90,"subtype":"noteOn"},"track":4},0],[{"ticksToEvent":236,"beatsToEvent":0.49166666666666664,"event":{"deltaTime":236,"channel":3,"type":"channel","noteNumber":52,"velocity":0,"subtype":"noteOff"},"track":4},0],[{"ticksToEvent":4,"beatsToEvent":0.008333333333333333,"event":{"deltaTime":4,"channel":3,"type":"channel","noteNumber":50,"velocity":80,"subtype":"noteOn"},"track":4},0],[{"ticksToEvent":236,"beatsToEvent":0.49166666666666664,"event":{"deltaTime":716,"channel":0,"type":"channel","noteNumber":76,"velocity":0,"subtype":"noteOff"},"track":1},0],[{"ticksToEvent":0,"beatsToEvent":0,"event":{"deltaTime":236,"channel":3,"type":"channel","noteNumber":50,"velocity":0,"subtype":"noteOff"},"track":4},0],[{"ticksToEvent":4,"beatsToEvent":0.008333333333333333,"event":{"deltaTime":4,"channel":0,"type":"channel","noteNumber":76,"velocity":91,"subtype":"noteOn"},"track":1},0],[{"ticksToEvent":0,"beatsToEvent":0,"event":{"deltaTime":960,"channel":1,"type":"channel","noteNumber":67,"velocity":0,"subtype":"noteOff"},"track":2},0],[{"ticksToEvent":0,"beatsToEvent":0,"event":{"deltaTime":4,"channel":3,"type":"channel","noteNumber":48,"velocity":85,"subtype":"noteOn"},"track":4},0],[{"ticksToEvent":236,"beatsToEvent":0.49166666666666664,"event":{"deltaTime":236,"channel":0,"type":"channel","noteNumber":76,"velocity":0,"subtype":"noteOff"},"track":1},0],[{"ticksToEvent":4,"beatsToEvent":0.008333333333333333,"event":{"deltaTime":4,"channel":0,"type":"channel","noteNumber":74,"velocity":78,"subtype":"noteOn"},"track":1},0],[{"ticksToEvent":116,"beatsToEvent":0.24166666666666667,"event":{"deltaTime":116,"channel":0,"type":"channel","noteNumber":74,"velocity":0,"subtype":"noteOff"},"track":1},0],[{"ticksToEvent":4,"beatsToEvent":0.008333333333333333,"event":{"deltaTime":4,"channel":0,"type":"channel","noteNumber":72,"velocity":72,"subtype":"noteOn"},"track":1},0],[{"ticksToEvent":116,"beatsToEvent":0.24166666666666667,"event":{"deltaTime":116,"channel":0,"type":"channel","noteNumber":72,"velocity":0,"subtype":"noteOff"},"track":1},0],[{"ticksToEvent":4,"beatsToEvent":0.008333333333333333,"event":{"deltaTime":4,"channel":0,"type":"channel","noteNumber":71,"velocity":72,"subtype":"noteOn"},"track":1},0],[{"ticksToEvent":0,"beatsToEvent":0,"event":{"deltaTime":1440,"channel":2,"type":"channel","noteNumber":52,"velocity":71,"subtype":"noteOn"},"track":3},0],[{"ticksToEvent":236,"beatsToEvent":0.49166666666666664,"event":{"deltaTime":236,"channel":0,"type":"channel","noteNumber":71,"velocity":0,"subtype":"noteOff"},"track":1},0],[{"ticksToEvent":4,"beatsToEvent":0.008333333333333333,"event":{"deltaTime":4,"channel":0,"type":"channel","noteNumber":69,"velocity":59,"subtype":"noteOn"},"track":1},0],[{"ticksToEvent":240,"beatsToEvent":0.5,"event":{"deltaTime":960,"channel":1,"type":"channel","noteNumber":57,"velocity":83,"subtype":"noteOn"},"track":2},0],[{"ticksToEvent":236,"beatsToEvent":0.49166666666666664,"event":{"deltaTime":476,"channel":0,"type":"channel","noteNumber":69,"velocity":0,"subtype":"noteOff"},"track":1},0],[{"ticksToEvent":4,"beatsToEvent":0.008333333333333333,"event":{"deltaTime":4,"channel":0,"type":"channel","noteNumber":71,"velocity":69,"subtype":"noteOn"},"track":1},0],[{"ticksToEvent":116,"beatsToEvent":0.24166666666666667,"event":{"deltaTime":116,"channel":0,"type":"channel","noteNumber":71,"velocity":0,"subtype":"noteOff"},"track":1},0],[{"ticksToEvent":4,"beatsToEvent":0.008333333333333333,"event":{"deltaTime":4,"channel":0,"type":"channel","noteNumber":72,"velocity":75,"subtype":"noteOn"},"track":1},0],[{"ticksToEvent":116,"beatsToEvent":0.24166666666666667,"event":{"deltaTime":116,"channel":0,"type":"channel","noteNumber":72,"velocity":0,"subtype":"noteOff"},"track":1},0],[{"ticksToEvent":0,"beatsToEvent":0,"event":{"deltaTime":956,"channel":2,"type":"channel","noteNumber":52,"velocity":0,"subtype":"noteOff"},"track":3},0],[{"ticksToEvent":0,"beatsToEvent":0,"event":{"deltaTime":1436,"channel":3,"type":"channel","noteNumber":48,"velocity":0,"subtype":"noteOff"},"track":4},0],[{"ticksToEvent":4,"beatsToEvent":0.008333333333333333,"event":{"deltaTime":4,"channel":0,"type":"channel","noteNumber":74,"velocity":74,"subtype":"noteOn"},"track":1},0],[{"ticksToEvent":0,"beatsToEvent":0,"event":{"deltaTime":4,"channel":3,"type":"channel","noteNumber":47,"velocity":90,"subtype":"noteOn"},"track":4},0],[{"ticksToEvent":56,"beatsToEvent":0.11666666666666667,"event":{"deltaTime":56,"channel":0,"type":"channel","noteNumber":74,"velocity":0,"subtype":"noteOff"},"track":1},0],[{"ticksToEvent":4,"beatsToEvent":0.008333333333333333,"event":{"deltaTime":4,"channel":0,"type":"channel","noteNumber":72,"velocity":74,"subtype":"noteOn"},"track":1},0],[{"ticksToEvent":56,"beatsToEvent":0.11666666666666667,"event":{"deltaTime":56,"channel":0,"type":"channel","noteNumber":72,"velocity":0,"subtype":"noteOff"},"track":1},0],[{"ticksToEvent":4,"beatsToEvent":0.008333333333333333,"event":{"deltaTime":4,"channel":0,"type":"channel","noteNumber":71,"velocity":65,"subtype":"noteOn"},"track":1},0],[{"ticksToEvent":116,"beatsToEvent":0.24166666666666667,"event":{"deltaTime":116,"channel":0,"type":"channel","noteNumber":71,"velocity":0,"subtype":"noteOff"},"track":1},0],[{"ticksToEvent":4,"beatsToEvent":0.008333333333333333,"event":{"deltaTime":4,"channel":0,"type":"channel","noteNumber":72,"velocity":71,"subtype":"noteOn"},"track":1},0],[{"ticksToEvent":0,"beatsToEvent":0,"event":{"deltaTime":720,"channel":1,"type":"channel","noteNumber":57,"velocity":0,"subtype":"noteOff"},"track":2},0],[{"ticksToEvent":0,"beatsToEvent":0,"event":{"deltaTime":244,"channel":2,"type":"channel","noteNumber":54,"velocity":99,"subtype":"noteOn"},"track":3},0],[{"ticksToEvent":56,"beatsToEvent":0.11666666666666667,"event":{"deltaTime":56,"channel":0,"type":"channel","noteNumber":72,"velocity":0,"subtype":"noteOff"},"track":1},0],[{"ticksToEvent":4,"beatsToEvent":0.008333333333333333,"event":{"deltaTime":4,"channel":0,"type":"channel","noteNumber":71,"velocity":78,"subtype":"noteOn"},"track":1},0],[{"ticksToEvent":56,"beatsToEvent":0.11666666666666667,"event":{"deltaTime":56,"channel":0,"type":"channel","noteNumber":71,"velocity":0,"subtype":"noteOff"},"track":1},0],[{"ticksToEvent":4,"beatsToEvent":0.008333333333333333,"event":{"deltaTime":4,"channel":0,"type":"channel","noteNumber":69,"velocity":67,"subtype":"noteOn"},"track":1},0],[{"ticksToEvent":56,"beatsToEvent":0.11666666666666667,"event":{"deltaTime":56,"channel":0,"type":"channel","noteNumber":69,"velocity":0,"subtype":"noteOff"},"track":1},0],[{"ticksToEvent":60,"beatsToEvent":0.125,"event":{"deltaTime":236,"channel":2,"type":"channel","noteNumber":54,"velocity":0,"subtype":"noteOff"},"track":3},0],[{"ticksToEvent":4,"beatsToEvent":0.008333333333333333,"event":{"deltaTime":64,"channel":0,"type":"channel","noteNumber":69,"velocity":68,"subtype":"noteOn"},"track":1},0],[{"ticksToEvent":0,"beatsToEvent":0,"event":{"deltaTime":4,"channel":2,"type":"channel","noteNumber":52,"velocity":90,"subtype":"noteOn"},"track":3},0],[{"ticksToEvent":116,"beatsToEvent":0.24166666666666667,"event":{"deltaTime":116,"channel":2,"type":"channel","noteNumber":52,"velocity":0,"subtype":"noteOff"},"track":3},0],[{"ticksToEvent":4,"beatsToEvent":0.008333333333333333,"event":{"deltaTime":4,"channel":2,"type":"channel","noteNumber":50,"velocity":85,"subtype":"noteOn"},"track":3},0],[{"ticksToEvent":116,"beatsToEvent":0.24166666666666667,"event":{"deltaTime":236,"channel":0,"type":"channel","noteNumber":69,"velocity":0,"subtype":"noteOff"},"track":1},0],[{"ticksToEvent":0,"beatsToEvent":0,"event":{"deltaTime":116,"channel":2,"type":"channel","noteNumber":50,"velocity":0,"subtype":"noteOff"},"track":3},0],[{"ticksToEvent":4,"beatsToEvent":0.008333333333333333,"event":{"deltaTime":4,"channel":0,"type":"channel","noteNumber":67,"velocity":72,"subtype":"noteOn"},"track":1},0],[{"ticksToEvent":0,"beatsToEvent":0,"event":{"deltaTime":4,"channel":2,"type":"channel","noteNumber":52,"velocity":83,"subtype":"noteOn"},"track":3},0],[{"ticksToEvent":116,"beatsToEvent":0.24166666666666667,"event":{"deltaTime":116,"channel":2,"type":"channel","noteNumber":52,"velocity":0,"subtype":"noteOff"},"track":3},0],[{"ticksToEvent":4,"beatsToEvent":0.008333333333333333,"event":{"deltaTime":4,"channel":2,"type":"channel","noteNumber":54,"velocity":76,"subtype":"noteOn"},"track":3},0],[{"ticksToEvent":116,"beatsToEvent":0.24166666666666667,"event":{"deltaTime":116,"channel":2,"type":"channel","noteNumber":54,"velocity":0,"subtype":"noteOff"},"track":3},0],[{"ticksToEvent":4,"beatsToEvent":0.008333333333333333,"event":{"deltaTime":4,"channel":2,"type":"channel","noteNumber":55,"velocity":76,"subtype":"noteOn"},"track":3},0],[{"ticksToEvent":116,"beatsToEvent":0.24166666666666667,"event":{"deltaTime":116,"channel":2,"type":"channel","noteNumber":55,"velocity":0,"subtype":"noteOff"},"track":3},0],[{"ticksToEvent":4,"beatsToEvent":0.008333333333333333,"event":{"deltaTime":4,"channel":2,"type":"channel","noteNumber":54,"velocity":81,"subtype":"noteOn"},"track":3},0],[{"ticksToEvent":116,"beatsToEvent":0.24166666666666667,"event":{"deltaTime":476,"channel":0,"type":"channel","noteNumber":67,"velocity":0,"subtype":"noteOff"},"track":1},0],[{"ticksToEvent":0,"beatsToEvent":0,"event":{"deltaTime":116,"channel":2,"type":"channel","noteNumber":54,"velocity":0,"subtype":"noteOff"},"track":3},0],[{"ticksToEvent":4,"beatsToEvent":0.008333333333333333,"event":{"deltaTime":4,"channel":0,"type":"channel","noteNumber":69,"velocity":68,"subtype":"noteOn"},"track":1},0],[{"ticksToEvent":0,"beatsToEvent":0,"event":{"deltaTime":4,"channel":2,"type":"channel","noteNumber":55,"velocity":80,"subtype":"noteOn"},"track":3},0],[{"ticksToEvent":116,"beatsToEvent":0.24166666666666667,"event":{"deltaTime":116,"channel":0,"type":"channel","noteNumber":69,"velocity":0,"subtype":"noteOff"},"track":1},0],[{"ticksToEvent":4,"beatsToEvent":0.008333333333333333,"event":{"deltaTime":4,"channel":0,"type":"channel","noteNumber":71,"velocity":62,"subtype":"noteOn"},"track":1},0],[{"ticksToEvent":116,"beatsToEvent":0.24166666666666667,"event":{"deltaTime":116,"channel":0,"type":"channel","noteNumber":71,"velocity":0,"subtype":"noteOff"},"track":1},0],[{"ticksToEvent":0,"beatsToEvent":0,"event":{"deltaTime":1436,"channel":3,"type":"channel","noteNumber":47,"velocity":0,"subtype":"noteOff"},"track":4},0],[{"ticksToEvent":4,"beatsToEvent":0.008333333333333333,"event":{"deltaTime":4,"channel":0,"type":"channel","noteNumber":72,"velocity":73,"subtype":"noteOn"},"track":1},0],[{"ticksToEvent":0,"beatsToEvent":0,"event":{"deltaTime":4,"channel":3,"type":"channel","noteNumber":45,"velocity":85,"subtype":"noteOn"},"track":4},0],[{"ticksToEvent":116,"beatsToEvent":0.24166666666666667,"event":{"deltaTime":116,"channel":0,"type":"channel","noteNumber":72,"velocity":0,"subtype":"noteOff"},"track":1},0],[{"ticksToEvent":4,"beatsToEvent":0.008333333333333333,"event":{"deltaTime":4,"channel":0,"type":"channel","noteNumber":74,"velocity":73,"subtype":"noteOn"},"track":1},0],[{"ticksToEvent":116,"beatsToEvent":0.24166666666666667,"event":{"deltaTime":116,"channel":0,"type":"channel","noteNumber":74,"velocity":0,"subtype":"noteOff"},"track":1},0],[{"ticksToEvent":0,"beatsToEvent":0,"event":{"deltaTime":476,"channel":2,"type":"channel","noteNumber":55,"velocity":0,"subtype":"noteOff"},"track":3},0],[{"ticksToEvent":4,"beatsToEvent":0.008333333333333333,"event":{"deltaTime":4,"channel":0,"type":"channel","noteNumber":72,"velocity":82,"subtype":"noteOn"},"track":1},0],[{"ticksToEvent":0,"beatsToEvent":0,"event":{"deltaTime":4,"channel":2,"type":"channel","noteNumber":52,"velocity":81,"subtype":"noteOn"},"track":3},0],[{"ticksToEvent":116,"beatsToEvent":0.24166666666666667,"event":{"deltaTime":116,"channel":0,"type":"channel","noteNumber":72,"velocity":0,"subtype":"noteOff"},"track":1},0],[{"ticksToEvent":4,"beatsToEvent":0.008333333333333333,"event":{"deltaTime":4,"channel":0,"type":"channel","noteNumber":71,"velocity":82,"subtype":"noteOn"},"track":1},0],[{"ticksToEvent":116,"beatsToEvent":0.24166666666666667,"event":{"deltaTime":116,"channel":0,"type":"channel","noteNumber":71,"velocity":0,"subtype":"noteOff"},"track":1},0],[{"ticksToEvent":0,"beatsToEvent":0,"event":{"deltaTime":236,"channel":2,"type":"channel","noteNumber":52,"velocity":0,"subtype":"noteOff"},"track":3},0],[{"ticksToEvent":4,"beatsToEvent":0.008333333333333333,"event":{"deltaTime":4,"channel":0,"type":"channel","noteNumber":72,"velocity":74,"subtype":"noteOn"},"track":1},0],[{"ticksToEvent":0,"beatsToEvent":0,"event":{"deltaTime":4,"channel":2,"type":"channel","noteNumber":57,"velocity":77,"subtype":"noteOn"},"track":3},0],[{"ticksToEvent":116,"beatsToEvent":0.24166666666666667,"event":{"deltaTime":116,"channel":0,"type":"channel","noteNumber":72,"velocity":0,"subtype":"noteOff"},"track":1},0],[{"ticksToEvent":4,"beatsToEvent":0.008333333333333333,"event":{"deltaTime":4,"channel":0,"type":"channel","noteNumber":69,"velocity":76,"subtype":"noteOn"},"track":1},0],[{"ticksToEvent":116,"beatsToEvent":0.24166666666666667,"event":{"deltaTime":116,"channel":0,"type":"channel","noteNumber":69,"velocity":0,"subtype":"noteOff"},"track":1},0],[{"ticksToEvent":0,"beatsToEvent":0,"event":{"deltaTime":236,"channel":2,"type":"channel","noteNumber":57,"velocity":0,"subtype":"noteOff"},"track":3},0],[{"ticksToEvent":0,"beatsToEvent":0,"event":{"deltaTime":716,"channel":3,"type":"channel","noteNumber":45,"velocity":0,"subtype":"noteOff"},"track":4},0],[{"ticksToEvent":4,"beatsToEvent":0.008333333333333333,"event":{"deltaTime":4,"channel":0,"type":"channel","noteNumber":64,"velocity":76,"subtype":"noteOn"},"track":1},0],[{"ticksToEvent":0,"beatsToEvent":0,"event":{"deltaTime":1920,"channel":1,"type":"channel","noteNumber":64,"velocity":83,"subtype":"noteOn"},"track":2},0],[{"ticksToEvent":0,"beatsToEvent":0,"event":{"deltaTime":4,"channel":3,"type":"channel","noteNumber":43,"velocity":71,"subtype":"noteOn"},"track":4},0],[{"ticksToEvent":116,"beatsToEvent":0.24166666666666667,"event":{"deltaTime":116,"channel":0,"type":"channel","noteNumber":64,"velocity":0,"subtype":"noteOff"},"track":1},0],[{"ticksToEvent":4,"beatsToEvent":0.008333333333333333,"event":{"deltaTime":4,"channel":0,"type":"channel","noteNumber":69,"velocity":69,"subtype":"noteOn"},"track":1},0],[{"ticksToEvent":116,"beatsToEvent":0.24166666666666667,"event":{"deltaTime":116,"channel":0,"type":"channel","noteNumber":69,"velocity":0,"subtype":"noteOff"},"track":1},0],[{"ticksToEvent":0,"beatsToEvent":0,"event":{"deltaTime":236,"channel":3,"type":"channel","noteNumber":43,"velocity":0,"subtype":"noteOff"},"track":4},0],[{"ticksToEvent":4,"beatsToEvent":0.008333333333333333,"event":{"deltaTime":4,"channel":0,"type":"channel","noteNumber":72,"velocity":83,"subtype":"noteOn"},"track":1},0],[{"ticksToEvent":0,"beatsToEvent":0,"event":{"deltaTime":4,"channel":3,"type":"channel","noteNumber":42,"velocity":96,"subtype":"noteOn"},"track":4},0],[{"ticksToEvent":120,"beatsToEvent":0.25,"event":{"deltaTime":360,"channel":1,"type":"channel","noteNumber":64,"velocity":0,"subtype":"noteOff"},"track":2},0],[{"ticksToEvent":0,"beatsToEvent":0,"event":{"deltaTime":0,"channel":1,"type":"channel","noteNumber":71,"velocity":83,"subtype":"noteOn"},"track":2},0],[{"ticksToEvent":116,"beatsToEvent":0.24166666666666667,"event":{"deltaTime":236,"channel":3,"type":"channel","noteNumber":42,"velocity":0,"subtype":"noteOff"},"track":4},0],[{"ticksToEvent":4,"beatsToEvent":0.008333333333333333,"event":{"deltaTime":120,"channel":1,"type":"channel","noteNumber":71,"velocity":0,"subtype":"noteOff"},"track":2},0],[{"ticksToEvent":0,"beatsToEvent":0,"event":{"deltaTime":0,"channel":1,"type":"channel","noteNumber":69,"velocity":83,"subtype":"noteOn"},"track":2},0],[{"ticksToEvent":0,"beatsToEvent":0,"event":{"deltaTime":4,"channel":3,"type":"channel","noteNumber":40,"velocity":77,"subtype":"noteOn"},"track":4},0],[{"ticksToEvent":120,"beatsToEvent":0.25,"event":{"deltaTime":120,"channel":1,"type":"channel","noteNumber":69,"velocity":0,"subtype":"noteOff"},"track":2},0],[{"ticksToEvent":0,"beatsToEvent":0,"event":{"deltaTime":0,"channel":1,"type":"channel","noteNumber":67,"velocity":83,"subtype":"noteOn"},"track":2},0],[{"ticksToEvent":116,"beatsToEvent":0.24166666666666667,"event":{"deltaTime":476,"channel":0,"type":"channel","noteNumber":72,"velocity":0,"subtype":"noteOff"},"track":1},0],[{"ticksToEvent":0,"beatsToEvent":0,"event":{"deltaTime":236,"channel":3,"type":"channel","noteNumber":40,"velocity":0,"subtype":"noteOff"},"track":4},0],[{"ticksToEvent":4,"beatsToEvent":0.008333333333333333,"event":{"deltaTime":120,"channel":1,"type":"channel","noteNumber":67,"velocity":0,"subtype":"noteOff"},"track":2},0],[{"ticksToEvent":0,"beatsToEvent":0,"event":{"deltaTime":0,"channel":1,"type":"channel","noteNumber":66,"velocity":83,"subtype":"noteOn"},"track":2},0],[{"ticksToEvent":0,"beatsToEvent":0,"event":{"deltaTime":4,"channel":3,"type":"channel","noteNumber":38,"velocity":91,"subtype":"noteOn"},"track":4},0],[{"ticksToEvent":120,"beatsToEvent":0.25,"event":{"deltaTime":124,"channel":0,"type":"channel","noteNumber":74,"velocity":81,"subtype":"noteOn"},"track":1},0],[{"ticksToEvent":116,"beatsToEvent":0.24166666666666667,"event":{"deltaTime":116,"channel":0,"type":"channel","noteNumber":74,"velocity":0,"subtype":"noteOff"},"track":1},0],[{"ticksToEvent":0,"beatsToEvent":0,"event":{"deltaTime":236,"channel":3,"type":"channel","noteNumber":38,"velocity":0,"subtype":"noteOff"},"track":4},0],[{"ticksToEvent":4,"beatsToEvent":0.008333333333333333,"event":{"deltaTime":4,"channel":0,"type":"channel","noteNumber":72,"velocity":83,"subtype":"noteOn"},"track":1},0],[{"ticksToEvent":0,"beatsToEvent":0,"event":{"deltaTime":4,"channel":3,"type":"channel","noteNumber":45,"velocity":93,"subtype":"noteOn"},"track":4},0],[{"ticksToEvent":116,"beatsToEvent":0.24166666666666667,"event":{"deltaTime":116,"channel":0,"type":"channel","noteNumber":72,"velocity":0,"subtype":"noteOff"},"track":1},0],[{"ticksToEvent":4,"beatsToEvent":0.008333333333333333,"event":{"deltaTime":4,"channel":0,"type":"channel","noteNumber":71,"velocity":71,"subtype":"noteOn"},"track":1},0],[{"ticksToEvent":116,"beatsToEvent":0.24166666666666667,"event":{"deltaTime":116,"channel":0,"type":"channel","noteNumber":71,"velocity":0,"subtype":"noteOff"},"track":1},0],[{"ticksToEvent":0,"beatsToEvent":0,"event":{"deltaTime":236,"channel":3,"type":"channel","noteNumber":45,"velocity":0,"subtype":"noteOff"},"track":4},0],[{"ticksToEvent":4,"beatsToEvent":0.008333333333333333,"event":{"deltaTime":4,"channel":0,"type":"channel","noteNumber":72,"velocity":72,"subtype":"noteOn"},"track":1},0],[{"ticksToEvent":0,"beatsToEvent":0,"event":{"deltaTime":480,"channel":1,"type":"channel","noteNumber":66,"velocity":0,"subtype":"noteOff"},"track":2},0],[{"ticksToEvent":0,"beatsToEvent":0,"event":{"deltaTime":4,"channel":3,"type":"channel","noteNumber":50,"velocity":102,"subtype":"noteOn"},"track":4},0],[{"ticksToEvent":116,"beatsToEvent":0.24166666666666667,"event":{"deltaTime":116,"channel":0,"type":"channel","noteNumber":72,"velocity":0,"subtype":"noteOff"},"track":1},0],[{"ticksToEvent":4,"beatsToEvent":0.008333333333333333,"event":{"deltaTime":4,"channel":0,"type":"channel","noteNumber":69,"velocity":68,"subtype":"noteOn"},"track":1},0],[{"ticksToEvent":116,"beatsToEvent":0.24166666666666667,"event":{"deltaTime":116,"channel":0,"type":"channel","noteNumber":69,"velocity":0,"subtype":"noteOff"},"track":1},0],[{"ticksToEvent":0,"beatsToEvent":0,"event":{"deltaTime":236,"channel":3,"type":"channel","noteNumber":50,"velocity":0,"subtype":"noteOff"},"track":4},0],[{"ticksToEvent":4,"beatsToEvent":0.008333333333333333,"event":{"deltaTime":4,"channel":0,"type":"channel","noteNumber":66,"velocity":72,"subtype":"noteOn"},"track":1},0],[{"ticksToEvent":0,"beatsToEvent":0,"event":{"deltaTime":240,"channel":1,"type":"channel","noteNumber":66,"velocity":83,"subtype":"noteOn"},"track":2},0],[{"ticksToEvent":0,"beatsToEvent":0,"event":{"deltaTime":4,"channel":3,"type":"channel","noteNumber":48,"velocity":95,"subtype":"noteOn"},"track":4},0],[{"ticksToEvent":116,"beatsToEvent":0.24166666666666667,"event":{"deltaTime":116,"channel":0,"type":"channel","noteNumber":66,"velocity":0,"subtype":"noteOff"},"track":1},0],[{"ticksToEvent":4,"beatsToEvent":0.008333333333333333,"event":{"deltaTime":4,"channel":0,"type":"channel","noteNumber":69,"velocity":88,"subtype":"noteOn"},"track":1},0],[{"ticksToEvent":116,"beatsToEvent":0.24166666666666667,"event":{"deltaTime":116,"channel":0,"type":"channel","noteNumber":69,"velocity":0,"subtype":"noteOff"},"track":1},0],[{"ticksToEvent":0,"beatsToEvent":0,"event":{"deltaTime":236,"channel":3,"type":"channel","noteNumber":48,"velocity":0,"subtype":"noteOff"},"track":4},0],[{"ticksToEvent":4,"beatsToEvent":0.008333333333333333,"event":{"deltaTime":4,"channel":0,"type":"channel","noteNumber":72,"velocity":90,"subtype":"noteOn"},"track":1},0],[{"ticksToEvent":0,"beatsToEvent":0,"event":{"deltaTime":4,"channel":3,"type":"channel","noteNumber":47,"velocity":91,"subtype":"noteOn"},"track":4},0],[{"ticksToEvent":116,"beatsToEvent":0.24166666666666667,"event":{"deltaTime":116,"channel":0,"type":"channel","noteNumber":72,"velocity":0,"subtype":"noteOff"},"track":1},0],[{"ticksToEvent":4,"beatsToEvent":0.008333333333333333,"event":{"deltaTime":4,"channel":0,"type":"channel","noteNumber":76,"velocity":86,"subtype":"noteOn"},"track":1},0],[{"ticksToEvent":116,"beatsToEvent":0.24166666666666667,"event":{"deltaTime":116,"channel":0,"type":"channel","noteNumber":76,"velocity":0,"subtype":"noteOff"},"track":1},0],[{"ticksToEvent":0,"beatsToEvent":0,"event":{"deltaTime":236,"channel":3,"type":"channel","noteNumber":47,"velocity":0,"subtype":"noteOff"},"track":4},0],[{"ticksToEvent":4,"beatsToEvent":0.008333333333333333,"event":{"deltaTime":4,"channel":0,"type":"channel","noteNumber":74,"velocity":84,"subtype":"noteOn"},"track":1},0],[{"ticksToEvent":0,"beatsToEvent":0,"event":{"deltaTime":4,"channel":3,"type":"channel","noteNumber":45,"velocity":86,"subtype":"noteOn"},"track":4},0],[{"ticksToEvent":116,"beatsToEvent":0.24166666666666667,"event":{"deltaTime":116,"channel":0,"type":"channel","noteNumber":74,"velocity":0,"subtype":"noteOff"},"track":1},0],[{"ticksToEvent":4,"beatsToEvent":0.008333333333333333,"event":{"deltaTime":4,"channel":0,"type":"channel","noteNumber":72,"velocity":83,"subtype":"noteOn"},"track":1},0],[{"ticksToEvent":116,"beatsToEvent":0.24166666666666667,"event":{"deltaTime":116,"channel":0,"type":"channel","noteNumber":72,"velocity":0,"subtype":"noteOff"},"track":1},0],[{"ticksToEvent":0,"beatsToEvent":0,"event":{"deltaTime":236,"channel":3,"type":"channel","noteNumber":45,"velocity":0,"subtype":"noteOff"},"track":4},0],[{"ticksToEvent":4,"beatsToEvent":0.008333333333333333,"event":{"deltaTime":4,"channel":0,"type":"channel","noteNumber":71,"velocity":78,"subtype":"noteOn"},"track":1},0],[{"ticksToEvent":0,"beatsToEvent":0,"event":{"deltaTime":720,"channel":1,"type":"channel","noteNumber":66,"velocity":0,"subtype":"noteOff"},"track":2},0],[{"ticksToEvent":0,"beatsToEvent":0,"event":{"deltaTime":0,"channel":1,"type":"channel","noteNumber":67,"velocity":83,"subtype":"noteOn"},"track":2},0],[{"ticksToEvent":0,"beatsToEvent":0,"event":{"deltaTime":4,"channel":3,"type":"channel","noteNumber":43,"velocity":96,"subtype":"noteOn"},"track":4},0],[{"ticksToEvent":116,"beatsToEvent":0.24166666666666667,"event":{"deltaTime":116,"channel":0,"type":"channel","noteNumber":71,"velocity":0,"subtype":"noteOff"},"track":1},0],[{"ticksToEvent":4,"beatsToEvent":0.008333333333333333,"event":{"deltaTime":4,"channel":0,"type":"channel","noteNumber":72,"velocity":77,"subtype":"noteOn"},"track":1},0],[{"ticksToEvent":116,"beatsToEvent":0.24166666666666667,"event":{"deltaTime":116,"channel":0,"type":"channel","noteNumber":72,"velocity":0,"subtype":"noteOff"},"track":1},0],[{"ticksToEvent":0,"beatsToEvent":0,"event":{"deltaTime":236,"channel":3,"type":"channel","noteNumber":43,"velocity":0,"subtype":"noteOff"},"track":4},0],[{"ticksToEvent":4,"beatsToEvent":0.008333333333333333,"event":{"deltaTime":4,"channel":0,"type":"channel","noteNumber":71,"velocity":72,"subtype":"noteOn"},"track":1},0],[{"ticksToEvent":0,"beatsToEvent":0,"event":{"deltaTime":240,"channel":1,"type":"channel","noteNumber":67,"velocity":0,"subtype":"noteOff"},"track":2},0],[{"ticksToEvent":0,"beatsToEvent":0,"event":{"deltaTime":4,"channel":3,"type":"channel","noteNumber":50,"velocity":96,"subtype":"noteOn"},"track":4},0],[{"ticksToEvent":116,"beatsToEvent":0.24166666666666667,"event":{"deltaTime":116,"channel":0,"type":"channel","noteNumber":71,"velocity":0,"subtype":"noteOff"},"track":1},0],[{"ticksToEvent":4,"beatsToEvent":0.008333333333333333,"event":{"deltaTime":4,"channel":0,"type":"channel","noteNumber":69,"velocity":71,"subtype":"noteOn"},"track":1},0],[{"ticksToEvent":116,"beatsToEvent":0.24166666666666667,"event":{"deltaTime":116,"channel":0,"type":"channel","noteNumber":69,"velocity":0,"subtype":"noteOff"},"track":1},0],[{"ticksToEvent":0,"beatsToEvent":0,"event":{"deltaTime":236,"channel":3,"type":"channel","noteNumber":50,"velocity":0,"subtype":"noteOff"},"track":4},0],[{"ticksToEvent":4,"beatsToEvent":0.008333333333333333,"event":{"deltaTime":4,"channel":0,"type":"channel","noteNumber":71,"velocity":77,"subtype":"noteOn"},"track":1},0],[{"ticksToEvent":0,"beatsToEvent":0,"event":{"deltaTime":4,"channel":3,"type":"channel","noteNumber":55,"velocity":104,"subtype":"noteOn"},"track":4},0],[{"ticksToEvent":116,"beatsToEvent":0.24166666666666667,"event":{"deltaTime":116,"channel":0,"type":"channel","noteNumber":71,"velocity":0,"subtype":"noteOff"},"track":1},0],[{"ticksToEvent":4,"beatsToEvent":0.008333333333333333,"event":{"deltaTime":4,"channel":0,"type":"channel","noteNumber":67,"velocity":81,"subtype":"noteOn"},"track":1},0],[{"ticksToEvent":116,"beatsToEvent":0.24166666666666667,"event":{"deltaTime":116,"channel":0,"type":"channel","noteNumber":67,"velocity":0,"subtype":"noteOff"},"track":1},0],[{"ticksToEvent":0,"beatsToEvent":0,"event":{"deltaTime":236,"channel":3,"type":"channel","noteNumber":55,"velocity":0,"subtype":"noteOff"},"track":4},0],[{"ticksToEvent":4,"beatsToEvent":0.008333333333333333,"event":{"deltaTime":4,"channel":0,"type":"channel","noteNumber":62,"velocity":72,"subtype":"noteOn"},"track":1},0],[{"ticksToEvent":0,"beatsToEvent":0,"event":{"deltaTime":480,"channel":1,"type":"channel","noteNumber":62,"velocity":83,"subtype":"noteOn"},"track":2},0],[{"ticksToEvent":0,"beatsToEvent":0,"event":{"deltaTime":4,"channel":3,"type":"channel","noteNumber":53,"velocity":81,"subtype":"noteOn"},"track":4},0],[{"ticksToEvent":116,"beatsToEvent":0.24166666666666667,"event":{"deltaTime":116,"channel":0,"type":"channel","noteNumber":62,"velocity":0,"subtype":"noteOff"},"track":1},0],[{"ticksToEvent":4,"beatsToEvent":0.008333333333333333,"event":{"deltaTime":4,"channel":0,"type":"channel","noteNumber":67,"velocity":80,"subtype":"noteOn"},"track":1},0],[{"ticksToEvent":116,"beatsToEvent":0.24166666666666667,"event":{"deltaTime":116,"channel":0,"type":"channel","noteNumber":67,"velocity":0,"subtype":"noteOff"},"track":1},0],[{"ticksToEvent":0,"beatsToEvent":0,"event":{"deltaTime":236,"channel":3,"type":"channel","noteNumber":53,"velocity":0,"subtype":"noteOff"},"track":4},0],[{"ticksToEvent":4,"beatsToEvent":0.008333333333333333,"event":{"deltaTime":4,"channel":0,"type":"channel","noteNumber":71,"velocity":81,"subtype":"noteOn"},"track":1},0],[{"ticksToEvent":0,"beatsToEvent":0,"event":{"deltaTime":4,"channel":3,"type":"channel","noteNumber":52,"velocity":91,"subtype":"noteOn"},"track":4},0],[{"ticksToEvent":116,"beatsToEvent":0.24166666666666667,"event":{"deltaTime":116,"channel":0,"type":"channel","noteNumber":71,"velocity":0,"subtype":"noteOff"},"track":1},0],[{"ticksToEvent":4,"beatsToEvent":0.008333333333333333,"event":{"deltaTime":4,"channel":0,"type":"channel","noteNumber":67,"velocity":72,"subtype":"noteOn"},"track":1},0],[{"ticksToEvent":0,"beatsToEvent":0,"event":{"deltaTime":360,"channel":1,"type":"channel","noteNumber":62,"velocity":0,"subtype":"noteOff"},"track":2},0],[{"ticksToEvent":0,"beatsToEvent":0,"event":{"deltaTime":0,"channel":1,"type":"channel","noteNumber":67,"velocity":83,"subtype":"noteOn"},"track":2},0],[{"ticksToEvent":116,"beatsToEvent":0.24166666666666667,"event":{"deltaTime":116,"channel":0,"type":"channel","noteNumber":67,"velocity":0,"subtype":"noteOff"},"track":1},0],[{"ticksToEvent":0,"beatsToEvent":0,"event":{"deltaTime":236,"channel":3,"type":"channel","noteNumber":52,"velocity":0,"subtype":"noteOff"},"track":4},0],[{"ticksToEvent":4,"beatsToEvent":0.008333333333333333,"event":{"deltaTime":4,"channel":0,"type":"channel","noteNumber":72,"velocity":88,"subtype":"noteOn"},"track":1},0],[{"ticksToEvent":0,"beatsToEvent":0,"event":{"deltaTime":4,"channel":3,"type":"channel","noteNumber":50,"velocity":80,"subtype":"noteOn"},"track":4},0],[{"ticksToEvent":116,"beatsToEvent":0.24166666666666667,"event":{"deltaTime":116,"channel":0,"type":"channel","noteNumber":72,"velocity":0,"subtype":"noteOff"},"track":1},0],[{"ticksToEvent":4,"beatsToEvent":0.008333333333333333,"event":{"deltaTime":4,"channel":0,"type":"channel","noteNumber":74,"velocity":88,"subtype":"noteOn"},"track":1},0],[{"ticksToEvent":116,"beatsToEvent":0.24166666666666667,"event":{"deltaTime":116,"channel":0,"type":"channel","noteNumber":74,"velocity":0,"subtype":"noteOff"},"track":1},0],[{"ticksToEvent":0,"beatsToEvent":0,"event":{"deltaTime":236,"channel":3,"type":"channel","noteNumber":50,"velocity":0,"subtype":"noteOff"},"track":4},0],[{"ticksToEvent":4,"beatsToEvent":0.008333333333333333,"event":{"deltaTime":4,"channel":0,"type":"channel","noteNumber":76,"velocity":88,"subtype":"noteOn"},"track":1},0],[{"ticksToEvent":0,"beatsToEvent":0,"event":{"deltaTime":4,"channel":3,"type":"channel","noteNumber":48,"velocity":95,"subtype":"noteOn"},"track":4},0],[{"ticksToEvent":116,"beatsToEvent":0.24166666666666667,"event":{"deltaTime":116,"channel":0,"type":"channel","noteNumber":76,"velocity":0,"subtype":"noteOff"},"track":1},0],[{"ticksToEvent":4,"beatsToEvent":0.008333333333333333,"event":{"deltaTime":4,"channel":0,"type":"channel","noteNumber":77,"velocity":84,"subtype":"noteOn"},"track":1},0],[{"ticksToEvent":116,"beatsToEvent":0.24166666666666667,"event":{"deltaTime":116,"channel":0,"type":"channel","noteNumber":77,"velocity":0,"subtype":"noteOff"},"track":1},0],[{"ticksToEvent":0,"beatsToEvent":0,"event":{"deltaTime":236,"channel":3,"type":"channel","noteNumber":48,"velocity":0,"subtype":"noteOff"},"track":4},0],[{"ticksToEvent":4,"beatsToEvent":0.008333333333333333,"event":{"deltaTime":4,"channel":0,"type":"channel","noteNumber":76,"velocity":86,"subtype":"noteOn"},"track":1},0],[{"ticksToEvent":0,"beatsToEvent":0,"event":{"deltaTime":4,"channel":3,"type":"channel","noteNumber":55,"velocity":88,"subtype":"noteOn"},"track":4},0],[{"ticksToEvent":116,"beatsToEvent":0.24166666666666667,"event":{"deltaTime":116,"channel":0,"type":"channel","noteNumber":76,"velocity":0,"subtype":"noteOff"},"track":1},0],[{"ticksToEvent":4,"beatsToEvent":0.008333333333333333,"event":{"deltaTime":4,"channel":0,"type":"channel","noteNumber":74,"velocity":78,"subtype":"noteOn"},"track":1},0],[{"ticksToEvent":116,"beatsToEvent":0.24166666666666667,"event":{"deltaTime":116,"channel":0,"type":"channel","noteNumber":74,"velocity":0,"subtype":"noteOff"},"track":1},0],[{"ticksToEvent":0,"beatsToEvent":0,"event":{"deltaTime":236,"channel":3,"type":"channel","noteNumber":55,"velocity":0,"subtype":"noteOff"},"track":4},0],[{"ticksToEvent":4,"beatsToEvent":0.008333333333333333,"event":{"deltaTime":4,"channel":0,"type":"channel","noteNumber":76,"velocity":85,"subtype":"noteOn"},"track":1},0],[{"ticksToEvent":0,"beatsToEvent":0,"event":{"deltaTime":4,"channel":3,"type":"channel","noteNumber":60,"velocity":101,"subtype":"noteOn"},"track":4},0],[{"ticksToEvent":116,"beatsToEvent":0.24166666666666667,"event":{"deltaTime":116,"channel":0,"type":"channel","noteNumber":76,"velocity":0,"subtype":"noteOff"},"track":1},0],[{"ticksToEvent":4,"beatsToEvent":0.008333333333333333,"event":{"deltaTime":4,"channel":0,"type":"channel","noteNumber":72,"velocity":75,"subtype":"noteOn"},"track":1},0],[{"ticksToEvent":0,"beatsToEvent":0,"event":{"deltaTime":960,"channel":1,"type":"channel","noteNumber":67,"velocity":0,"subtype":"noteOff"},"track":2},0],[{"ticksToEvent":116,"beatsToEvent":0.24166666666666667,"event":{"deltaTime":116,"channel":0,"type":"channel","noteNumber":72,"velocity":0,"subtype":"noteOff"},"track":1},0],[{"ticksToEvent":0,"beatsToEvent":0,"event":{"deltaTime":236,"channel":3,"type":"channel","noteNumber":60,"velocity":0,"subtype":"noteOff"},"track":4},0],[{"ticksToEvent":4,"beatsToEvent":0.008333333333333333,"event":{"deltaTime":4,"channel":0,"type":"channel","noteNumber":67,"velocity":73,"subtype":"noteOn"},"track":1},0],[{"ticksToEvent":0,"beatsToEvent":0,"event":{"deltaTime":120,"channel":1,"type":"channel","noteNumber":67,"velocity":83,"subtype":"noteOn"},"track":2},0],[{"ticksToEvent":0,"beatsToEvent":0,"event":{"deltaTime":4,"channel":3,"type":"channel","noteNumber":59,"velocity":93,"subtype":"noteOn"},"track":4},0],[{"ticksToEvent":120,"beatsToEvent":0.25,"event":{"deltaTime":120,"channel":0,"type":"channel","noteNumber":67,"velocity":0,"subtype":"noteOff"},"track":1},0],[{"ticksToEvent":0,"beatsToEvent":0,"event":{"deltaTime":0,"channel":0,"type":"channel","noteNumber":72,"velocity":88,"subtype":"noteOn"},"track":1},0],[{"ticksToEvent":116,"beatsToEvent":0.24166666666666667,"event":{"deltaTime":116,"channel":0,"type":"channel","noteNumber":72,"velocity":0,"subtype":"noteOff"},"track":1},0],[{"ticksToEvent":0,"beatsToEvent":0,"event":{"deltaTime":236,"channel":3,"type":"channel","noteNumber":59,"velocity":0,"subtype":"noteOff"},"track":4},0],[{"ticksToEvent":4,"beatsToEvent":0.008333333333333333,"event":{"deltaTime":4,"channel":0,"type":"channel","noteNumber":76,"velocity":93,"subtype":"noteOn"},"track":1},0],[{"ticksToEvent":0,"beatsToEvent":0,"event":{"deltaTime":4,"channel":3,"type":"channel","noteNumber":57,"velocity":95,"subtype":"noteOn"},"track":4},0],[{"ticksToEvent":116,"beatsToEvent":0.24166666666666667,"event":{"deltaTime":116,"channel":0,"type":"channel","noteNumber":76,"velocity":0,"subtype":"noteOff"},"track":1},0],[{"ticksToEvent":4,"beatsToEvent":0.008333333333333333,"event":{"deltaTime":4,"channel":0,"type":"channel","noteNumber":72,"velocity":77,"subtype":"noteOn"},"track":1},0],[{"ticksToEvent":0,"beatsToEvent":0,"event":{"deltaTime":360,"channel":1,"type":"channel","noteNumber":67,"velocity":0,"subtype":"noteOff"},"track":2},0],[{"ticksToEvent":0,"beatsToEvent":0,"event":{"deltaTime":0,"channel":1,"type":"channel","noteNumber":72,"velocity":83,"subtype":"noteOn"},"track":2},0],[{"ticksToEvent":116,"beatsToEvent":0.24166666666666667,"event":{"deltaTime":116,"channel":0,"type":"channel","noteNumber":72,"velocity":0,"subtype":"noteOff"},"track":1},0],[{"ticksToEvent":0,"beatsToEvent":0,"event":{"deltaTime":236,"channel":3,"type":"channel","noteNumber":57,"velocity":0,"subtype":"noteOff"},"track":4},0],[{"ticksToEvent":4,"beatsToEvent":0.008333333333333333,"event":{"deltaTime":4,"channel":0,"type":"channel","noteNumber":78,"velocity":76,"subtype":"noteOn"},"track":1},0],[{"ticksToEvent":0,"beatsToEvent":0,"event":{"deltaTime":4,"channel":3,"type":"channel","noteNumber":55,"velocity":80,"subtype":"noteOn"},"track":4},0],[{"ticksToEvent":116,"beatsToEvent":0.24166666666666667,"event":{"deltaTime":116,"channel":0,"type":"channel","noteNumber":78,"velocity":0,"subtype":"noteOff"},"track":1},0],[{"ticksToEvent":4,"beatsToEvent":0.008333333333333333,"event":{"deltaTime":4,"channel":0,"type":"channel","noteNumber":79,"velocity":91,"subtype":"noteOn"},"track":1},0],[{"ticksToEvent":116,"beatsToEvent":0.24166666666666667,"event":{"deltaTime":116,"channel":0,"type":"channel","noteNumber":79,"velocity":0,"subtype":"noteOff"},"track":1},0],[{"ticksToEvent":0,"beatsToEvent":0,"event":{"deltaTime":236,"channel":3,"type":"channel","noteNumber":55,"velocity":0,"subtype":"noteOff"},"track":4},0],[{"ticksToEvent":4,"beatsToEvent":0.008333333333333333,"event":{"deltaTime":4,"channel":0,"type":"channel","noteNumber":81,"velocity":98,"subtype":"noteOn"},"track":1},0],[{"ticksToEvent":0,"beatsToEvent":0,"event":{"deltaTime":360,"channel":1,"type":"channel","noteNumber":72,"velocity":0,"subtype":"noteOff"},"track":2},0],[{"ticksToEvent":0,"beatsToEvent":0,"event":{"deltaTime":4,"channel":3,"type":"channel","noteNumber":54,"velocity":96,"subtype":"noteOn"},"track":4},0],[{"ticksToEvent":116,"beatsToEvent":0.24166666666666667,"event":{"deltaTime":116,"channel":0,"type":"channel","noteNumber":81,"velocity":0,"subtype":"noteOff"},"track":1},0],[{"ticksToEvent":4,"beatsToEvent":0.008333333333333333,"event":{"deltaTime":4,"channel":0,"type":"channel","noteNumber":72,"velocity":81,"subtype":"noteOn"},"track":1},0],[{"ticksToEvent":116,"beatsToEvent":0.24166666666666667,"event":{"deltaTime":116,"channel":0,"type":"channel","noteNumber":72,"velocity":0,"subtype":"noteOff"},"track":1},0],[{"ticksToEvent":0,"beatsToEvent":0,"event":{"deltaTime":236,"channel":3,"type":"channel","noteNumber":54,"velocity":0,"subtype":"noteOff"},"track":4},0],[{"ticksToEvent":4,"beatsToEvent":0.008333333333333333,"event":{"deltaTime":4,"channel":0,"type":"channel","noteNumber":71,"velocity":80,"subtype":"noteOn"},"track":1},0],[{"ticksToEvent":0,"beatsToEvent":0,"event":{"deltaTime":4,"channel":3,"type":"channel","noteNumber":50,"velocity":88,"subtype":"noteOn"},"track":4},0],[{"ticksToEvent":116,"beatsToEvent":0.24166666666666667,"event":{"deltaTime":116,"channel":0,"type":"channel","noteNumber":71,"velocity":0,"subtype":"noteOff"},"track":1},0],[{"ticksToEvent":4,"beatsToEvent":0.008333333333333333,"event":{"deltaTime":4,"channel":0,"type":"channel","noteNumber":69,"velocity":71,"subtype":"noteOn"},"track":1},0],[{"ticksToEvent":116,"beatsToEvent":0.24166666666666667,"event":{"deltaTime":116,"channel":0,"type":"channel","noteNumber":69,"velocity":0,"subtype":"noteOff"},"track":1},0],[{"ticksToEvent":0,"beatsToEvent":0,"event":{"deltaTime":236,"channel":3,"type":"channel","noteNumber":50,"velocity":0,"subtype":"noteOff"},"track":4},0],[{"ticksToEvent":4,"beatsToEvent":0.008333333333333333,"event":{"deltaTime":4,"channel":0,"type":"channel","noteNumber":71,"velocity":76,"subtype":"noteOn"},"track":1},0],[{"ticksToEvent":0,"beatsToEvent":0,"event":{"deltaTime":4,"channel":3,"type":"channel","noteNumber":55,"velocity":88,"subtype":"noteOn"},"track":4},0],[{"ticksToEvent":116,"beatsToEvent":0.24166666666666667,"event":{"deltaTime":116,"channel":0,"type":"channel","noteNumber":71,"velocity":0,"subtype":"noteOff"},"track":1},0],[{"ticksToEvent":4,"beatsToEvent":0.008333333333333333,"event":{"deltaTime":4,"channel":0,"type":"channel","noteNumber":72,"velocity":80,"subtype":"noteOn"},"track":1},0],[{"ticksToEvent":116,"beatsToEvent":0.24166666666666667,"event":{"deltaTime":116,"channel":0,"type":"channel","noteNumber":72,"velocity":0,"subtype":"noteOff"},"track":1},0],[{"ticksToEvent":0,"beatsToEvent":0,"event":{"deltaTime":236,"channel":3,"type":"channel","noteNumber":55,"velocity":0,"subtype":"noteOff"},"track":4},0],[{"ticksToEvent":4,"beatsToEvent":0.008333333333333333,"event":{"deltaTime":4,"channel":0,"type":"channel","noteNumber":74,"velocity":84,"subtype":"noteOn"},"track":1},0],[{"ticksToEvent":0,"beatsToEvent":0,"event":{"deltaTime":4,"channel":3,"type":"channel","noteNumber":59,"velocity":98,"subtype":"noteOn"},"track":4},0],[{"ticksToEvent":116,"beatsToEvent":0.24166666666666667,"event":{"deltaTime":116,"channel":0,"type":"channel","noteNumber":74,"velocity":0,"subtype":"noteOff"},"track":1},0],[{"ticksToEvent":4,"beatsToEvent":0.008333333333333333,"event":{"deltaTime":4,"channel":0,"type":"channel","noteNumber":67,"velocity":76,"subtype":"noteOn"},"track":1},0],[{"ticksToEvent":116,"beatsToEvent":0.24166666666666667,"event":{"deltaTime":116,"channel":0,"type":"channel","noteNumber":67,"velocity":0,"subtype":"noteOff"},"track":1},0],[{"ticksToEvent":0,"beatsToEvent":0,"event":{"deltaTime":236,"channel":3,"type":"channel","noteNumber":59,"velocity":0,"subtype":"noteOff"},"track":4},0],[{"ticksToEvent":4,"beatsToEvent":0.008333333333333333,"event":{"deltaTime":4,"channel":0,"type":"channel","noteNumber":71,"velocity":88,"subtype":"noteOn"},"track":1},0],[{"ticksToEvent":0,"beatsToEvent":0,"event":{"deltaTime":4,"channel":3,"type":"channel","noteNumber":62,"velocity":106,"subtype":"noteOn"},"track":4},0],[{"ticksToEvent":116,"beatsToEvent":0.24166666666666667,"event":{"deltaTime":116,"channel":0,"type":"channel","noteNumber":71,"velocity":0,"subtype":"noteOff"},"track":1},0],[{"ticksToEvent":4,"beatsToEvent":0.008333333333333333,"event":{"deltaTime":4,"channel":0,"type":"channel","noteNumber":69,"velocity":75,"subtype":"noteOn"},"track":1},0],[{"ticksToEvent":116,"beatsToEvent":0.24166666666666667,"event":{"deltaTime":116,"channel":0,"type":"channel","noteNumber":69,"velocity":0,"subtype":"noteOff"},"track":1},0],[{"ticksToEvent":0,"beatsToEvent":0,"event":{"deltaTime":236,"channel":3,"type":"channel","noteNumber":62,"velocity":0,"subtype":"noteOff"},"track":4},0],[{"ticksToEvent":4,"beatsToEvent":0.008333333333333333,"event":{"deltaTime":4,"channel":0,"type":"channel","noteNumber":67,"velocity":82,"subtype":"noteOn"},"track":1},0],[{"ticksToEvent":0,"beatsToEvent":0,"event":{"deltaTime":4,"channel":3,"type":"channel","noteNumber":50,"velocity":90,"subtype":"noteOn"},"track":4},0],[{"ticksToEvent":116,"beatsToEvent":0.24166666666666667,"event":{"deltaTime":116,"channel":0,"type":"channel","noteNumber":67,"velocity":0,"subtype":"noteOff"},"track":1},0],[{"ticksToEvent":4,"beatsToEvent":0.008333333333333333,"event":{"deltaTime":4,"channel":0,"type":"channel","noteNumber":66,"velocity":86,"subtype":"noteOn"},"track":1},0],[{"ticksToEvent":116,"beatsToEvent":0.24166666666666667,"event":{"deltaTime":116,"channel":0,"type":"channel","noteNumber":66,"velocity":0,"subtype":"noteOff"},"track":1},0],[{"ticksToEvent":0,"beatsToEvent":0,"event":{"deltaTime":236,"channel":3,"type":"channel","noteNumber":50,"velocity":0,"subtype":"noteOff"},"track":4},0],[{"ticksToEvent":4,"beatsToEvent":0.008333333333333333,"event":{"deltaTime":4,"channel":0,"type":"channel","noteNumber":67,"velocity":90,"subtype":"noteOn"},"track":1},0],[{"ticksToEvent":0,"beatsToEvent":0,"event":{"deltaTime":4,"channel":3,"type":"channel","noteNumber":55,"velocity":91,"subtype":"noteOn"},"track":4},0],[{"ticksToEvent":120,"beatsToEvent":0.25,"event":{"deltaTime":6604,"channel":2,"type":"channel","noteNumber":60,"velocity":75,"subtype":"noteOn"},"track":3},0],[{"ticksToEvent":116,"beatsToEvent":0.24166666666666667,"event":{"deltaTime":116,"channel":2,"type":"channel","noteNumber":60,"velocity":0,"subtype":"noteOff"},"track":3},0],[{"ticksToEvent":4,"beatsToEvent":0.008333333333333333,"event":{"deltaTime":4,"channel":2,"type":"channel","noteNumber":59,"velocity":66,"subtype":"noteOn"},"track":3},0],[{"ticksToEvent":116,"beatsToEvent":0.24166666666666667,"event":{"deltaTime":116,"channel":2,"type":"channel","noteNumber":59,"velocity":0,"subtype":"noteOff"},"track":3},0],[{"ticksToEvent":4,"beatsToEvent":0.008333333333333333,"event":{"deltaTime":4,"channel":2,"type":"channel","noteNumber":57,"velocity":69,"subtype":"noteOn"},"track":3},0],[{"ticksToEvent":116,"beatsToEvent":0.24166666666666667,"event":{"deltaTime":116,"channel":2,"type":"channel","noteNumber":57,"velocity":0,"subtype":"noteOff"},"track":3},0],[{"ticksToEvent":4,"beatsToEvent":0.008333333333333333,"event":{"deltaTime":4,"channel":2,"type":"channel","noteNumber":59,"velocity":80,"subtype":"noteOn"},"track":3},0],[{"ticksToEvent":116,"beatsToEvent":0.24166666666666667,"event":{"deltaTime":596,"channel":0,"type":"channel","noteNumber":67,"velocity":0,"subtype":"noteOff"},"track":1},0],[{"ticksToEvent":4,"beatsToEvent":0.008333333333333333,"event":{"deltaTime":4,"channel":0,"type":"channel","noteNumber":62,"velocity":76,"subtype":"noteOn"},"track":1},0],[{"ticksToEvent":120,"beatsToEvent":0.25,"event":{"deltaTime":120,"channel":0,"type":"channel","noteNumber":62,"velocity":0,"subtype":"noteOff"},"track":1},0],[{"ticksToEvent":0,"beatsToEvent":0,"event":{"deltaTime":0,"channel":0,"type":"channel","noteNumber":67,"velocity":97,"subtype":"noteOn"},"track":1},0],[{"ticksToEvent":0,"beatsToEvent":0,"event":{"deltaTime":720,"channel":3,"type":"channel","noteNumber":55,"velocity":0,"subtype":"noteOff"},"track":4},0],[{"ticksToEvent":0,"beatsToEvent":0,"event":{"deltaTime":0,"channel":3,"type":"channel","noteNumber":50,"velocity":88,"subtype":"noteOn"},"track":4},0],[{"ticksToEvent":12,"beatsToEvent":0.025,"event":{"deltaTime":11348,"type":"meta","subtype":"setTempo","microsecondsPerBeat":1224489},"track":0},0],[{"ticksToEvent":12,"beatsToEvent":0.025,"event":{"deltaTime":12,"type":"meta","subtype":"setTempo","microsecondsPerBeat":1250000},"track":0},0],[{"ticksToEvent":20,"beatsToEvent":0.041666666666666664,"event":{"deltaTime":20,"type":"meta","subtype":"setTempo","microsecondsPerBeat":1276595},"track":0},0],[{"ticksToEvent":28,"beatsToEvent":0.058333333333333334,"event":{"deltaTime":28,"type":"meta","subtype":"setTempo","microsecondsPerBeat":1304347},"track":0},0],[{"ticksToEvent":4,"beatsToEvent":0.008333333333333333,"event":{"deltaTime":4,"type":"meta","subtype":"setTempo","microsecondsPerBeat":1333333},"track":0},0],[{"ticksToEvent":40,"beatsToEvent":0.08333333333333333,"event":{"deltaTime":116,"channel":0,"type":"channel","noteNumber":67,"velocity":0,"subtype":"noteOff"},"track":1},0],[{"ticksToEvent":4,"beatsToEvent":0.008333333333333333,"event":{"deltaTime":44,"type":"meta","subtype":"setTempo","microsecondsPerBeat":1363636},"track":0},0],[{"ticksToEvent":0,"beatsToEvent":0,"event":{"deltaTime":4,"channel":0,"type":"channel","noteNumber":66,"velocity":94,"subtype":"noteOn"},"track":1},0],[{"ticksToEvent":32,"beatsToEvent":0.06666666666666667,"event":{"deltaTime":32,"type":"meta","subtype":"setTempo","microsecondsPerBeat":1395348},"track":0},0],[{"ticksToEvent":76,"beatsToEvent":0.15833333333333333,"event":{"deltaTime":76,"type":"meta","subtype":"setTempo","microsecondsPerBeat":1428571},"track":0},0],[{"ticksToEvent":4,"beatsToEvent":0.008333333333333333,"event":{"deltaTime":4,"type":"meta","subtype":"setTempo","microsecondsPerBeat":1463414},"track":0},0],[{"ticksToEvent":4,"beatsToEvent":0.008333333333333333,"event":{"deltaTime":116,"channel":0,"type":"channel","noteNumber":66,"velocity":0,"subtype":"noteOff"},"track":1},0],[{"ticksToEvent":0,"beatsToEvent":0,"event":{"deltaTime":236,"channel":3,"type":"channel","noteNumber":50,"velocity":0,"subtype":"noteOff"},"track":4},0],[{"ticksToEvent":4,"beatsToEvent":0.008333333333333333,"event":{"deltaTime":4,"channel":0,"type":"channel","noteNumber":66,"velocity":92,"subtype":"noteOn"},"track":1},0],[{"ticksToEvent":0,"beatsToEvent":0,"event":{"deltaTime":4,"channel":3,"type":"channel","noteNumber":43,"velocity":81,"subtype":"noteOn"},"track":4},0],[{"ticksToEvent":24,"beatsToEvent":0.05,"event":{"deltaTime":32,"type":"meta","subtype":"setTempo","microsecondsPerBeat":1500000},"track":0},0],[{"ticksToEvent":24,"beatsToEvent":0.05,"event":{"deltaTime":24,"type":"meta","subtype":"setTempo","microsecondsPerBeat":1538461},"track":0},0],[{"ticksToEvent":40,"beatsToEvent":0.08333333333333333,"event":{"deltaTime":40,"type":"meta","subtype":"setTempo","microsecondsPerBeat":1621621},"track":0},0],[{"ticksToEvent":32,"beatsToEvent":0.06666666666666667,"event":{"deltaTime":32,"type":"meta","subtype":"setTempo","microsecondsPerBeat":1666666},"track":0},0],[{"ticksToEvent":0,"beatsToEvent":0,"event":{"deltaTime":120,"channel":0,"type":"channel","noteNumber":66,"velocity":0,"subtype":"noteOff"},"track":1},0],[{"ticksToEvent":0,"beatsToEvent":0,"event":{"deltaTime":0,"channel":0,"type":"channel","noteNumber":67,"velocity":92,"subtype":"noteOn"},"track":1},0],[{"ticksToEvent":64,"beatsToEvent":0.13333333333333333,"event":{"deltaTime":64,"type":"meta","subtype":"setTempo","microsecondsPerBeat":1714285},"track":0},0],[{"ticksToEvent":28,"beatsToEvent":0.058333333333333334,"event":{"deltaTime":28,"type":"meta","subtype":"setTempo","microsecondsPerBeat":1764705},"track":0},0],[{"ticksToEvent":12,"beatsToEvent":0.025,"event":{"deltaTime":12,"type":"meta","subtype":"setTempo","microsecondsPerBeat":1818181},"track":0},0],[{"ticksToEvent":32,"beatsToEvent":0.06666666666666667,"event":{"deltaTime":32,"type":"meta","subtype":"setTempo","microsecondsPerBeat":1875000},"track":0},0],[{"ticksToEvent":16,"beatsToEvent":0.03333333333333333,"event":{"deltaTime":16,"type":"meta","subtype":"setTempo","microsecondsPerBeat":1935483},"track":0},0],[{"ticksToEvent":28,"beatsToEvent":0.058333333333333334,"event":{"deltaTime":28,"type":"meta","subtype":"setTempo","microsecondsPerBeat":2000000},"track":0},0],[{"ticksToEvent":16,"beatsToEvent":0.03333333333333333,"event":{"deltaTime":16,"type":"meta","subtype":"setTempo","microsecondsPerBeat":2068965},"track":0},0],[{"ticksToEvent":20,"beatsToEvent":0.041666666666666664,"event":{"deltaTime":20,"type":"meta","subtype":"setTempo","microsecondsPerBeat":2142857},"track":0},0],[{"ticksToEvent":28,"beatsToEvent":0.058333333333333334,"event":{"deltaTime":28,"type":"meta","subtype":"setTempo","microsecondsPerBeat":2222222},"track":0},0],[{"ticksToEvent":32,"beatsToEvent":0.06666666666666667,"event":{"deltaTime":32,"type":"meta","subtype":"setTempo","microsecondsPerBeat":2400000},"track":0},0],[{"ticksToEvent":16,"beatsToEvent":0.03333333333333333,"event":{"deltaTime":16,"type":"meta","subtype":"setTempo","microsecondsPerBeat":2500000},"track":0},0],[{"ticksToEvent":16,"beatsToEvent":0.03333333333333333,"event":{"deltaTime":16,"type":"meta","subtype":"setTempo","microsecondsPerBeat":2608695},"track":0},0],[{"ticksToEvent":52,"beatsToEvent":0.10833333333333334,"event":{"deltaTime":360,"channel":0,"type":"channel","noteNumber":67,"velocity":0,"subtype":"noteOff"},"track":1},0],[{"ticksToEvent":0,"beatsToEvent":0,"event":{"deltaTime":0,"channel":0,"type":"channel","noteNumber":67,"velocity":111,"subtype":"noteOn"},"track":1},0],[{"ticksToEvent":0,"beatsToEvent":0,"event":{"deltaTime":960,"channel":2,"type":"channel","noteNumber":59,"velocity":0,"subtype":"noteOff"},"track":3},0],[{"ticksToEvent":0,"beatsToEvent":0,"event":{"deltaTime":480,"channel":3,"type":"channel","noteNumber":43,"velocity":0,"subtype":"noteOff"},"track":4},0],[{"ticksToEvent":0,"beatsToEvent":0,"event":{"deltaTime":0,"channel":3,"type":"channel","noteNumber":43,"velocity":127,"subtype":"noteOn"},"track":4},0],[{"ticksToEvent":4,"beatsToEvent":0.008333333333333333,"event":{"deltaTime":56,"type":"meta","subtype":"setTempo","microsecondsPerBeat":517241},"track":0},0],[{"ticksToEvent":112,"beatsToEvent":0.23333333333333334,"event":{"deltaTime":116,"channel":0,"type":"channel","noteNumber":67,"velocity":0,"subtype":"noteOff"},"track":1},0],[{"ticksToEvent":4,"beatsToEvent":0.008333333333333333,"event":{"deltaTime":4,"channel":0,"type":"channel","noteNumber":66,"velocity":123,"subtype":"noteOn"},"track":1},0],[{"ticksToEvent":116,"beatsToEvent":0.24166666666666667,"event":{"deltaTime":116,"channel":0,"type":"channel","noteNumber":66,"velocity":0,"subtype":"noteOff"},"track":1},0],[{"ticksToEvent":0,"beatsToEvent":0,"event":{"deltaTime":236,"channel":3,"type":"channel","noteNumber":43,"velocity":0,"subtype":"noteOff"},"track":4},0],[{"ticksToEvent":4,"beatsToEvent":0.008333333333333333,"event":{"deltaTime":4,"channel":0,"type":"channel","noteNumber":67,"velocity":115,"subtype":"noteOn"},"track":1},0],[{"ticksToEvent":0,"beatsToEvent":0,"event":{"deltaTime":4,"channel":3,"type":"channel","noteNumber":59,"velocity":124,"subtype":"noteOn"},"track":4},0],[{"ticksToEvent":116,"beatsToEvent":0.24166666666666667,"event":{"deltaTime":116,"channel":3,"type":"channel","noteNumber":59,"velocity":0,"subtype":"noteOff"},"track":4},0],[{"ticksToEvent":4,"beatsToEvent":0.008333333333333333,"event":{"deltaTime":4,"channel":3,"type":"channel","noteNumber":57,"velocity":123,"subtype":"noteOn"},"track":4},0],[{"ticksToEvent":116,"beatsToEvent":0.24166666666666667,"event":{"deltaTime":116,"channel":3,"type":"channel","noteNumber":57,"velocity":0,"subtype":"noteOff"},"track":4},0],[{"ticksToEvent":4,"beatsToEvent":0.008333333333333333,"event":{"deltaTime":4,"channel":3,"type":"channel","noteNumber":59,"velocity":119,"subtype":"noteOn"},"track":4},0],[{"ticksToEvent":116,"beatsToEvent":0.24166666666666667,"event":{"deltaTime":356,"channel":0,"type":"channel","noteNumber":67,"velocity":0,"subtype":"noteOff"},"track":1},0],[{"ticksToEvent":4,"beatsToEvent":0.008333333333333333,"event":{"deltaTime":4,"channel":0,"type":"channel","noteNumber":62,"velocity":97,"subtype":"noteOn"},"track":1},0],[{"ticksToEvent":116,"beatsToEvent":0.24166666666666667,"event":{"deltaTime":116,"channel":0,"type":"channel","noteNumber":62,"velocity":0,"subtype":"noteOff"},"track":1},0],[{"ticksToEvent":0,"beatsToEvent":0,"event":{"deltaTime":236,"channel":3,"type":"channel","noteNumber":59,"velocity":0,"subtype":"noteOff"},"track":4},0],[{"ticksToEvent":4,"beatsToEvent":0.008333333333333333,"event":{"deltaTime":4,"channel":0,"type":"channel","noteNumber":64,"velocity":106,"subtype":"noteOn"},"track":1},0],[{"ticksToEvent":0,"beatsToEvent":0,"event":{"deltaTime":4,"channel":3,"type":"channel","noteNumber":55,"velocity":117,"subtype":"noteOn"},"track":4},0],[{"ticksToEvent":116,"beatsToEvent":0.24166666666666667,"event":{"deltaTime":116,"channel":0,"type":"channel","noteNumber":64,"velocity":0,"subtype":"noteOff"},"track":1},0],[{"ticksToEvent":4,"beatsToEvent":0.008333333333333333,"event":{"deltaTime":4,"channel":0,"type":"channel","noteNumber":66,"velocity":101,"subtype":"noteOn"},"track":1},0],[{"ticksToEvent":116,"beatsToEvent":0.24166666666666667,"event":{"deltaTime":116,"channel":0,"type":"channel","noteNumber":66,"velocity":0,"subtype":"noteOff"},"track":1},0],[{"ticksToEvent":0,"beatsToEvent":0,"event":{"deltaTime":236,"channel":3,"type":"channel","noteNumber":55,"velocity":0,"subtype":"noteOff"},"track":4},0],[{"ticksToEvent":4,"beatsToEvent":0.008333333333333333,"event":{"deltaTime":4,"channel":0,"type":"channel","noteNumber":67,"velocity":97,"subtype":"noteOn"},"track":1},0],[{"ticksToEvent":0,"beatsToEvent":0,"event":{"deltaTime":4,"channel":3,"type":"channel","noteNumber":43,"velocity":126,"subtype":"noteOn"},"track":4},0],[{"ticksToEvent":116,"beatsToEvent":0.24166666666666667,"event":{"deltaTime":116,"channel":0,"type":"channel","noteNumber":67,"velocity":0,"subtype":"noteOff"},"track":1},0],[{"ticksToEvent":4,"beatsToEvent":0.008333333333333333,"event":{"deltaTime":4,"channel":0,"type":"channel","noteNumber":69,"velocity":100,"subtype":"noteOn"},"track":1},0],[{"ticksToEvent":116,"beatsToEvent":0.24166666666666667,"event":{"deltaTime":116,"channel":0,"type":"channel","noteNumber":69,"velocity":0,"subtype":"noteOff"},"track":1},0],[{"ticksToEvent":0,"beatsToEvent":0,"event":{"deltaTime":236,"channel":3,"type":"channel","noteNumber":43,"velocity":0,"subtype":"noteOff"},"track":4},0],[{"ticksToEvent":4,"beatsToEvent":0.008333333333333333,"event":{"deltaTime":4,"channel":0,"type":"channel","noteNumber":71,"velocity":99,"subtype":"noteOn"},"track":1},0],[{"ticksToEvent":0,"beatsToEvent":0,"event":{"deltaTime":4,"channel":3,"type":"channel","noteNumber":55,"velocity":117,"subtype":"noteOn"},"track":4},0],[{"ticksToEvent":116,"beatsToEvent":0.24166666666666667,"event":{"deltaTime":116,"channel":0,"type":"channel","noteNumber":71,"velocity":0,"subtype":"noteOff"},"track":1},0],[{"ticksToEvent":4,"beatsToEvent":0.008333333333333333,"event":{"deltaTime":4,"channel":0,"type":"channel","noteNumber":73,"velocity":92,"subtype":"noteOn"},"track":1},0],[{"ticksToEvent":116,"beatsToEvent":0.24166666666666667,"event":{"deltaTime":116,"channel":0,"type":"channel","noteNumber":73,"velocity":0,"subtype":"noteOff"},"track":1},0],[{"ticksToEvent":0,"beatsToEvent":0,"event":{"deltaTime":236,"channel":3,"type":"channel","noteNumber":55,"velocity":0,"subtype":"noteOff"},"track":4},0],[{"ticksToEvent":4,"beatsToEvent":0.008333333333333333,"event":{"deltaTime":4,"channel":0,"type":"channel","noteNumber":74,"velocity":102,"subtype":"noteOn"},"track":1},0],[{"ticksToEvent":0,"beatsToEvent":0,"event":{"deltaTime":4,"channel":3,"type":"channel","noteNumber":42,"velocity":127,"subtype":"noteOn"},"track":4},0],[{"ticksToEvent":116,"beatsToEvent":0.24166666666666667,"event":{"deltaTime":116,"channel":0,"type":"channel","noteNumber":74,"velocity":0,"subtype":"noteOff"},"track":1},0],[{"ticksToEvent":4,"beatsToEvent":0.008333333333333333,"event":{"deltaTime":4,"channel":0,"type":"channel","noteNumber":73,"velocity":92,"subtype":"noteOn"},"track":1},0],[{"ticksToEvent":116,"beatsToEvent":0.24166666666666667,"event":{"deltaTime":116,"channel":0,"type":"channel","noteNumber":73,"velocity":0,"subtype":"noteOff"},"track":1},0],[{"ticksToEvent":0,"beatsToEvent":0,"event":{"deltaTime":236,"channel":3,"type":"channel","noteNumber":42,"velocity":0,"subtype":"noteOff"},"track":4},0],[{"ticksToEvent":4,"beatsToEvent":0.008333333333333333,"event":{"deltaTime":4,"channel":0,"type":"channel","noteNumber":74,"velocity":111,"subtype":"noteOn"},"track":1},0],[{"ticksToEvent":0,"beatsToEvent":0,"event":{"deltaTime":4,"channel":3,"type":"channel","noteNumber":54,"velocity":127,"subtype":"noteOn"},"track":4},0],[{"ticksToEvent":116,"beatsToEvent":0.24166666666666667,"event":{"deltaTime":116,"channel":3,"type":"channel","noteNumber":54,"velocity":0,"subtype":"noteOff"},"track":4},0],[{"ticksToEvent":4,"beatsToEvent":0.008333333333333333,"event":{"deltaTime":4,"channel":3,"type":"channel","noteNumber":52,"velocity":121,"subtype":"noteOn"},"track":4},0],[{"ticksToEvent":116,"beatsToEvent":0.24166666666666667,"event":{"deltaTime":116,"channel":3,"type":"channel","noteNumber":52,"velocity":0,"subtype":"noteOff"},"track":4},0],[{"ticksToEvent":4,"beatsToEvent":0.008333333333333333,"event":{"deltaTime":4,"channel":3,"type":"channel","noteNumber":54,"velocity":117,"subtype":"noteOn"},"track":4},0],[{"ticksToEvent":116,"beatsToEvent":0.24166666666666667,"event":{"deltaTime":356,"channel":0,"type":"channel","noteNumber":74,"velocity":0,"subtype":"noteOff"},"track":1},0],[{"ticksToEvent":4,"beatsToEvent":0.008333333333333333,"event":{"deltaTime":4,"channel":0,"type":"channel","noteNumber":69,"velocity":83,"subtype":"noteOn"},"track":1},0],[{"ticksToEvent":116,"beatsToEvent":0.24166666666666667,"event":{"deltaTime":116,"channel":0,"type":"channel","noteNumber":69,"velocity":0,"subtype":"noteOff"},"track":1},0],[{"ticksToEvent":0,"beatsToEvent":0,"event":{"deltaTime":236,"channel":3,"type":"channel","noteNumber":54,"velocity":0,"subtype":"noteOff"},"track":4},0],[{"ticksToEvent":4,"beatsToEvent":0.008333333333333333,"event":{"deltaTime":4,"channel":0,"type":"channel","noteNumber":71,"velocity":98,"subtype":"noteOn"},"track":1},0],[{"ticksToEvent":0,"beatsToEvent":0,"event":{"deltaTime":4,"channel":3,"type":"channel","noteNumber":50,"velocity":117,"subtype":"noteOn"},"track":4},0],[{"ticksToEvent":116,"beatsToEvent":0.24166666666666667,"event":{"deltaTime":116,"channel":0,"type":"channel","noteNumber":71,"velocity":0,"subtype":"noteOff"},"track":1},0],[{"ticksToEvent":4,"beatsToEvent":0.008333333333333333,"event":{"deltaTime":4,"channel":0,"type":"channel","noteNumber":73,"velocity":104,"subtype":"noteOn"},"track":1},0],[{"ticksToEvent":116,"beatsToEvent":0.24166666666666667,"event":{"deltaTime":116,"channel":0,"type":"channel","noteNumber":73,"velocity":0,"subtype":"noteOff"},"track":1},0],[{"ticksToEvent":0,"beatsToEvent":0,"event":{"deltaTime":236,"channel":3,"type":"channel","noteNumber":50,"velocity":0,"subtype":"noteOff"},"track":4},0],[{"ticksToEvent":4,"beatsToEvent":0.008333333333333333,"event":{"deltaTime":4,"channel":0,"type":"channel","noteNumber":74,"velocity":96,"subtype":"noteOn"},"track":1},0],[{"ticksToEvent":0,"beatsToEvent":0,"event":{"deltaTime":4,"channel":3,"type":"channel","noteNumber":42,"velocity":127,"subtype":"noteOn"},"track":4},0],[{"ticksToEvent":116,"beatsToEvent":0.24166666666666667,"event":{"deltaTime":116,"channel":0,"type":"channel","noteNumber":74,"velocity":0,"subtype":"noteOff"},"track":1},0],[{"ticksToEvent":4,"beatsToEvent":0.008333333333333333,"event":{"deltaTime":4,"channel":0,"type":"channel","noteNumber":76,"velocity":107,"subtype":"noteOn"},"track":1},0],[{"ticksToEvent":116,"beatsToEvent":0.24166666666666667,"event":{"deltaTime":116,"channel":0,"type":"channel","noteNumber":76,"velocity":0,"subtype":"noteOff"},"track":1},0],[{"ticksToEvent":0,"beatsToEvent":0,"event":{"deltaTime":236,"channel":3,"type":"channel","noteNumber":42,"velocity":0,"subtype":"noteOff"},"track":4},0],[{"ticksToEvent":4,"beatsToEvent":0.008333333333333333,"event":{"deltaTime":4,"channel":0,"type":"channel","noteNumber":78,"velocity":102,"subtype":"noteOn"},"track":1},0],[{"ticksToEvent":0,"beatsToEvent":0,"event":{"deltaTime":4,"channel":3,"type":"channel","noteNumber":50,"velocity":123,"subtype":"noteOn"},"track":4},0],[{"ticksToEvent":116,"beatsToEvent":0.24166666666666667,"event":{"deltaTime":116,"channel":0,"type":"channel","noteNumber":78,"velocity":0,"subtype":"noteOff"},"track":1},0],[{"ticksToEvent":4,"beatsToEvent":0.008333333333333333,"event":{"deltaTime":4,"channel":0,"type":"channel","noteNumber":74,"velocity":100,"subtype":"noteOn"},"track":1},0],[{"ticksToEvent":116,"beatsToEvent":0.24166666666666667,"event":{"deltaTime":116,"channel":0,"type":"channel","noteNumber":74,"velocity":0,"subtype":"noteOff"},"track":1},0],[{"ticksToEvent":0,"beatsToEvent":0,"event":{"deltaTime":236,"channel":3,"type":"channel","noteNumber":50,"velocity":0,"subtype":"noteOff"},"track":4},0],[{"ticksToEvent":4,"beatsToEvent":0.008333333333333333,"event":{"deltaTime":4,"channel":0,"type":"channel","noteNumber":79,"velocity":109,"subtype":"noteOn"},"track":1},0],[{"ticksToEvent":0,"beatsToEvent":0,"event":{"deltaTime":4,"channel":3,"type":"channel","noteNumber":40,"velocity":127,"subtype":"noteOn"},"track":4},0],[{"ticksToEvent":120,"beatsToEvent":0.25,"event":{"deltaTime":120,"channel":0,"type":"channel","noteNumber":79,"velocity":0,"subtype":"noteOff"},"track":1},0],[{"ticksToEvent":0,"beatsToEvent":0,"event":{"deltaTime":0,"channel":0,"type":"channel","noteNumber":78,"velocity":104,"subtype":"noteOn"},"track":1},0],[{"ticksToEvent":116,"beatsToEvent":0.24166666666666667,"event":{"deltaTime":236,"channel":3,"type":"channel","noteNumber":40,"velocity":0,"subtype":"noteOff"},"track":4},0],[{"ticksToEvent":4,"beatsToEvent":0.008333333333333333,"event":{"deltaTime":120,"channel":0,"type":"channel","noteNumber":78,"velocity":0,"subtype":"noteOff"},"track":1},0],[{"ticksToEvent":0,"beatsToEvent":0,"event":{"deltaTime":0,"channel":0,"type":"channel","noteNumber":79,"velocity":111,"subtype":"noteOn"},"track":1},0],[{"ticksToEvent":0,"beatsToEvent":0,"event":{"deltaTime":4,"channel":3,"type":"channel","noteNumber":52,"velocity":123,"subtype":"noteOn"},"track":4},0],[{"ticksToEvent":116,"beatsToEvent":0.24166666666666667,"event":{"deltaTime":116,"channel":3,"type":"channel","noteNumber":52,"velocity":0,"subtype":"noteOff"},"track":4},0],[{"ticksToEvent":4,"beatsToEvent":0.008333333333333333,"event":{"deltaTime":4,"channel":3,"type":"channel","noteNumber":50,"velocity":113,"subtype":"noteOn"},"track":4},0],[{"ticksToEvent":116,"beatsToEvent":0.24166666666666667,"event":{"deltaTime":116,"channel":3,"type":"channel","noteNumber":50,"velocity":0,"subtype":"noteOff"},"track":4},0],[{"ticksToEvent":4,"beatsToEvent":0.008333333333333333,"event":{"deltaTime":4,"channel":3,"type":"channel","noteNumber":52,"velocity":109,"subtype":"noteOn"},"track":4},0],[{"ticksToEvent":120,"beatsToEvent":0.25,"event":{"deltaTime":360,"channel":0,"type":"channel","noteNumber":79,"velocity":0,"subtype":"noteOff"},"track":1},0],[{"ticksToEvent":0,"beatsToEvent":0,"event":{"deltaTime":0,"channel":0,"type":"channel","noteNumber":78,"velocity":106,"subtype":"noteOn"},"track":1},0],[{"ticksToEvent":116,"beatsToEvent":0.24166666666666667,"event":{"deltaTime":116,"channel":0,"type":"channel","noteNumber":78,"velocity":0,"subtype":"noteOff"},"track":1},0],[{"ticksToEvent":0,"beatsToEvent":0,"event":{"deltaTime":236,"channel":3,"type":"channel","noteNumber":52,"velocity":0,"subtype":"noteOff"},"track":4},0],[{"ticksToEvent":4,"beatsToEvent":0.008333333333333333,"event":{"deltaTime":4,"channel":0,"type":"channel","noteNumber":76,"velocity":104,"subtype":"noteOn"},"track":1},0],[{"ticksToEvent":0,"beatsToEvent":0,"event":{"deltaTime":4,"channel":3,"type":"channel","noteNumber":55,"velocity":109,"subtype":"noteOn"},"track":4},0],[{"ticksToEvent":116,"beatsToEvent":0.24166666666666667,"event":{"deltaTime":116,"channel":0,"type":"channel","noteNumber":76,"velocity":0,"subtype":"noteOff"},"track":1},0],[{"ticksToEvent":4,"beatsToEvent":0.008333333333333333,"event":{"deltaTime":4,"channel":0,"type":"channel","noteNumber":74,"velocity":84,"subtype":"noteOn"},"track":1},0],[{"ticksToEvent":116,"beatsToEvent":0.24166666666666667,"event":{"deltaTime":116,"channel":0,"type":"channel","noteNumber":74,"velocity":0,"subtype":"noteOff"},"track":1},0],[{"ticksToEvent":0,"beatsToEvent":0,"event":{"deltaTime":236,"channel":3,"type":"channel","noteNumber":55,"velocity":0,"subtype":"noteOff"},"track":4},0],[{"ticksToEvent":4,"beatsToEvent":0.008333333333333333,"event":{"deltaTime":4,"channel":0,"type":"channel","noteNumber":73,"velocity":108,"subtype":"noteOn"},"track":1},0],[{"ticksToEvent":0,"beatsToEvent":0,"event":{"deltaTime":4,"channel":3,"type":"channel","noteNumber":45,"velocity":123,"subtype":"noteOn"},"track":4},0],[{"ticksToEvent":116,"beatsToEvent":0.24166666666666667,"event":{"deltaTime":116,"channel":0,"type":"channel","noteNumber":73,"velocity":0,"subtype":"noteOff"},"track":1},0],[{"ticksToEvent":4,"beatsToEvent":0.008333333333333333,"event":{"deltaTime":4,"channel":0,"type":"channel","noteNumber":76,"velocity":95,"subtype":"noteOn"},"track":1},0],[{"ticksToEvent":116,"beatsToEvent":0.24166666666666667,"event":{"deltaTime":116,"channel":0,"type":"channel","noteNumber":76,"velocity":0,"subtype":"noteOff"},"track":1},0],[{"ticksToEvent":0,"beatsToEvent":0,"event":{"deltaTime":236,"channel":3,"type":"channel","noteNumber":45,"velocity":0,"subtype":"noteOff"},"track":4},0],[{"ticksToEvent":4,"beatsToEvent":0.008333333333333333,"event":{"deltaTime":4,"channel":0,"type":"channel","noteNumber":69,"velocity":85,"subtype":"noteOn"},"track":1},0],[{"ticksToEvent":0,"beatsToEvent":0,"event":{"deltaTime":4,"channel":3,"type":"channel","noteNumber":61,"velocity":127,"subtype":"noteOn"},"track":4},0],[{"ticksToEvent":116,"beatsToEvent":0.24166666666666667,"event":{"deltaTime":116,"channel":0,"type":"channel","noteNumber":69,"velocity":0,"subtype":"noteOff"},"track":1},0],[{"ticksToEvent":4,"beatsToEvent":0.008333333333333333,"event":{"deltaTime":4,"channel":0,"type":"channel","noteNumber":67,"velocity":93,"subtype":"noteOn"},"track":1},0],[{"ticksToEvent":116,"beatsToEvent":0.24166666666666667,"event":{"deltaTime":116,"channel":0,"type":"channel","noteNumber":67,"velocity":0,"subtype":"noteOff"},"track":1},0],[{"ticksToEvent":0,"beatsToEvent":0,"event":{"deltaTime":236,"channel":3,"type":"channel","noteNumber":61,"velocity":0,"subtype":"noteOff"},"track":4},0],[{"ticksToEvent":4,"beatsToEvent":0.008333333333333333,"event":{"deltaTime":4,"channel":0,"type":"channel","noteNumber":66,"velocity":110,"subtype":"noteOn"},"track":1},0],[{"ticksToEvent":0,"beatsToEvent":0,"event":{"deltaTime":4,"channel":3,"type":"channel","noteNumber":50,"velocity":126,"subtype":"noteOn"},"track":4},0],[{"ticksToEvent":116,"beatsToEvent":0.24166666666666667,"event":{"deltaTime":116,"channel":0,"type":"channel","noteNumber":66,"velocity":0,"subtype":"noteOff"},"track":1},0],[{"ticksToEvent":4,"beatsToEvent":0.008333333333333333,"event":{"deltaTime":4,"channel":0,"type":"channel","noteNumber":64,"velocity":98,"subtype":"noteOn"},"track":1},0],[{"ticksToEvent":116,"beatsToEvent":0.24166666666666667,"event":{"deltaTime":116,"channel":0,"type":"channel","noteNumber":64,"velocity":0,"subtype":"noteOff"},"track":1},0],[{"ticksToEvent":0,"beatsToEvent":0,"event":{"deltaTime":236,"channel":3,"type":"channel","noteNumber":50,"velocity":0,"subtype":"noteOff"},"track":4},0],[{"ticksToEvent":4,"beatsToEvent":0.008333333333333333,"event":{"deltaTime":4,"channel":0,"type":"channel","noteNumber":62,"velocity":100,"subtype":"noteOn"},"track":1},0],[{"ticksToEvent":0,"beatsToEvent":0,"event":{"deltaTime":4,"channel":3,"type":"channel","noteNumber":54,"velocity":123,"subtype":"noteOn"},"track":4},0],[{"ticksToEvent":116,"beatsToEvent":0.24166666666666667,"event":{"deltaTime":116,"channel":0,"type":"channel","noteNumber":62,"velocity":0,"subtype":"noteOff"},"track":1},0],[{"ticksToEvent":0,"beatsToEvent":0,"event":{"deltaTime":116,"channel":3,"type":"channel","noteNumber":54,"velocity":0,"subtype":"noteOff"},"track":4},0],[{"ticksToEvent":4,"beatsToEvent":0.008333333333333333,"event":{"deltaTime":4,"channel":0,"type":"channel","noteNumber":61,"velocity":106,"subtype":"noteOn"},"track":1},0],[{"ticksToEvent":0,"beatsToEvent":0,"event":{"deltaTime":4,"channel":3,"type":"channel","noteNumber":52,"velocity":107,"subtype":"noteOn"},"track":4},0],[{"ticksToEvent":116,"beatsToEvent":0.24166666666666667,"event":{"deltaTime":116,"channel":0,"type":"channel","noteNumber":61,"velocity":0,"subtype":"noteOff"},"track":1},0],[{"ticksToEvent":0,"beatsToEvent":0,"event":{"deltaTime":116,"channel":3,"type":"channel","noteNumber":52,"velocity":0,"subtype":"noteOff"},"track":4},0],[{"ticksToEvent":4,"beatsToEvent":0.008333333333333333,"event":{"deltaTime":4,"channel":0,"type":"channel","noteNumber":62,"velocity":90,"subtype":"noteOn"},"track":1},0],[{"ticksToEvent":0,"beatsToEvent":0,"event":{"deltaTime":4,"channel":3,"type":"channel","noteNumber":54,"velocity":125,"subtype":"noteOn"},"track":4},0],[{"ticksToEvent":116,"beatsToEvent":0.24166666666666667,"event":{"deltaTime":116,"channel":0,"type":"channel","noteNumber":62,"velocity":0,"subtype":"noteOff"},"track":1},0],[{"ticksToEvent":4,"beatsToEvent":0.008333333333333333,"event":{"deltaTime":4,"channel":0,"type":"channel","noteNumber":66,"velocity":104,"subtype":"noteOn"},"track":1},0],[{"ticksToEvent":116,"beatsToEvent":0.24166666666666667,"event":{"deltaTime":116,"channel":0,"type":"channel","noteNumber":66,"velocity":0,"subtype":"noteOff"},"track":1},0],[{"ticksToEvent":0,"beatsToEvent":0,"event":{"deltaTime":236,"channel":3,"type":"channel","noteNumber":54,"velocity":0,"subtype":"noteOff"},"track":4},0],[{"ticksToEvent":4,"beatsToEvent":0.008333333333333333,"event":{"deltaTime":4,"channel":0,"type":"channel","noteNumber":57,"velocity":96,"subtype":"noteOn"},"track":1},0],[{"ticksToEvent":0,"beatsToEvent":0,"event":{"deltaTime":4,"channel":3,"type":"channel","noteNumber":50,"velocity":124,"subtype":"noteOn"},"track":4},0],[{"ticksToEvent":116,"beatsToEvent":0.24166666666666667,"event":{"deltaTime":116,"channel":0,"type":"channel","noteNumber":57,"velocity":0,"subtype":"noteOff"},"track":1},0],[{"ticksToEvent":4,"beatsToEvent":0.008333333333333333,"event":{"deltaTime":4,"channel":0,"type":"channel","noteNumber":55,"velocity":95,"subtype":"noteOn"},"track":1},0],[{"ticksToEvent":116,"beatsToEvent":0.24166666666666667,"event":{"deltaTime":116,"channel":0,"type":"channel","noteNumber":55,"velocity":0,"subtype":"noteOff"},"track":1},0],[{"ticksToEvent":0,"beatsToEvent":0,"event":{"deltaTime":236,"channel":3,"type":"channel","noteNumber":50,"velocity":0,"subtype":"noteOff"},"track":4},0],[{"ticksToEvent":4,"beatsToEvent":0.008333333333333333,"event":{"deltaTime":4,"channel":0,"type":"channel","noteNumber":54,"velocity":110,"subtype":"noteOn"},"track":1},0],[{"ticksToEvent":0,"beatsToEvent":0,"event":{"deltaTime":4,"channel":3,"type":"channel","noteNumber":38,"velocity":126,"subtype":"noteOn"},"track":4},0],[{"ticksToEvent":116,"beatsToEvent":0.24166666666666667,"event":{"deltaTime":116,"channel":0,"type":"channel","noteNumber":54,"velocity":0,"subtype":"noteOff"},"track":1},0],[{"ticksToEvent":4,"beatsToEvent":0.008333333333333333,"event":{"deltaTime":4,"channel":0,"type":"channel","noteNumber":57,"velocity":101,"subtype":"noteOn"},"track":1},0],[{"ticksToEvent":116,"beatsToEvent":0.24166666666666667,"event":{"deltaTime":116,"channel":0,"type":"channel","noteNumber":57,"velocity":0,"subtype":"noteOff"},"track":1},0],[{"ticksToEvent":4,"beatsToEvent":0.008333333333333333,"event":{"deltaTime":4,"channel":0,"type":"channel","noteNumber":50,"velocity":98,"subtype":"noteOn"},"track":1},0],[{"ticksToEvent":116,"beatsToEvent":0.24166666666666667,"event":{"deltaTime":356,"channel":3,"type":"channel","noteNumber":38,"velocity":0,"subtype":"noteOff"},"track":4},0],[{"ticksToEvent":4,"beatsToEvent":0.008333333333333333,"event":{"deltaTime":4,"channel":3,"type":"channel","noteNumber":48,"velocity":123,"subtype":"noteOn"},"track":4},0],[{"ticksToEvent":116,"beatsToEvent":0.24166666666666667,"event":{"deltaTime":236,"channel":0,"type":"channel","noteNumber":50,"velocity":0,"subtype":"noteOff"},"track":1},0],[{"ticksToEvent":0,"beatsToEvent":0,"event":{"deltaTime":116,"channel":3,"type":"channel","noteNumber":48,"velocity":0,"subtype":"noteOff"},"track":4},0],[{"ticksToEvent":4,"beatsToEvent":0.008333333333333333,"event":{"deltaTime":4,"channel":3,"type":"channel","noteNumber":47,"velocity":115,"subtype":"noteOn"},"track":4},0],[{"ticksToEvent":116,"beatsToEvent":0.24166666666666667,"event":{"deltaTime":116,"channel":3,"type":"channel","noteNumber":47,"velocity":0,"subtype":"noteOff"},"track":4},0],[{"ticksToEvent":4,"beatsToEvent":0.008333333333333333,"event":{"deltaTime":4,"channel":3,"type":"channel","noteNumber":45,"velocity":117,"subtype":"noteOn"},"track":4},0],[{"ticksToEvent":116,"beatsToEvent":0.24166666666666667,"event":{"deltaTime":116,"channel":3,"type":"channel","noteNumber":45,"velocity":0,"subtype":"noteOff"},"track":4},0],[{"ticksToEvent":4,"beatsToEvent":0.008333333333333333,"event":{"deltaTime":244,"channel":0,"type":"channel","noteNumber":74,"velocity":93,"subtype":"noteOn"},"track":1},0],[{"ticksToEvent":0,"beatsToEvent":0,"event":{"deltaTime":4,"channel":3,"type":"channel","noteNumber":47,"velocity":126,"subtype":"noteOn"},"track":4},0],[{"ticksToEvent":116,"beatsToEvent":0.24166666666666667,"event":{"deltaTime":116,"channel":0,"type":"channel","noteNumber":74,"velocity":0,"subtype":"noteOff"},"track":1},0],[{"ticksToEvent":4,"beatsToEvent":0.008333333333333333,"event":{"deltaTime":4,"channel":0,"type":"channel","noteNumber":72,"velocity":85,"subtype":"noteOn"},"track":1},0],[{"ticksToEvent":116,"beatsToEvent":0.24166666666666667,"event":{"deltaTime":116,"channel":0,"type":"channel","noteNumber":72,"velocity":0,"subtype":"noteOff"},"track":1},0],[{"ticksToEvent":4,"beatsToEvent":0.008333333333333333,"event":{"deltaTime":4,"channel":0,"type":"channel","noteNumber":74,"velocity":101,"subtype":"noteOn"},"track":1},0],[{"ticksToEvent":116,"beatsToEvent":0.24166666666666667,"event":{"deltaTime":116,"channel":0,"type":"channel","noteNumber":74,"velocity":0,"subtype":"noteOff"},"track":1},0],[{"ticksToEvent":0,"beatsToEvent":0,"event":{"deltaTime":356,"channel":3,"type":"channel","noteNumber":47,"velocity":0,"subtype":"noteOff"},"track":4},0],[{"ticksToEvent":4,"beatsToEvent":0.008333333333333333,"event":{"deltaTime":4,"channel":3,"type":"channel","noteNumber":50,"velocity":111,"subtype":"noteOn"},"track":4},0],[{"ticksToEvent":116,"beatsToEvent":0.24166666666666667,"event":{"deltaTime":116,"channel":3,"type":"channel","noteNumber":50,"velocity":0,"subtype":"noteOff"},"track":4},0],[{"ticksToEvent":4,"beatsToEvent":0.008333333333333333,"event":{"deltaTime":124,"channel":0,"type":"channel","noteNumber":67,"velocity":97,"subtype":"noteOn"},"track":1},0],[{"ticksToEvent":0,"beatsToEvent":0,"event":{"deltaTime":4,"channel":3,"type":"channel","noteNumber":52,"velocity":115,"subtype":"noteOn"},"track":4},0],[{"ticksToEvent":116,"beatsToEvent":0.24166666666666667,"event":{"deltaTime":116,"channel":0,"type":"channel","noteNumber":67,"velocity":0,"subtype":"noteOff"},"track":1},0],[{"ticksToEvent":0,"beatsToEvent":0,"event":{"deltaTime":116,"channel":3,"type":"channel","noteNumber":52,"velocity":0,"subtype":"noteOff"},"track":4},0],[{"ticksToEvent":4,"beatsToEvent":0.008333333333333333,"event":{"deltaTime":4,"channel":3,"type":"channel","noteNumber":54,"velocity":115,"subtype":"noteOn"},"track":4},0],[{"ticksToEvent":116,"beatsToEvent":0.24166666666666667,"event":{"deltaTime":116,"channel":3,"type":"channel","noteNumber":54,"velocity":0,"subtype":"noteOff"},"track":4},0],[{"ticksToEvent":4,"beatsToEvent":0.008333333333333333,"event":{"deltaTime":124,"channel":0,"type":"channel","noteNumber":59,"velocity":88,"subtype":"noteOn"},"track":1},0],[{"ticksToEvent":0,"beatsToEvent":0,"event":{"deltaTime":4,"channel":3,"type":"channel","noteNumber":55,"velocity":102,"subtype":"noteOn"},"track":4},0],[{"ticksToEvent":116,"beatsToEvent":0.24166666666666667,"event":{"deltaTime":116,"channel":0,"type":"channel","noteNumber":59,"velocity":0,"subtype":"noteOff"},"track":1},0],[{"ticksToEvent":0,"beatsToEvent":0,"event":{"deltaTime":116,"channel":3,"type":"channel","noteNumber":55,"velocity":0,"subtype":"noteOff"},"track":4},0],[{"ticksToEvent":4,"beatsToEvent":0.008333333333333333,"event":{"deltaTime":4,"channel":3,"type":"channel","noteNumber":57,"velocity":104,"subtype":"noteOn"},"track":4},0],[{"ticksToEvent":116,"beatsToEvent":0.24166666666666667,"event":{"deltaTime":116,"channel":3,"type":"channel","noteNumber":57,"velocity":0,"subtype":"noteOff"},"track":4},0],[{"ticksToEvent":4,"beatsToEvent":0.008333333333333333,"event":{"deltaTime":124,"channel":0,"type":"channel","noteNumber":74,"velocity":101,"subtype":"noteOn"},"track":1},0],[{"ticksToEvent":0,"beatsToEvent":0,"event":{"deltaTime":4,"channel":3,"type":"channel","noteNumber":59,"velocity":113,"subtype":"noteOn"},"track":4},0],[{"ticksToEvent":116,"beatsToEvent":0.24166666666666667,"event":{"deltaTime":116,"channel":0,"type":"channel","noteNumber":74,"velocity":0,"subtype":"noteOff"},"track":1},0],[{"ticksToEvent":0,"beatsToEvent":0,"event":{"deltaTime":116,"channel":3,"type":"channel","noteNumber":59,"velocity":0,"subtype":"noteOff"},"track":4},0],[{"ticksToEvent":4,"beatsToEvent":0.008333333333333333,"event":{"deltaTime":4,"channel":3,"type":"channel","noteNumber":55,"velocity":102,"subtype":"noteOn"},"track":4},0],[{"ticksToEvent":116,"beatsToEvent":0.24166666666666667,"event":{"deltaTime":116,"channel":3,"type":"channel","noteNumber":55,"velocity":0,"subtype":"noteOff"},"track":4},0],[{"ticksToEvent":4,"beatsToEvent":0.008333333333333333,"event":{"deltaTime":4,"channel":3,"type":"channel","noteNumber":48,"velocity":100,"subtype":"noteOn"},"track":4},0],[{"ticksToEvent":116,"beatsToEvent":0.24166666666666667,"event":{"deltaTime":116,"channel":3,"type":"channel","noteNumber":48,"velocity":0,"subtype":"noteOff"},"track":4},0],[{"ticksToEvent":4,"beatsToEvent":0.008333333333333333,"event":{"deltaTime":4,"channel":3,"type":"channel","noteNumber":47,"velocity":119,"subtype":"noteOn"},"track":4},0],[{"ticksToEvent":116,"beatsToEvent":0.24166666666666667,"event":{"deltaTime":116,"channel":3,"type":"channel","noteNumber":47,"velocity":0,"subtype":"noteOff"},"track":4},0],[{"ticksToEvent":4,"beatsToEvent":0.008333333333333333,"event":{"deltaTime":364,"channel":0,"type":"channel","noteNumber":76,"velocity":115,"subtype":"noteOn"},"track":1},0],[{"ticksToEvent":0,"beatsToEvent":0,"event":{"deltaTime":4,"channel":3,"type":"channel","noteNumber":48,"velocity":126,"subtype":"noteOn"},"track":4},0],[{"ticksToEvent":116,"beatsToEvent":0.24166666666666667,"event":{"deltaTime":116,"channel":0,"type":"channel","noteNumber":76,"velocity":0,"subtype":"noteOff"},"track":1},0],[{"ticksToEvent":4,"beatsToEvent":0.008333333333333333,"event":{"deltaTime":4,"channel":0,"type":"channel","noteNumber":74,"velocity":85,"subtype":"noteOn"},"track":1},0],[{"ticksToEvent":116,"beatsToEvent":0.24166666666666667,"event":{"deltaTime":116,"channel":0,"type":"channel","noteNumber":74,"velocity":0,"subtype":"noteOff"},"track":1},0],[{"ticksToEvent":4,"beatsToEvent":0.008333333333333333,"event":{"deltaTime":4,"channel":0,"type":"channel","noteNumber":76,"velocity":107,"subtype":"noteOn"},"track":1},0],[{"ticksToEvent":116,"beatsToEvent":0.24166666666666667,"event":{"deltaTime":116,"channel":0,"type":"channel","noteNumber":76,"velocity":0,"subtype":"noteOff"},"track":1},0],[{"ticksToEvent":0,"beatsToEvent":0,"event":{"deltaTime":356,"channel":3,"type":"channel","noteNumber":48,"velocity":0,"subtype":"noteOff"},"track":4},0],[{"ticksToEvent":4,"beatsToEvent":0.008333333333333333,"event":{"deltaTime":4,"channel":3,"type":"channel","noteNumber":52,"velocity":117,"subtype":"noteOn"},"track":4},0],[{"ticksToEvent":116,"beatsToEvent":0.24166666666666667,"event":{"deltaTime":116,"channel":3,"type":"channel","noteNumber":52,"velocity":0,"subtype":"noteOff"},"track":4},0],[{"ticksToEvent":4,"beatsToEvent":0.008333333333333333,"event":{"deltaTime":124,"channel":0,"type":"channel","noteNumber":69,"velocity":91,"subtype":"noteOn"},"track":1},0],[{"ticksToEvent":0,"beatsToEvent":0,"event":{"deltaTime":4,"channel":3,"type":"channel","noteNumber":54,"velocity":112,"subtype":"noteOn"},"track":4},0],[{"ticksToEvent":116,"beatsToEvent":0.24166666666666667,"event":{"deltaTime":116,"channel":0,"type":"channel","noteNumber":69,"velocity":0,"subtype":"noteOff"},"track":1},0],[{"ticksToEvent":0,"beatsToEvent":0,"event":{"deltaTime":116,"channel":3,"type":"channel","noteNumber":54,"velocity":0,"subtype":"noteOff"},"track":4},0],[{"ticksToEvent":4,"beatsToEvent":0.008333333333333333,"event":{"deltaTime":4,"channel":3,"type":"channel","noteNumber":55,"velocity":95,"subtype":"noteOn"},"track":4},0],[{"ticksToEvent":116,"beatsToEvent":0.24166666666666667,"event":{"deltaTime":116,"channel":3,"type":"channel","noteNumber":55,"velocity":0,"subtype":"noteOff"},"track":4},0],[{"ticksToEvent":4,"beatsToEvent":0.008333333333333333,"event":{"deltaTime":124,"channel":0,"type":"channel","noteNumber":60,"velocity":74,"subtype":"noteOn"},"track":1},0],[{"ticksToEvent":0,"beatsToEvent":0,"event":{"deltaTime":4,"channel":3,"type":"channel","noteNumber":57,"velocity":119,"subtype":"noteOn"},"track":4},0],[{"ticksToEvent":116,"beatsToEvent":0.24166666666666667,"event":{"deltaTime":116,"channel":0,"type":"channel","noteNumber":60,"velocity":0,"subtype":"noteOff"},"track":1},0],[{"ticksToEvent":0,"beatsToEvent":0,"event":{"deltaTime":116,"channel":3,"type":"channel","noteNumber":57,"velocity":0,"subtype":"noteOff"},"track":4},0],[{"ticksToEvent":4,"beatsToEvent":0.008333333333333333,"event":{"deltaTime":4,"channel":3,"type":"channel","noteNumber":59,"velocity":113,"subtype":"noteOn"},"track":4},0],[{"ticksToEvent":116,"beatsToEvent":0.24166666666666667,"event":{"deltaTime":116,"channel":3,"type":"channel","noteNumber":59,"velocity":0,"subtype":"noteOff"},"track":4},0],[{"ticksToEvent":4,"beatsToEvent":0.008333333333333333,"event":{"deltaTime":124,"channel":0,"type":"channel","noteNumber":76,"velocity":119,"subtype":"noteOn"},"track":1},0],[{"ticksToEvent":0,"beatsToEvent":0,"event":{"deltaTime":4,"channel":3,"type":"channel","noteNumber":60,"velocity":113,"subtype":"noteOn"},"track":4},0],[{"ticksToEvent":116,"beatsToEvent":0.24166666666666667,"event":{"deltaTime":116,"channel":0,"type":"channel","noteNumber":76,"velocity":0,"subtype":"noteOff"},"track":1},0],[{"ticksToEvent":0,"beatsToEvent":0,"event":{"deltaTime":116,"channel":3,"type":"channel","noteNumber":60,"velocity":0,"subtype":"noteOff"},"track":4},0],[{"ticksToEvent":4,"beatsToEvent":0.008333333333333333,"event":{"deltaTime":4,"channel":3,"type":"channel","noteNumber":57,"velocity":113,"subtype":"noteOn"},"track":4},0],[{"ticksToEvent":116,"beatsToEvent":0.24166666666666667,"event":{"deltaTime":116,"channel":3,"type":"channel","noteNumber":57,"velocity":0,"subtype":"noteOff"},"track":4},0],[{"ticksToEvent":4,"beatsToEvent":0.008333333333333333,"event":{"deltaTime":4,"channel":3,"type":"channel","noteNumber":50,"velocity":111,"subtype":"noteOn"},"track":4},0],[{"ticksToEvent":116,"beatsToEvent":0.24166666666666667,"event":{"deltaTime":116,"channel":3,"type":"channel","noteNumber":50,"velocity":0,"subtype":"noteOff"},"track":4},0],[{"ticksToEvent":4,"beatsToEvent":0.008333333333333333,"event":{"deltaTime":4,"channel":3,"type":"channel","noteNumber":49,"velocity":96,"subtype":"noteOn"},"track":4},0],[{"ticksToEvent":116,"beatsToEvent":0.24166666666666667,"event":{"deltaTime":116,"channel":3,"type":"channel","noteNumber":49,"velocity":0,"subtype":"noteOff"},"track":4},0],[{"ticksToEvent":4,"beatsToEvent":0.008333333333333333,"event":{"deltaTime":364,"channel":0,"type":"channel","noteNumber":78,"velocity":125,"subtype":"noteOn"},"track":1},0],[{"ticksToEvent":0,"beatsToEvent":0,"event":{"deltaTime":4,"channel":3,"type":"channel","noteNumber":50,"velocity":121,"subtype":"noteOn"},"track":4},0],[{"ticksToEvent":116,"beatsToEvent":0.24166666666666667,"event":{"deltaTime":116,"channel":0,"type":"channel","noteNumber":78,"velocity":0,"subtype":"noteOff"},"track":1},0],[{"ticksToEvent":4,"beatsToEvent":0.008333333333333333,"event":{"deltaTime":4,"channel":0,"type":"channel","noteNumber":76,"velocity":95,"subtype":"noteOn"},"track":1},0],[{"ticksToEvent":116,"beatsToEvent":0.24166666666666667,"event":{"deltaTime":116,"channel":0,"type":"channel","noteNumber":76,"velocity":0,"subtype":"noteOff"},"track":1},0],[{"ticksToEvent":4,"beatsToEvent":0.008333333333333333,"event":{"deltaTime":4,"channel":0,"type":"channel","noteNumber":78,"velocity":99,"subtype":"noteOn"},"track":1},0],[{"ticksToEvent":116,"beatsToEvent":0.24166666666666667,"event":{"deltaTime":116,"channel":0,"type":"channel","noteNumber":78,"velocity":0,"subtype":"noteOff"},"track":1},0],[{"ticksToEvent":0,"beatsToEvent":0,"event":{"deltaTime":356,"channel":3,"type":"channel","noteNumber":50,"velocity":0,"subtype":"noteOff"},"track":4},0],[{"ticksToEvent":4,"beatsToEvent":0.008333333333333333,"event":{"deltaTime":4,"channel":3,"type":"channel","noteNumber":57,"velocity":117,"subtype":"noteOn"},"track":4},0],[{"ticksToEvent":116,"beatsToEvent":0.24166666666666667,"event":{"deltaTime":116,"channel":3,"type":"channel","noteNumber":57,"velocity":0,"subtype":"noteOff"},"track":4},0],[{"ticksToEvent":4,"beatsToEvent":0.008333333333333333,"event":{"deltaTime":124,"channel":0,"type":"channel","noteNumber":74,"velocity":95,"subtype":"noteOn"},"track":1},0],[{"ticksToEvent":0,"beatsToEvent":0,"event":{"deltaTime":4,"channel":3,"type":"channel","noteNumber":59,"velocity":101,"subtype":"noteOn"},"track":4},0],[{"ticksToEvent":116,"beatsToEvent":0.24166666666666667,"event":{"deltaTime":116,"channel":0,"type":"channel","noteNumber":74,"velocity":0,"subtype":"noteOff"},"track":1},0],[{"ticksToEvent":0,"beatsToEvent":0,"event":{"deltaTime":116,"channel":3,"type":"channel","noteNumber":59,"velocity":0,"subtype":"noteOff"},"track":4},0],[{"ticksToEvent":4,"beatsToEvent":0.008333333333333333,"event":{"deltaTime":4,"channel":3,"type":"channel","noteNumber":60,"velocity":111,"subtype":"noteOn"},"track":4},0],[{"ticksToEvent":116,"beatsToEvent":0.24166666666666667,"event":{"deltaTime":116,"channel":3,"type":"channel","noteNumber":60,"velocity":0,"subtype":"noteOff"},"track":4},0],[{"ticksToEvent":4,"beatsToEvent":0.008333333333333333,"event":{"deltaTime":124,"channel":0,"type":"channel","noteNumber":81,"velocity":107,"subtype":"noteOn"},"track":1},0],[{"ticksToEvent":0,"beatsToEvent":0,"event":{"deltaTime":4,"channel":3,"type":"channel","noteNumber":62,"velocity":107,"subtype":"noteOn"},"track":4},0],[{"ticksToEvent":116,"beatsToEvent":0.24166666666666667,"event":{"deltaTime":116,"channel":0,"type":"channel","noteNumber":81,"velocity":0,"subtype":"noteOff"},"track":1},0],[{"ticksToEvent":0,"beatsToEvent":0,"event":{"deltaTime":116,"channel":3,"type":"channel","noteNumber":62,"velocity":0,"subtype":"noteOff"},"track":4},0],[{"ticksToEvent":4,"beatsToEvent":0.008333333333333333,"event":{"deltaTime":4,"channel":3,"type":"channel","noteNumber":64,"velocity":102,"subtype":"noteOn"},"track":4},0],[{"ticksToEvent":116,"beatsToEvent":0.24166666666666667,"event":{"deltaTime":116,"channel":3,"type":"channel","noteNumber":64,"velocity":0,"subtype":"noteOff"},"track":4},0],[{"ticksToEvent":4,"beatsToEvent":0.008333333333333333,"event":{"deltaTime":124,"channel":0,"type":"channel","noteNumber":72,"velocity":111,"subtype":"noteOn"},"track":1},0],[{"ticksToEvent":0,"beatsToEvent":0,"event":{"deltaTime":4,"channel":3,"type":"channel","noteNumber":66,"velocity":96,"subtype":"noteOn"},"track":4},0],[{"ticksToEvent":116,"beatsToEvent":0.24166666666666667,"event":{"deltaTime":116,"channel":3,"type":"channel","noteNumber":66,"velocity":0,"subtype":"noteOff"},"track":4},0],[{"ticksToEvent":4,"beatsToEvent":0.008333333333333333,"event":{"deltaTime":4,"channel":3,"type":"channel","noteNumber":62,"velocity":104,"subtype":"noteOn"},"track":4},0],[{"ticksToEvent":116,"beatsToEvent":0.24166666666666667,"event":{"deltaTime":116,"channel":3,"type":"channel","noteNumber":62,"velocity":0,"subtype":"noteOff"},"track":4},0],[{"ticksToEvent":4,"beatsToEvent":0.008333333333333333,"event":{"deltaTime":4,"channel":3,"type":"channel","noteNumber":67,"velocity":121,"subtype":"noteOn"},"track":4},0],[{"ticksToEvent":116,"beatsToEvent":0.24166666666666667,"event":{"deltaTime":116,"channel":3,"type":"channel","noteNumber":67,"velocity":0,"subtype":"noteOff"},"track":4},0],[{"ticksToEvent":4,"beatsToEvent":0.008333333333333333,"event":{"deltaTime":4,"channel":3,"type":"channel","noteNumber":66,"velocity":59,"subtype":"noteOn"},"track":4},0],[{"ticksToEvent":116,"beatsToEvent":0.24166666666666667,"event":{"deltaTime":476,"channel":0,"type":"channel","noteNumber":72,"velocity":0,"subtype":"noteOff"},"track":1},0],[{"ticksToEvent":0,"beatsToEvent":0,"event":{"deltaTime":116,"channel":3,"type":"channel","noteNumber":66,"velocity":0,"subtype":"noteOff"},"track":4},0],[{"ticksToEvent":4,"beatsToEvent":0.008333333333333333,"event":{"deltaTime":4,"channel":0,"type":"channel","noteNumber":71,"velocity":109,"subtype":"noteOn"},"track":1},0],[{"ticksToEvent":0,"beatsToEvent":0,"event":{"deltaTime":4,"channel":3,"type":"channel","noteNumber":67,"velocity":115,"subtype":"noteOn"},"track":4},0],[{"ticksToEvent":116,"beatsToEvent":0.24166666666666667,"event":{"deltaTime":116,"channel":3,"type":"channel","noteNumber":67,"velocity":0,"subtype":"noteOff"},"track":4},0],[{"ticksToEvent":4,"beatsToEvent":0.008333333333333333,"event":{"deltaTime":4,"channel":3,"type":"channel","noteNumber":62,"velocity":95,"subtype":"noteOn"},"track":4},0],[{"ticksToEvent":116,"beatsToEvent":0.24166666666666667,"event":{"deltaTime":116,"channel":3,"type":"channel","noteNumber":62,"velocity":0,"subtype":"noteOff"},"track":4},0],[{"ticksToEvent":4,"beatsToEvent":0.008333333333333333,"event":{"deltaTime":4,"channel":3,"type":"channel","noteNumber":59,"velocity":98,"subtype":"noteOn"},"track":4},0],[{"ticksToEvent":116,"beatsToEvent":0.24166666666666667,"event":{"deltaTime":356,"channel":0,"type":"channel","noteNumber":71,"velocity":0,"subtype":"noteOff"},"track":1},0],[{"ticksToEvent":0,"beatsToEvent":0,"event":{"deltaTime":116,"channel":3,"type":"channel","noteNumber":59,"velocity":0,"subtype":"noteOff"},"track":4},0],[{"ticksToEvent":4,"beatsToEvent":0.008333333333333333,"event":{"deltaTime":4,"channel":0,"type":"channel","noteNumber":67,"velocity":96,"subtype":"noteOn"},"track":1},0],[{"ticksToEvent":0,"beatsToEvent":0,"event":{"deltaTime":4,"channel":3,"type":"channel","noteNumber":62,"velocity":92,"subtype":"noteOn"},"track":4},0],[{"ticksToEvent":116,"beatsToEvent":0.24166666666666667,"event":{"deltaTime":116,"channel":0,"type":"channel","noteNumber":67,"velocity":0,"subtype":"noteOff"},"track":1},0],[{"ticksToEvent":0,"beatsToEvent":0,"event":{"deltaTime":116,"channel":3,"type":"channel","noteNumber":62,"velocity":0,"subtype":"noteOff"},"track":4},0],[{"ticksToEvent":4,"beatsToEvent":0.008333333333333333,"event":{"deltaTime":4,"channel":0,"type":"channel","noteNumber":71,"velocity":98,"subtype":"noteOn"},"track":1},0],[{"ticksToEvent":0,"beatsToEvent":0,"event":{"deltaTime":4,"channel":3,"type":"channel","noteNumber":55,"velocity":100,"subtype":"noteOn"},"track":4},0],[{"ticksToEvent":116,"beatsToEvent":0.24166666666666667,"event":{"deltaTime":116,"channel":0,"type":"channel","noteNumber":71,"velocity":0,"subtype":"noteOff"},"track":1},0],[{"ticksToEvent":0,"beatsToEvent":0,"event":{"deltaTime":116,"channel":3,"type":"channel","noteNumber":55,"velocity":0,"subtype":"noteOff"},"track":4},0],[{"ticksToEvent":4,"beatsToEvent":0.008333333333333333,"event":{"deltaTime":4,"channel":0,"type":"channel","noteNumber":74,"velocity":97,"subtype":"noteOn"},"track":1},0],[{"ticksToEvent":0,"beatsToEvent":0,"event":{"deltaTime":4,"channel":3,"type":"channel","noteNumber":59,"velocity":60,"subtype":"noteOn"},"track":4},0],[{"ticksToEvent":116,"beatsToEvent":0.24166666666666667,"event":{"deltaTime":116,"channel":0,"type":"channel","noteNumber":74,"velocity":0,"subtype":"noteOff"},"track":1},0],[{"ticksToEvent":0,"beatsToEvent":0,"event":{"deltaTime":116,"channel":3,"type":"channel","noteNumber":59,"velocity":0,"subtype":"noteOff"},"track":4},0],[{"ticksToEvent":4,"beatsToEvent":0.008333333333333333,"event":{"deltaTime":4,"channel":0,"type":"channel","noteNumber":79,"velocity":107,"subtype":"noteOn"},"track":1},0],[{"ticksToEvent":0,"beatsToEvent":0,"event":{"deltaTime":4,"channel":3,"type":"channel","noteNumber":50,"velocity":96,"subtype":"noteOn"},"track":4},0],[{"ticksToEvent":116,"beatsToEvent":0.24166666666666667,"event":{"deltaTime":116,"channel":0,"type":"channel","noteNumber":79,"velocity":0,"subtype":"noteOff"},"track":1},0],[{"ticksToEvent":0,"beatsToEvent":0,"event":{"deltaTime":116,"channel":3,"type":"channel","noteNumber":50,"velocity":0,"subtype":"noteOff"},"track":4},0],[{"ticksToEvent":4,"beatsToEvent":0.008333333333333333,"event":{"deltaTime":4,"channel":0,"type":"channel","noteNumber":74,"velocity":90,"subtype":"noteOn"},"track":1},0],[{"ticksToEvent":0,"beatsToEvent":0,"event":{"deltaTime":4,"channel":3,"type":"channel","noteNumber":55,"velocity":100,"subtype":"noteOn"},"track":4},0],[{"ticksToEvent":116,"beatsToEvent":0.24166666666666667,"event":{"deltaTime":116,"channel":0,"type":"channel","noteNumber":74,"velocity":0,"subtype":"noteOff"},"track":1},0],[{"ticksToEvent":0,"beatsToEvent":0,"event":{"deltaTime":116,"channel":3,"type":"channel","noteNumber":55,"velocity":0,"subtype":"noteOff"},"track":4},0],[{"ticksToEvent":4,"beatsToEvent":0.008333333333333333,"event":{"deltaTime":4,"channel":0,"type":"channel","noteNumber":79,"velocity":66,"subtype":"noteOn"},"track":1},0],[{"ticksToEvent":0,"beatsToEvent":0,"event":{"deltaTime":4,"channel":3,"type":"channel","noteNumber":47,"velocity":107,"subtype":"noteOn"},"track":4},0],[{"ticksToEvent":116,"beatsToEvent":0.24166666666666667,"event":{"deltaTime":116,"channel":0,"type":"channel","noteNumber":79,"velocity":0,"subtype":"noteOff"},"track":1},0],[{"ticksToEvent":0,"beatsToEvent":0,"event":{"deltaTime":116,"channel":3,"type":"channel","noteNumber":47,"velocity":0,"subtype":"noteOff"},"track":4},0],[{"ticksToEvent":4,"beatsToEvent":0.008333333333333333,"event":{"deltaTime":4,"channel":0,"type":"channel","noteNumber":81,"velocity":104,"subtype":"noteOn"},"track":1},0],[{"ticksToEvent":0,"beatsToEvent":0,"event":{"deltaTime":4,"channel":3,"type":"channel","noteNumber":50,"velocity":89,"subtype":"noteOn"},"track":4},0],[{"ticksToEvent":116,"beatsToEvent":0.24166666666666667,"event":{"deltaTime":116,"channel":0,"type":"channel","noteNumber":81,"velocity":0,"subtype":"noteOff"},"track":1},0],[{"ticksToEvent":0,"beatsToEvent":0,"event":{"deltaTime":116,"channel":3,"type":"channel","noteNumber":50,"velocity":0,"subtype":"noteOff"},"track":4},0],[{"ticksToEvent":4,"beatsToEvent":0.008333333333333333,"event":{"deltaTime":4,"channel":0,"type":"channel","noteNumber":83,"velocity":119,"subtype":"noteOn"},"track":1},0],[{"ticksToEvent":0,"beatsToEvent":0,"event":{"deltaTime":4,"channel":3,"type":"channel","noteNumber":43,"velocity":121,"subtype":"noteOn"},"track":4},0],[{"ticksToEvent":116,"beatsToEvent":0.24166666666666667,"event":{"deltaTime":116,"channel":0,"type":"channel","noteNumber":83,"velocity":0,"subtype":"noteOff"},"track":1},0],[{"ticksToEvent":0,"beatsToEvent":0,"event":{"deltaTime":116,"channel":3,"type":"channel","noteNumber":43,"velocity":0,"subtype":"noteOff"},"track":4},0],[{"ticksToEvent":4,"beatsToEvent":0.008333333333333333,"event":{"deltaTime":4,"channel":0,"type":"channel","noteNumber":79,"velocity":88,"subtype":"noteOn"},"track":1},0],[{"ticksToEvent":116,"beatsToEvent":0.24166666666666667,"event":{"deltaTime":116,"channel":0,"type":"channel","noteNumber":79,"velocity":0,"subtype":"noteOff"},"track":1},0],[{"ticksToEvent":4,"beatsToEvent":0.008333333333333333,"event":{"deltaTime":4,"channel":0,"type":"channel","noteNumber":74,"velocity":86,"subtype":"noteOn"},"track":1},0],[{"ticksToEvent":0,"beatsToEvent":0,"event":{"deltaTime":124,"channel":3,"type":"channel","noteNumber":55,"velocity":100,"subtype":"noteOn"},"track":4},0],[{"ticksToEvent":116,"beatsToEvent":0.24166666666666667,"event":{"deltaTime":116,"channel":0,"type":"channel","noteNumber":74,"velocity":0,"subtype":"noteOff"},"track":1},0],[{"ticksToEvent":4,"beatsToEvent":0.008333333333333333,"event":{"deltaTime":4,"channel":0,"type":"channel","noteNumber":71,"velocity":71,"subtype":"noteOn"},"track":1},0],[{"ticksToEvent":116,"beatsToEvent":0.24166666666666667,"event":{"deltaTime":116,"channel":0,"type":"channel","noteNumber":71,"velocity":0,"subtype":"noteOff"},"track":1},0],[{"ticksToEvent":0,"beatsToEvent":0,"event":{"deltaTime":236,"channel":3,"type":"channel","noteNumber":55,"velocity":0,"subtype":"noteOff"},"track":4},0],[{"ticksToEvent":4,"beatsToEvent":0.008333333333333333,"event":{"deltaTime":4,"channel":0,"type":"channel","noteNumber":67,"velocity":91,"subtype":"noteOn"},"track":1},0],[{"ticksToEvent":0,"beatsToEvent":0,"event":{"deltaTime":4,"channel":3,"type":"channel","noteNumber":59,"velocity":121,"subtype":"noteOn"},"track":4},0],[{"ticksToEvent":116,"beatsToEvent":0.24166666666666667,"event":{"deltaTime":116,"channel":0,"type":"channel","noteNumber":67,"velocity":0,"subtype":"noteOff"},"track":1},0],[{"ticksToEvent":4,"beatsToEvent":0.008333333333333333,"event":{"deltaTime":4,"channel":0,"type":"channel","noteNumber":71,"velocity":75,"subtype":"noteOn"},"track":1},0],[{"ticksToEvent":116,"beatsToEvent":0.24166666666666667,"event":{"deltaTime":116,"channel":0,"type":"channel","noteNumber":71,"velocity":0,"subtype":"noteOff"},"track":1},0],[{"ticksToEvent":0,"beatsToEvent":0,"event":{"deltaTime":236,"channel":3,"type":"channel","noteNumber":59,"velocity":0,"subtype":"noteOff"},"track":4},0],[{"ticksToEvent":4,"beatsToEvent":0.008333333333333333,"event":{"deltaTime":4,"channel":0,"type":"channel","noteNumber":74,"velocity":75,"subtype":"noteOn"},"track":1},0],[{"ticksToEvent":0,"beatsToEvent":0,"event":{"deltaTime":4,"channel":3,"type":"channel","noteNumber":55,"velocity":109,"subtype":"noteOn"},"track":4},0],[{"ticksToEvent":116,"beatsToEvent":0.24166666666666667,"event":{"deltaTime":116,"channel":0,"type":"channel","noteNumber":74,"velocity":0,"subtype":"noteOff"},"track":1},0],[{"ticksToEvent":4,"beatsToEvent":0.008333333333333333,"event":{"deltaTime":4,"channel":0,"type":"channel","noteNumber":79,"velocity":46,"subtype":"noteOn"},"track":1},0],[{"ticksToEvent":116,"beatsToEvent":0.24166666666666667,"event":{"deltaTime":116,"channel":0,"type":"channel","noteNumber":79,"velocity":0,"subtype":"noteOff"},"track":1},0],[{"ticksToEvent":0,"beatsToEvent":0,"event":{"deltaTime":236,"channel":3,"type":"channel","noteNumber":55,"velocity":0,"subtype":"noteOff"},"track":4},0],[{"ticksToEvent":4,"beatsToEvent":0.008333333333333333,"event":{"deltaTime":4,"channel":0,"type":"channel","noteNumber":83,"velocity":107,"subtype":"noteOn"},"track":1},0],[{"ticksToEvent":0,"beatsToEvent":0,"event":{"deltaTime":4,"channel":3,"type":"channel","noteNumber":43,"velocity":121,"subtype":"noteOn"},"track":4},0],[{"ticksToEvent":116,"beatsToEvent":0.24166666666666667,"event":{"deltaTime":116,"channel":0,"type":"channel","noteNumber":83,"velocity":0,"subtype":"noteOff"},"track":1},0],[{"ticksToEvent":4,"beatsToEvent":0.008333333333333333,"event":{"deltaTime":4,"channel":0,"type":"channel","noteNumber":79,"velocity":89,"subtype":"noteOn"},"track":1},0],[{"ticksToEvent":116,"beatsToEvent":0.24166666666666667,"event":{"deltaTime":116,"channel":0,"type":"channel","noteNumber":79,"velocity":0,"subtype":"noteOff"},"track":1},0],[{"ticksToEvent":0,"beatsToEvent":0,"event":{"deltaTime":236,"channel":3,"type":"channel","noteNumber":43,"velocity":0,"subtype":"noteOff"},"track":4},0],[{"ticksToEvent":4,"beatsToEvent":0.008333333333333333,"event":{"deltaTime":4,"channel":0,"type":"channel","noteNumber":78,"velocity":97,"subtype":"noteOn"},"track":1},0],[{"ticksToEvent":0,"beatsToEvent":0,"event":{"deltaTime":4,"channel":3,"type":"channel","noteNumber":55,"velocity":121,"subtype":"noteOn"},"track":4},0],[{"ticksToEvent":116,"beatsToEvent":0.24166666666666667,"event":{"deltaTime":116,"channel":0,"type":"channel","noteNumber":78,"velocity":0,"subtype":"noteOff"},"track":1},0],[{"ticksToEvent":4,"beatsToEvent":0.008333333333333333,"event":{"deltaTime":4,"channel":0,"type":"channel","noteNumber":76,"velocity":88,"subtype":"noteOn"},"track":1},0],[{"ticksToEvent":116,"beatsToEvent":0.24166666666666667,"event":{"deltaTime":116,"channel":0,"type":"channel","noteNumber":76,"velocity":0,"subtype":"noteOff"},"track":1},0],[{"ticksToEvent":0,"beatsToEvent":0,"event":{"deltaTime":236,"channel":3,"type":"channel","noteNumber":55,"velocity":0,"subtype":"noteOff"},"track":4},0],[{"ticksToEvent":4,"beatsToEvent":0.008333333333333333,"event":{"deltaTime":4,"channel":0,"type":"channel","noteNumber":81,"velocity":107,"subtype":"noteOn"},"track":1},0],[{"ticksToEvent":0,"beatsToEvent":0,"event":{"deltaTime":4,"channel":3,"type":"channel","noteNumber":42,"velocity":125,"subtype":"noteOn"},"track":4},0],[{"ticksToEvent":120,"beatsToEvent":0.25,"event":{"deltaTime":120,"channel":0,"type":"channel","noteNumber":81,"velocity":0,"subtype":"noteOff"},"track":1},0],[{"ticksToEvent":0,"beatsToEvent":0,"event":{"deltaTime":0,"channel":0,"type":"channel","noteNumber":76,"velocity":96,"subtype":"noteOn"},"track":1},0],[{"ticksToEvent":116,"beatsToEvent":0.24166666666666667,"event":{"deltaTime":236,"channel":3,"type":"channel","noteNumber":42,"velocity":0,"subtype":"noteOff"},"track":4},0],[{"ticksToEvent":4,"beatsToEvent":0.008333333333333333,"event":{"deltaTime":120,"channel":0,"type":"channel","noteNumber":76,"velocity":0,"subtype":"noteOff"},"track":1},0],[{"ticksToEvent":0,"beatsToEvent":0,"event":{"deltaTime":0,"channel":0,"type":"channel","noteNumber":73,"velocity":90,"subtype":"noteOn"},"track":1},0],[{"ticksToEvent":0,"beatsToEvent":0,"event":{"deltaTime":4,"channel":3,"type":"channel","noteNumber":54,"velocity":115,"subtype":"noteOn"},"track":4},0],[{"ticksToEvent":120,"beatsToEvent":0.25,"event":{"deltaTime":120,"channel":0,"type":"channel","noteNumber":73,"velocity":0,"subtype":"noteOff"},"track":1},0],[{"ticksToEvent":0,"beatsToEvent":0,"event":{"deltaTime":0,"channel":0,"type":"channel","noteNumber":69,"velocity":77,"subtype":"noteOn"},"track":1},0],[{"ticksToEvent":116,"beatsToEvent":0.24166666666666667,"event":{"deltaTime":236,"channel":3,"type":"channel","noteNumber":54,"velocity":0,"subtype":"noteOff"},"track":4},0],[{"ticksToEvent":4,"beatsToEvent":0.008333333333333333,"event":{"deltaTime":120,"channel":0,"type":"channel","noteNumber":69,"velocity":0,"subtype":"noteOff"},"track":1},0],[{"ticksToEvent":0,"beatsToEvent":0,"event":{"deltaTime":0,"channel":0,"type":"channel","noteNumber":66,"velocity":104,"subtype":"noteOn"},"track":1},0],[{"ticksToEvent":0,"beatsToEvent":0,"event":{"deltaTime":4,"channel":3,"type":"channel","noteNumber":57,"velocity":106,"subtype":"noteOn"},"track":4},0],[{"ticksToEvent":120,"beatsToEvent":0.25,"event":{"deltaTime":120,"channel":0,"type":"channel","noteNumber":66,"velocity":0,"subtype":"noteOff"},"track":1},0],[{"ticksToEvent":0,"beatsToEvent":0,"event":{"deltaTime":0,"channel":0,"type":"channel","noteNumber":69,"velocity":63,"subtype":"noteOn"},"track":1},0],[{"ticksToEvent":116,"beatsToEvent":0.24166666666666667,"event":{"deltaTime":236,"channel":3,"type":"channel","noteNumber":57,"velocity":0,"subtype":"noteOff"},"track":4},0],[{"ticksToEvent":4,"beatsToEvent":0.008333333333333333,"event":{"deltaTime":120,"channel":0,"type":"channel","noteNumber":69,"velocity":0,"subtype":"noteOff"},"track":1},0],[{"ticksToEvent":0,"beatsToEvent":0,"event":{"deltaTime":0,"channel":0,"type":"channel","noteNumber":73,"velocity":49,"subtype":"noteOn"},"track":1},0],[{"ticksToEvent":0,"beatsToEvent":0,"event":{"deltaTime":4,"channel":3,"type":"channel","noteNumber":54,"velocity":110,"subtype":"noteOn"},"track":4},0],[{"ticksToEvent":116,"beatsToEvent":0.24166666666666667,"event":{"deltaTime":116,"channel":0,"type":"channel","noteNumber":73,"velocity":0,"subtype":"noteOff"},"track":1},0],[{"ticksToEvent":4,"beatsToEvent":0.008333333333333333,"event":{"deltaTime":4,"channel":0,"type":"channel","noteNumber":76,"velocity":72,"subtype":"noteOn"},"track":1},0],[{"ticksToEvent":116,"beatsToEvent":0.24166666666666667,"event":{"deltaTime":116,"channel":0,"type":"channel","noteNumber":76,"velocity":0,"subtype":"noteOff"},"track":1},0],[{"ticksToEvent":0,"beatsToEvent":0,"event":{"deltaTime":236,"channel":3,"type":"channel","noteNumber":54,"velocity":0,"subtype":"noteOff"},"track":4},0],[{"ticksToEvent":4,"beatsToEvent":0.008333333333333333,"event":{"deltaTime":4,"channel":0,"type":"channel","noteNumber":81,"velocity":93,"subtype":"noteOn"},"track":1},0],[{"ticksToEvent":0,"beatsToEvent":0,"event":{"deltaTime":4,"channel":3,"type":"channel","noteNumber":42,"velocity":127,"subtype":"noteOn"},"track":4},0],[{"ticksToEvent":116,"beatsToEvent":0.24166666666666667,"event":{"deltaTime":116,"channel":0,"type":"channel","noteNumber":81,"velocity":0,"subtype":"noteOff"},"track":1},0],[{"ticksToEvent":4,"beatsToEvent":0.008333333333333333,"event":{"deltaTime":4,"channel":0,"type":"channel","noteNumber":78,"velocity":77,"subtype":"noteOn"},"track":1},0],[{"ticksToEvent":116,"beatsToEvent":0.24166666666666667,"event":{"deltaTime":116,"channel":0,"type":"channel","noteNumber":78,"velocity":0,"subtype":"noteOff"},"track":1},0],[{"ticksToEvent":0,"beatsToEvent":0,"event":{"deltaTime":236,"channel":3,"type":"channel","noteNumber":42,"velocity":0,"subtype":"noteOff"},"track":4},0],[{"ticksToEvent":4,"beatsToEvent":0.008333333333333333,"event":{"deltaTime":4,"channel":0,"type":"channel","noteNumber":76,"velocity":91,"subtype":"noteOn"},"track":1},0],[{"ticksToEvent":0,"beatsToEvent":0,"event":{"deltaTime":4,"channel":3,"type":"channel","noteNumber":54,"velocity":121,"subtype":"noteOn"},"track":4},0],[{"ticksToEvent":116,"beatsToEvent":0.24166666666666667,"event":{"deltaTime":116,"channel":0,"type":"channel","noteNumber":76,"velocity":0,"subtype":"noteOff"},"track":1},0],[{"ticksToEvent":4,"beatsToEvent":0.008333333333333333,"event":{"deltaTime":4,"channel":0,"type":"channel","noteNumber":74,"velocity":93,"subtype":"noteOn"},"track":1},0],[{"ticksToEvent":116,"beatsToEvent":0.24166666666666667,"event":{"deltaTime":116,"channel":0,"type":"channel","noteNumber":74,"velocity":0,"subtype":"noteOff"},"track":1},0],[{"ticksToEvent":0,"beatsToEvent":0,"event":{"deltaTime":236,"channel":3,"type":"channel","noteNumber":54,"velocity":0,"subtype":"noteOff"},"track":4},0],[{"ticksToEvent":4,"beatsToEvent":0.008333333333333333,"event":{"deltaTime":4,"channel":0,"type":"channel","noteNumber":79,"velocity":102,"subtype":"noteOn"},"track":1},0],[{"ticksToEvent":0,"beatsToEvent":0,"event":{"deltaTime":4,"channel":3,"type":"channel","noteNumber":40,"velocity":109,"subtype":"noteOn"},"track":4},0],[{"ticksToEvent":116,"beatsToEvent":0.24166666666666667,"event":{"deltaTime":116,"channel":0,"type":"channel","noteNumber":79,"velocity":0,"subtype":"noteOff"},"track":1},0],[{"ticksToEvent":4,"beatsToEvent":0.008333333333333333,"event":{"deltaTime":4,"channel":0,"type":"channel","noteNumber":74,"velocity":86,"subtype":"noteOn"},"track":1},0],[{"ticksToEvent":116,"beatsToEvent":0.24166666666666667,"event":{"deltaTime":116,"channel":0,"type":"channel","noteNumber":74,"velocity":0,"subtype":"noteOff"},"track":1},0],[{"ticksToEvent":0,"beatsToEvent":0,"event":{"deltaTime":236,"channel":3,"type":"channel","noteNumber":40,"velocity":0,"subtype":"noteOff"},"track":4},0],[{"ticksToEvent":4,"beatsToEvent":0.008333333333333333,"event":{"deltaTime":4,"channel":0,"type":"channel","noteNumber":71,"velocity":90,"subtype":"noteOn"},"track":1},0],[{"ticksToEvent":0,"beatsToEvent":0,"event":{"deltaTime":4,"channel":3,"type":"channel","noteNumber":52,"velocity":113,"subtype":"noteOn"},"track":4},0],[{"ticksToEvent":116,"beatsToEvent":0.24166666666666667,"event":{"deltaTime":116,"channel":0,"type":"channel","noteNumber":71,"velocity":0,"subtype":"noteOff"},"track":1},0],[{"ticksToEvent":4,"beatsToEvent":0.008333333333333333,"event":{"deltaTime":4,"channel":0,"type":"channel","noteNumber":67,"velocity":91,"subtype":"noteOn"},"track":1},0],[{"ticksToEvent":116,"beatsToEvent":0.24166666666666667,"event":{"deltaTime":116,"channel":0,"type":"channel","noteNumber":67,"velocity":0,"subtype":"noteOff"},"track":1},0],[{"ticksToEvent":0,"beatsToEvent":0,"event":{"deltaTime":236,"channel":3,"type":"channel","noteNumber":52,"velocity":0,"subtype":"noteOff"},"track":4},0],[{"ticksToEvent":4,"beatsToEvent":0.008333333333333333,"event":{"deltaTime":4,"channel":0,"type":"channel","noteNumber":64,"velocity":88,"subtype":"noteOn"},"track":1},0],[{"ticksToEvent":0,"beatsToEvent":0,"event":{"deltaTime":4,"channel":3,"type":"channel","noteNumber":55,"velocity":109,"subtype":"noteOn"},"track":4},0],[{"ticksToEvent":116,"beatsToEvent":0.24166666666666667,"event":{"deltaTime":116,"channel":0,"type":"channel","noteNumber":64,"velocity":0,"subtype":"noteOff"},"track":1},0],[{"ticksToEvent":4,"beatsToEvent":0.008333333333333333,"event":{"deltaTime":4,"channel":0,"type":"channel","noteNumber":67,"velocity":73,"subtype":"noteOn"},"track":1},0],[{"ticksToEvent":116,"beatsToEvent":0.24166666666666667,"event":{"deltaTime":116,"channel":0,"type":"channel","noteNumber":67,"velocity":0,"subtype":"noteOff"},"track":1},0],[{"ticksToEvent":0,"beatsToEvent":0,"event":{"deltaTime":236,"channel":3,"type":"channel","noteNumber":55,"velocity":0,"subtype":"noteOff"},"track":4},0],[{"ticksToEvent":4,"beatsToEvent":0.008333333333333333,"event":{"deltaTime":4,"channel":0,"type":"channel","noteNumber":71,"velocity":92,"subtype":"noteOn"},"track":1},0],[{"ticksToEvent":0,"beatsToEvent":0,"event":{"deltaTime":4,"channel":3,"type":"channel","noteNumber":52,"velocity":111,"subtype":"noteOn"},"track":4},0],[{"ticksToEvent":116,"beatsToEvent":0.24166666666666667,"event":{"deltaTime":116,"channel":0,"type":"channel","noteNumber":71,"velocity":0,"subtype":"noteOff"},"track":1},0],[{"ticksToEvent":4,"beatsToEvent":0.008333333333333333,"event":{"deltaTime":4,"channel":0,"type":"channel","noteNumber":74,"velocity":95,"subtype":"noteOn"},"track":1},0],[{"ticksToEvent":116,"beatsToEvent":0.24166666666666667,"event":{"deltaTime":116,"channel":0,"type":"channel","noteNumber":74,"velocity":0,"subtype":"noteOff"},"track":1},0],[{"ticksToEvent":0,"beatsToEvent":0,"event":{"deltaTime":236,"channel":3,"type":"channel","noteNumber":52,"velocity":0,"subtype":"noteOff"},"track":4},0],[{"ticksToEvent":4,"beatsToEvent":0.008333333333333333,"event":{"deltaTime":4,"channel":0,"type":"channel","noteNumber":79,"velocity":102,"subtype":"noteOn"},"track":1},0],[{"ticksToEvent":0,"beatsToEvent":0,"event":{"deltaTime":4,"channel":3,"type":"channel","noteNumber":40,"velocity":109,"subtype":"noteOn"},"track":4},0],[{"ticksToEvent":116,"beatsToEvent":0.24166666666666667,"event":{"deltaTime":116,"channel":0,"type":"channel","noteNumber":79,"velocity":0,"subtype":"noteOff"},"track":1},0],[{"ticksToEvent":4,"beatsToEvent":0.008333333333333333,"event":{"deltaTime":4,"channel":0,"type":"channel","noteNumber":78,"velocity":108,"subtype":"noteOn"},"track":1},0],[{"ticksToEvent":116,"beatsToEvent":0.24166666666666667,"event":{"deltaTime":116,"channel":0,"type":"channel","noteNumber":78,"velocity":0,"subtype":"noteOff"},"track":1},0],[{"ticksToEvent":0,"beatsToEvent":0,"event":{"deltaTime":236,"channel":3,"type":"channel","noteNumber":40,"velocity":0,"subtype":"noteOff"},"track":4},0],[{"ticksToEvent":4,"beatsToEvent":0.008333333333333333,"event":{"deltaTime":4,"channel":0,"type":"channel","noteNumber":76,"velocity":77,"subtype":"noteOn"},"track":1},0],[{"ticksToEvent":0,"beatsToEvent":0,"event":{"deltaTime":4,"channel":3,"type":"channel","noteNumber":55,"velocity":113,"subtype":"noteOn"},"track":4},0],[{"ticksToEvent":116,"beatsToEvent":0.24166666666666667,"event":{"deltaTime":116,"channel":0,"type":"channel","noteNumber":76,"velocity":0,"subtype":"noteOff"},"track":1},0],[{"ticksToEvent":4,"beatsToEvent":0.008333333333333333,"event":{"deltaTime":4,"channel":0,"type":"channel","noteNumber":74,"velocity":67,"subtype":"noteOn"},"track":1},0],[{"ticksToEvent":116,"beatsToEvent":0.24166666666666667,"event":{"deltaTime":116,"channel":0,"type":"channel","noteNumber":74,"velocity":0,"subtype":"noteOff"},"track":1},0],[{"ticksToEvent":0,"beatsToEvent":0,"event":{"deltaTime":236,"channel":3,"type":"channel","noteNumber":55,"velocity":0,"subtype":"noteOff"},"track":4},0],[{"ticksToEvent":4,"beatsToEvent":0.008333333333333333,"event":{"deltaTime":4,"channel":0,"type":"channel","noteNumber":73,"velocity":99,"subtype":"noteOn"},"track":1},0],[{"ticksToEvent":0,"beatsToEvent":0,"event":{"deltaTime":4,"channel":3,"type":"channel","noteNumber":45,"velocity":123,"subtype":"noteOn"},"track":4},0],[{"ticksToEvent":116,"beatsToEvent":0.24166666666666667,"event":{"deltaTime":116,"channel":0,"type":"channel","noteNumber":73,"velocity":0,"subtype":"noteOff"},"track":1},0],[{"ticksToEvent":4,"beatsToEvent":0.008333333333333333,"event":{"deltaTime":4,"channel":0,"type":"channel","noteNumber":67,"velocity":92,"subtype":"noteOn"},"track":1},0],[{"ticksToEvent":116,"beatsToEvent":0.24166666666666667,"event":{"deltaTime":116,"channel":0,"type":"channel","noteNumber":67,"velocity":0,"subtype":"noteOff"},"track":1},0],[{"ticksToEvent":0,"beatsToEvent":0,"event":{"deltaTime":236,"channel":3,"type":"channel","noteNumber":45,"velocity":0,"subtype":"noteOff"},"track":4},0],[{"ticksToEvent":4,"beatsToEvent":0.008333333333333333,"event":{"deltaTime":4,"channel":0,"type":"channel","noteNumber":64,"velocity":95,"subtype":"noteOn"},"track":1},0],[{"ticksToEvent":0,"beatsToEvent":0,"event":{"deltaTime":4,"channel":3,"type":"channel","noteNumber":52,"velocity":113,"subtype":"noteOn"},"track":4},0],[{"ticksToEvent":116,"beatsToEvent":0.24166666666666667,"event":{"deltaTime":116,"channel":0,"type":"channel","noteNumber":64,"velocity":0,"subtype":"noteOff"},"track":1},0],[{"ticksToEvent":4,"beatsToEvent":0.008333333333333333,"event":{"deltaTime":4,"channel":0,"type":"channel","noteNumber":61,"velocity":119,"subtype":"noteOn"},"track":1},0],[{"ticksToEvent":116,"beatsToEvent":0.24166666666666667,"event":{"deltaTime":116,"channel":0,"type":"channel","noteNumber":61,"velocity":0,"subtype":"noteOff"},"track":1},0],[{"ticksToEvent":0,"beatsToEvent":0,"event":{"deltaTime":236,"channel":3,"type":"channel","noteNumber":52,"velocity":0,"subtype":"noteOff"},"track":4},0],[{"ticksToEvent":4,"beatsToEvent":0.008333333333333333,"event":{"deltaTime":4,"channel":0,"type":"channel","noteNumber":57,"velocity":66,"subtype":"noteOn"},"track":1},0],[{"ticksToEvent":0,"beatsToEvent":0,"event":{"deltaTime":4,"channel":3,"type":"channel","noteNumber":55,"velocity":106,"subtype":"noteOn"},"track":4},0],[{"ticksToEvent":116,"beatsToEvent":0.24166666666666667,"event":{"deltaTime":116,"channel":0,"type":"channel","noteNumber":57,"velocity":0,"subtype":"noteOff"},"track":1},0],[{"ticksToEvent":4,"beatsToEvent":0.008333333333333333,"event":{"deltaTime":4,"channel":0,"type":"channel","noteNumber":61,"velocity":119,"subtype":"noteOn"},"track":1},0],[{"ticksToEvent":116,"beatsToEvent":0.24166666666666667,"event":{"deltaTime":116,"channel":0,"type":"channel","noteNumber":61,"velocity":0,"subtype":"noteOff"},"track":1},0],[{"ticksToEvent":0,"beatsToEvent":0,"event":{"deltaTime":236,"channel":3,"type":"channel","noteNumber":55,"velocity":0,"subtype":"noteOff"},"track":4},0],[{"ticksToEvent":4,"beatsToEvent":0.008333333333333333,"event":{"deltaTime":4,"channel":0,"type":"channel","noteNumber":64,"velocity":78,"subtype":"noteOn"},"track":1},0],[{"ticksToEvent":0,"beatsToEvent":0,"event":{"deltaTime":4,"channel":3,"type":"channel","noteNumber":52,"velocity":113,"subtype":"noteOn"},"track":4},0],[{"ticksToEvent":116,"beatsToEvent":0.24166666666666667,"event":{"deltaTime":116,"channel":0,"type":"channel","noteNumber":64,"velocity":0,"subtype":"noteOff"},"track":1},0],[{"ticksToEvent":4,"beatsToEvent":0.008333333333333333,"event":{"deltaTime":4,"channel":0,"type":"channel","noteNumber":67,"velocity":104,"subtype":"noteOn"},"track":1},0],[{"ticksToEvent":116,"beatsToEvent":0.24166666666666667,"event":{"deltaTime":116,"channel":0,"type":"channel","noteNumber":67,"velocity":0,"subtype":"noteOff"},"track":1},0],[{"ticksToEvent":0,"beatsToEvent":0,"event":{"deltaTime":236,"channel":3,"type":"channel","noteNumber":52,"velocity":0,"subtype":"noteOff"},"track":4},0],[{"ticksToEvent":4,"beatsToEvent":0.008333333333333333,"event":{"deltaTime":4,"channel":0,"type":"channel","noteNumber":73,"velocity":104,"subtype":"noteOn"},"track":1},0],[{"ticksToEvent":0,"beatsToEvent":0,"event":{"deltaTime":4,"channel":3,"type":"channel","noteNumber":45,"velocity":115,"subtype":"noteOn"},"track":4},0],[{"ticksToEvent":116,"beatsToEvent":0.24166666666666667,"event":{"deltaTime":116,"channel":0,"type":"channel","noteNumber":73,"velocity":0,"subtype":"noteOff"},"track":1},0],[{"ticksToEvent":4,"beatsToEvent":0.008333333333333333,"event":{"deltaTime":4,"channel":0,"type":"channel","noteNumber":76,"velocity":109,"subtype":"noteOn"},"track":1},0],[{"ticksToEvent":116,"beatsToEvent":0.24166666666666667,"event":{"deltaTime":116,"channel":0,"type":"channel","noteNumber":76,"velocity":0,"subtype":"noteOff"},"track":1},0],[{"ticksToEvent":0,"beatsToEvent":0,"event":{"deltaTime":236,"channel":3,"type":"channel","noteNumber":45,"velocity":0,"subtype":"noteOff"},"track":4},0],[{"ticksToEvent":4,"beatsToEvent":0.008333333333333333,"event":{"deltaTime":4,"channel":0,"type":"channel","noteNumber":74,"velocity":97,"subtype":"noteOn"},"track":1},0],[{"ticksToEvent":0,"beatsToEvent":0,"event":{"deltaTime":4,"channel":3,"type":"channel","noteNumber":55,"velocity":119,"subtype":"noteOn"},"track":4},0],[{"ticksToEvent":116,"beatsToEvent":0.24166666666666667,"event":{"deltaTime":116,"channel":0,"type":"channel","noteNumber":74,"velocity":0,"subtype":"noteOff"},"track":1},0],[{"ticksToEvent":4,"beatsToEvent":0.008333333333333333,"event":{"deltaTime":4,"channel":0,"type":"channel","noteNumber":73,"velocity":110,"subtype":"noteOn"},"track":1},0],[{"ticksToEvent":116,"beatsToEvent":0.24166666666666667,"event":{"deltaTime":116,"channel":0,"type":"channel","noteNumber":73,"velocity":0,"subtype":"noteOff"},"track":1},0],[{"ticksToEvent":0,"beatsToEvent":0,"event":{"deltaTime":236,"channel":3,"type":"channel","noteNumber":55,"velocity":0,"subtype":"noteOff"},"track":4},0],[{"ticksToEvent":4,"beatsToEvent":0.008333333333333333,"event":{"deltaTime":4,"channel":0,"type":"channel","noteNumber":74,"velocity":113,"subtype":"noteOn"},"track":1},0],[{"ticksToEvent":0,"beatsToEvent":0,"event":{"deltaTime":4,"channel":3,"type":"channel","noteNumber":54,"velocity":108,"subtype":"noteOn"},"track":4},0],[{"ticksToEvent":116,"beatsToEvent":0.24166666666666667,"event":{"deltaTime":116,"channel":3,"type":"channel","noteNumber":54,"velocity":0,"subtype":"noteOff"},"track":4},0],[{"ticksToEvent":4,"beatsToEvent":0.008333333333333333,"event":{"deltaTime":4,"channel":3,"type":"channel","noteNumber":57,"velocity":91,"subtype":"noteOn"},"track":4},0],[{"ticksToEvent":116,"beatsToEvent":0.24166666666666667,"event":{"deltaTime":116,"channel":3,"type":"channel","noteNumber":57,"velocity":0,"subtype":"noteOff"},"track":4},0],[{"ticksToEvent":4,"beatsToEvent":0.008333333333333333,"event":{"deltaTime":240,"channel":0,"type":"channel","noteNumber":74,"velocity":0,"subtype":"noteOff"},"track":1},0],[{"ticksToEvent":0,"beatsToEvent":0,"event":{"deltaTime":0,"channel":0,"type":"channel","noteNumber":54,"velocity":115,"subtype":"noteOn"},"track":1},0],[{"ticksToEvent":0,"beatsToEvent":0,"event":{"deltaTime":4,"channel":3,"type":"channel","noteNumber":62,"velocity":107,"subtype":"noteOn"},"track":4},0],[{"ticksToEvent":116,"beatsToEvent":0.24166666666666667,"event":{"deltaTime":116,"channel":3,"type":"channel","noteNumber":62,"velocity":0,"subtype":"noteOff"},"track":4},0],[{"ticksToEvent":4,"beatsToEvent":0.008333333333333333,"event":{"deltaTime":4,"channel":3,"type":"channel","noteNumber":66,"velocity":93,"subtype":"noteOn"},"track":4},0],[{"ticksToEvent":116,"beatsToEvent":0.24166666666666667,"event":{"deltaTime":116,"channel":3,"type":"channel","noteNumber":66,"velocity":0,"subtype":"noteOff"},"track":4},0],[{"ticksToEvent":4,"beatsToEvent":0.008333333333333333,"event":{"deltaTime":240,"channel":0,"type":"channel","noteNumber":54,"velocity":0,"subtype":"noteOff"},"track":1},0],[{"ticksToEvent":0,"beatsToEvent":0,"event":{"deltaTime":0,"channel":0,"type":"channel","noteNumber":54,"velocity":115,"subtype":"noteOn"},"track":1},0],[{"ticksToEvent":0,"beatsToEvent":0,"event":{"deltaTime":4,"channel":3,"type":"channel","noteNumber":69,"velocity":84,"subtype":"noteOn"},"track":4},0],[{"ticksToEvent":116,"beatsToEvent":0.24166666666666667,"event":{"deltaTime":116,"channel":3,"type":"channel","noteNumber":69,"velocity":0,"subtype":"noteOff"},"track":4},0],[{"ticksToEvent":4,"beatsToEvent":0.008333333333333333,"event":{"deltaTime":4,"channel":3,"type":"channel","noteNumber":66,"velocity":84,"subtype":"noteOn"},"track":4},0],[{"ticksToEvent":116,"beatsToEvent":0.24166666666666667,"event":{"deltaTime":116,"channel":3,"type":"channel","noteNumber":66,"velocity":0,"subtype":"noteOff"},"track":4},0],[{"ticksToEvent":4,"beatsToEvent":0.008333333333333333,"event":{"deltaTime":240,"channel":0,"type":"channel","noteNumber":54,"velocity":0,"subtype":"noteOff"},"track":1},0],[{"ticksToEvent":0,"beatsToEvent":0,"event":{"deltaTime":0,"channel":0,"type":"channel","noteNumber":69,"velocity":100,"subtype":"noteOn"},"track":1},0],[{"ticksToEvent":0,"beatsToEvent":0,"event":{"deltaTime":4,"channel":3,"type":"channel","noteNumber":62,"velocity":88,"subtype":"noteOn"},"track":4},0],[{"ticksToEvent":116,"beatsToEvent":0.24166666666666667,"event":{"deltaTime":116,"channel":3,"type":"channel","noteNumber":62,"velocity":0,"subtype":"noteOff"},"track":4},0],[{"ticksToEvent":4,"beatsToEvent":0.008333333333333333,"event":{"deltaTime":4,"channel":3,"type":"channel","noteNumber":57,"velocity":84,"subtype":"noteOn"},"track":4},0],[{"ticksToEvent":116,"beatsToEvent":0.24166666666666667,"event":{"deltaTime":236,"channel":0,"type":"channel","noteNumber":69,"velocity":0,"subtype":"noteOff"},"track":1},0],[{"ticksToEvent":0,"beatsToEvent":0,"event":{"deltaTime":116,"channel":3,"type":"channel","noteNumber":57,"velocity":0,"subtype":"noteOff"},"track":4},0],[{"ticksToEvent":4,"beatsToEvent":0.008333333333333333,"event":{"deltaTime":4,"channel":0,"type":"channel","noteNumber":74,"velocity":109,"subtype":"noteOn"},"track":1},0],[{"ticksToEvent":0,"beatsToEvent":0,"event":{"deltaTime":4,"channel":3,"type":"channel","noteNumber":54,"velocity":84,"subtype":"noteOn"},"track":4},0],[{"ticksToEvent":116,"beatsToEvent":0.24166666666666667,"event":{"deltaTime":116,"channel":3,"type":"channel","noteNumber":54,"velocity":0,"subtype":"noteOff"},"track":4},0],[{"ticksToEvent":4,"beatsToEvent":0.008333333333333333,"event":{"deltaTime":4,"channel":3,"type":"channel","noteNumber":57,"velocity":75,"subtype":"noteOn"},"track":4},0],[{"ticksToEvent":116,"beatsToEvent":0.24166666666666667,"event":{"deltaTime":236,"channel":0,"type":"channel","noteNumber":74,"velocity":0,"subtype":"noteOff"},"track":1},0],[{"ticksToEvent":0,"beatsToEvent":0,"event":{"deltaTime":116,"channel":3,"type":"channel","noteNumber":57,"velocity":0,"subtype":"noteOff"},"track":4},0],[{"ticksToEvent":4,"beatsToEvent":0.008333333333333333,"event":{"deltaTime":4,"channel":0,"type":"channel","noteNumber":78,"velocity":115,"subtype":"noteOn"},"track":1},0],[{"ticksToEvent":0,"beatsToEvent":0,"event":{"deltaTime":4,"channel":3,"type":"channel","noteNumber":50,"velocity":97,"subtype":"noteOn"},"track":4},0],[{"ticksToEvent":116,"beatsToEvent":0.24166666666666667,"event":{"deltaTime":116,"channel":3,"type":"channel","noteNumber":50,"velocity":0,"subtype":"noteOff"},"track":4},0],[{"ticksToEvent":4,"beatsToEvent":0.008333333333333333,"event":{"deltaTime":4,"channel":3,"type":"channel","noteNumber":54,"velocity":95,"subtype":"noteOn"},"track":4},0],[{"ticksToEvent":116,"beatsToEvent":0.24166666666666667,"event":{"deltaTime":116,"channel":3,"type":"channel","noteNumber":54,"velocity":0,"subtype":"noteOff"},"track":4},0],[{"ticksToEvent":4,"beatsToEvent":0.008333333333333333,"event":{"deltaTime":240,"channel":0,"type":"channel","noteNumber":78,"velocity":0,"subtype":"noteOff"},"track":1},0],[{"ticksToEvent":0,"beatsToEvent":0,"event":{"deltaTime":0,"channel":0,"type":"channel","noteNumber":71,"velocity":115,"subtype":"noteOn"},"track":1},0],[{"ticksToEvent":0,"beatsToEvent":0,"event":{"deltaTime":4,"channel":3,"type":"channel","noteNumber":55,"velocity":115,"subtype":"noteOn"},"track":4},0],[{"ticksToEvent":116,"beatsToEvent":0.24166666666666667,"event":{"deltaTime":116,"channel":3,"type":"channel","noteNumber":55,"velocity":0,"subtype":"noteOff"},"track":4},0],[{"ticksToEvent":4,"beatsToEvent":0.008333333333333333,"event":{"deltaTime":4,"channel":3,"type":"channel","noteNumber":59,"velocity":115,"subtype":"noteOn"},"track":4},0],[{"ticksToEvent":116,"beatsToEvent":0.24166666666666667,"event":{"deltaTime":116,"channel":3,"type":"channel","noteNumber":59,"velocity":0,"subtype":"noteOff"},"track":4},0],[{"ticksToEvent":4,"beatsToEvent":0.008333333333333333,"event":{"deltaTime":240,"channel":0,"type":"channel","noteNumber":71,"velocity":0,"subtype":"noteOff"},"track":1},0],[{"ticksToEvent":0,"beatsToEvent":0,"event":{"deltaTime":0,"channel":0,"type":"channel","noteNumber":55,"velocity":115,"subtype":"noteOn"},"track":1},0],[{"ticksToEvent":0,"beatsToEvent":0,"event":{"deltaTime":4,"channel":3,"type":"channel","noteNumber":62,"velocity":115,"subtype":"noteOn"},"track":4},0],[{"ticksToEvent":116,"beatsToEvent":0.24166666666666667,"event":{"deltaTime":116,"channel":3,"type":"channel","noteNumber":62,"velocity":0,"subtype":"noteOff"},"track":4},0],[{"ticksToEvent":4,"beatsToEvent":0.008333333333333333,"event":{"deltaTime":4,"channel":3,"type":"channel","noteNumber":67,"velocity":115,"subtype":"noteOn"},"track":4},0],[{"ticksToEvent":116,"beatsToEvent":0.24166666666666667,"event":{"deltaTime":116,"channel":3,"type":"channel","noteNumber":67,"velocity":0,"subtype":"noteOff"},"track":4},0],[{"ticksToEvent":4,"beatsToEvent":0.008333333333333333,"event":{"deltaTime":240,"channel":0,"type":"channel","noteNumber":55,"velocity":0,"subtype":"noteOff"},"track":1},0],[{"ticksToEvent":0,"beatsToEvent":0,"event":{"deltaTime":0,"channel":0,"type":"channel","noteNumber":55,"velocity":115,"subtype":"noteOn"},"track":1},0],[{"ticksToEvent":0,"beatsToEvent":0,"event":{"deltaTime":4,"channel":3,"type":"channel","noteNumber":71,"velocity":115,"subtype":"noteOn"},"track":4},0],[{"ticksToEvent":116,"beatsToEvent":0.24166666666666667,"event":{"deltaTime":116,"channel":3,"type":"channel","noteNumber":71,"velocity":0,"subtype":"noteOff"},"track":4},0],[{"ticksToEvent":4,"beatsToEvent":0.008333333333333333,"event":{"deltaTime":4,"channel":3,"type":"channel","noteNumber":67,"velocity":115,"subtype":"noteOn"},"track":4},0],[{"ticksToEvent":116,"beatsToEvent":0.24166666666666667,"event":{"deltaTime":116,"channel":3,"type":"channel","noteNumber":67,"velocity":0,"subtype":"noteOff"},"track":4},0],[{"ticksToEvent":4,"beatsToEvent":0.008333333333333333,"event":{"deltaTime":240,"channel":0,"type":"channel","noteNumber":55,"velocity":0,"subtype":"noteOff"},"track":1},0],[{"ticksToEvent":0,"beatsToEvent":0,"event":{"deltaTime":0,"channel":0,"type":"channel","noteNumber":71,"velocity":115,"subtype":"noteOn"},"track":1},0],[{"ticksToEvent":0,"beatsToEvent":0,"event":{"deltaTime":4,"channel":3,"type":"channel","noteNumber":62,"velocity":115,"subtype":"noteOn"},"track":4},0],[{"ticksToEvent":116,"beatsToEvent":0.24166666666666667,"event":{"deltaTime":116,"channel":3,"type":"channel","noteNumber":62,"velocity":0,"subtype":"noteOff"},"track":4},0],[{"ticksToEvent":4,"beatsToEvent":0.008333333333333333,"event":{"deltaTime":4,"channel":3,"type":"channel","noteNumber":59,"velocity":115,"subtype":"noteOn"},"track":4},0],[{"ticksToEvent":116,"beatsToEvent":0.24166666666666667,"event":{"deltaTime":116,"channel":3,"type":"channel","noteNumber":59,"velocity":0,"subtype":"noteOff"},"track":4},0],[{"ticksToEvent":4,"beatsToEvent":0.008333333333333333,"event":{"deltaTime":240,"channel":0,"type":"channel","noteNumber":71,"velocity":0,"subtype":"noteOff"},"track":1},0],[{"ticksToEvent":0,"beatsToEvent":0,"event":{"deltaTime":0,"channel":0,"type":"channel","noteNumber":76,"velocity":115,"subtype":"noteOn"},"track":1},0],[{"ticksToEvent":0,"beatsToEvent":0,"event":{"deltaTime":4,"channel":3,"type":"channel","noteNumber":55,"velocity":115,"subtype":"noteOn"},"track":4},0],[{"ticksToEvent":116,"beatsToEvent":0.24166666666666667,"event":{"deltaTime":116,"channel":3,"type":"channel","noteNumber":55,"velocity":0,"subtype":"noteOff"},"track":4},0],[{"ticksToEvent":4,"beatsToEvent":0.008333333333333333,"event":{"deltaTime":4,"channel":3,"type":"channel","noteNumber":59,"velocity":115,"subtype":"noteOn"},"track":4},0],[{"ticksToEvent":116,"beatsToEvent":0.24166666666666667,"event":{"deltaTime":116,"channel":3,"type":"channel","noteNumber":59,"velocity":0,"subtype":"noteOff"},"track":4},0],[{"ticksToEvent":4,"beatsToEvent":0.008333333333333333,"event":{"deltaTime":240,"channel":0,"type":"channel","noteNumber":76,"velocity":0,"subtype":"noteOff"},"track":1},0],[{"ticksToEvent":0,"beatsToEvent":0,"event":{"deltaTime":0,"channel":0,"type":"channel","noteNumber":79,"velocity":115,"subtype":"noteOn"},"track":1},0],[{"ticksToEvent":0,"beatsToEvent":0,"event":{"deltaTime":4,"channel":3,"type":"channel","noteNumber":52,"velocity":115,"subtype":"noteOn"},"track":4},0],[{"ticksToEvent":116,"beatsToEvent":0.24166666666666667,"event":{"deltaTime":116,"channel":3,"type":"channel","noteNumber":52,"velocity":0,"subtype":"noteOff"},"track":4},0],[{"ticksToEvent":4,"beatsToEvent":0.008333333333333333,"event":{"deltaTime":4,"channel":3,"type":"channel","noteNumber":55,"velocity":115,"subtype":"noteOn"},"track":4},0],[{"ticksToEvent":116,"beatsToEvent":0.24166666666666667,"event":{"deltaTime":116,"channel":3,"type":"channel","noteNumber":55,"velocity":0,"subtype":"noteOff"},"track":4},0],[{"ticksToEvent":4,"beatsToEvent":0.008333333333333333,"event":{"deltaTime":240,"channel":0,"type":"channel","noteNumber":79,"velocity":0,"subtype":"noteOff"},"track":1},0],[{"ticksToEvent":0,"beatsToEvent":0,"event":{"deltaTime":0,"channel":0,"type":"channel","noteNumber":73,"velocity":127,"subtype":"noteOn"},"track":1},0],[{"ticksToEvent":0,"beatsToEvent":0,"event":{"deltaTime":4,"channel":3,"type":"channel","noteNumber":57,"velocity":115,"subtype":"noteOn"},"track":4},0],[{"ticksToEvent":120,"beatsToEvent":0.25,"event":{"deltaTime":120,"channel":0,"type":"channel","noteNumber":76,"velocity":96,"subtype":"noteOn"},"track":1},0],[{"ticksToEvent":8,"beatsToEvent":0.016666666666666666,"event":{"deltaTime":8,"channel":0,"type":"channel","noteNumber":73,"velocity":0,"subtype":"noteOff"},"track":1},0],[{"ticksToEvent":92,"beatsToEvent":0.19166666666666668,"event":{"deltaTime":92,"channel":0,"type":"channel","noteNumber":76,"velocity":0,"subtype":"noteOff"},"track":1},0],[{"ticksToEvent":16,"beatsToEvent":0.03333333333333333,"event":{"deltaTime":236,"channel":3,"type":"channel","noteNumber":57,"velocity":0,"subtype":"noteOff"},"track":4},0],[{"ticksToEvent":4,"beatsToEvent":0.008333333333333333,"event":{"deltaTime":20,"channel":0,"type":"channel","noteNumber":69,"velocity":92,"subtype":"noteOn"},"track":1},0],[{"ticksToEvent":0,"beatsToEvent":0,"event":{"deltaTime":4,"channel":3,"type":"channel","noteNumber":61,"velocity":115,"subtype":"noteOn"},"track":4},0],[{"ticksToEvent":120,"beatsToEvent":0.25,"event":{"deltaTime":120,"channel":0,"type":"channel","noteNumber":67,"velocity":90,"subtype":"noteOn"},"track":1},0],[{"ticksToEvent":4,"beatsToEvent":0.008333333333333333,"event":{"deltaTime":4,"channel":0,"type":"channel","noteNumber":69,"velocity":0,"subtype":"noteOff"},"track":1},0],[{"ticksToEvent":112,"beatsToEvent":0.23333333333333334,"event":{"deltaTime":236,"channel":3,"type":"channel","noteNumber":61,"velocity":0,"subtype":"noteOff"},"track":4},0],[{"ticksToEvent":4,"beatsToEvent":0.008333333333333333,"event":{"deltaTime":116,"channel":0,"type":"channel","noteNumber":66,"velocity":104,"subtype":"noteOn"},"track":1},0],[{"ticksToEvent":0,"beatsToEvent":0,"event":{"deltaTime":4,"channel":3,"type":"channel","noteNumber":62,"velocity":115,"subtype":"noteOn"},"track":4},0],[{"ticksToEvent":12,"beatsToEvent":0.025,"event":{"deltaTime":12,"channel":0,"type":"channel","noteNumber":67,"velocity":0,"subtype":"noteOff"},"track":1},0],[{"ticksToEvent":92,"beatsToEvent":0.19166666666666668,"event":{"deltaTime":92,"channel":0,"type":"channel","noteNumber":66,"velocity":0,"subtype":"noteOff"},"track":1},0],[{"ticksToEvent":12,"beatsToEvent":0.025,"event":{"deltaTime":116,"channel":3,"type":"channel","noteNumber":62,"velocity":0,"subtype":"noteOff"},"track":4},0],[{"ticksToEvent":4,"beatsToEvent":0.008333333333333333,"event":{"deltaTime":16,"channel":0,"type":"channel","noteNumber":69,"velocity":96,"subtype":"noteOn"},"track":1},0],[{"ticksToEvent":0,"beatsToEvent":0,"event":{"deltaTime":4,"channel":3,"type":"channel","noteNumber":57,"velocity":115,"subtype":"noteOn"},"track":4},0],[{"ticksToEvent":116,"beatsToEvent":0.24166666666666667,"event":{"deltaTime":116,"channel":3,"type":"channel","noteNumber":57,"velocity":0,"subtype":"noteOff"},"track":4},0],[{"ticksToEvent":4,"beatsToEvent":0.008333333333333333,"event":{"deltaTime":120,"channel":0,"type":"channel","noteNumber":69,"velocity":0,"subtype":"noteOff"},"track":1},0],[{"ticksToEvent":0,"beatsToEvent":0,"event":{"deltaTime":0,"channel":0,"type":"channel","noteNumber":74,"velocity":95,"subtype":"noteOn"},"track":1},0],[{"ticksToEvent":0,"beatsToEvent":0,"event":{"deltaTime":4,"channel":3,"type":"channel","noteNumber":54,"velocity":115,"subtype":"noteOn"},"track":4},0],[{"ticksToEvent":116,"beatsToEvent":0.24166666666666667,"event":{"deltaTime":116,"channel":3,"type":"channel","noteNumber":54,"velocity":0,"subtype":"noteOff"},"track":4},0],[{"ticksToEvent":4,"beatsToEvent":0.008333333333333333,"event":{"deltaTime":120,"channel":0,"type":"channel","noteNumber":74,"velocity":0,"subtype":"noteOff"},"track":1},0],[{"ticksToEvent":0,"beatsToEvent":0,"event":{"deltaTime":0,"channel":0,"type":"channel","noteNumber":78,"velocity":94,"subtype":"noteOn"},"track":1},0],[{"ticksToEvent":0,"beatsToEvent":0,"event":{"deltaTime":4,"channel":3,"type":"channel","noteNumber":50,"velocity":115,"subtype":"noteOn"},"track":4},0],[{"ticksToEvent":116,"beatsToEvent":0.24166666666666667,"event":{"deltaTime":116,"channel":0,"type":"channel","noteNumber":78,"velocity":0,"subtype":"noteOff"},"track":1},0],[{"ticksToEvent":0,"beatsToEvent":0,"event":{"deltaTime":116,"channel":3,"type":"channel","noteNumber":50,"velocity":0,"subtype":"noteOff"},"track":4},0],[{"ticksToEvent":4,"beatsToEvent":0.008333333333333333,"event":{"deltaTime":4,"channel":0,"type":"channel","noteNumber":79,"velocity":104,"subtype":"noteOn"},"track":1},0],[{"ticksToEvent":0,"beatsToEvent":0,"event":{"deltaTime":4,"channel":3,"type":"channel","noteNumber":57,"velocity":115,"subtype":"noteOn"},"track":4},0],[{"ticksToEvent":120,"beatsToEvent":0.25,"event":{"deltaTime":120,"channel":0,"type":"channel","noteNumber":76,"velocity":98,"subtype":"noteOn"},"track":1},0],[{"ticksToEvent":20,"beatsToEvent":0.041666666666666664,"event":{"deltaTime":20,"channel":0,"type":"channel","noteNumber":79,"velocity":0,"subtype":"noteOff"},"track":1},0],[{"ticksToEvent":96,"beatsToEvent":0.2,"event":{"deltaTime":236,"channel":3,"type":"channel","noteNumber":57,"velocity":0,"subtype":"noteOff"},"track":4},0],[{"ticksToEvent":4,"beatsToEvent":0.008333333333333333,"event":{"deltaTime":100,"channel":0,"type":"channel","noteNumber":74,"velocity":93,"subtype":"noteOn"},"track":1},0],[{"ticksToEvent":0,"beatsToEvent":0,"event":{"deltaTime":4,"channel":3,"type":"channel","noteNumber":45,"velocity":115,"subtype":"noteOn"},"track":4},0],[{"ticksToEvent":8,"beatsToEvent":0.016666666666666666,"event":{"deltaTime":8,"channel":0,"type":"channel","noteNumber":76,"velocity":0,"subtype":"noteOff"},"track":1},0],[{"ticksToEvent":112,"beatsToEvent":0.23333333333333334,"event":{"deltaTime":112,"channel":0,"type":"channel","noteNumber":73,"velocity":90,"subtype":"noteOn"},"track":1},0],[{"ticksToEvent":12,"beatsToEvent":0.025,"event":{"deltaTime":12,"channel":0,"type":"channel","noteNumber":74,"velocity":0,"subtype":"noteOff"},"track":1},0],[{"ticksToEvent":104,"beatsToEvent":0.21666666666666667,"event":{"deltaTime":236,"channel":3,"type":"channel","noteNumber":45,"velocity":0,"subtype":"noteOff"},"track":4},0],[{"ticksToEvent":4,"beatsToEvent":0.008333333333333333,"event":{"deltaTime":108,"channel":0,"type":"channel","noteNumber":78,"velocity":92,"subtype":"noteOn"},"track":1},0],[{"ticksToEvent":0,"beatsToEvent":0,"event":{"deltaTime":4,"channel":3,"type":"channel","noteNumber":38,"velocity":115,"subtype":"noteOn"},"track":4},0],[{"ticksToEvent":12,"beatsToEvent":0.025,"event":{"deltaTime":12,"channel":0,"type":"channel","noteNumber":73,"velocity":0,"subtype":"noteOff"},"track":1},0],[{"ticksToEvent":104,"beatsToEvent":0.21666666666666667,"event":{"deltaTime":116,"channel":3,"type":"channel","noteNumber":38,"velocity":0,"subtype":"noteOff"},"track":4},0],[{"ticksToEvent":4,"beatsToEvent":0.008333333333333333,"event":{"deltaTime":108,"channel":0,"type":"channel","noteNumber":74,"velocity":67,"subtype":"noteOn"},"track":1},0],[{"ticksToEvent":0,"beatsToEvent":0,"event":{"deltaTime":4,"channel":3,"type":"channel","noteNumber":50,"velocity":115,"subtype":"noteOn"},"track":4},0],[{"ticksToEvent":4,"beatsToEvent":0.008333333333333333,"event":{"deltaTime":4,"channel":0,"type":"channel","noteNumber":78,"velocity":0,"subtype":"noteOff"},"track":1},0],[{"ticksToEvent":112,"beatsToEvent":0.23333333333333334,"event":{"deltaTime":116,"channel":3,"type":"channel","noteNumber":50,"velocity":0,"subtype":"noteOff"},"track":4},0],[{"ticksToEvent":4,"beatsToEvent":0.008333333333333333,"event":{"deltaTime":116,"channel":0,"type":"channel","noteNumber":73,"velocity":90,"subtype":"noteOn"},"track":1},0],[{"ticksToEvent":0,"beatsToEvent":0,"event":{"deltaTime":4,"channel":3,"type":"channel","noteNumber":52,"velocity":115,"subtype":"noteOn"},"track":4},0],[{"ticksToEvent":8,"beatsToEvent":0.016666666666666666,"event":{"deltaTime":8,"channel":0,"type":"channel","noteNumber":74,"velocity":0,"subtype":"noteOff"},"track":1},0],[{"ticksToEvent":108,"beatsToEvent":0.225,"event":{"deltaTime":116,"channel":3,"type":"channel","noteNumber":52,"velocity":0,"subtype":"noteOff"},"track":4},0],[{"ticksToEvent":4,"beatsToEvent":0.008333333333333333,"event":{"deltaTime":112,"channel":0,"type":"channel","noteNumber":71,"velocity":80,"subtype":"noteOn"},"track":1},0],[{"ticksToEvent":0,"beatsToEvent":0,"event":{"deltaTime":4,"channel":3,"type":"channel","noteNumber":54,"velocity":115,"subtype":"noteOn"},"track":4},0],[{"ticksToEvent":20,"beatsToEvent":0.041666666666666664,"event":{"deltaTime":20,"channel":0,"type":"channel","noteNumber":73,"velocity":0,"subtype":"noteOff"},"track":1},0],[{"ticksToEvent":96,"beatsToEvent":0.2,"event":{"deltaTime":116,"channel":3,"type":"channel","noteNumber":54,"velocity":0,"subtype":"noteOff"},"track":4},0],[{"ticksToEvent":4,"beatsToEvent":0.008333333333333333,"event":{"deltaTime":100,"channel":0,"type":"channel","noteNumber":69,"velocity":83,"subtype":"noteOn"},"track":1},0],[{"ticksToEvent":0,"beatsToEvent":0,"event":{"deltaTime":4,"channel":3,"type":"channel","noteNumber":55,"velocity":115,"subtype":"noteOn"},"track":4},0],[{"ticksToEvent":4,"beatsToEvent":0.008333333333333333,"event":{"deltaTime":4,"channel":0,"type":"channel","noteNumber":71,"velocity":0,"subtype":"noteOff"},"track":1},0],[{"ticksToEvent":112,"beatsToEvent":0.23333333333333334,"event":{"deltaTime":116,"channel":3,"type":"channel","noteNumber":55,"velocity":0,"subtype":"noteOff"},"track":4},0],[{"ticksToEvent":4,"beatsToEvent":0.008333333333333333,"event":{"deltaTime":116,"channel":0,"type":"channel","noteNumber":67,"velocity":89,"subtype":"noteOn"},"track":1},0],[{"ticksToEvent":0,"beatsToEvent":0,"event":{"deltaTime":4,"channel":3,"type":"channel","noteNumber":57,"velocity":115,"subtype":"noteOn"},"track":4},0],[{"ticksToEvent":8,"beatsToEvent":0.016666666666666666,"event":{"deltaTime":8,"channel":0,"type":"channel","noteNumber":69,"velocity":0,"subtype":"noteOff"},"track":1},0],[{"ticksToEvent":108,"beatsToEvent":0.225,"event":{"deltaTime":116,"channel":3,"type":"channel","noteNumber":57,"velocity":0,"subtype":"noteOff"},"track":4},0],[{"ticksToEvent":4,"beatsToEvent":0.008333333333333333,"event":{"deltaTime":112,"channel":0,"type":"channel","noteNumber":66,"velocity":106,"subtype":"noteOn"},"track":1},0],[{"ticksToEvent":0,"beatsToEvent":0,"event":{"deltaTime":4,"channel":3,"type":"channel","noteNumber":59,"velocity":115,"subtype":"noteOn"},"track":4},0],[{"ticksToEvent":36,"beatsToEvent":0.075,"event":{"deltaTime":36,"channel":0,"type":"channel","noteNumber":67,"velocity":0,"subtype":"noteOff"},"track":1},0],[{"ticksToEvent":80,"beatsToEvent":0.16666666666666666,"event":{"deltaTime":116,"channel":3,"type":"channel","noteNumber":59,"velocity":0,"subtype":"noteOff"},"track":4},0],[{"ticksToEvent":4,"beatsToEvent":0.008333333333333333,"event":{"deltaTime":84,"channel":0,"type":"channel","noteNumber":66,"velocity":0,"subtype":"noteOff"},"track":1},0],[{"ticksToEvent":0,"beatsToEvent":0,"event":{"deltaTime":0,"channel":0,"type":"channel","noteNumber":64,"velocity":89,"subtype":"noteOn"},"track":1},0],[{"ticksToEvent":0,"beatsToEvent":0,"event":{"deltaTime":4,"channel":3,"type":"channel","noteNumber":61,"velocity":115,"subtype":"noteOn"},"track":4},0],[{"ticksToEvent":116,"beatsToEvent":0.24166666666666667,"event":{"deltaTime":116,"channel":3,"type":"channel","noteNumber":61,"velocity":0,"subtype":"noteOff"},"track":4},0],[{"ticksToEvent":4,"beatsToEvent":0.008333333333333333,"event":{"deltaTime":120,"channel":0,"type":"channel","noteNumber":64,"velocity":0,"subtype":"noteOff"},"track":1},0],[{"ticksToEvent":0,"beatsToEvent":0,"event":{"deltaTime":0,"channel":0,"type":"channel","noteNumber":62,"velocity":107,"subtype":"noteOn"},"track":1},0],[{"ticksToEvent":0,"beatsToEvent":0,"event":{"deltaTime":4,"channel":3,"type":"channel","noteNumber":62,"velocity":115,"subtype":"noteOn"},"track":4},0],[{"ticksToEvent":476,"beatsToEvent":0.9916666666666667,"event":{"deltaTime":476,"channel":0,"type":"channel","noteNumber":62,"velocity":0,"subtype":"noteOff"},"track":1},0],[{"ticksToEvent":0,"beatsToEvent":0,"event":{"deltaTime":476,"channel":3,"type":"channel","noteNumber":62,"velocity":0,"subtype":"noteOff"},"track":4},0],[{"ticksToEvent":4,"beatsToEvent":0.008333333333333333,"event":{"deltaTime":4,"channel":0,"type":"channel","noteNumber":78,"velocity":102,"subtype":"noteOn"},"track":1},0],[{"ticksToEvent":0,"beatsToEvent":0,"event":{"deltaTime":4,"channel":3,"type":"channel","noteNumber":38,"velocity":126,"subtype":"noteOn"},"track":4},0],[{"ticksToEvent":120,"beatsToEvent":0.25,"event":{"deltaTime":120,"channel":0,"type":"channel","noteNumber":78,"velocity":0,"subtype":"noteOff"},"track":1},0],[{"ticksToEvent":0,"beatsToEvent":0,"event":{"deltaTime":0,"channel":0,"type":"channel","noteNumber":79,"velocity":82,"subtype":"noteOn"},"track":1},0],[{"ticksToEvent":116,"beatsToEvent":0.24166666666666667,"event":{"deltaTime":236,"channel":3,"type":"channel","noteNumber":38,"velocity":0,"subtype":"noteOff"},"track":4},0],[{"ticksToEvent":4,"beatsToEvent":0.008333333333333333,"event":{"deltaTime":120,"channel":0,"type":"channel","noteNumber":79,"velocity":0,"subtype":"noteOff"},"track":1},0],[{"ticksToEvent":0,"beatsToEvent":0,"event":{"deltaTime":0,"channel":0,"type":"channel","noteNumber":81,"velocity":102,"subtype":"noteOn"},"track":1},0],[{"ticksToEvent":0,"beatsToEvent":0,"event":{"deltaTime":4,"channel":3,"type":"channel","noteNumber":54,"velocity":127,"subtype":"noteOn"},"track":4},0],[{"ticksToEvent":116,"beatsToEvent":0.24166666666666667,"event":{"deltaTime":116,"channel":3,"type":"channel","noteNumber":54,"velocity":0,"subtype":"noteOff"},"track":4},0],[{"ticksToEvent":4,"beatsToEvent":0.008333333333333333,"event":{"deltaTime":4,"channel":3,"type":"channel","noteNumber":52,"velocity":117,"subtype":"noteOn"},"track":4},0],[{"ticksToEvent":116,"beatsToEvent":0.24166666666666667,"event":{"deltaTime":116,"channel":3,"type":"channel","noteNumber":52,"velocity":0,"subtype":"noteOff"},"track":4},0],[{"ticksToEvent":4,"beatsToEvent":0.008333333333333333,"event":{"deltaTime":4,"channel":3,"type":"channel","noteNumber":54,"velocity":117,"subtype":"noteOn"},"track":4},0],[{"ticksToEvent":132,"beatsToEvent":0.275,"event":{"deltaTime":372,"channel":0,"type":"channel","noteNumber":81,"velocity":0,"subtype":"noteOff"},"track":1},0],[{"ticksToEvent":0,"beatsToEvent":0,"event":{"deltaTime":0,"channel":0,"type":"channel","noteNumber":83,"velocity":107,"subtype":"noteOn"},"track":1},0],[{"ticksToEvent":104,"beatsToEvent":0.21666666666666667,"event":{"deltaTime":236,"channel":3,"type":"channel","noteNumber":54,"velocity":0,"subtype":"noteOff"},"track":4},0],[{"ticksToEvent":4,"beatsToEvent":0.008333333333333333,"event":{"deltaTime":4,"channel":3,"type":"channel","noteNumber":50,"velocity":111,"subtype":"noteOn"},"track":4},0],[{"ticksToEvent":8,"beatsToEvent":0.016666666666666666,"event":{"deltaTime":116,"channel":0,"type":"channel","noteNumber":81,"velocity":84,"subtype":"noteOn"},"track":1},0],[{"ticksToEvent":36,"beatsToEvent":0.075,"event":{"deltaTime":36,"channel":0,"type":"channel","noteNumber":83,"velocity":0,"subtype":"noteOff"},"track":1},0],[{"ticksToEvent":76,"beatsToEvent":0.15833333333333333,"event":{"deltaTime":76,"channel":0,"type":"channel","noteNumber":79,"velocity":92,"subtype":"noteOn"},"track":1},0],[{"ticksToEvent":28,"beatsToEvent":0.058333333333333334,"event":{"deltaTime":28,"channel":0,"type":"channel","noteNumber":81,"velocity":0,"subtype":"noteOff"},"track":1},0],[{"ticksToEvent":88,"beatsToEvent":0.18333333333333332,"event":{"deltaTime":236,"channel":3,"type":"channel","noteNumber":50,"velocity":0,"subtype":"noteOff"},"track":4},0],[{"ticksToEvent":4,"beatsToEvent":0.008333333333333333,"event":{"deltaTime":92,"channel":0,"type":"channel","noteNumber":78,"velocity":112,"subtype":"noteOn"},"track":1},0],[{"ticksToEvent":0,"beatsToEvent":0,"event":{"deltaTime":4,"channel":3,"type":"channel","noteNumber":38,"velocity":121,"subtype":"noteOn"},"track":4},0],[{"ticksToEvent":16,"beatsToEvent":0.03333333333333333,"event":{"deltaTime":16,"channel":0,"type":"channel","noteNumber":79,"velocity":0,"subtype":"noteOff"},"track":1},0],[{"ticksToEvent":104,"beatsToEvent":0.21666666666666667,"event":{"deltaTime":104,"channel":0,"type":"channel","noteNumber":78,"velocity":0,"subtype":"noteOff"},"track":1},0],[{"ticksToEvent":0,"beatsToEvent":0,"event":{"deltaTime":0,"channel":0,"type":"channel","noteNumber":76,"velocity":80,"subtype":"noteOn"},"track":1},0],[{"ticksToEvent":116,"beatsToEvent":0.24166666666666667,"event":{"deltaTime":236,"channel":3,"type":"channel","noteNumber":38,"velocity":0,"subtype":"noteOff"},"track":4},0],[{"ticksToEvent":4,"beatsToEvent":0.008333333333333333,"event":{"deltaTime":120,"channel":0,"type":"channel","noteNumber":76,"velocity":0,"subtype":"noteOff"},"track":1},0],[{"ticksToEvent":0,"beatsToEvent":0,"event":{"deltaTime":0,"channel":0,"type":"channel","noteNumber":74,"velocity":78,"subtype":"noteOn"},"track":1},0],[{"ticksToEvent":0,"beatsToEvent":0,"event":{"deltaTime":4,"channel":3,"type":"channel","noteNumber":54,"velocity":127,"subtype":"noteOn"},"track":4},0],[{"ticksToEvent":120,"beatsToEvent":0.25,"event":{"deltaTime":120,"channel":0,"type":"channel","noteNumber":74,"velocity":0,"subtype":"noteOff"},"track":1},0],[{"ticksToEvent":0,"beatsToEvent":0,"event":{"deltaTime":0,"channel":0,"type":"channel","noteNumber":72,"velocity":85,"subtype":"noteOn"},"track":1},0],[{"ticksToEvent":116,"beatsToEvent":0.24166666666666667,"event":{"deltaTime":236,"channel":3,"type":"channel","noteNumber":54,"velocity":0,"subtype":"noteOff"},"track":4},0],[{"ticksToEvent":4,"beatsToEvent":0.008333333333333333,"event":{"deltaTime":120,"channel":0,"type":"channel","noteNumber":72,"velocity":0,"subtype":"noteOff"},"track":1},0],[{"ticksToEvent":0,"beatsToEvent":0,"event":{"deltaTime":0,"channel":0,"type":"channel","noteNumber":71,"velocity":83,"subtype":"noteOn"},"track":1},0],[{"ticksToEvent":0,"beatsToEvent":0,"event":{"deltaTime":4,"channel":3,"type":"channel","noteNumber":43,"velocity":121,"subtype":"noteOn"},"track":4},0],[{"ticksToEvent":120,"beatsToEvent":0.25,"event":{"deltaTime":120,"channel":0,"type":"channel","noteNumber":71,"velocity":0,"subtype":"noteOff"},"track":1},0],[{"ticksToEvent":0,"beatsToEvent":0,"event":{"deltaTime":0,"channel":0,"type":"channel","noteNumber":72,"velocity":86,"subtype":"noteOn"},"track":1},0],[{"ticksToEvent":116,"beatsToEvent":0.24166666666666667,"event":{"deltaTime":236,"channel":3,"type":"channel","noteNumber":43,"velocity":0,"subtype":"noteOff"},"track":4},0],[{"ticksToEvent":4,"beatsToEvent":0.008333333333333333,"event":{"deltaTime":120,"channel":0,"type":"channel","noteNumber":72,"velocity":0,"subtype":"noteOff"},"track":1},0],[{"ticksToEvent":0,"beatsToEvent":0,"event":{"deltaTime":0,"channel":0,"type":"channel","noteNumber":74,"velocity":91,"subtype":"noteOn"},"track":1},0],[{"ticksToEvent":0,"beatsToEvent":0,"event":{"deltaTime":4,"channel":3,"type":"channel","noteNumber":59,"velocity":121,"subtype":"noteOn"},"track":4},0],[{"ticksToEvent":116,"beatsToEvent":0.24166666666666667,"event":{"deltaTime":116,"channel":3,"type":"channel","noteNumber":59,"velocity":0,"subtype":"noteOff"},"track":4},0],[{"ticksToEvent":4,"beatsToEvent":0.008333333333333333,"event":{"deltaTime":4,"channel":3,"type":"channel","noteNumber":57,"velocity":117,"subtype":"noteOn"},"track":4},0],[{"ticksToEvent":116,"beatsToEvent":0.24166666666666667,"event":{"deltaTime":116,"channel":3,"type":"channel","noteNumber":57,"velocity":0,"subtype":"noteOff"},"track":4},0],[{"ticksToEvent":4,"beatsToEvent":0.008333333333333333,"event":{"deltaTime":4,"channel":3,"type":"channel","noteNumber":59,"velocity":117,"subtype":"noteOn"},"track":4},0],[{"ticksToEvent":108,"beatsToEvent":0.225,"event":{"deltaTime":348,"channel":0,"type":"channel","noteNumber":76,"velocity":91,"subtype":"noteOn"},"track":1},0],[{"ticksToEvent":12,"beatsToEvent":0.025,"event":{"deltaTime":12,"channel":0,"type":"channel","noteNumber":74,"velocity":0,"subtype":"noteOff"},"track":1},0],[{"ticksToEvent":112,"beatsToEvent":0.23333333333333334,"event":{"deltaTime":112,"channel":0,"type":"channel","noteNumber":74,"velocity":89,"subtype":"noteOn"},"track":1},0],[{"ticksToEvent":4,"beatsToEvent":0.008333333333333333,"event":{"deltaTime":236,"channel":3,"type":"channel","noteNumber":59,"velocity":0,"subtype":"noteOff"},"track":4},0],[{"ticksToEvent":4,"beatsToEvent":0.008333333333333333,"event":{"deltaTime":4,"channel":3,"type":"channel","noteNumber":55,"velocity":115,"subtype":"noteOn"},"track":4},0],[{"ticksToEvent":20,"beatsToEvent":0.041666666666666664,"event":{"deltaTime":28,"channel":0,"type":"channel","noteNumber":76,"velocity":0,"subtype":"noteOff"},"track":1},0],[{"ticksToEvent":88,"beatsToEvent":0.18333333333333332,"event":{"deltaTime":88,"channel":0,"type":"channel","noteNumber":72,"velocity":89,"subtype":"noteOn"},"track":1},0],[{"ticksToEvent":28,"beatsToEvent":0.058333333333333334,"event":{"deltaTime":28,"channel":0,"type":"channel","noteNumber":74,"velocity":0,"subtype":"noteOff"},"track":1},0],[{"ticksToEvent":84,"beatsToEvent":0.175,"event":{"deltaTime":84,"channel":0,"type":"channel","noteNumber":72,"velocity":0,"subtype":"noteOff"},"track":1},0],[{"ticksToEvent":16,"beatsToEvent":0.03333333333333333,"event":{"deltaTime":236,"channel":3,"type":"channel","noteNumber":55,"velocity":0,"subtype":"noteOff"},"track":4},0],[{"ticksToEvent":4,"beatsToEvent":0.008333333333333333,"event":{"deltaTime":20,"channel":0,"type":"channel","noteNumber":71,"velocity":80,"subtype":"noteOn"},"track":1},0],[{"ticksToEvent":0,"beatsToEvent":0,"event":{"deltaTime":4,"channel":3,"type":"channel","noteNumber":43,"velocity":113,"subtype":"noteOn"},"track":4},0],[{"ticksToEvent":120,"beatsToEvent":0.25,"event":{"deltaTime":120,"channel":0,"type":"channel","noteNumber":71,"velocity":0,"subtype":"noteOff"},"track":1},0],[{"ticksToEvent":0,"beatsToEvent":0,"event":{"deltaTime":0,"channel":0,"type":"channel","noteNumber":69,"velocity":84,"subtype":"noteOn"},"track":1},0],[{"ticksToEvent":116,"beatsToEvent":0.24166666666666667,"event":{"deltaTime":236,"channel":3,"type":"channel","noteNumber":43,"velocity":0,"subtype":"noteOff"},"track":4},0],[{"ticksToEvent":4,"beatsToEvent":0.008333333333333333,"event":{"deltaTime":120,"channel":0,"type":"channel","noteNumber":69,"velocity":0,"subtype":"noteOff"},"track":1},0],[{"ticksToEvent":0,"beatsToEvent":0,"event":{"deltaTime":0,"channel":0,"type":"channel","noteNumber":67,"velocity":71,"subtype":"noteOn"},"track":1},0],[{"ticksToEvent":0,"beatsToEvent":0,"event":{"deltaTime":4,"channel":3,"type":"channel","noteNumber":59,"velocity":115,"subtype":"noteOn"},"track":4},0],[{"ticksToEvent":120,"beatsToEvent":0.25,"event":{"deltaTime":120,"channel":0,"type":"channel","noteNumber":67,"velocity":0,"subtype":"noteOff"},"track":1},0],[{"ticksToEvent":0,"beatsToEvent":0,"event":{"deltaTime":0,"channel":0,"type":"channel","noteNumber":66,"velocity":102,"subtype":"noteOn"},"track":1},0],[{"ticksToEvent":116,"beatsToEvent":0.24166666666666667,"event":{"deltaTime":236,"channel":3,"type":"channel","noteNumber":59,"velocity":0,"subtype":"noteOff"},"track":4},0],[{"ticksToEvent":4,"beatsToEvent":0.008333333333333333,"event":{"deltaTime":120,"channel":0,"type":"channel","noteNumber":66,"velocity":0,"subtype":"noteOff"},"track":1},0],[{"ticksToEvent":0,"beatsToEvent":0,"event":{"deltaTime":0,"channel":0,"type":"channel","noteNumber":64,"velocity":88,"subtype":"noteOn"},"track":1},0],[{"ticksToEvent":0,"beatsToEvent":0,"event":{"deltaTime":4,"channel":3,"type":"channel","noteNumber":48,"velocity":127,"subtype":"noteOn"},"track":4},0],[{"ticksToEvent":120,"beatsToEvent":0.25,"event":{"deltaTime":120,"channel":0,"type":"channel","noteNumber":68,"velocity":88,"subtype":"noteOn"},"track":1},0],[{"ticksToEvent":24,"beatsToEvent":0.05,"event":{"deltaTime":24,"channel":0,"type":"channel","noteNumber":64,"velocity":0,"subtype":"noteOff"},"track":1},0],[{"ticksToEvent":92,"beatsToEvent":0.19166666666666668,"event":{"deltaTime":236,"channel":3,"type":"channel","noteNumber":48,"velocity":0,"subtype":"noteOff"},"track":4},0],[{"ticksToEvent":4,"beatsToEvent":0.008333333333333333,"event":{"deltaTime":96,"channel":0,"type":"channel","noteNumber":68,"velocity":0,"subtype":"noteOff"},"track":1},0],[{"ticksToEvent":0,"beatsToEvent":0,"event":{"deltaTime":0,"channel":0,"type":"channel","noteNumber":69,"velocity":82,"subtype":"noteOn"},"track":1},0],[{"ticksToEvent":0,"beatsToEvent":0,"event":{"deltaTime":4,"channel":3,"type":"channel","noteNumber":60,"velocity":121,"subtype":"noteOn"},"track":4},0],[{"ticksToEvent":116,"beatsToEvent":0.24166666666666667,"event":{"deltaTime":116,"channel":3,"type":"channel","noteNumber":60,"velocity":0,"subtype":"noteOff"},"track":4},0],[{"ticksToEvent":4,"beatsToEvent":0.008333333333333333,"event":{"deltaTime":120,"channel":0,"type":"channel","noteNumber":71,"velocity":92,"subtype":"noteOn"},"track":1},0],[{"ticksToEvent":0,"beatsToEvent":0,"event":{"deltaTime":4,"channel":3,"type":"channel","noteNumber":59,"velocity":115,"subtype":"noteOn"},"track":4},0],[{"ticksToEvent":24,"beatsToEvent":0.05,"event":{"deltaTime":24,"channel":0,"type":"channel","noteNumber":69,"velocity":0,"subtype":"noteOff"},"track":1},0],[{"ticksToEvent":92,"beatsToEvent":0.19166666666666668,"event":{"deltaTime":116,"channel":3,"type":"channel","noteNumber":59,"velocity":0,"subtype":"noteOff"},"track":4},0],[{"ticksToEvent":4,"beatsToEvent":0.008333333333333333,"event":{"deltaTime":96,"channel":0,"type":"channel","noteNumber":69,"velocity":71,"subtype":"noteOn"},"track":1},0],[{"ticksToEvent":0,"beatsToEvent":0,"event":{"deltaTime":4,"channel":3,"type":"channel","noteNumber":60,"velocity":111,"subtype":"noteOn"},"track":4},0],[{"ticksToEvent":32,"beatsToEvent":0.06666666666666667,"event":{"deltaTime":32,"channel":0,"type":"channel","noteNumber":71,"velocity":0,"subtype":"noteOff"},"track":1},0],[{"ticksToEvent":72,"beatsToEvent":0.15,"event":{"deltaTime":72,"channel":0,"type":"channel","noteNumber":69,"velocity":0,"subtype":"noteOff"},"track":1},0],[{"ticksToEvent":16,"beatsToEvent":0.03333333333333333,"event":{"deltaTime":16,"channel":0,"type":"channel","noteNumber":64,"velocity":75,"subtype":"noteOn"},"track":1},0],[{"ticksToEvent":116,"beatsToEvent":0.24166666666666667,"event":{"deltaTime":236,"channel":3,"type":"channel","noteNumber":60,"velocity":0,"subtype":"noteOff"},"track":4},0],[{"ticksToEvent":4,"beatsToEvent":0.008333333333333333,"event":{"deltaTime":120,"channel":0,"type":"channel","noteNumber":69,"velocity":81,"subtype":"noteOn"},"track":1},0],[{"ticksToEvent":0,"beatsToEvent":0,"event":{"deltaTime":4,"channel":3,"type":"channel","noteNumber":54,"velocity":127,"subtype":"noteOn"},"track":4},0],[{"ticksToEvent":28,"beatsToEvent":0.058333333333333334,"event":{"deltaTime":28,"channel":0,"type":"channel","noteNumber":64,"velocity":0,"subtype":"noteOff"},"track":1},0],[{"ticksToEvent":92,"beatsToEvent":0.19166666666666668,"event":{"deltaTime":92,"channel":0,"type":"channel","noteNumber":69,"velocity":0,"subtype":"noteOff"},"track":1},0],[{"ticksToEvent":0,"beatsToEvent":0,"event":{"deltaTime":0,"channel":0,"type":"channel","noteNumber":71,"velocity":78,"subtype":"noteOn"},"track":1},0],[{"ticksToEvent":116,"beatsToEvent":0.24166666666666667,"event":{"deltaTime":236,"channel":3,"type":"channel","noteNumber":54,"velocity":0,"subtype":"noteOff"},"track":4},0],[{"ticksToEvent":4,"beatsToEvent":0.008333333333333333,"event":{"deltaTime":120,"channel":0,"type":"channel","noteNumber":72,"velocity":78,"subtype":"noteOn"},"track":1},0],[{"ticksToEvent":0,"beatsToEvent":0,"event":{"deltaTime":4,"channel":3,"type":"channel","noteNumber":57,"velocity":119,"subtype":"noteOn"},"track":4},0],[{"ticksToEvent":16,"beatsToEvent":0.03333333333333333,"event":{"deltaTime":16,"channel":0,"type":"channel","noteNumber":71,"velocity":0,"subtype":"noteOff"},"track":1},0],[{"ticksToEvent":92,"beatsToEvent":0.19166666666666668,"event":{"deltaTime":92,"channel":0,"type":"channel","noteNumber":72,"velocity":0,"subtype":"noteOff"},"track":1},0],[{"ticksToEvent":12,"beatsToEvent":0.025,"event":{"deltaTime":12,"channel":0,"type":"channel","noteNumber":69,"velocity":84,"subtype":"noteOn"},"track":1},0],[{"ticksToEvent":116,"beatsToEvent":0.24166666666666667,"event":{"deltaTime":236,"channel":3,"type":"channel","noteNumber":57,"velocity":0,"subtype":"noteOff"},"track":4},0],[{"ticksToEvent":4,"beatsToEvent":0.008333333333333333,"event":{"deltaTime":120,"channel":0,"type":"channel","noteNumber":69,"velocity":0,"subtype":"noteOff"},"track":1},0],[{"ticksToEvent":0,"beatsToEvent":0,"event":{"deltaTime":0,"channel":0,"type":"channel","noteNumber":75,"velocity":63,"subtype":"noteOn"},"track":1},0],[{"ticksToEvent":0,"beatsToEvent":0,"event":{"deltaTime":4,"channel":3,"type":"channel","noteNumber":60,"velocity":123,"subtype":"noteOn"},"track":4},0],[{"ticksToEvent":120,"beatsToEvent":0.25,"event":{"deltaTime":120,"channel":0,"type":"channel","noteNumber":75,"velocity":0,"subtype":"noteOff"},"track":1},0],[{"ticksToEvent":0,"beatsToEvent":0,"event":{"deltaTime":0,"channel":0,"type":"channel","noteNumber":76,"velocity":66,"subtype":"noteOn"},"track":1},0],[{"ticksToEvent":108,"beatsToEvent":0.225,"event":{"deltaTime":108,"channel":0,"type":"channel","noteNumber":78,"velocity":101,"subtype":"noteOn"},"track":1},0],[{"ticksToEvent":8,"beatsToEvent":0.016666666666666666,"event":{"deltaTime":236,"channel":3,"type":"channel","noteNumber":60,"velocity":0,"subtype":"noteOff"},"track":4},0],[{"ticksToEvent":4,"beatsToEvent":0.008333333333333333,"event":{"deltaTime":4,"channel":3,"type":"channel","noteNumber":57,"velocity":119,"subtype":"noteOn"},"track":4},0],[{"ticksToEvent":4,"beatsToEvent":0.008333333333333333,"event":{"deltaTime":16,"channel":0,"type":"channel","noteNumber":76,"velocity":0,"subtype":"noteOff"},"track":1},0],[{"ticksToEvent":96,"beatsToEvent":0.2,"event":{"deltaTime":96,"channel":0,"type":"channel","noteNumber":76,"velocity":84,"subtype":"noteOn"},"track":1},0],[{"ticksToEvent":4,"beatsToEvent":0.008333333333333333,"event":{"deltaTime":4,"channel":0,"type":"channel","noteNumber":78,"velocity":0,"subtype":"noteOff"},"track":1},0],[{"ticksToEvent":124,"beatsToEvent":0.25833333333333336,"event":{"deltaTime":124,"channel":0,"type":"channel","noteNumber":75,"velocity":89,"subtype":"noteOn"},"track":1},0],[{"ticksToEvent":8,"beatsToEvent":0.016666666666666666,"event":{"deltaTime":236,"channel":3,"type":"channel","noteNumber":57,"velocity":0,"subtype":"noteOff"},"track":4},0],[{"ticksToEvent":4,"beatsToEvent":0.008333333333333333,"event":{"deltaTime":4,"channel":3,"type":"channel","noteNumber":54,"velocity":127,"subtype":"noteOn"},"track":4},0],[{"ticksToEvent":16,"beatsToEvent":0.03333333333333333,"event":{"deltaTime":28,"channel":0,"type":"channel","noteNumber":76,"velocity":0,"subtype":"noteOff"},"track":1},0],[{"ticksToEvent":96,"beatsToEvent":0.2,"event":{"deltaTime":96,"channel":0,"type":"channel","noteNumber":73,"velocity":93,"subtype":"noteOn"},"track":1},0],[{"ticksToEvent":20,"beatsToEvent":0.041666666666666664,"event":{"deltaTime":20,"channel":0,"type":"channel","noteNumber":75,"velocity":0,"subtype":"noteOff"},"track":1},0],[{"ticksToEvent":104,"beatsToEvent":0.21666666666666667,"event":{"deltaTime":236,"channel":3,"type":"channel","noteNumber":54,"velocity":0,"subtype":"noteOff"},"track":4},0],[{"ticksToEvent":4,"beatsToEvent":0.008333333333333333,"event":{"deltaTime":108,"channel":0,"type":"channel","noteNumber":71,"velocity":88,"subtype":"noteOn"},"track":1},0],[{"ticksToEvent":0,"beatsToEvent":0,"event":{"deltaTime":4,"channel":3,"type":"channel","noteNumber":51,"velocity":119,"subtype":"noteOn"},"track":4},0],[{"ticksToEvent":4,"beatsToEvent":0.008333333333333333,"event":{"deltaTime":4,"channel":0,"type":"channel","noteNumber":73,"velocity":0,"subtype":"noteOff"},"track":1},0],[{"ticksToEvent":112,"beatsToEvent":0.23333333333333334,"event":{"deltaTime":116,"channel":3,"type":"channel","noteNumber":51,"velocity":0,"subtype":"noteOff"},"track":4},0],[{"ticksToEvent":4,"beatsToEvent":0.008333333333333333,"event":{"deltaTime":4,"channel":3,"type":"channel","noteNumber":47,"velocity":106,"subtype":"noteOn"},"track":4},0],[{"ticksToEvent":116,"beatsToEvent":0.24166666666666667,"event":{"deltaTime":116,"channel":3,"type":"channel","noteNumber":47,"velocity":0,"subtype":"noteOff"},"track":4},0],[{"ticksToEvent":4,"beatsToEvent":0.008333333333333333,"event":{"deltaTime":4,"channel":3,"type":"channel","noteNumber":51,"velocity":121,"subtype":"noteOn"},"track":4},0],[{"ticksToEvent":116,"beatsToEvent":0.24166666666666667,"event":{"deltaTime":116,"channel":3,"type":"channel","noteNumber":51,"velocity":0,"subtype":"noteOff"},"track":4},0],[{"ticksToEvent":4,"beatsToEvent":0.008333333333333333,"event":{"deltaTime":4,"channel":3,"type":"channel","noteNumber":54,"velocity":127,"subtype":"noteOn"},"track":4},0],[{"ticksToEvent":116,"beatsToEvent":0.24166666666666667,"event":{"deltaTime":116,"channel":3,"type":"channel","noteNumber":54,"velocity":0,"subtype":"noteOff"},"track":4},0],[{"ticksToEvent":4,"beatsToEvent":0.008333333333333333,"event":{"deltaTime":4,"channel":3,"type":"channel","noteNumber":59,"velocity":117,"subtype":"noteOn"},"track":4},0],[{"ticksToEvent":116,"beatsToEvent":0.24166666666666667,"event":{"deltaTime":116,"channel":3,"type":"channel","noteNumber":59,"velocity":0,"subtype":"noteOff"},"track":4},0],[{"ticksToEvent":4,"beatsToEvent":0.008333333333333333,"event":{"deltaTime":4,"channel":3,"type":"channel","noteNumber":63,"velocity":108,"subtype":"noteOn"},"track":4},0],[{"ticksToEvent":116,"beatsToEvent":0.24166666666666667,"event":{"deltaTime":116,"channel":3,"type":"channel","noteNumber":63,"velocity":0,"subtype":"noteOff"},"track":4},0],[{"ticksToEvent":4,"beatsToEvent":0.008333333333333333,"event":{"deltaTime":4,"channel":3,"type":"channel","noteNumber":66,"velocity":110,"subtype":"noteOn"},"track":4},0],[{"ticksToEvent":116,"beatsToEvent":0.24166666666666667,"event":{"deltaTime":116,"channel":3,"type":"channel","noteNumber":66,"velocity":0,"subtype":"noteOff"},"track":4},0],[{"ticksToEvent":4,"beatsToEvent":0.008333333333333333,"event":{"deltaTime":4,"channel":3,"type":"channel","noteNumber":69,"velocity":101,"subtype":"noteOn"},"track":4},0],[{"ticksToEvent":116,"beatsToEvent":0.24166666666666667,"event":{"deltaTime":116,"channel":3,"type":"channel","noteNumber":69,"velocity":0,"subtype":"noteOff"},"track":4},0],[{"ticksToEvent":4,"beatsToEvent":0.008333333333333333,"event":{"deltaTime":4,"channel":3,"type":"channel","noteNumber":67,"velocity":115,"subtype":"noteOn"},"track":4},0],[{"ticksToEvent":52,"beatsToEvent":0.10833333333333334,"event":{"deltaTime":1008,"channel":0,"type":"channel","noteNumber":71,"velocity":0,"subtype":"noteOff"},"track":1},0],[{"ticksToEvent":68,"beatsToEvent":0.14166666666666666,"event":{"deltaTime":68,"channel":0,"type":"channel","noteNumber":75,"velocity":88,"subtype":"noteOn"},"track":1},0],[{"ticksToEvent":72,"beatsToEvent":0.15,"event":{"deltaTime":72,"channel":0,"type":"channel","noteNumber":75,"velocity":0,"subtype":"noteOff"},"track":1},0],[{"ticksToEvent":48,"beatsToEvent":0.1,"event":{"deltaTime":48,"channel":0,"type":"channel","noteNumber":76,"velocity":88,"subtype":"noteOn"},"track":1},0],[{"ticksToEvent":116,"beatsToEvent":0.24166666666666667,"event":{"deltaTime":356,"channel":3,"type":"channel","noteNumber":67,"velocity":0,"subtype":"noteOff"},"track":4},0],[{"ticksToEvent":4,"beatsToEvent":0.008333333333333333,"event":{"deltaTime":4,"channel":3,"type":"channel","noteNumber":66,"velocity":119,"subtype":"noteOn"},"track":4},0],[{"ticksToEvent":116,"beatsToEvent":0.24166666666666667,"event":{"deltaTime":116,"channel":3,"type":"channel","noteNumber":66,"velocity":0,"subtype":"noteOff"},"track":4},0],[{"ticksToEvent":4,"beatsToEvent":0.008333333333333333,"event":{"deltaTime":4,"channel":3,"type":"channel","noteNumber":67,"velocity":111,"subtype":"noteOn"},"track":4},0],[{"ticksToEvent":116,"beatsToEvent":0.24166666666666667,"event":{"deltaTime":356,"channel":0,"type":"channel","noteNumber":63,"velocity":90,"subtype":"noteOn"},"track":1},0],[{"ticksToEvent":56,"beatsToEvent":0.11666666666666667,"event":{"deltaTime":56,"channel":0,"type":"channel","noteNumber":76,"velocity":0,"subtype":"noteOff"},"track":1},0],[{"ticksToEvent":52,"beatsToEvent":0.10833333333333334,"event":{"deltaTime":52,"channel":0,"type":"channel","noteNumber":63,"velocity":0,"subtype":"noteOff"},"track":1},0],[{"ticksToEvent":16,"beatsToEvent":0.03333333333333333,"event":{"deltaTime":16,"channel":0,"type":"channel","noteNumber":64,"velocity":95,"subtype":"noteOn"},"track":1},0],[{"ticksToEvent":116,"beatsToEvent":0.24166666666666667,"event":{"deltaTime":356,"channel":3,"type":"channel","noteNumber":67,"velocity":0,"subtype":"noteOff"},"track":4},0],[{"ticksToEvent":4,"beatsToEvent":0.008333333333333333,"event":{"deltaTime":4,"channel":3,"type":"channel","noteNumber":54,"velocity":123,"subtype":"noteOn"},"track":4},0],[{"ticksToEvent":116,"beatsToEvent":0.24166666666666667,"event":{"deltaTime":116,"channel":3,"type":"channel","noteNumber":54,"velocity":0,"subtype":"noteOff"},"track":4},0],[{"ticksToEvent":4,"beatsToEvent":0.008333333333333333,"event":{"deltaTime":4,"channel":3,"type":"channel","noteNumber":55,"velocity":124,"subtype":"noteOn"},"track":4},0],[{"ticksToEvent":100,"beatsToEvent":0.20833333333333334,"event":{"deltaTime":340,"channel":0,"type":"channel","noteNumber":64,"velocity":0,"subtype":"noteOff"},"track":1},0],[{"ticksToEvent":36,"beatsToEvent":0.075,"event":{"deltaTime":36,"channel":0,"type":"channel","noteNumber":51,"velocity":106,"subtype":"noteOn"},"track":1},0],[{"ticksToEvent":88,"beatsToEvent":0.18333333333333332,"event":{"deltaTime":88,"channel":0,"type":"channel","noteNumber":51,"velocity":0,"subtype":"noteOff"},"track":1},0],[{"ticksToEvent":24,"beatsToEvent":0.05,"event":{"deltaTime":24,"channel":0,"type":"channel","noteNumber":52,"velocity":95,"subtype":"noteOn"},"track":1},0],[{"ticksToEvent":108,"beatsToEvent":0.225,"event":{"deltaTime":356,"channel":3,"type":"channel","noteNumber":55,"velocity":0,"subtype":"noteOff"},"track":4},0],[{"ticksToEvent":4,"beatsToEvent":0.008333333333333333,"event":{"deltaTime":4,"channel":3,"type":"channel","noteNumber":47,"velocity":111,"subtype":"noteOn"},"track":4},0],[{"ticksToEvent":116,"beatsToEvent":0.24166666666666667,"event":{"deltaTime":228,"channel":0,"type":"channel","noteNumber":52,"velocity":0,"subtype":"noteOff"},"track":1},0],[{"ticksToEvent":0,"beatsToEvent":0,"event":{"deltaTime":116,"channel":3,"type":"channel","noteNumber":47,"velocity":0,"subtype":"noteOff"},"track":4},0],[{"ticksToEvent":4,"beatsToEvent":0.008333333333333333,"event":{"deltaTime":4,"channel":3,"type":"channel","noteNumber":48,"velocity":124,"subtype":"noteOn"},"track":4},0],[{"ticksToEvent":120,"beatsToEvent":0.25,"event":{"deltaTime":124,"channel":0,"type":"channel","noteNumber":80,"velocity":104,"subtype":"noteOn"},"track":1},0],[{"ticksToEvent":120,"beatsToEvent":0.25,"event":{"deltaTime":120,"channel":0,"type":"channel","noteNumber":80,"velocity":0,"subtype":"noteOff"},"track":1},0],[{"ticksToEvent":0,"beatsToEvent":0,"event":{"deltaTime":0,"channel":0,"type":"channel","noteNumber":81,"velocity":97,"subtype":"noteOn"},"track":1},0],[{"ticksToEvent":116,"beatsToEvent":0.24166666666666667,"event":{"deltaTime":356,"channel":3,"type":"channel","noteNumber":48,"velocity":0,"subtype":"noteOff"},"track":4},0],[{"ticksToEvent":4,"beatsToEvent":0.008333333333333333,"event":{"deltaTime":4,"channel":3,"type":"channel","noteNumber":71,"velocity":117,"subtype":"noteOn"},"track":4},0],[{"ticksToEvent":116,"beatsToEvent":0.24166666666666667,"event":{"deltaTime":116,"channel":3,"type":"channel","noteNumber":71,"velocity":0,"subtype":"noteOff"},"track":4},0],[{"ticksToEvent":4,"beatsToEvent":0.008333333333333333,"event":{"deltaTime":4,"channel":3,"type":"channel","noteNumber":72,"velocity":109,"subtype":"noteOn"},"track":4},0],[{"ticksToEvent":96,"beatsToEvent":0.2,"event":{"deltaTime":336,"channel":0,"type":"channel","noteNumber":81,"velocity":0,"subtype":"noteOff"},"track":1},0],[{"ticksToEvent":24,"beatsToEvent":0.05,"event":{"deltaTime":24,"channel":0,"type":"channel","noteNumber":68,"velocity":94,"subtype":"noteOn"},"track":1},0],[{"ticksToEvent":84,"beatsToEvent":0.175,"event":{"deltaTime":84,"channel":0,"type":"channel","noteNumber":68,"velocity":0,"subtype":"noteOff"},"track":1},0],[{"ticksToEvent":36,"beatsToEvent":0.075,"event":{"deltaTime":36,"channel":0,"type":"channel","noteNumber":69,"velocity":95,"subtype":"noteOn"},"track":1},0],[{"ticksToEvent":116,"beatsToEvent":0.24166666666666667,"event":{"deltaTime":356,"channel":3,"type":"channel","noteNumber":72,"velocity":0,"subtype":"noteOff"},"track":4},0],[{"ticksToEvent":4,"beatsToEvent":0.008333333333333333,"event":{"deltaTime":4,"channel":3,"type":"channel","noteNumber":59,"velocity":121,"subtype":"noteOn"},"track":4},0],[{"ticksToEvent":116,"beatsToEvent":0.24166666666666667,"event":{"deltaTime":116,"channel":3,"type":"channel","noteNumber":59,"velocity":0,"subtype":"noteOff"},"track":4},0],[{"ticksToEvent":4,"beatsToEvent":0.008333333333333333,"event":{"deltaTime":4,"channel":3,"type":"channel","noteNumber":60,"velocity":127,"subtype":"noteOn"},"track":4},0],[{"ticksToEvent":120,"beatsToEvent":0.25,"event":{"deltaTime":360,"channel":0,"type":"channel","noteNumber":69,"velocity":0,"subtype":"noteOff"},"track":1},0],[{"ticksToEvent":0,"beatsToEvent":0,"event":{"deltaTime":0,"channel":0,"type":"channel","noteNumber":56,"velocity":121,"subtype":"noteOn"},"track":1},0],[{"ticksToEvent":92,"beatsToEvent":0.19166666666666668,"event":{"deltaTime":92,"channel":0,"type":"channel","noteNumber":56,"velocity":0,"subtype":"noteOff"},"track":1},0],[{"ticksToEvent":28,"beatsToEvent":0.058333333333333334,"event":{"deltaTime":28,"channel":0,"type":"channel","noteNumber":57,"velocity":117,"subtype":"noteOn"},"track":1},0],[{"ticksToEvent":120,"beatsToEvent":0.25,"event":{"deltaTime":360,"channel":3,"type":"channel","noteNumber":52,"velocity":117,"subtype":"noteOn"},"track":4},0],[{"ticksToEvent":116,"beatsToEvent":0.24166666666666667,"event":{"deltaTime":116,"channel":3,"type":"channel","noteNumber":60,"velocity":0,"subtype":"noteOff"},"track":4},0],[{"ticksToEvent":0,"beatsToEvent":0,"event":{"deltaTime":0,"channel":3,"type":"channel","noteNumber":52,"velocity":0,"subtype":"noteOff"},"track":4},0],[{"ticksToEvent":4,"beatsToEvent":0.008333333333333333,"event":{"deltaTime":4,"channel":3,"type":"channel","noteNumber":51,"velocity":125,"subtype":"noteOn"},"track":4},0],[{"ticksToEvent":120,"beatsToEvent":0.25,"event":{"deltaTime":360,"channel":0,"type":"channel","noteNumber":59,"velocity":117,"subtype":"noteOn"},"track":1},0],[{"ticksToEvent":56,"beatsToEvent":0.11666666666666667,"event":{"deltaTime":56,"channel":0,"type":"channel","noteNumber":57,"velocity":0,"subtype":"noteOff"},"track":1},0],[{"ticksToEvent":60,"beatsToEvent":0.125,"event":{"deltaTime":236,"channel":3,"type":"channel","noteNumber":51,"velocity":0,"subtype":"noteOff"},"track":4},0],[{"ticksToEvent":4,"beatsToEvent":0.008333333333333333,"event":{"deltaTime":64,"channel":0,"type":"channel","noteNumber":59,"velocity":0,"subtype":"noteOff"},"track":1},0],[{"ticksToEvent":0,"beatsToEvent":0,"event":{"deltaTime":0,"channel":0,"type":"channel","noteNumber":60,"velocity":117,"subtype":"noteOn"},"track":1},0],[{"ticksToEvent":0,"beatsToEvent":0,"event":{"deltaTime":4,"channel":3,"type":"channel","noteNumber":57,"velocity":121,"subtype":"noteOn"},"track":4},0],[{"ticksToEvent":120,"beatsToEvent":0.25,"event":{"deltaTime":120,"channel":0,"type":"channel","noteNumber":60,"velocity":0,"subtype":"noteOff"},"track":1},0],[{"ticksToEvent":0,"beatsToEvent":0,"event":{"deltaTime":0,"channel":0,"type":"channel","noteNumber":66,"velocity":117,"subtype":"noteOn"},"track":1},0],[{"ticksToEvent":116,"beatsToEvent":0.24166666666666667,"event":{"deltaTime":236,"channel":3,"type":"channel","noteNumber":57,"velocity":0,"subtype":"noteOff"},"track":4},0],[{"ticksToEvent":4,"beatsToEvent":0.008333333333333333,"event":{"deltaTime":120,"channel":0,"type":"channel","noteNumber":66,"velocity":0,"subtype":"noteOff"},"track":1},0],[{"ticksToEvent":0,"beatsToEvent":0,"event":{"deltaTime":0,"channel":0,"type":"channel","noteNumber":59,"velocity":117,"subtype":"noteOn"},"track":1},0],[{"ticksToEvent":0,"beatsToEvent":0,"event":{"deltaTime":4,"channel":3,"type":"channel","noteNumber":55,"velocity":106,"subtype":"noteOn"},"track":4},0],[{"ticksToEvent":120,"beatsToEvent":0.25,"event":{"deltaTime":120,"channel":0,"type":"channel","noteNumber":59,"velocity":0,"subtype":"noteOff"},"track":1},0],[{"ticksToEvent":0,"beatsToEvent":0,"event":{"deltaTime":0,"channel":0,"type":"channel","noteNumber":63,"velocity":117,"subtype":"noteOn"},"track":1},0],[{"ticksToEvent":116,"beatsToEvent":0.24166666666666667,"event":{"deltaTime":236,"channel":3,"type":"channel","noteNumber":55,"velocity":0,"subtype":"noteOff"},"track":4},0],[{"ticksToEvent":4,"beatsToEvent":0.008333333333333333,"event":{"deltaTime":120,"channel":0,"type":"channel","noteNumber":63,"velocity":0,"subtype":"noteOff"},"track":1},0],[{"ticksToEvent":0,"beatsToEvent":0,"event":{"deltaTime":0,"channel":0,"type":"channel","noteNumber":64,"velocity":117,"subtype":"noteOn"},"track":1},0],[{"ticksToEvent":0,"beatsToEvent":0,"event":{"deltaTime":4,"channel":3,"type":"channel","noteNumber":46,"velocity":108,"subtype":"noteOn"},"track":4},0],[{"ticksToEvent":120,"beatsToEvent":0.25,"event":{"deltaTime":120,"channel":0,"type":"channel","noteNumber":64,"velocity":0,"subtype":"noteOff"},"track":1},0],[{"ticksToEvent":0,"beatsToEvent":0,"event":{"deltaTime":0,"channel":0,"type":"channel","noteNumber":67,"velocity":117,"subtype":"noteOn"},"track":1},0],[{"ticksToEvent":116,"beatsToEvent":0.24166666666666667,"event":{"deltaTime":236,"channel":3,"type":"channel","noteNumber":46,"velocity":0,"subtype":"noteOff"},"track":4},0],[{"ticksToEvent":4,"beatsToEvent":0.008333333333333333,"event":{"deltaTime":120,"channel":0,"type":"channel","noteNumber":67,"velocity":0,"subtype":"noteOff"},"track":1},0],[{"ticksToEvent":0,"beatsToEvent":0,"event":{"deltaTime":0,"channel":0,"type":"channel","noteNumber":66,"velocity":117,"subtype":"noteOn"},"track":1},0],[{"ticksToEvent":0,"beatsToEvent":0,"event":{"deltaTime":4,"channel":3,"type":"channel","noteNumber":47,"velocity":126,"subtype":"noteOn"},"track":4},0],[{"ticksToEvent":120,"beatsToEvent":0.25,"event":{"deltaTime":120,"channel":0,"type":"channel","noteNumber":66,"velocity":0,"subtype":"noteOff"},"track":1},0],[{"ticksToEvent":0,"beatsToEvent":0,"event":{"deltaTime":0,"channel":0,"type":"channel","noteNumber":64,"velocity":117,"subtype":"noteOn"},"track":1},0],[{"ticksToEvent":116,"beatsToEvent":0.24166666666666667,"event":{"deltaTime":236,"channel":3,"type":"channel","noteNumber":47,"velocity":0,"subtype":"noteOff"},"track":4},0],[{"ticksToEvent":4,"beatsToEvent":0.008333333333333333,"event":{"deltaTime":120,"channel":0,"type":"channel","noteNumber":64,"velocity":0,"subtype":"noteOff"},"track":1},0],[{"ticksToEvent":0,"beatsToEvent":0,"event":{"deltaTime":0,"channel":0,"type":"channel","noteNumber":63,"velocity":117,"subtype":"noteOn"},"track":1},0],[{"ticksToEvent":0,"beatsToEvent":0,"event":{"deltaTime":4,"channel":3,"type":"channel","noteNumber":54,"velocity":127,"subtype":"noteOn"},"track":4},0],[{"ticksToEvent":120,"beatsToEvent":0.25,"event":{"deltaTime":120,"channel":0,"type":"channel","noteNumber":63,"velocity":0,"subtype":"noteOff"},"track":1},0],[{"ticksToEvent":0,"beatsToEvent":0,"event":{"deltaTime":0,"channel":0,"type":"channel","noteNumber":69,"velocity":117,"subtype":"noteOn"},"track":1},0],[{"ticksToEvent":116,"beatsToEvent":0.24166666666666667,"event":{"deltaTime":236,"channel":3,"type":"channel","noteNumber":54,"velocity":0,"subtype":"noteOff"},"track":4},0],[{"ticksToEvent":4,"beatsToEvent":0.008333333333333333,"event":{"deltaTime":120,"channel":0,"type":"channel","noteNumber":69,"velocity":0,"subtype":"noteOff"},"track":1},0],[{"ticksToEvent":0,"beatsToEvent":0,"event":{"deltaTime":0,"channel":0,"type":"channel","noteNumber":67,"velocity":117,"subtype":"noteOn"},"track":1},0],[{"ticksToEvent":0,"beatsToEvent":0,"event":{"deltaTime":4,"channel":3,"type":"channel","noteNumber":52,"velocity":121,"subtype":"noteOn"},"track":4},0],[{"ticksToEvent":120,"beatsToEvent":0.25,"event":{"deltaTime":120,"channel":0,"type":"channel","noteNumber":67,"velocity":0,"subtype":"noteOff"},"track":1},0],[{"ticksToEvent":0,"beatsToEvent":0,"event":{"deltaTime":0,"channel":0,"type":"channel","noteNumber":66,"velocity":117,"subtype":"noteOn"},"track":1},0],[{"ticksToEvent":116,"beatsToEvent":0.24166666666666667,"event":{"deltaTime":236,"channel":3,"type":"channel","noteNumber":52,"velocity":0,"subtype":"noteOff"},"track":4},0],[{"ticksToEvent":4,"beatsToEvent":0.008333333333333333,"event":{"deltaTime":120,"channel":0,"type":"channel","noteNumber":66,"velocity":0,"subtype":"noteOff"},"track":1},0],[{"ticksToEvent":0,"beatsToEvent":0,"event":{"deltaTime":0,"channel":0,"type":"channel","noteNumber":64,"velocity":117,"subtype":"noteOn"},"track":1},0],[{"ticksToEvent":0,"beatsToEvent":0,"event":{"deltaTime":4,"channel":3,"type":"channel","noteNumber":55,"velocity":119,"subtype":"noteOn"},"track":4},0],[{"ticksToEvent":116,"beatsToEvent":0.24166666666666667,"event":{"deltaTime":116,"channel":3,"type":"channel","noteNumber":55,"velocity":0,"subtype":"noteOff"},"track":4},0],[{"ticksToEvent":4,"beatsToEvent":0.008333333333333333,"event":{"deltaTime":120,"channel":0,"type":"channel","noteNumber":64,"velocity":0,"subtype":"noteOff"},"track":1},0],[{"ticksToEvent":0,"beatsToEvent":0,"event":{"deltaTime":0,"channel":0,"type":"channel","noteNumber":63,"velocity":117,"subtype":"noteOn"},"track":1},0],[{"ticksToEvent":0,"beatsToEvent":0,"event":{"deltaTime":4,"channel":3,"type":"channel","noteNumber":54,"velocity":125,"subtype":"noteOn"},"track":4},0],[{"ticksToEvent":116,"beatsToEvent":0.24166666666666667,"event":{"deltaTime":116,"channel":3,"type":"channel","noteNumber":54,"velocity":0,"subtype":"noteOff"},"track":4},0],[{"ticksToEvent":4,"beatsToEvent":0.008333333333333333,"event":{"deltaTime":120,"channel":0,"type":"channel","noteNumber":63,"velocity":0,"subtype":"noteOff"},"track":1},0],[{"ticksToEvent":0,"beatsToEvent":0,"event":{"deltaTime":0,"channel":0,"type":"channel","noteNumber":64,"velocity":117,"subtype":"noteOn"},"track":1},0],[{"ticksToEvent":0,"beatsToEvent":0,"event":{"deltaTime":4,"channel":3,"type":"channel","noteNumber":55,"velocity":113,"subtype":"noteOn"},"track":4},0],[{"ticksToEvent":120,"beatsToEvent":0.25,"event":{"deltaTime":120,"channel":0,"type":"channel","noteNumber":64,"velocity":0,"subtype":"noteOff"},"track":1},0],[{"ticksToEvent":0,"beatsToEvent":0,"event":{"deltaTime":0,"channel":0,"type":"channel","noteNumber":67,"velocity":117,"subtype":"noteOn"},"track":1},0],[{"ticksToEvent":116,"beatsToEvent":0.24166666666666667,"event":{"deltaTime":236,"channel":3,"type":"channel","noteNumber":55,"velocity":0,"subtype":"noteOff"},"track":4},0],[{"ticksToEvent":4,"beatsToEvent":0.008333333333333333,"event":{"deltaTime":120,"channel":0,"type":"channel","noteNumber":67,"velocity":0,"subtype":"noteOff"},"track":1},0],[{"ticksToEvent":0,"beatsToEvent":0,"event":{"deltaTime":0,"channel":0,"type":"channel","noteNumber":59,"velocity":117,"subtype":"noteOn"},"track":1},0],[{"ticksToEvent":0,"beatsToEvent":0,"event":{"deltaTime":4,"channel":3,"type":"channel","noteNumber":52,"velocity":119,"subtype":"noteOn"},"track":4},0],[{"ticksToEvent":120,"beatsToEvent":0.25,"event":{"deltaTime":120,"channel":0,"type":"channel","noteNumber":59,"velocity":0,"subtype":"noteOff"},"track":1},0],[{"ticksToEvent":0,"beatsToEvent":0,"event":{"deltaTime":0,"channel":0,"type":"channel","noteNumber":57,"velocity":117,"subtype":"noteOn"},"track":1},0],[{"ticksToEvent":116,"beatsToEvent":0.24166666666666667,"event":{"deltaTime":236,"channel":3,"type":"channel","noteNumber":52,"velocity":0,"subtype":"noteOff"},"track":4},0],[{"ticksToEvent":4,"beatsToEvent":0.008333333333333333,"event":{"deltaTime":120,"channel":0,"type":"channel","noteNumber":57,"velocity":0,"subtype":"noteOff"},"track":1},0],[{"ticksToEvent":0,"beatsToEvent":0,"event":{"deltaTime":0,"channel":0,"type":"channel","noteNumber":55,"velocity":117,"subtype":"noteOn"},"track":1},0],[{"ticksToEvent":0,"beatsToEvent":0,"event":{"deltaTime":4,"channel":3,"type":"channel","noteNumber":40,"velocity":127,"subtype":"noteOn"},"track":4},0],[{"ticksToEvent":120,"beatsToEvent":0.25,"event":{"deltaTime":120,"channel":0,"type":"channel","noteNumber":55,"velocity":0,"subtype":"noteOff"},"track":1},0],[{"ticksToEvent":0,"beatsToEvent":0,"event":{"deltaTime":0,"channel":0,"type":"channel","noteNumber":59,"velocity":117,"subtype":"noteOn"},"track":1},0],[{"ticksToEvent":120,"beatsToEvent":0.25,"event":{"deltaTime":120,"channel":0,"type":"channel","noteNumber":59,"velocity":0,"subtype":"noteOff"},"track":1},0],[{"ticksToEvent":0,"beatsToEvent":0,"event":{"deltaTime":0,"channel":0,"type":"channel","noteNumber":52,"velocity":117,"subtype":"noteOn"},"track":1},0],[{"ticksToEvent":116,"beatsToEvent":0.24166666666666667,"event":{"deltaTime":356,"channel":3,"type":"channel","noteNumber":40,"velocity":0,"subtype":"noteOff"},"track":4},0],[{"ticksToEvent":4,"beatsToEvent":0.008333333333333333,"event":{"deltaTime":4,"channel":3,"type":"channel","noteNumber":50,"velocity":115,"subtype":"noteOn"},"track":4},0],[{"ticksToEvent":116,"beatsToEvent":0.24166666666666667,"event":{"deltaTime":116,"channel":3,"type":"channel","noteNumber":50,"velocity":0,"subtype":"noteOff"},"track":4},0],[{"ticksToEvent":4,"beatsToEvent":0.008333333333333333,"event":{"deltaTime":240,"channel":0,"type":"channel","noteNumber":52,"velocity":0,"subtype":"noteOff"},"track":1},0],[{"ticksToEvent":0,"beatsToEvent":0,"event":{"deltaTime":4,"channel":3,"type":"channel","noteNumber":48,"velocity":101,"subtype":"noteOn"},"track":4},0],[{"ticksToEvent":116,"beatsToEvent":0.24166666666666667,"event":{"deltaTime":116,"channel":3,"type":"channel","noteNumber":48,"velocity":0,"subtype":"noteOff"},"track":4},0],[{"ticksToEvent":4,"beatsToEvent":0.008333333333333333,"event":{"deltaTime":4,"channel":3,"type":"channel","noteNumber":52,"velocity":102,"subtype":"noteOn"},"track":4},0],[{"ticksToEvent":116,"beatsToEvent":0.24166666666666667,"event":{"deltaTime":116,"channel":3,"type":"channel","noteNumber":52,"velocity":0,"subtype":"noteOff"},"track":4},0],[{"ticksToEvent":4,"beatsToEvent":0.008333333333333333,"event":{"deltaTime":240,"channel":0,"type":"channel","noteNumber":76,"velocity":117,"subtype":"noteOn"},"track":1},0],[{"ticksToEvent":0,"beatsToEvent":0,"event":{"deltaTime":4,"channel":3,"type":"channel","noteNumber":57,"velocity":91,"subtype":"noteOn"},"track":4},0],[{"ticksToEvent":116,"beatsToEvent":0.24166666666666667,"event":{"deltaTime":116,"channel":3,"type":"channel","noteNumber":57,"velocity":0,"subtype":"noteOff"},"track":4},0],[{"ticksToEvent":4,"beatsToEvent":0.008333333333333333,"event":{"deltaTime":4,"channel":3,"type":"channel","noteNumber":60,"velocity":104,"subtype":"noteOn"},"track":4},0],[{"ticksToEvent":116,"beatsToEvent":0.24166666666666667,"event":{"deltaTime":116,"channel":3,"type":"channel","noteNumber":60,"velocity":0,"subtype":"noteOff"},"track":4},0],[{"ticksToEvent":4,"beatsToEvent":0.008333333333333333,"event":{"deltaTime":240,"channel":0,"type":"channel","noteNumber":76,"velocity":0,"subtype":"noteOff"},"track":1},0],[{"ticksToEvent":0,"beatsToEvent":0,"event":{"deltaTime":0,"channel":0,"type":"channel","noteNumber":72,"velocity":117,"subtype":"noteOn"},"track":1},0],[{"ticksToEvent":0,"beatsToEvent":0,"event":{"deltaTime":4,"channel":3,"type":"channel","noteNumber":64,"velocity":106,"subtype":"noteOn"},"track":4},0],[{"ticksToEvent":116,"beatsToEvent":0.24166666666666667,"event":{"deltaTime":116,"channel":3,"type":"channel","noteNumber":64,"velocity":0,"subtype":"noteOff"},"track":4},0],[{"ticksToEvent":4,"beatsToEvent":0.008333333333333333,"event":{"deltaTime":4,"channel":3,"type":"channel","noteNumber":60,"velocity":109,"subtype":"noteOn"},"track":4},0],[{"ticksToEvent":116,"beatsToEvent":0.24166666666666667,"event":{"deltaTime":116,"channel":3,"type":"channel","noteNumber":60,"velocity":0,"subtype":"noteOff"},"track":4},0],[{"ticksToEvent":4,"beatsToEvent":0.008333333333333333,"event":{"deltaTime":240,"channel":0,"type":"channel","noteNumber":72,"velocity":0,"subtype":"noteOff"},"track":1},0],[{"ticksToEvent":0,"beatsToEvent":0,"event":{"deltaTime":0,"channel":0,"type":"channel","noteNumber":76,"velocity":117,"subtype":"noteOn"},"track":1},0],[{"ticksToEvent":0,"beatsToEvent":0,"event":{"deltaTime":4,"channel":3,"type":"channel","noteNumber":57,"velocity":97,"subtype":"noteOn"},"track":4},0],[{"ticksToEvent":116,"beatsToEvent":0.24166666666666667,"event":{"deltaTime":116,"channel":3,"type":"channel","noteNumber":57,"velocity":0,"subtype":"noteOff"},"track":4},0],[{"ticksToEvent":4,"beatsToEvent":0.008333333333333333,"event":{"deltaTime":4,"channel":3,"type":"channel","noteNumber":52,"velocity":115,"subtype":"noteOn"},"track":4},0],[{"ticksToEvent":116,"beatsToEvent":0.24166666666666667,"event":{"deltaTime":116,"channel":3,"type":"channel","noteNumber":52,"velocity":0,"subtype":"noteOff"},"track":4},0],[{"ticksToEvent":4,"beatsToEvent":0.008333333333333333,"event":{"deltaTime":240,"channel":0,"type":"channel","noteNumber":76,"velocity":0,"subtype":"noteOff"},"track":1},0],[{"ticksToEvent":0,"beatsToEvent":0,"event":{"deltaTime":0,"channel":0,"type":"channel","noteNumber":81,"velocity":117,"subtype":"noteOn"},"track":1},0],[{"ticksToEvent":0,"beatsToEvent":0,"event":{"deltaTime":4,"channel":3,"type":"channel","noteNumber":48,"velocity":97,"subtype":"noteOn"},"track":4},0],[{"ticksToEvent":120,"beatsToEvent":0.25,"event":{"deltaTime":120,"channel":3,"type":"channel","noteNumber":48,"velocity":0,"subtype":"noteOff"},"track":4},0],[{"ticksToEvent":0,"beatsToEvent":0,"event":{"deltaTime":0,"channel":3,"type":"channel","noteNumber":52,"velocity":49,"subtype":"noteOn"},"track":4},0],[{"ticksToEvent":116,"beatsToEvent":0.24166666666666667,"event":{"deltaTime":116,"channel":3,"type":"channel","noteNumber":52,"velocity":0,"subtype":"noteOff"},"track":4},0],[{"ticksToEvent":4,"beatsToEvent":0.008333333333333333,"event":{"deltaTime":240,"channel":0,"type":"channel","noteNumber":81,"velocity":0,"subtype":"noteOff"},"track":1},0],[{"ticksToEvent":0,"beatsToEvent":0,"event":{"deltaTime":0,"channel":0,"type":"channel","noteNumber":69,"velocity":117,"subtype":"noteOn"},"track":1},0],[{"ticksToEvent":0,"beatsToEvent":0,"event":{"deltaTime":4,"channel":3,"type":"channel","noteNumber":50,"velocity":111,"subtype":"noteOn"},"track":4},0],[{"ticksToEvent":116,"beatsToEvent":0.24166666666666667,"event":{"deltaTime":116,"channel":3,"type":"channel","noteNumber":50,"velocity":0,"subtype":"noteOff"},"track":4},0],[{"ticksToEvent":4,"beatsToEvent":0.008333333333333333,"event":{"deltaTime":4,"channel":3,"type":"channel","noteNumber":48,"velocity":98,"subtype":"noteOn"},"track":4},0],[{"ticksToEvent":116,"beatsToEvent":0.24166666666666667,"event":{"deltaTime":116,"channel":3,"type":"channel","noteNumber":48,"velocity":0,"subtype":"noteOff"},"track":4},0],[{"ticksToEvent":4,"beatsToEvent":0.008333333333333333,"event":{"deltaTime":240,"channel":0,"type":"channel","noteNumber":69,"velocity":0,"subtype":"noteOff"},"track":1},0],[{"ticksToEvent":0,"beatsToEvent":0,"event":{"deltaTime":4,"channel":3,"type":"channel","noteNumber":47,"velocity":104,"subtype":"noteOn"},"track":4},0],[{"ticksToEvent":116,"beatsToEvent":0.24166666666666667,"event":{"deltaTime":116,"channel":3,"type":"channel","noteNumber":47,"velocity":0,"subtype":"noteOff"},"track":4},0],[{"ticksToEvent":4,"beatsToEvent":0.008333333333333333,"event":{"deltaTime":4,"channel":3,"type":"channel","noteNumber":50,"velocity":86,"subtype":"noteOn"},"track":4},0],[{"ticksToEvent":116,"beatsToEvent":0.24166666666666667,"event":{"deltaTime":116,"channel":3,"type":"channel","noteNumber":50,"velocity":0,"subtype":"noteOff"},"track":4},0],[{"ticksToEvent":4,"beatsToEvent":0.008333333333333333,"event":{"deltaTime":240,"channel":0,"type":"channel","noteNumber":74,"velocity":117,"subtype":"noteOn"},"track":1},0],[{"ticksToEvent":0,"beatsToEvent":0,"event":{"deltaTime":4,"channel":3,"type":"channel","noteNumber":55,"velocity":95,"subtype":"noteOn"},"track":4},0],[{"ticksToEvent":116,"beatsToEvent":0.24166666666666667,"event":{"deltaTime":116,"channel":3,"type":"channel","noteNumber":55,"velocity":0,"subtype":"noteOff"},"track":4},0],[{"ticksToEvent":4,"beatsToEvent":0.008333333333333333,"event":{"deltaTime":4,"channel":3,"type":"channel","noteNumber":59,"velocity":102,"subtype":"noteOn"},"track":4},0],[{"ticksToEvent":116,"beatsToEvent":0.24166666666666667,"event":{"deltaTime":116,"channel":3,"type":"channel","noteNumber":59,"velocity":0,"subtype":"noteOff"},"track":4},0],[{"ticksToEvent":4,"beatsToEvent":0.008333333333333333,"event":{"deltaTime":240,"channel":0,"type":"channel","noteNumber":74,"velocity":0,"subtype":"noteOff"},"track":1},0],[{"ticksToEvent":0,"beatsToEvent":0,"event":{"deltaTime":0,"channel":0,"type":"channel","noteNumber":71,"velocity":117,"subtype":"noteOn"},"track":1},0],[{"ticksToEvent":0,"beatsToEvent":0,"event":{"deltaTime":4,"channel":3,"type":"channel","noteNumber":62,"velocity":107,"subtype":"noteOn"},"track":4},0],[{"ticksToEvent":116,"beatsToEvent":0.24166666666666667,"event":{"deltaTime":116,"channel":3,"type":"channel","noteNumber":62,"velocity":0,"subtype":"noteOff"},"track":4},0],[{"ticksToEvent":4,"beatsToEvent":0.008333333333333333,"event":{"deltaTime":4,"channel":3,"type":"channel","noteNumber":59,"velocity":113,"subtype":"noteOn"},"track":4},0],[{"ticksToEvent":116,"beatsToEvent":0.24166666666666667,"event":{"deltaTime":116,"channel":3,"type":"channel","noteNumber":59,"velocity":0,"subtype":"noteOff"},"track":4},0],[{"ticksToEvent":4,"beatsToEvent":0.008333333333333333,"event":{"deltaTime":240,"channel":0,"type":"channel","noteNumber":71,"velocity":0,"subtype":"noteOff"},"track":1},0],[{"ticksToEvent":0,"beatsToEvent":0,"event":{"deltaTime":0,"channel":0,"type":"channel","noteNumber":74,"velocity":117,"subtype":"noteOn"},"track":1},0],[{"ticksToEvent":0,"beatsToEvent":0,"event":{"deltaTime":4,"channel":3,"type":"channel","noteNumber":55,"velocity":98,"subtype":"noteOn"},"track":4},0],[{"ticksToEvent":116,"beatsToEvent":0.24166666666666667,"event":{"deltaTime":116,"channel":3,"type":"channel","noteNumber":55,"velocity":0,"subtype":"noteOff"},"track":4},0],[{"ticksToEvent":4,"beatsToEvent":0.008333333333333333,"event":{"deltaTime":4,"channel":3,"type":"channel","noteNumber":50,"velocity":101,"subtype":"noteOn"},"track":4},0],[{"ticksToEvent":116,"beatsToEvent":0.24166666666666667,"event":{"deltaTime":116,"channel":3,"type":"channel","noteNumber":50,"velocity":0,"subtype":"noteOff"},"track":4},0],[{"ticksToEvent":4,"beatsToEvent":0.008333333333333333,"event":{"deltaTime":240,"channel":0,"type":"channel","noteNumber":74,"velocity":0,"subtype":"noteOff"},"track":1},0],[{"ticksToEvent":0,"beatsToEvent":0,"event":{"deltaTime":0,"channel":0,"type":"channel","noteNumber":79,"velocity":117,"subtype":"noteOn"},"track":1},0],[{"ticksToEvent":0,"beatsToEvent":0,"event":{"deltaTime":4,"channel":3,"type":"channel","noteNumber":47,"velocity":106,"subtype":"noteOn"},"track":4},0],[{"ticksToEvent":116,"beatsToEvent":0.24166666666666667,"event":{"deltaTime":116,"channel":3,"type":"channel","noteNumber":47,"velocity":0,"subtype":"noteOff"},"track":4},0],[{"ticksToEvent":4,"beatsToEvent":0.008333333333333333,"event":{"deltaTime":4,"channel":3,"type":"channel","noteNumber":50,"velocity":96,"subtype":"noteOn"},"track":4},0],[{"ticksToEvent":116,"beatsToEvent":0.24166666666666667,"event":{"deltaTime":116,"channel":3,"type":"channel","noteNumber":50,"velocity":0,"subtype":"noteOff"},"track":4},0],[{"ticksToEvent":4,"beatsToEvent":0.008333333333333333,"event":{"deltaTime":240,"channel":0,"type":"channel","noteNumber":79,"velocity":0,"subtype":"noteOff"},"track":1},0],[{"ticksToEvent":0,"beatsToEvent":0,"event":{"deltaTime":0,"channel":0,"type":"channel","noteNumber":67,"velocity":117,"subtype":"noteOn"},"track":1},0],[{"ticksToEvent":0,"beatsToEvent":0,"event":{"deltaTime":4,"channel":3,"type":"channel","noteNumber":48,"velocity":96,"subtype":"noteOn"},"track":4},0],[{"ticksToEvent":116,"beatsToEvent":0.24166666666666667,"event":{"deltaTime":116,"channel":3,"type":"channel","noteNumber":48,"velocity":0,"subtype":"noteOff"},"track":4},0],[{"ticksToEvent":4,"beatsToEvent":0.008333333333333333,"event":{"deltaTime":4,"channel":3,"type":"channel","noteNumber":47,"velocity":100,"subtype":"noteOn"},"track":4},0],[{"ticksToEvent":116,"beatsToEvent":0.24166666666666667,"event":{"deltaTime":116,"channel":3,"type":"channel","noteNumber":47,"velocity":0,"subtype":"noteOff"},"track":4},0],[{"ticksToEvent":4,"beatsToEvent":0.008333333333333333,"event":{"deltaTime":240,"channel":0,"type":"channel","noteNumber":67,"velocity":0,"subtype":"noteOff"},"track":1},0],[{"ticksToEvent":0,"beatsToEvent":0,"event":{"deltaTime":0,"channel":0,"type":"channel","noteNumber":72,"velocity":117,"subtype":"noteOn"},"track":1},0],[{"ticksToEvent":0,"beatsToEvent":0,"event":{"deltaTime":4,"channel":3,"type":"channel","noteNumber":45,"velocity":97,"subtype":"noteOn"},"track":4},0],[{"ticksToEvent":120,"beatsToEvent":0.25,"event":{"deltaTime":120,"channel":0,"type":"channel","noteNumber":72,"velocity":0,"subtype":"noteOff"},"track":1},0],[{"ticksToEvent":0,"beatsToEvent":0,"event":{"deltaTime":0,"channel":0,"type":"channel","noteNumber":69,"velocity":117,"subtype":"noteOn"},"track":1},0],[{"ticksToEvent":116,"beatsToEvent":0.24166666666666667,"event":{"deltaTime":236,"channel":3,"type":"channel","noteNumber":45,"velocity":0,"subtype":"noteOff"},"track":4},0],[{"ticksToEvent":4,"beatsToEvent":0.008333333333333333,"event":{"deltaTime":120,"channel":0,"type":"channel","noteNumber":69,"velocity":0,"subtype":"noteOff"},"track":1},0],[{"ticksToEvent":0,"beatsToEvent":0,"event":{"deltaTime":0,"channel":0,"type":"channel","noteNumber":64,"velocity":117,"subtype":"noteOn"},"track":1},0],[{"ticksToEvent":0,"beatsToEvent":0,"event":{"deltaTime":4,"channel":3,"type":"channel","noteNumber":48,"velocity":115,"subtype":"noteOn"},"track":4},0],[{"ticksToEvent":120,"beatsToEvent":0.25,"event":{"deltaTime":120,"channel":0,"type":"channel","noteNumber":64,"velocity":0,"subtype":"noteOff"},"track":1},0],[{"ticksToEvent":0,"beatsToEvent":0,"event":{"deltaTime":0,"channel":0,"type":"channel","noteNumber":60,"velocity":117,"subtype":"noteOn"},"track":1},0],[{"ticksToEvent":116,"beatsToEvent":0.24166666666666667,"event":{"deltaTime":236,"channel":3,"type":"channel","noteNumber":48,"velocity":0,"subtype":"noteOff"},"track":4},0],[{"ticksToEvent":4,"beatsToEvent":0.008333333333333333,"event":{"deltaTime":120,"channel":0,"type":"channel","noteNumber":60,"velocity":0,"subtype":"noteOff"},"track":1},0],[{"ticksToEvent":0,"beatsToEvent":0,"event":{"deltaTime":0,"channel":0,"type":"channel","noteNumber":57,"velocity":117,"subtype":"noteOn"},"track":1},0],[{"ticksToEvent":0,"beatsToEvent":0,"event":{"deltaTime":4,"channel":3,"type":"channel","noteNumber":52,"velocity":115,"subtype":"noteOn"},"track":4},0],[{"ticksToEvent":120,"beatsToEvent":0.25,"event":{"deltaTime":120,"channel":0,"type":"channel","noteNumber":57,"velocity":0,"subtype":"noteOff"},"track":1},0],[{"ticksToEvent":0,"beatsToEvent":0,"event":{"deltaTime":0,"channel":0,"type":"channel","noteNumber":60,"velocity":117,"subtype":"noteOn"},"track":1},0],[{"ticksToEvent":116,"beatsToEvent":0.24166666666666667,"event":{"deltaTime":236,"channel":3,"type":"channel","noteNumber":52,"velocity":0,"subtype":"noteOff"},"track":4},0],[{"ticksToEvent":4,"beatsToEvent":0.008333333333333333,"event":{"deltaTime":120,"channel":0,"type":"channel","noteNumber":60,"velocity":0,"subtype":"noteOff"},"track":1},0],[{"ticksToEvent":0,"beatsToEvent":0,"event":{"deltaTime":0,"channel":0,"type":"channel","noteNumber":64,"velocity":117,"subtype":"noteOn"},"track":1},0],[{"ticksToEvent":0,"beatsToEvent":0,"event":{"deltaTime":4,"channel":3,"type":"channel","noteNumber":55,"velocity":107,"subtype":"noteOn"},"track":4},0],[{"ticksToEvent":120,"beatsToEvent":0.25,"event":{"deltaTime":120,"channel":0,"type":"channel","noteNumber":64,"velocity":0,"subtype":"noteOff"},"track":1},0],[{"ticksToEvent":0,"beatsToEvent":0,"event":{"deltaTime":0,"channel":0,"type":"channel","noteNumber":69,"velocity":117,"subtype":"noteOn"},"track":1},0],[{"ticksToEvent":116,"beatsToEvent":0.24166666666666667,"event":{"deltaTime":236,"channel":3,"type":"channel","noteNumber":55,"velocity":0,"subtype":"noteOff"},"track":4},0],[{"ticksToEvent":4,"beatsToEvent":0.008333333333333333,"event":{"deltaTime":120,"channel":0,"type":"channel","noteNumber":69,"velocity":0,"subtype":"noteOff"},"track":1},0],[{"ticksToEvent":0,"beatsToEvent":0,"event":{"deltaTime":0,"channel":0,"type":"channel","noteNumber":72,"velocity":117,"subtype":"noteOn"},"track":1},0],[{"ticksToEvent":0,"beatsToEvent":0,"event":{"deltaTime":4,"channel":3,"type":"channel","noteNumber":54,"velocity":127,"subtype":"noteOn"},"track":4},0],[{"ticksToEvent":120,"beatsToEvent":0.25,"event":{"deltaTime":120,"channel":0,"type":"channel","noteNumber":72,"velocity":0,"subtype":"noteOff"},"track":1},0],[{"ticksToEvent":0,"beatsToEvent":0,"event":{"deltaTime":0,"channel":0,"type":"channel","noteNumber":69,"velocity":117,"subtype":"noteOn"},"track":1},0],[{"ticksToEvent":116,"beatsToEvent":0.24166666666666667,"event":{"deltaTime":236,"channel":3,"type":"channel","noteNumber":54,"velocity":0,"subtype":"noteOff"},"track":4},0],[{"ticksToEvent":4,"beatsToEvent":0.008333333333333333,"event":{"deltaTime":120,"channel":0,"type":"channel","noteNumber":69,"velocity":0,"subtype":"noteOff"},"track":1},0],[{"ticksToEvent":0,"beatsToEvent":0,"event":{"deltaTime":0,"channel":0,"type":"channel","noteNumber":72,"velocity":117,"subtype":"noteOn"},"track":1},0],[{"ticksToEvent":0,"beatsToEvent":0,"event":{"deltaTime":4,"channel":3,"type":"channel","noteNumber":52,"velocity":117,"subtype":"noteOn"},"track":4},0],[{"ticksToEvent":120,"beatsToEvent":0.25,"event":{"deltaTime":120,"channel":0,"type":"channel","noteNumber":72,"velocity":0,"subtype":"noteOff"},"track":1},0],[{"ticksToEvent":0,"beatsToEvent":0,"event":{"deltaTime":0,"channel":0,"type":"channel","noteNumber":76,"velocity":117,"subtype":"noteOn"},"track":1},0],[{"ticksToEvent":116,"beatsToEvent":0.24166666666666667,"event":{"deltaTime":236,"channel":3,"type":"channel","noteNumber":52,"velocity":0,"subtype":"noteOff"},"track":4},0],[{"ticksToEvent":4,"beatsToEvent":0.008333333333333333,"event":{"deltaTime":120,"channel":0,"type":"channel","noteNumber":76,"velocity":0,"subtype":"noteOff"},"track":1},0],[{"ticksToEvent":0,"beatsToEvent":0,"event":{"deltaTime":0,"channel":0,"type":"channel","noteNumber":78,"velocity":117,"subtype":"noteOn"},"track":1},0],[{"ticksToEvent":0,"beatsToEvent":0,"event":{"deltaTime":4,"channel":3,"type":"channel","noteNumber":50,"velocity":119,"subtype":"noteOn"},"track":4},0],[{"ticksToEvent":120,"beatsToEvent":0.25,"event":{"deltaTime":120,"channel":0,"type":"channel","noteNumber":78,"velocity":0,"subtype":"noteOff"},"track":1},0],[{"ticksToEvent":0,"beatsToEvent":0,"event":{"deltaTime":0,"channel":0,"type":"channel","noteNumber":72,"velocity":117,"subtype":"noteOn"},"track":1},0],[{"ticksToEvent":116,"beatsToEvent":0.24166666666666667,"event":{"deltaTime":236,"channel":3,"type":"channel","noteNumber":50,"velocity":0,"subtype":"noteOff"},"track":4},0],[{"ticksToEvent":4,"beatsToEvent":0.008333333333333333,"event":{"deltaTime":120,"channel":0,"type":"channel","noteNumber":72,"velocity":0,"subtype":"noteOff"},"track":1},0],[{"ticksToEvent":0,"beatsToEvent":0,"event":{"deltaTime":0,"channel":0,"type":"channel","noteNumber":69,"velocity":117,"subtype":"noteOn"},"track":1},0],[{"ticksToEvent":0,"beatsToEvent":0,"event":{"deltaTime":4,"channel":3,"type":"channel","noteNumber":54,"velocity":121,"subtype":"noteOn"},"track":4},0],[{"ticksToEvent":120,"beatsToEvent":0.25,"event":{"deltaTime":120,"channel":0,"type":"channel","noteNumber":69,"velocity":0,"subtype":"noteOff"},"track":1},0],[{"ticksToEvent":0,"beatsToEvent":0,"event":{"deltaTime":0,"channel":0,"type":"channel","noteNumber":66,"velocity":117,"subtype":"noteOn"},"track":1},0],[{"ticksToEvent":116,"beatsToEvent":0.24166666666666667,"event":{"deltaTime":236,"channel":3,"type":"channel","noteNumber":54,"velocity":0,"subtype":"noteOff"},"track":4},0],[{"ticksToEvent":4,"beatsToEvent":0.008333333333333333,"event":{"deltaTime":120,"channel":0,"type":"channel","noteNumber":66,"velocity":0,"subtype":"noteOff"},"track":1},0],[{"ticksToEvent":0,"beatsToEvent":0,"event":{"deltaTime":0,"channel":0,"type":"channel","noteNumber":62,"velocity":117,"subtype":"noteOn"},"track":1},0],[{"ticksToEvent":0,"beatsToEvent":0,"event":{"deltaTime":4,"channel":3,"type":"channel","noteNumber":57,"velocity":123,"subtype":"noteOn"},"track":4},0],[{"ticksToEvent":120,"beatsToEvent":0.25,"event":{"deltaTime":120,"channel":0,"type":"channel","noteNumber":62,"velocity":0,"subtype":"noteOff"},"track":1},0],[{"ticksToEvent":0,"beatsToEvent":0,"event":{"deltaTime":0,"channel":0,"type":"channel","noteNumber":66,"velocity":117,"subtype":"noteOn"},"track":1},0],[{"ticksToEvent":116,"beatsToEvent":0.24166666666666667,"event":{"deltaTime":236,"channel":3,"type":"channel","noteNumber":57,"velocity":0,"subtype":"noteOff"},"track":4},0],[{"ticksToEvent":4,"beatsToEvent":0.008333333333333333,"event":{"deltaTime":120,"channel":0,"type":"channel","noteNumber":66,"velocity":0,"subtype":"noteOff"},"track":1},0],[{"ticksToEvent":0,"beatsToEvent":0,"event":{"deltaTime":0,"channel":0,"type":"channel","noteNumber":69,"velocity":117,"subtype":"noteOn"},"track":1},0],[{"ticksToEvent":0,"beatsToEvent":0,"event":{"deltaTime":4,"channel":3,"type":"channel","noteNumber":60,"velocity":98,"subtype":"noteOn"},"track":4},0],[{"ticksToEvent":120,"beatsToEvent":0.25,"event":{"deltaTime":120,"channel":0,"type":"channel","noteNumber":69,"velocity":0,"subtype":"noteOff"},"track":1},0],[{"ticksToEvent":0,"beatsToEvent":0,"event":{"deltaTime":0,"channel":0,"type":"channel","noteNumber":72,"velocity":117,"subtype":"noteOn"},"track":1},0],[{"ticksToEvent":116,"beatsToEvent":0.24166666666666667,"event":{"deltaTime":236,"channel":3,"type":"channel","noteNumber":60,"velocity":0,"subtype":"noteOff"},"track":4},0],[{"ticksToEvent":4,"beatsToEvent":0.008333333333333333,"event":{"deltaTime":120,"channel":0,"type":"channel","noteNumber":72,"velocity":0,"subtype":"noteOff"},"track":1},0],[{"ticksToEvent":0,"beatsToEvent":0,"event":{"deltaTime":0,"channel":0,"type":"channel","noteNumber":78,"velocity":117,"subtype":"noteOn"},"track":1},0],[{"ticksToEvent":0,"beatsToEvent":0,"event":{"deltaTime":4,"channel":3,"type":"channel","noteNumber":59,"velocity":106,"subtype":"noteOn"},"track":4},0],[{"ticksToEvent":120,"beatsToEvent":0.25,"event":{"deltaTime":120,"channel":0,"type":"channel","noteNumber":78,"velocity":0,"subtype":"noteOff"},"track":1},0],[{"ticksToEvent":0,"beatsToEvent":0,"event":{"deltaTime":0,"channel":0,"type":"channel","noteNumber":72,"velocity":117,"subtype":"noteOn"},"track":1},0],[{"ticksToEvent":116,"beatsToEvent":0.24166666666666667,"event":{"deltaTime":236,"channel":3,"type":"channel","noteNumber":59,"velocity":0,"subtype":"noteOff"},"track":4},0],[{"ticksToEvent":4,"beatsToEvent":0.008333333333333333,"event":{"deltaTime":120,"channel":0,"type":"channel","noteNumber":72,"velocity":0,"subtype":"noteOff"},"track":1},0],[{"ticksToEvent":0,"beatsToEvent":0,"event":{"deltaTime":0,"channel":0,"type":"channel","noteNumber":78,"velocity":117,"subtype":"noteOn"},"track":1},0],[{"ticksToEvent":0,"beatsToEvent":0,"event":{"deltaTime":4,"channel":3,"type":"channel","noteNumber":57,"velocity":119,"subtype":"noteOn"},"track":4},0],[{"ticksToEvent":120,"beatsToEvent":0.25,"event":{"deltaTime":120,"channel":0,"type":"channel","noteNumber":78,"velocity":0,"subtype":"noteOff"},"track":1},0],[{"ticksToEvent":0,"beatsToEvent":0,"event":{"deltaTime":0,"channel":0,"type":"channel","noteNumber":81,"velocity":117,"subtype":"noteOn"},"track":1},0],[{"ticksToEvent":116,"beatsToEvent":0.24166666666666667,"event":{"deltaTime":236,"channel":3,"type":"channel","noteNumber":57,"velocity":0,"subtype":"noteOff"},"track":4},0],[{"ticksToEvent":4,"beatsToEvent":0.008333333333333333,"event":{"deltaTime":120,"channel":0,"type":"channel","noteNumber":81,"velocity":0,"subtype":"noteOff"},"track":1},0],[{"ticksToEvent":0,"beatsToEvent":0,"event":{"deltaTime":0,"channel":0,"type":"channel","noteNumber":83,"velocity":117,"subtype":"noteOn"},"track":1},0],[{"ticksToEvent":0,"beatsToEvent":0,"event":{"deltaTime":4,"channel":3,"type":"channel","noteNumber":55,"velocity":117,"subtype":"noteOn"},"track":4},0],[{"ticksToEvent":120,"beatsToEvent":0.25,"event":{"deltaTime":120,"channel":0,"type":"channel","noteNumber":83,"velocity":0,"subtype":"noteOff"},"track":1},0],[{"ticksToEvent":0,"beatsToEvent":0,"event":{"deltaTime":0,"channel":0,"type":"channel","noteNumber":79,"velocity":117,"subtype":"noteOn"},"track":1},0],[{"ticksToEvent":116,"beatsToEvent":0.24166666666666667,"event":{"deltaTime":236,"channel":3,"type":"channel","noteNumber":55,"velocity":0,"subtype":"noteOff"},"track":4},0],[{"ticksToEvent":4,"beatsToEvent":0.008333333333333333,"event":{"deltaTime":120,"channel":0,"type":"channel","noteNumber":79,"velocity":0,"subtype":"noteOff"},"track":1},0],[{"ticksToEvent":0,"beatsToEvent":0,"event":{"deltaTime":0,"channel":0,"type":"channel","noteNumber":74,"velocity":117,"subtype":"noteOn"},"track":1},0],[{"ticksToEvent":0,"beatsToEvent":0,"event":{"deltaTime":4,"channel":3,"type":"channel","noteNumber":59,"velocity":121,"subtype":"noteOn"},"track":4},0],[{"ticksToEvent":120,"beatsToEvent":0.25,"event":{"deltaTime":120,"channel":0,"type":"channel","noteNumber":74,"velocity":0,"subtype":"noteOff"},"track":1},0],[{"ticksToEvent":0,"beatsToEvent":0,"event":{"deltaTime":0,"channel":0,"type":"channel","noteNumber":71,"velocity":117,"subtype":"noteOn"},"track":1},0],[{"ticksToEvent":116,"beatsToEvent":0.24166666666666667,"event":{"deltaTime":236,"channel":3,"type":"channel","noteNumber":59,"velocity":0,"subtype":"noteOff"},"track":4},0],[{"ticksToEvent":4,"beatsToEvent":0.008333333333333333,"event":{"deltaTime":120,"channel":0,"type":"channel","noteNumber":71,"velocity":0,"subtype":"noteOff"},"track":1},0],[{"ticksToEvent":0,"beatsToEvent":0,"event":{"deltaTime":0,"channel":0,"type":"channel","noteNumber":67,"velocity":117,"subtype":"noteOn"},"track":1},0],[{"ticksToEvent":0,"beatsToEvent":0,"event":{"deltaTime":4,"channel":3,"type":"channel","noteNumber":62,"velocity":113,"subtype":"noteOn"},"track":4},0],[{"ticksToEvent":120,"beatsToEvent":0.25,"event":{"deltaTime":120,"channel":0,"type":"channel","noteNumber":67,"velocity":0,"subtype":"noteOff"},"track":1},0],[{"ticksToEvent":0,"beatsToEvent":0,"event":{"deltaTime":0,"channel":0,"type":"channel","noteNumber":71,"velocity":117,"subtype":"noteOn"},"track":1},0],[{"ticksToEvent":116,"beatsToEvent":0.24166666666666667,"event":{"deltaTime":236,"channel":3,"type":"channel","noteNumber":62,"velocity":0,"subtype":"noteOff"},"track":4},0],[{"ticksToEvent":4,"beatsToEvent":0.008333333333333333,"event":{"deltaTime":120,"channel":0,"type":"channel","noteNumber":71,"velocity":0,"subtype":"noteOff"},"track":1},0],[{"ticksToEvent":0,"beatsToEvent":0,"event":{"deltaTime":0,"channel":0,"type":"channel","noteNumber":74,"velocity":117,"subtype":"noteOn"},"track":1},0],[{"ticksToEvent":0,"beatsToEvent":0,"event":{"deltaTime":4,"channel":3,"type":"channel","noteNumber":65,"velocity":121,"subtype":"noteOn"},"track":4},0],[{"ticksToEvent":120,"beatsToEvent":0.25,"event":{"deltaTime":120,"channel":0,"type":"channel","noteNumber":74,"velocity":0,"subtype":"noteOff"},"track":1},0],[{"ticksToEvent":0,"beatsToEvent":0,"event":{"deltaTime":0,"channel":0,"type":"channel","noteNumber":79,"velocity":117,"subtype":"noteOn"},"track":1},0],[{"ticksToEvent":116,"beatsToEvent":0.24166666666666667,"event":{"deltaTime":236,"channel":3,"type":"channel","noteNumber":65,"velocity":0,"subtype":"noteOff"},"track":4},0],[{"ticksToEvent":4,"beatsToEvent":0.008333333333333333,"event":{"deltaTime":120,"channel":0,"type":"channel","noteNumber":79,"velocity":0,"subtype":"noteOff"},"track":1},0],[{"ticksToEvent":0,"beatsToEvent":0,"event":{"deltaTime":0,"channel":0,"type":"channel","noteNumber":83,"velocity":117,"subtype":"noteOn"},"track":1},0],[{"ticksToEvent":0,"beatsToEvent":0,"event":{"deltaTime":4,"channel":3,"type":"channel","noteNumber":64,"velocity":119,"subtype":"noteOn"},"track":4},0],[{"ticksToEvent":120,"beatsToEvent":0.25,"event":{"deltaTime":120,"channel":0,"type":"channel","noteNumber":83,"velocity":0,"subtype":"noteOff"},"track":1},0],[{"ticksToEvent":0,"beatsToEvent":0,"event":{"deltaTime":0,"channel":0,"type":"channel","noteNumber":77,"velocity":117,"subtype":"noteOn"},"track":1},0],[{"ticksToEvent":116,"beatsToEvent":0.24166666666666667,"event":{"deltaTime":236,"channel":3,"type":"channel","noteNumber":64,"velocity":0,"subtype":"noteOff"},"track":4},0],[{"ticksToEvent":4,"beatsToEvent":0.008333333333333333,"event":{"deltaTime":120,"channel":0,"type":"channel","noteNumber":77,"velocity":0,"subtype":"noteOff"},"track":1},0],[{"ticksToEvent":0,"beatsToEvent":0,"event":{"deltaTime":0,"channel":0,"type":"channel","noteNumber":83,"velocity":117,"subtype":"noteOn"},"track":1},0],[{"ticksToEvent":0,"beatsToEvent":0,"event":{"deltaTime":4,"channel":3,"type":"channel","noteNumber":62,"velocity":121,"subtype":"noteOn"},"track":4},0],[{"ticksToEvent":120,"beatsToEvent":0.25,"event":{"deltaTime":120,"channel":0,"type":"channel","noteNumber":83,"velocity":0,"subtype":"noteOff"},"track":1},0],[{"ticksToEvent":0,"beatsToEvent":0,"event":{"deltaTime":0,"channel":0,"type":"channel","noteNumber":86,"velocity":117,"subtype":"noteOn"},"track":1},0],[{"ticksToEvent":116,"beatsToEvent":0.24166666666666667,"event":{"deltaTime":236,"channel":3,"type":"channel","noteNumber":62,"velocity":0,"subtype":"noteOff"},"track":4},0],[{"ticksToEvent":4,"beatsToEvent":0.008333333333333333,"event":{"deltaTime":120,"channel":0,"type":"channel","noteNumber":86,"velocity":0,"subtype":"noteOff"},"track":1},0],[{"ticksToEvent":0,"beatsToEvent":0,"event":{"deltaTime":0,"channel":0,"type":"channel","noteNumber":76,"velocity":117,"subtype":"noteOn"},"track":1},0],[{"ticksToEvent":0,"beatsToEvent":0,"event":{"deltaTime":4,"channel":3,"type":"channel","noteNumber":60,"velocity":119,"subtype":"noteOn"},"track":4},0],[{"ticksToEvent":120,"beatsToEvent":0.25,"event":{"deltaTime":120,"channel":0,"type":"channel","noteNumber":76,"velocity":0,"subtype":"noteOff"},"track":1},0],[{"ticksToEvent":0,"beatsToEvent":0,"event":{"deltaTime":0,"channel":0,"type":"channel","noteNumber":86,"velocity":117,"subtype":"noteOn"},"track":1},0],[{"ticksToEvent":120,"beatsToEvent":0.25,"event":{"deltaTime":120,"channel":0,"type":"channel","noteNumber":86,"velocity":0,"subtype":"noteOff"},"track":1},0],[{"ticksToEvent":0,"beatsToEvent":0,"event":{"deltaTime":0,"channel":0,"type":"channel","noteNumber":84,"velocity":117,"subtype":"noteOn"},"track":1},0],[{"ticksToEvent":0,"beatsToEvent":0,"event":{"deltaTime":240,"channel":3,"type":"channel","noteNumber":60,"velocity":0,"subtype":"noteOff"},"track":4},0],[{"ticksToEvent":0,"beatsToEvent":0,"event":{"deltaTime":0,"channel":3,"type":"channel","noteNumber":64,"velocity":113,"subtype":"noteOn"},"track":4},0],[{"ticksToEvent":120,"beatsToEvent":0.25,"event":{"deltaTime":120,"channel":0,"type":"channel","noteNumber":84,"velocity":0,"subtype":"noteOff"},"track":1},0],[{"ticksToEvent":0,"beatsToEvent":0,"event":{"deltaTime":0,"channel":0,"type":"channel","noteNumber":76,"velocity":117,"subtype":"noteOn"},"track":1},0],[{"ticksToEvent":120,"beatsToEvent":0.25,"event":{"deltaTime":120,"channel":0,"type":"channel","noteNumber":76,"velocity":0,"subtype":"noteOff"},"track":1},0],[{"ticksToEvent":0,"beatsToEvent":0,"event":{"deltaTime":0,"channel":0,"type":"channel","noteNumber":74,"velocity":117,"subtype":"noteOn"},"track":1},0],[{"ticksToEvent":0,"beatsToEvent":0,"event":{"deltaTime":240,"channel":3,"type":"channel","noteNumber":64,"velocity":0,"subtype":"noteOff"},"track":4},0],[{"ticksToEvent":0,"beatsToEvent":0,"event":{"deltaTime":0,"channel":3,"type":"channel","noteNumber":66,"velocity":115,"subtype":"noteOn"},"track":4},0],[{"ticksToEvent":120,"beatsToEvent":0.25,"event":{"deltaTime":120,"channel":0,"type":"channel","noteNumber":74,"velocity":0,"subtype":"noteOff"},"track":1},0],[{"ticksToEvent":0,"beatsToEvent":0,"event":{"deltaTime":0,"channel":0,"type":"channel","noteNumber":84,"velocity":117,"subtype":"noteOn"},"track":1},0],[{"ticksToEvent":120,"beatsToEvent":0.25,"event":{"deltaTime":120,"channel":0,"type":"channel","noteNumber":84,"velocity":0,"subtype":"noteOff"},"track":1},0],[{"ticksToEvent":0,"beatsToEvent":0,"event":{"deltaTime":0,"channel":0,"type":"channel","noteNumber":83,"velocity":117,"subtype":"noteOn"},"track":1},0],[{"ticksToEvent":0,"beatsToEvent":0,"event":{"deltaTime":240,"channel":3,"type":"channel","noteNumber":66,"velocity":0,"subtype":"noteOff"},"track":4},0],[{"ticksToEvent":0,"beatsToEvent":0,"event":{"deltaTime":0,"channel":3,"type":"channel","noteNumber":68,"velocity":101,"subtype":"noteOn"},"track":4},0],[{"ticksToEvent":120,"beatsToEvent":0.25,"event":{"deltaTime":120,"channel":0,"type":"channel","noteNumber":83,"velocity":0,"subtype":"noteOff"},"track":1},0],[{"ticksToEvent":0,"beatsToEvent":0,"event":{"deltaTime":0,"channel":0,"type":"channel","noteNumber":74,"velocity":117,"subtype":"noteOn"},"track":1},0],[{"ticksToEvent":120,"beatsToEvent":0.25,"event":{"deltaTime":120,"channel":0,"type":"channel","noteNumber":74,"velocity":0,"subtype":"noteOff"},"track":1},0],[{"ticksToEvent":0,"beatsToEvent":0,"event":{"deltaTime":0,"channel":0,"type":"channel","noteNumber":72,"velocity":117,"subtype":"noteOn"},"track":1},0],[{"ticksToEvent":0,"beatsToEvent":0,"event":{"deltaTime":240,"channel":3,"type":"channel","noteNumber":68,"velocity":0,"subtype":"noteOff"},"track":4},0],[{"ticksToEvent":0,"beatsToEvent":0,"event":{"deltaTime":0,"channel":3,"type":"channel","noteNumber":69,"velocity":110,"subtype":"noteOn"},"track":4},0],[{"ticksToEvent":120,"beatsToEvent":0.25,"event":{"deltaTime":120,"channel":0,"type":"channel","noteNumber":72,"velocity":0,"subtype":"noteOff"},"track":1},0],[{"ticksToEvent":0,"beatsToEvent":0,"event":{"deltaTime":0,"channel":0,"type":"channel","noteNumber":76,"velocity":117,"subtype":"noteOn"},"track":1},0],[{"ticksToEvent":120,"beatsToEvent":0.25,"event":{"deltaTime":120,"channel":0,"type":"channel","noteNumber":76,"velocity":0,"subtype":"noteOff"},"track":1},0],[{"ticksToEvent":0,"beatsToEvent":0,"event":{"deltaTime":0,"channel":0,"type":"channel","noteNumber":78,"velocity":117,"subtype":"noteOn"},"track":1},0],[{"ticksToEvent":0,"beatsToEvent":0,"event":{"deltaTime":240,"channel":3,"type":"channel","noteNumber":69,"velocity":0,"subtype":"noteOff"},"track":4},0],[{"ticksToEvent":0,"beatsToEvent":0,"event":{"deltaTime":0,"channel":3,"type":"channel","noteNumber":67,"velocity":109,"subtype":"noteOn"},"track":4},0],[{"ticksToEvent":120,"beatsToEvent":0.25,"event":{"deltaTime":120,"channel":0,"type":"channel","noteNumber":78,"velocity":0,"subtype":"noteOff"},"track":1},0],[{"ticksToEvent":0,"beatsToEvent":0,"event":{"deltaTime":0,"channel":0,"type":"channel","noteNumber":79,"velocity":117,"subtype":"noteOn"},"track":1},0],[{"ticksToEvent":116,"beatsToEvent":0.24166666666666667,"event":{"deltaTime":236,"channel":3,"type":"channel","noteNumber":67,"velocity":0,"subtype":"noteOff"},"track":4},0],[{"ticksToEvent":4,"beatsToEvent":0.008333333333333333,"event":{"deltaTime":120,"channel":0,"type":"channel","noteNumber":79,"velocity":0,"subtype":"noteOff"},"track":1},0],[{"ticksToEvent":0,"beatsToEvent":0,"event":{"deltaTime":0,"channel":0,"type":"channel","noteNumber":81,"velocity":117,"subtype":"noteOn"},"track":1},0],[{"ticksToEvent":0,"beatsToEvent":0,"event":{"deltaTime":4,"channel":3,"type":"channel","noteNumber":66,"velocity":123,"subtype":"noteOn"},"track":4},0],[{"ticksToEvent":120,"beatsToEvent":0.25,"event":{"deltaTime":120,"channel":0,"type":"channel","noteNumber":81,"velocity":0,"subtype":"noteOff"},"track":1},0],[{"ticksToEvent":0,"beatsToEvent":0,"event":{"deltaTime":0,"channel":0,"type":"channel","noteNumber":72,"velocity":117,"subtype":"noteOn"},"track":1},0],[{"ticksToEvent":116,"beatsToEvent":0.24166666666666667,"event":{"deltaTime":236,"channel":3,"type":"channel","noteNumber":66,"velocity":0,"subtype":"noteOff"},"track":4},0],[{"ticksToEvent":4,"beatsToEvent":0.008333333333333333,"event":{"deltaTime":120,"channel":0,"type":"channel","noteNumber":72,"velocity":0,"subtype":"noteOff"},"track":1},0],[{"ticksToEvent":0,"beatsToEvent":0,"event":{"deltaTime":0,"channel":0,"type":"channel","noteNumber":71,"velocity":117,"subtype":"noteOn"},"track":1},0],[{"ticksToEvent":0,"beatsToEvent":0,"event":{"deltaTime":4,"channel":3,"type":"channel","noteNumber":62,"velocity":102,"subtype":"noteOn"},"track":4},0],[{"ticksToEvent":120,"beatsToEvent":0.25,"event":{"deltaTime":120,"channel":0,"type":"channel","noteNumber":71,"velocity":0,"subtype":"noteOff"},"track":1},0],[{"ticksToEvent":0,"beatsToEvent":0,"event":{"deltaTime":0,"channel":0,"type":"channel","noteNumber":69,"velocity":117,"subtype":"noteOn"},"track":1},0],[{"ticksToEvent":120,"beatsToEvent":0.25,"event":{"deltaTime":120,"channel":0,"type":"channel","noteNumber":69,"velocity":0,"subtype":"noteOff"},"track":1},0],[{"ticksToEvent":0,"beatsToEvent":0,"event":{"deltaTime":0,"channel":0,"type":"channel","noteNumber":71,"velocity":117,"subtype":"noteOn"},"track":1},0],[{"ticksToEvent":0,"beatsToEvent":0,"event":{"deltaTime":240,"channel":3,"type":"channel","noteNumber":62,"velocity":0,"subtype":"noteOff"},"track":4},0],[{"ticksToEvent":0,"beatsToEvent":0,"event":{"deltaTime":0,"channel":3,"type":"channel","noteNumber":67,"velocity":107,"subtype":"noteOn"},"track":4},0],[{"ticksToEvent":120,"beatsToEvent":0.25,"event":{"deltaTime":120,"channel":0,"type":"channel","noteNumber":71,"velocity":0,"subtype":"noteOff"},"track":1},0],[{"ticksToEvent":0,"beatsToEvent":0,"event":{"deltaTime":0,"channel":0,"type":"channel","noteNumber":74,"velocity":117,"subtype":"noteOn"},"track":1},0],[{"ticksToEvent":120,"beatsToEvent":0.25,"event":{"deltaTime":120,"channel":0,"type":"channel","noteNumber":74,"velocity":0,"subtype":"noteOff"},"track":1},0],[{"ticksToEvent":0,"beatsToEvent":0,"event":{"deltaTime":0,"channel":0,"type":"channel","noteNumber":71,"velocity":117,"subtype":"noteOn"},"track":1},0],[{"ticksToEvent":0,"beatsToEvent":0,"event":{"deltaTime":240,"channel":3,"type":"channel","noteNumber":67,"velocity":0,"subtype":"noteOff"},"track":4},0],[{"ticksToEvent":0,"beatsToEvent":0,"event":{"deltaTime":0,"channel":3,"type":"channel","noteNumber":55,"velocity":109,"subtype":"noteOn"},"track":4},0],[{"ticksToEvent":120,"beatsToEvent":0.25,"event":{"deltaTime":120,"channel":0,"type":"channel","noteNumber":71,"velocity":0,"subtype":"noteOff"},"track":1},0],[{"ticksToEvent":0,"beatsToEvent":0,"event":{"deltaTime":0,"channel":0,"type":"channel","noteNumber":67,"velocity":117,"subtype":"noteOn"},"track":1},0],[{"ticksToEvent":120,"beatsToEvent":0.25,"event":{"deltaTime":120,"channel":0,"type":"channel","noteNumber":67,"velocity":0,"subtype":"noteOff"},"track":1},0],[{"ticksToEvent":0,"beatsToEvent":0,"event":{"deltaTime":0,"channel":0,"type":"channel","noteNumber":72,"velocity":117,"subtype":"noteOn"},"track":1},0],[{"ticksToEvent":0,"beatsToEvent":0,"event":{"deltaTime":240,"channel":3,"type":"channel","noteNumber":55,"velocity":0,"subtype":"noteOff"},"track":4},0],[{"ticksToEvent":0,"beatsToEvent":0,"event":{"deltaTime":0,"channel":3,"type":"channel","noteNumber":62,"velocity":113,"subtype":"noteOn"},"track":4},0],[{"ticksToEvent":120,"beatsToEvent":0.25,"event":{"deltaTime":120,"channel":0,"type":"channel","noteNumber":72,"velocity":0,"subtype":"noteOff"},"track":1},0],[{"ticksToEvent":0,"beatsToEvent":0,"event":{"deltaTime":0,"channel":0,"type":"channel","noteNumber":69,"velocity":117,"subtype":"noteOn"},"track":1},0],[{"ticksToEvent":120,"beatsToEvent":0.25,"event":{"deltaTime":120,"channel":0,"type":"channel","noteNumber":69,"velocity":0,"subtype":"noteOff"},"track":1},0],[{"ticksToEvent":0,"beatsToEvent":0,"event":{"deltaTime":0,"channel":0,"type":"channel","noteNumber":67,"velocity":117,"subtype":"noteOn"},"track":1},0],[{"ticksToEvent":0,"beatsToEvent":0,"event":{"deltaTime":240,"channel":3,"type":"channel","noteNumber":62,"velocity":0,"subtype":"noteOff"},"track":4},0],[{"ticksToEvent":0,"beatsToEvent":0,"event":{"deltaTime":0,"channel":3,"type":"channel","noteNumber":50,"velocity":111,"subtype":"noteOn"},"track":4},0],[{"ticksToEvent":120,"beatsToEvent":0.25,"event":{"deltaTime":120,"channel":0,"type":"channel","noteNumber":67,"velocity":0,"subtype":"noteOff"},"track":1},0],[{"ticksToEvent":0,"beatsToEvent":0,"event":{"deltaTime":0,"channel":0,"type":"channel","noteNumber":66,"velocity":117,"subtype":"noteOn"},"track":1},0],[{"ticksToEvent":120,"beatsToEvent":0.25,"event":{"deltaTime":120,"channel":0,"type":"channel","noteNumber":66,"velocity":0,"subtype":"noteOff"},"track":1},0],[{"ticksToEvent":0,"beatsToEvent":0,"event":{"deltaTime":0,"channel":0,"type":"channel","noteNumber":71,"velocity":117,"subtype":"noteOn"},"track":1},0],[{"ticksToEvent":0,"beatsToEvent":0,"event":{"deltaTime":240,"channel":3,"type":"channel","noteNumber":50,"velocity":0,"subtype":"noteOff"},"track":4},0],[{"ticksToEvent":0,"beatsToEvent":0,"event":{"deltaTime":0,"channel":3,"type":"channel","noteNumber":55,"velocity":117,"subtype":"noteOn"},"track":4},0],[{"ticksToEvent":116,"beatsToEvent":0.24166666666666667,"event":{"deltaTime":116,"channel":3,"type":"channel","noteNumber":55,"velocity":0,"subtype":"noteOff"},"track":4},0],[{"ticksToEvent":4,"beatsToEvent":0.008333333333333333,"event":{"deltaTime":120,"channel":0,"type":"channel","noteNumber":71,"velocity":0,"subtype":"noteOff"},"track":1},0],[{"ticksToEvent":0,"beatsToEvent":0,"event":{"deltaTime":0,"channel":0,"type":"channel","noteNumber":67,"velocity":117,"subtype":"noteOn"},"track":1},0],[{"ticksToEvent":0,"beatsToEvent":0,"event":{"deltaTime":4,"channel":3,"type":"channel","noteNumber":43,"velocity":107,"subtype":"noteOn"},"track":4},0],[{"ticksToEvent":116,"beatsToEvent":0.24166666666666667,"event":{"deltaTime":116,"channel":3,"type":"channel","noteNumber":43,"velocity":0,"subtype":"noteOff"},"track":4},0],[{"ticksToEvent":4,"beatsToEvent":0.008333333333333333,"event":{"deltaTime":120,"channel":0,"type":"channel","noteNumber":67,"velocity":0,"subtype":"noteOff"},"track":1},0],[{"ticksToEvent":0,"beatsToEvent":0,"event":{"deltaTime":0,"channel":0,"type":"channel","noteNumber":66,"velocity":117,"subtype":"noteOn"},"track":1},0],[{"ticksToEvent":0,"beatsToEvent":0,"event":{"deltaTime":4,"channel":3,"type":"channel","noteNumber":45,"velocity":115,"subtype":"noteOn"},"track":4},0],[{"ticksToEvent":116,"beatsToEvent":0.24166666666666667,"event":{"deltaTime":116,"channel":3,"type":"channel","noteNumber":45,"velocity":0,"subtype":"noteOff"},"track":4},0],[{"ticksToEvent":4,"beatsToEvent":0.008333333333333333,"event":{"deltaTime":120,"channel":0,"type":"channel","noteNumber":66,"velocity":0,"subtype":"noteOff"},"track":1},0],[{"ticksToEvent":0,"beatsToEvent":0,"event":{"deltaTime":0,"channel":0,"type":"channel","noteNumber":64,"velocity":117,"subtype":"noteOn"},"track":1},0],[{"ticksToEvent":0,"beatsToEvent":0,"event":{"deltaTime":4,"channel":3,"type":"channel","noteNumber":47,"velocity":111,"subtype":"noteOn"},"track":4},0],[{"ticksToEvent":116,"beatsToEvent":0.24166666666666667,"event":{"deltaTime":116,"channel":3,"type":"channel","noteNumber":47,"velocity":0,"subtype":"noteOff"},"track":4},0],[{"ticksToEvent":4,"beatsToEvent":0.008333333333333333,"event":{"deltaTime":120,"channel":0,"type":"channel","noteNumber":64,"velocity":0,"subtype":"noteOff"},"track":1},0],[{"ticksToEvent":0,"beatsToEvent":0,"event":{"deltaTime":0,"channel":0,"type":"channel","noteNumber":62,"velocity":117,"subtype":"noteOn"},"track":1},0],[{"ticksToEvent":0,"beatsToEvent":0,"event":{"deltaTime":4,"channel":3,"type":"channel","noteNumber":48,"velocity":107,"subtype":"noteOn"},"track":4},0],[{"ticksToEvent":116,"beatsToEvent":0.24166666666666667,"event":{"deltaTime":116,"channel":3,"type":"channel","noteNumber":48,"velocity":0,"subtype":"noteOff"},"track":4},0],[{"ticksToEvent":4,"beatsToEvent":0.008333333333333333,"event":{"deltaTime":120,"channel":0,"type":"channel","noteNumber":62,"velocity":0,"subtype":"noteOff"},"track":1},0],[{"ticksToEvent":0,"beatsToEvent":0,"event":{"deltaTime":0,"channel":0,"type":"channel","noteNumber":60,"velocity":117,"subtype":"noteOn"},"track":1},0],[{"ticksToEvent":0,"beatsToEvent":0,"event":{"deltaTime":4,"channel":3,"type":"channel","noteNumber":50,"velocity":109,"subtype":"noteOn"},"track":4},0],[{"ticksToEvent":116,"beatsToEvent":0.24166666666666667,"event":{"deltaTime":116,"channel":3,"type":"channel","noteNumber":50,"velocity":0,"subtype":"noteOff"},"track":4},0],[{"ticksToEvent":4,"beatsToEvent":0.008333333333333333,"event":{"deltaTime":120,"channel":0,"type":"channel","noteNumber":60,"velocity":0,"subtype":"noteOff"},"track":1},0],[{"ticksToEvent":0,"beatsToEvent":0,"event":{"deltaTime":0,"channel":0,"type":"channel","noteNumber":59,"velocity":117,"subtype":"noteOn"},"track":1},0],[{"ticksToEvent":0,"beatsToEvent":0,"event":{"deltaTime":4,"channel":3,"type":"channel","noteNumber":52,"velocity":115,"subtype":"noteOn"},"track":4},0],[{"ticksToEvent":116,"beatsToEvent":0.24166666666666667,"event":{"deltaTime":116,"channel":3,"type":"channel","noteNumber":52,"velocity":0,"subtype":"noteOff"},"track":4},0],[{"ticksToEvent":4,"beatsToEvent":0.008333333333333333,"event":{"deltaTime":120,"channel":0,"type":"channel","noteNumber":59,"velocity":0,"subtype":"noteOff"},"track":1},0],[{"ticksToEvent":0,"beatsToEvent":0,"event":{"deltaTime":0,"channel":0,"type":"channel","noteNumber":57,"velocity":117,"subtype":"noteOn"},"track":1},0],[{"ticksToEvent":0,"beatsToEvent":0,"event":{"deltaTime":4,"channel":3,"type":"channel","noteNumber":54,"velocity":112,"subtype":"noteOn"},"track":4},0],[{"ticksToEvent":116,"beatsToEvent":0.24166666666666667,"event":{"deltaTime":116,"channel":3,"type":"channel","noteNumber":54,"velocity":0,"subtype":"noteOff"},"track":4},0],[{"ticksToEvent":4,"beatsToEvent":0.008333333333333333,"event":{"deltaTime":120,"channel":0,"type":"channel","noteNumber":57,"velocity":0,"subtype":"noteOff"},"track":1},0],[{"ticksToEvent":0,"beatsToEvent":0,"event":{"deltaTime":0,"channel":0,"type":"channel","noteNumber":55,"velocity":117,"subtype":"noteOn"},"track":1},0],[{"ticksToEvent":0,"beatsToEvent":0,"event":{"deltaTime":4,"channel":3,"type":"channel","noteNumber":55,"velocity":117,"subtype":"noteOn"},"track":4},0],[{"ticksToEvent":20,"beatsToEvent":0.041666666666666664,"event":{"deltaTime":45616,"type":"meta","subtype":"setTempo","microsecondsPerBeat":4000000},"track":0},0],[{"ticksToEvent":460,"beatsToEvent":0.9583333333333334,"event":{"deltaTime":460,"type":"meta","subtype":"endOfTrack"},"track":0},0],[{"ticksToEvent":0,"beatsToEvent":0,"event":{"deltaTime":480,"channel":0,"type":"channel","noteNumber":55,"velocity":0,"subtype":"noteOff"},"track":1},0],[{"ticksToEvent":0,"beatsToEvent":0,"event":{"deltaTime":0,"type":"meta","subtype":"endOfTrack"},"track":1},0],[{"ticksToEvent":0,"beatsToEvent":0,"event":{"deltaTime":48960,"type":"meta","subtype":"endOfTrack"},"track":2},0],[{"ticksToEvent":0,"beatsToEvent":0,"event":{"deltaTime":46080,"type":"meta","subtype":"endOfTrack"},"track":3},0],[{"ticksToEvent":0,"beatsToEvent":0,"event":{"deltaTime":480,"channel":3,"type":"channel","noteNumber":55,"velocity":0,"subtype":"noteOff"},"track":4},0],[{"ticksToEvent":0,"beatsToEvent":0,"event":{"deltaTime":0,"type":"meta","subtype":"endOfTrack"},"track":4},0]];
});
